<svg width="644" height="42" viewBox="0 0 644 42" fill="none" xmlns="http://www.w3.org/2000/svg">
<path d="M19.2641 41.1345C14.9869 41.1345 10.2809 39.7589 5.146 37.0077C3.78709 36.2837 2.07176 35.3146 -4.4629e-06 34.1005L3.40838 28.2862L4.2939 29.0214C4.89538 29.5115 5.70849 30.1408 6.73324 30.9094C7.75798 31.6779 8.92753 32.491 10.2419 33.3487C11.5674 34.2064 12.9708 35.0195 14.4522 35.788C15.9337 36.5566 17.4262 37.1859 18.9299 37.676C20.4448 38.1661 21.8872 38.4112 23.2572 38.4112C23.5803 38.4112 23.9033 38.3944 24.2263 38.361C25.4738 37.9378 26.6099 37.3697 27.6347 36.6568C27.7683 36.4675 27.9243 36.2057 28.1025 35.8716C28.2919 35.5374 28.4534 35.142 28.587 34.6853C28.7318 34.2286 28.8042 33.733 28.8042 33.1983C28.8042 31.6501 28.0691 30.2076 26.5988 28.871C24.7944 27.2114 21.7424 25.8135 17.4429 24.6773C14.7585 23.9645 12.4863 23.1291 10.6262 22.1712C7.16207 20.389 4.71159 18.217 3.27472 15.6551C2.13859 13.6279 1.57053 11.4615 1.57053 9.15581C1.57053 8.29814 1.63179 7.53515 1.75431 6.86684C1.87684 6.19853 1.99936 5.67502 2.12188 5.29631L2.30567 4.72824C2.39478 4.49434 2.49503 4.266 2.60641 4.04323C3.5866 2.21651 5.28523 0.991269 7.70229 0.367511C8.83842 0.122464 9.95784 -5.99958e-05 11.0606 -5.99958e-05C11.9739 -5.99958e-05 12.8483 0.0444941 13.6837 0.133602L17.0085 0.467758L27.6681 2.07171L26.415 8.32042L25.2455 7.78577C24.4769 7.42934 23.4522 6.98937 22.1712 6.46586C20.9014 5.94234 19.4924 5.4244 17.9442 4.91203C16.407 4.38852 14.8477 3.94855 13.266 3.59212C11.6954 3.22454 10.2474 3.04076 8.92196 3.04076C7.28459 3.04076 6.03151 3.36378 5.1627 4.00981L4.79513 4.31055C4.23821 5.02342 3.95974 5.83653 3.95974 6.74989C3.95974 7.57414 4.16024 8.38725 4.56122 9.18923C5.44117 10.9491 7.06739 12.3526 9.4399 13.3996C10.6986 13.9565 11.9516 14.441 13.1992 14.8532L24.0759 18.6458C25.3123 19.0468 26.5932 19.5592 27.9187 20.183C29.2553 20.8067 30.4416 21.6644 31.4775 22.756C32.8809 24.3153 33.6606 26.2145 33.8166 28.4533L33.8333 29.0548C33.8333 30.9483 33.3487 32.7472 32.3797 34.4514C31.3772 36.1333 29.996 37.5312 28.2362 38.6451C25.652 40.3047 22.6613 41.1345 19.2641 41.1345ZM43.2732 41.1512H35.4372V0.267265H56.1382C57.6085 0.278403 59.0119 0.501174 60.3485 0.935576C62.4203 1.61503 64.2247 2.72331 65.7619 4.26043C67.2433 5.75299 68.3349 7.50731 69.0366 9.52338C69.5155 10.9157 69.755 12.3748 69.755 13.9008C69.755 16.2399 69.2148 18.3896 68.1344 20.35C67.0539 22.3104 65.6004 23.9144 63.7736 25.1619C61.9469 26.4094 59.8863 27.1668 57.5918 27.4341C57.1128 27.4898 56.6283 27.5177 56.1382 27.5177H43.2732V41.1512ZM55.9711 25.5127C56.4166 25.2566 56.8622 24.9447 57.3077 24.5771L57.692 24.2597C58.4383 23.5802 59.0955 22.8284 59.6635 22.0041C60.3875 20.9237 60.95 19.7318 61.351 18.4286C61.752 17.1143 61.9525 15.7275 61.9525 14.2684C61.9525 12.4862 61.6573 10.8322 61.067 9.30618L60.8164 8.67128C60.3708 7.6354 59.8362 6.72204 59.2124 5.93121C58.9228 5.56363 58.7112 5.30188 58.5775 5.14594C57.3746 3.83159 55.9934 2.87368 54.434 2.2722H43.2732V25.5127H55.9711ZM91.2245 41.1512C88.4845 41.1512 85.8725 40.6389 83.3886 39.6141C80.9158 38.5894 78.7048 37.1024 76.7556 35.1531C73.6925 32.0566 71.7934 28.3976 71.0582 24.1761C70.8577 23.04 70.7575 21.8816 70.7575 20.7009C70.7575 19.5202 70.8577 18.3562 71.0582 17.209C71.7934 12.9986 73.6925 9.3396 76.7556 6.23195C78.7048 4.29384 80.9158 2.81242 83.3886 1.78767C85.8725 0.751791 88.4845 0.233849 91.2245 0.233849C93.9535 0.233849 96.5543 0.751791 99.0271 1.78767C101.511 2.81242 103.728 4.29941 105.677 6.24865C107.626 8.18676 109.113 10.3978 110.138 12.8816C111.163 15.3544 111.675 17.9608 111.675 20.7009C111.675 23.4298 111.163 26.0362 110.138 28.5201C109.113 30.9929 107.626 33.2039 105.677 35.1531C103.728 37.1024 101.511 38.5894 99.0271 39.6141C96.5543 40.6389 93.9535 41.1512 91.2245 41.1512ZM91.2245 39.1463C93.5859 39.1017 95.7189 38.2608 97.6236 36.6234C99.5283 34.9861 101.049 32.7695 102.185 29.9737C103.332 27.1779 103.906 24.087 103.906 20.7009C103.906 17.3036 103.332 14.2127 102.185 11.4281C101.049 8.6323 99.5283 6.41573 97.6236 4.77837C95.7189 3.12987 93.5803 2.28334 91.2078 2.23878H91.0408C88.7017 2.32789 86.5909 3.1967 84.7085 4.8452C82.8261 6.4937 81.3224 8.7047 80.1974 11.4782C79.0724 14.2517 78.5099 17.3259 78.5099 20.7009C78.5099 24.0647 79.0724 27.139 80.1974 29.9236C81.3224 32.6971 82.8261 34.9081 84.7085 36.5566C86.5909 38.2051 88.7017 39.0683 91.0408 39.1463H91.2245ZM91.2245 23.4243L88.4845 20.7009L91.2245 17.9608L93.9479 20.7009L91.2245 23.4243ZM145.542 41.1345C144.205 41.1345 143.537 41.129 143.537 41.1178L115.2 11.5283V41.1345H113.195V0.200433H115.2L143.537 29.7899V0.200433H145.542V41.1345ZM166.56 41.1345C162.283 41.1345 157.577 39.7589 152.442 37.0077C151.083 36.2837 149.368 35.3146 147.296 34.1005L150.704 28.2862L151.59 29.0214C152.191 29.5115 153.004 30.1408 154.029 30.9094C155.054 31.6779 156.223 32.491 157.538 33.3487C158.863 34.2064 160.267 35.0195 161.748 35.788C163.23 36.5566 164.722 37.1859 166.226 37.676C167.741 38.1661 169.183 38.4112 170.553 38.4112C170.876 38.4112 171.199 38.3944 171.522 38.361C172.77 37.9378 173.906 37.3697 174.931 36.6568C175.064 36.4675 175.22 36.2057 175.398 35.8716C175.588 35.5374 175.749 35.142 175.883 34.6853C176.028 34.2286 176.1 33.733 176.1 33.1983C176.1 31.6501 175.365 30.2076 173.895 28.871C172.09 27.2114 169.038 25.8135 164.739 24.6773C162.054 23.9645 159.782 23.1291 157.922 22.1712C154.458 20.389 152.007 18.217 150.571 15.6551C149.434 13.6279 148.866 11.4615 148.866 9.15581C148.866 8.29814 148.928 7.53515 149.05 6.86684C149.173 6.19853 149.295 5.67502 149.418 5.29631L149.602 4.72824C149.691 4.49434 149.791 4.266 149.902 4.04323C150.882 2.21651 152.581 0.991269 154.998 0.367511C156.134 0.122464 157.254 -5.99958e-05 158.356 -5.99958e-05C159.27 -5.99958e-05 160.144 0.0444941 160.98 0.133602L164.304 0.467758L174.964 2.07171L173.711 8.32042L172.541 7.78577C171.773 7.42934 170.748 6.98937 169.467 6.46586C168.197 5.94234 166.788 5.4244 165.24 4.91203C163.703 4.38852 162.144 3.94855 160.562 3.59212C158.991 3.22454 157.543 3.04076 156.218 3.04076C154.58 3.04076 153.327 3.36378 152.459 4.00981L152.091 4.31055C151.534 5.02342 151.256 5.83653 151.256 6.74989C151.256 7.57414 151.456 8.38725 151.857 9.18923C152.737 10.9491 154.363 12.3526 156.736 13.3996C157.994 13.9565 159.248 14.441 160.495 14.8532L171.372 18.6458C172.608 19.0468 173.889 19.5592 175.215 20.183C176.551 20.8067 177.737 21.6644 178.773 22.756C180.177 24.3153 180.957 26.2145 181.112 28.4533L181.129 29.0548C181.129 30.9483 180.645 32.7472 179.676 34.4514C178.673 36.1333 177.292 37.5312 175.532 38.6451C172.948 40.3047 169.957 41.1345 166.56 41.1345ZM202.699 41.1512C199.959 41.1512 197.347 40.6389 194.863 39.6141C192.39 38.5894 190.179 37.1024 188.23 35.1531C185.167 32.0566 183.268 28.3976 182.533 24.1761C182.332 23.04 182.232 21.8816 182.232 20.7009C182.232 19.5202 182.332 18.3562 182.533 17.209C183.268 12.9986 185.167 9.3396 188.23 6.23195C190.179 4.29384 192.39 2.81242 194.863 1.78767C197.347 0.751791 199.959 0.233849 202.699 0.233849C205.428 0.233849 208.029 0.751791 210.501 1.78767C212.985 2.81242 215.202 4.29941 217.151 6.24865C219.1 8.18676 220.587 10.3978 221.612 12.8816C222.637 15.3544 223.149 17.9608 223.149 20.7009C223.149 23.4298 222.637 26.0362 221.612 28.5201C220.587 30.9929 219.1 33.2039 217.151 35.1531C215.202 37.1024 212.985 38.5894 210.501 39.6141C208.029 40.6389 205.428 41.1512 202.699 41.1512ZM202.699 39.1463C205.06 39.1017 207.193 38.2608 209.098 36.6234C211.003 34.9861 212.523 32.7695 213.659 29.9737C214.807 27.1779 215.38 24.087 215.38 20.7009C215.38 17.3036 214.807 14.2127 213.659 11.4281C212.523 8.6323 211.003 6.41573 209.098 4.77837C207.193 3.12987 205.055 2.28334 202.682 2.23878H202.515C200.176 2.32789 198.065 3.1967 196.183 4.8452C194.3 6.4937 192.797 8.7047 191.672 11.4782C190.547 14.2517 189.984 17.3259 189.984 20.7009C189.984 24.0647 190.547 27.139 191.672 29.9236C192.797 32.6971 194.3 34.9081 196.183 36.5566C198.065 38.2051 200.176 39.0683 202.515 39.1463H202.699ZM202.699 23.4243L199.959 20.7009L202.699 17.9608L205.422 20.7009L202.699 23.4243ZM260.257 41.1345H248.161L232.506 27.8017V41.1345H224.67V0.267265H245.371C246.83 0.267265 248.228 0.484466 249.564 0.918869L249.731 0.9857C251.759 1.67629 253.513 2.76786 254.994 4.26043C256.476 5.74185 257.567 7.49617 258.269 9.52338C258.748 10.9046 258.987 12.3581 258.987 13.8841C258.987 16.2232 258.447 18.3729 257.367 20.3333C256.286 22.2937 254.833 23.9032 253.006 25.1619C251.179 26.4094 249.113 27.1668 246.807 27.4341C246.34 27.4787 245.861 27.501 245.371 27.501H235.246L235.847 27.9855C236.237 28.3085 236.794 28.6816 237.518 29.1049C238.253 29.5282 239.133 29.918 240.158 30.2745C241.183 30.6198 242.335 30.8314 243.616 30.9094C243.861 30.9316 244.112 30.9428 244.368 30.9428C245.426 30.9428 246.551 30.7924 247.743 30.4917L260.257 41.1345ZM245.204 25.496C245.627 25.251 246.05 24.9558 246.473 24.6105L246.924 24.2429L247.359 23.842C248.84 22.3717 249.915 20.5617 250.583 18.4119C250.984 17.0976 251.185 15.7108 251.185 14.2517C251.185 12.592 250.923 11.0271 250.4 9.5568C249.965 8.32042 249.386 7.201 248.662 6.19853C248.395 5.83096 248.111 5.47453 247.81 5.12923C246.607 3.82602 245.226 2.87368 243.666 2.2722H232.506V25.496H245.204ZM278.469 41.1345C274.192 41.1345 269.486 39.7589 264.351 37.0077C262.992 36.2837 261.276 35.3146 259.205 34.1005L262.613 28.2862L263.499 29.0214C264.1 29.5115 264.913 30.1408 265.938 30.9094C266.963 31.6779 268.132 32.491 269.447 33.3487C270.772 34.2064 272.175 35.0195 273.657 35.788C275.138 36.5566 276.631 37.1859 278.135 37.676C279.649 38.1661 281.092 38.4112 282.462 38.4112C282.785 38.4112 283.108 38.3944 283.431 38.361C284.678 37.9378 285.815 37.3697 286.839 36.6568C286.973 36.4675 287.129 36.2057 287.307 35.8716C287.497 35.5374 287.658 35.142 287.792 34.6853C287.937 34.2286 288.009 33.733 288.009 33.1983C288.009 31.6501 287.274 30.2076 285.803 28.871C283.999 27.2114 280.947 25.8135 276.648 24.6773C273.963 23.9645 271.691 23.1291 269.831 22.1712C266.367 20.389 263.916 18.217 262.479 15.6551C261.343 13.6279 260.775 11.4615 260.775 9.15581C260.775 8.29814 260.836 7.53515 260.959 6.86684C261.082 6.19853 261.204 5.67502 261.327 5.29631L261.51 4.72824C261.599 4.49434 261.7 4.266 261.811 4.04323C262.791 2.21651 264.49 0.991269 266.907 0.367511C268.043 0.122464 269.163 -5.99958e-05 270.265 -5.99958e-05C271.179 -5.99958e-05 272.053 0.0444941 272.888 0.133602L276.213 0.467758L286.873 2.07171L285.62 8.32042L284.45 7.78577C283.682 7.42934 282.657 6.98937 281.376 6.46586C280.106 5.94234 278.697 5.4244 277.149 4.91203C275.612 4.38852 274.052 3.94855 272.471 3.59212C270.9 3.22454 269.452 3.04076 268.127 3.04076C266.489 3.04076 265.236 3.36378 264.367 4.00981L264 4.31055C263.443 5.02342 263.164 5.83653 263.164 6.74989C263.164 7.57414 263.365 8.38725 263.766 9.18923C264.646 10.9491 266.272 12.3526 268.645 13.3996C269.903 13.9565 271.156 14.441 272.404 14.8532L283.281 18.6458C284.517 19.0468 285.798 19.5592 287.123 20.183C288.46 20.8067 289.646 21.6644 290.682 22.756C292.086 24.3153 292.865 26.2145 293.021 28.4533L293.038 29.0548C293.038 30.9483 292.553 32.7472 291.584 34.4514C290.582 36.1333 289.201 37.5312 287.441 38.6451C284.857 40.3047 281.866 41.1345 278.469 41.1345ZM331.031 41.1345H323.196V19.7151L302.478 19.7318V41.1345H294.642V0.233849H302.478V17.7269L323.196 17.7102V0.233849H331.031V41.1345ZM340.371 41.1345H332.535V0.233849H340.371V41.1345ZM349.727 41.1512H341.892V0.267265H362.592C364.063 0.278403 365.466 0.501174 366.803 0.935576C368.875 1.61503 370.679 2.72331 372.216 4.26043C373.698 5.75299 374.789 7.50731 375.491 9.52338C375.97 10.9157 376.209 12.3748 376.209 13.9008C376.209 16.2399 375.669 18.3896 374.589 20.35C373.508 22.3104 372.055 23.9144 370.228 25.1619C368.401 26.4094 366.341 27.1668 364.046 27.4341C363.567 27.4898 363.083 27.5177 362.592 27.5177H349.727V41.1512ZM362.425 25.5127C362.871 25.2566 363.316 24.9447 363.762 24.5771L364.146 24.2597C364.893 23.5802 365.55 22.8284 366.118 22.0041C366.842 20.9237 367.404 19.7318 367.805 18.4286C368.206 17.1143 368.407 15.7275 368.407 14.2684C368.407 12.4862 368.112 10.8322 367.521 9.30618L367.271 8.67128C366.825 7.6354 366.29 6.72204 365.667 5.93121C365.377 5.56363 365.165 5.30188 365.032 5.14594C363.829 3.83159 362.448 2.87368 360.888 2.2722H349.727V25.5127H362.425ZM409.307 41.1512L386.067 41.1345V0.233849H406.617C408.433 0.233849 410.093 0.67939 411.596 1.57047C413.1 2.46155 414.298 3.65895 415.189 5.16265C416.091 6.66635 416.542 8.33156 416.542 10.1583C416.542 11.8847 416.141 13.4664 415.339 14.9033C414.537 16.3402 413.462 17.5153 412.114 18.4286C413.796 18.863 415.289 19.6149 416.592 20.6842C417.906 21.7535 418.942 23.0623 419.7 24.6105C420.468 26.1476 420.853 27.8184 420.853 29.6229C420.853 31.7392 420.329 33.6717 419.282 35.4205C418.246 37.1581 416.854 38.5504 415.105 39.5974C413.367 40.6333 411.435 41.1512 409.307 41.1512ZM406.968 18.0778C407.781 17.6545 408.511 17.1199 409.157 16.4738C409.97 15.6607 410.605 14.7139 411.062 13.6335C411.53 12.5531 411.763 11.3947 411.763 10.1583C411.763 8.44294 411.324 6.88912 410.444 5.4968C409.575 4.09335 408.416 3.00734 406.968 2.23878H393.903V18.0778H406.968ZM407.002 39.1463C408.116 38.6116 409.101 37.9155 409.959 37.0578C410.917 36.0999 411.669 34.9861 412.215 33.7163C412.772 32.4353 413.05 31.0709 413.05 29.6229C413.05 27.5177 412.493 25.6241 411.379 23.9422C410.277 22.2491 408.817 20.9626 407.002 20.0827H393.903V39.1463H407.002ZM422.356 41.1345V0.233849L453.416 0.217141V2.22208L430.192 2.23878V17.7269L447.819 17.7102V19.7151L430.192 19.7318V39.1129L453.416 39.0962V41.1011L422.356 41.1345ZM487.283 41.1345C485.946 41.1345 485.278 41.129 485.278 41.1178L456.941 11.5283V41.1345H454.936V0.200433H456.941L485.278 29.7899V0.200433H487.283V41.1345ZM488.786 41.1345V0.233849L519.846 0.217141V2.22208L496.622 2.23878V17.7269L514.249 17.7102V19.7151L496.622 19.7318V39.1129L519.846 39.0962V41.1011L488.786 41.1345ZM529.203 41.1345H521.367V0.233849L552.426 0.217141V2.22208L529.203 2.23878V17.7269L546.829 17.7102V19.7151L529.203 19.7318V41.1345ZM561.783 41.1345H553.947V0.233849H561.783V41.1345ZM591.155 41.1345H583.319V2.23878H563.303V0.233849L611.171 0.217141L611.188 2.22208L591.155 2.23878V41.1345ZM629.399 41.1345C625.122 41.1345 620.416 39.7589 615.281 37.0077C613.922 36.2837 612.207 35.3146 610.135 34.1005L613.544 28.2862L614.429 29.0214C615.031 29.5115 615.844 30.1408 616.868 30.9094C617.893 31.6779 619.063 32.491 620.377 33.3487C621.702 34.2064 623.106 35.0195 624.587 35.788C626.069 36.5566 627.561 37.1859 629.065 37.676C630.58 38.1661 632.022 38.4112 633.392 38.4112C633.715 38.4112 634.038 38.3944 634.361 38.361C635.609 37.9378 636.745 37.3697 637.77 36.6568C637.903 36.4675 638.059 36.2057 638.238 35.8716C638.427 35.5374 638.588 35.142 638.722 34.6853C638.867 34.2286 638.939 33.733 638.939 33.1983C638.939 31.6501 638.204 30.2076 636.734 28.871C634.929 27.2114 631.878 25.8135 627.578 24.6773C624.894 23.9645 622.621 23.1291 620.761 22.1712C617.297 20.389 614.847 18.217 613.41 15.6551C612.274 13.6279 611.706 11.4615 611.706 9.15581C611.706 8.29814 611.767 7.53515 611.889 6.86684C612.012 6.19853 612.134 5.67502 612.257 5.29631L612.441 4.72824C612.53 4.49434 612.63 4.266 612.742 4.04323C613.722 2.21651 615.42 0.991269 617.837 0.367511C618.974 0.122464 620.093 -5.99958e-05 621.196 -5.99958e-05C622.109 -5.99958e-05 622.983 0.0444941 623.819 0.133602L627.144 0.467758L637.803 2.07171L636.55 8.32042L635.381 7.78577C634.612 7.42934 633.587 6.98937 632.306 6.46586C631.037 5.94234 629.628 5.4244 628.079 4.91203C626.542 4.38852 624.983 3.94855 623.401 3.59212C621.831 3.22454 620.383 3.04076 619.057 3.04076C617.42 3.04076 616.167 3.36378 615.298 4.00981L614.93 4.31055C614.373 5.02342 614.095 5.83653 614.095 6.74989C614.095 7.57414 614.295 8.38725 614.696 9.18923C615.576 10.9491 617.203 12.3526 619.575 13.3996C620.834 13.9565 622.087 14.441 623.334 14.8532L634.211 18.6458C635.447 19.0468 636.728 19.5592 638.054 20.183C639.39 20.8067 640.577 21.6644 641.613 22.756C643.016 24.3153 643.796 26.2145 643.952 28.4533L643.968 29.0548C643.968 30.9483 643.484 32.7472 642.515 34.4514C641.512 36.1333 640.131 37.5312 638.371 38.6451C635.787 40.3047 632.796 41.1345 629.399 41.1345Z" fill="white"/>
</svg>
