<svg width="350" height="311" viewBox="0 0 350 311" fill="none" xmlns="http://www.w3.org/2000/svg">
<g filter="url(#filter0_d_235_34371)">
<g filter="url(#filter1_d_235_34371)">
<path d="M311.249 220.444C222.643 191.654 127.197 191.654 38.5895 220.444C31.3601 198.193 24.1294 175.942 16.9 153.692C119.603 120.321 230.234 120.321 332.937 153.692C325.709 175.943 318.478 198.194 311.249 220.444Z" fill="#2B62A7"/>
</g>
<g filter="url(#filter2_f_235_34371)">
<path d="M179.532 18.2954L291.761 66.4154C298.79 69.4293 302.995 76.7124 302.091 84.3064L287.651 205.559C287.092 210.248 284.635 214.504 280.853 217.332L183.065 290.465C176.941 295.045 168.531 295.045 162.406 290.465L64.6181 217.332C60.8362 214.504 58.3796 210.248 57.8209 205.559L43.3801 84.3064C42.4759 76.7124 46.6803 69.4293 53.7101 66.4154L165.939 18.2954C170.278 16.4347 175.192 16.4347 179.532 18.2954Z" fill="#2B62A7"/>
</g>
<path d="M179.533 18.2954L291.762 66.4154C298.79 69.4293 302.996 76.7124 302.092 84.3064L287.651 205.559C287.092 210.248 284.636 214.504 280.854 217.332L183.065 290.465C176.941 295.045 168.531 295.045 162.407 290.465L64.6186 217.332C60.8367 214.504 58.3801 210.248 57.8214 205.559L43.3806 84.3064C42.4764 76.7124 46.6808 69.4293 53.7106 66.4154L165.94 18.2954C170.279 16.4347 175.192 16.4347 179.533 18.2954Z" fill="white"/>
<path d="M179.019 28.6369L282.783 73.1278C289.282 75.9146 293.169 82.6485 292.334 89.6701L278.983 201.778C278.467 206.113 276.195 210.048 272.699 212.663L182.286 280.28C176.623 284.514 168.849 284.514 163.185 280.28L72.7724 212.663C69.2754 210.048 67.0047 206.113 66.4886 201.778L53.1377 89.6701C52.3009 82.6485 56.1888 75.9146 62.6887 73.1278L166.453 28.6369C170.464 26.9166 175.007 26.9166 179.019 28.6369Z" fill="#141211"/>
<path d="M177.833 52.5896L261.991 88.6744C267.262 90.9342 270.415 96.3965 269.736 102.091L258.908 193.016C258.49 196.533 256.647 199.723 253.812 201.844L180.482 256.684C175.889 260.119 169.584 260.119 164.99 256.684L91.6599 201.844C88.8235 199.723 86.9821 196.533 86.5637 193.016L75.7355 102.091C75.057 96.3965 78.21 90.9356 83.4809 88.6744L167.639 52.5896C170.894 51.1941 174.578 51.1941 177.833 52.5896Z" stroke="#2B62A7" stroke-width="8.2574" stroke-miterlimit="10"/>
<path opacity="0.5" d="M293.319 204.172C216.365 177.573 133.473 177.573 56.5198 204.172C50.2414 183.615 43.9616 163.057 37.6832 142.5C126.878 111.669 222.96 111.669 312.155 142.5C305.877 163.057 299.597 183.615 293.319 204.172Z" fill="black"/>
<path d="M300.875 195.237C219.011 168.638 130.829 168.638 48.9653 195.237C42.2865 174.68 35.6062 154.122 28.9274 133.565C123.815 102.735 226.027 102.735 320.915 133.565C314.234 154.122 307.554 174.679 300.875 195.237Z" fill="#2B62A7"/>
<path d="M61.6567 167.016L60.8156 167.234C58.932 167.722 57.2301 167.963 55.7098 167.959C54.2038 167.95 52.9846 167.775 52.0522 167.434C51.116 167.078 50.3048 166.582 49.6184 165.947C48.932 165.312 48.4331 164.689 48.1216 164.079C47.8101 163.469 47.5631 162.812 47.3805 162.108L47.2184 161.482C47.032 160.763 46.9216 160.071 46.887 159.405C46.8668 158.735 46.9971 157.965 47.2777 157.094C47.5547 156.209 48.0125 155.4 48.651 154.667C49.3002 153.915 50.2899 153.175 51.6202 152.447C52.9611 151.7 54.5877 151.079 56.5 150.584L57.3411 150.366C58.6783 150.019 59.9228 149.789 61.0746 149.674C62.2409 149.556 63.2332 149.537 64.0517 149.616C64.8845 149.692 65.6388 149.849 66.3146 150.088C67.001 150.309 67.5598 150.571 67.9912 150.873C68.4225 151.176 68.7966 151.524 69.1134 151.918C69.4409 152.293 69.6781 152.646 69.825 152.976C69.9864 153.302 70.1099 153.631 70.1956 153.962L70.2683 154.242L63.9059 155.891C62.9922 154.379 61.0185 154.016 57.9847 154.802C54.4045 155.73 52.9386 157.445 53.5871 159.947L53.6542 160.206C53.7772 160.68 53.9736 161.112 54.2436 161.503C54.5279 161.889 54.9111 162.243 55.393 162.563C55.8893 162.879 56.5357 163.065 57.3324 163.119C58.1434 163.17 59.0593 163.063 60.0802 162.798C60.9716 162.567 61.7347 162.285 62.3695 161.951C63.0006 161.604 63.4625 161.284 63.7554 160.994C64.0483 160.703 64.2707 160.377 64.4225 160.015C64.5743 159.654 64.655 159.403 64.6646 159.262C64.6741 159.121 64.68 158.966 64.6822 158.797L71.0229 157.154L71.1124 157.499C71.2391 157.988 71.2976 158.509 71.288 159.064C71.2747 159.605 71.1074 160.262 70.7863 161.036C70.4614 161.795 69.9741 162.52 69.3244 163.21C68.6853 163.882 67.7041 164.566 66.3808 165.262C65.0718 165.954 63.4971 166.539 61.6567 167.016Z" fill="white"/>
<path d="M90.2444 152.124L86.4048 147.07L84.846 153.193L90.2444 152.124ZM94.8248 158.167L93.038 155.795L83.7493 157.634L83.0227 160.503L76.7282 161.75L81.5521 143.897L89.9011 142.244L101.622 156.822L94.8248 158.167Z" fill="white"/>
<path d="M111.185 155.186L109.929 143.198L102.816 143.944L102.344 139.445L122.863 137.295L123.335 141.793L116.222 142.538L117.478 154.526L111.185 155.186Z" fill="white"/>
<path d="M130.059 136.281L148.321 134.63L148.686 138.669L136.637 139.758L136.824 141.821L148.629 140.754L148.992 144.77L137.187 145.838L137.391 148.101L149.618 146.996L149.991 151.123L131.551 152.79L130.059 136.281Z" fill="white"/>
<path d="M168.387 150.202L167.874 150.213C166.137 150.249 164.589 150.103 163.23 149.775C161.871 149.432 160.784 148.994 159.971 148.461C159.157 147.914 158.483 147.267 157.947 146.52C157.411 145.759 157.039 145.024 156.831 144.315C156.638 143.591 156.533 142.851 156.517 142.093L156.504 141.47C156.488 140.683 156.562 139.938 156.725 139.237C156.888 138.52 157.222 137.785 157.726 137.032C158.245 136.263 158.915 135.603 159.735 135.051C160.57 134.484 161.697 134.015 163.115 133.643C164.548 133.257 166.2 133.044 168.072 133.005L168.94 132.987C170.871 132.946 172.567 133.067 174.029 133.348C175.505 133.614 176.642 133.962 177.438 134.391C178.249 134.805 178.906 135.319 179.409 135.932C179.927 136.53 180.265 137.08 180.424 137.582C180.583 138.069 180.675 138.587 180.702 139.136L180.702 139.159L174.109 139.297C174.076 139.164 174.021 139.038 173.945 138.921C173.883 138.789 173.73 138.614 173.488 138.396C173.246 138.178 172.945 137.999 172.585 137.858C172.24 137.701 171.725 137.571 171.04 137.466C170.354 137.347 169.573 137.297 168.696 137.315C164.88 137.395 163 138.801 163.057 141.533L163.063 141.778C163.087 142.951 163.576 143.937 164.528 144.734C165.481 145.516 166.915 145.887 168.83 145.847C169.647 145.83 170.388 145.763 171.055 145.645C171.72 145.512 172.252 145.36 172.65 145.188C173.062 145.016 173.407 144.83 173.685 144.631C173.978 144.432 174.175 144.25 174.276 144.084C174.391 143.918 174.447 143.776 174.445 143.657L168.631 143.779L168.564 140.549L180.837 140.292L181.032 149.626L177.045 149.709C176.848 148.837 176.573 148.077 176.217 147.431C174.68 149.201 172.069 150.125 168.387 150.202Z" fill="white"/>
<path d="M199.313 133.693L200.314 133.731C201.784 133.785 203.116 133.939 204.31 134.192C205.52 134.43 206.527 134.728 207.332 135.085C208.151 135.427 208.856 135.848 209.447 136.345C210.053 136.829 210.526 137.314 210.864 137.803C211.203 138.291 211.466 138.821 211.652 139.393C211.854 139.965 211.976 140.483 212.018 140.945C212.075 141.408 212.094 141.892 212.075 142.396L212.051 143.064C212.032 143.569 211.977 144.05 211.885 144.507C211.809 144.965 211.648 145.479 211.404 146.05C211.175 146.606 210.874 147.123 210.499 147.599C210.14 148.061 209.64 148.518 208.999 148.97C208.358 149.422 207.623 149.796 206.794 150.092C205.966 150.388 204.939 150.61 203.715 150.757C202.505 150.92 201.158 150.974 199.673 150.919L198.672 150.881C197.187 150.826 195.84 150.672 194.631 150.419C193.436 150.181 192.429 149.883 191.61 149.526C190.806 149.169 190.101 148.741 189.495 148.243C188.889 147.745 188.417 147.251 188.079 146.763C187.756 146.26 187.493 145.723 187.292 145.151C187.105 144.564 186.984 144.039 186.927 143.576C186.885 143.114 186.873 142.631 186.892 142.126L186.917 141.458C186.935 140.953 186.983 140.472 187.06 140.014C187.151 139.557 187.311 139.05 187.54 138.494C187.784 137.938 188.085 137.429 188.444 136.967C188.818 136.505 189.325 136.056 189.966 135.619C190.607 135.167 191.341 134.801 192.169 134.519C193.013 134.224 194.039 134.002 195.249 133.854C196.474 133.691 197.828 133.638 199.313 133.693ZM205.512 142.62L205.524 142.308C205.542 141.818 205.47 141.362 205.307 140.94C205.145 140.503 204.856 140.076 204.441 139.659C204.04 139.243 203.429 138.9 202.606 138.632C201.784 138.363 200.794 138.208 199.636 138.164C198.449 138.12 197.435 138.201 196.595 138.408C195.755 138.614 195.12 138.91 194.689 139.295C194.259 139.681 193.946 140.085 193.752 140.509C193.573 140.918 193.475 141.368 193.456 141.858L193.447 142.125C193.428 142.615 193.5 143.086 193.661 143.538C193.823 143.975 194.104 144.416 194.504 144.862C194.904 145.293 195.515 145.651 196.337 145.934C197.173 146.218 198.171 146.381 199.328 146.425C200.486 146.468 201.485 146.386 202.325 146.18C203.18 145.959 203.824 145.648 204.255 145.248C204.686 144.848 204.999 144.436 205.193 144.012C205.387 143.574 205.494 143.109 205.512 142.62Z" fill="white"/>
<path d="M224.219 140.272L223.948 143.111L231.178 143.803C232.449 143.925 233.13 143.513 233.221 142.566L233.223 142.544C233.312 141.613 232.721 141.086 231.45 140.964L224.219 140.272ZM223.565 147.103L223.024 152.758L216.725 152.155L218.305 135.655L233.298 137.09C237.926 137.533 240.104 139.167 239.834 141.991L239.811 142.235C239.757 142.797 239.597 143.296 239.331 143.733C239.066 144.17 238.735 144.512 238.338 144.757C237.956 145.004 237.58 145.192 237.21 145.321C236.854 145.451 236.495 145.543 236.131 145.598C237.159 145.935 237.943 146.473 238.484 147.211C239.026 147.934 239.248 148.813 239.149 149.848L238.915 152.288C238.833 153.146 238.877 153.776 239.047 154.181L239.037 154.292L232.605 153.676C232.486 153.515 232.447 153.221 232.488 152.792L232.673 150.862C232.766 149.886 232.576 149.144 232.103 148.637C231.645 148.115 230.81 147.797 229.598 147.681L223.565 147.103Z" fill="white"/>
<path d="M251.952 157.473L252.907 151.308L245.528 139.704L253.014 140.863L256.915 147.262L262.658 142.357L269.505 143.417L259.153 152.32L258.205 158.441L251.952 157.473Z" fill="white"/>
<path d="M297.297 166.616L276.769 160.935L277.286 159.067C277.397 158.666 277.497 158.332 277.586 158.064C277.694 157.785 277.869 157.433 278.11 157.006C278.37 156.57 278.654 156.209 278.964 155.925C279.278 155.627 279.704 155.313 280.242 154.984C280.794 154.659 281.411 154.406 282.093 154.225C282.79 154.048 283.636 153.912 284.633 153.818C285.644 153.728 286.756 153.72 287.969 153.794C288.855 153.823 289.943 153.901 291.233 154.027C292.23 154.102 292.887 154.091 293.207 153.995C293.527 153.898 293.724 153.714 293.799 153.442C293.859 153.227 293.827 153.034 293.706 152.861C293.602 152.679 293.292 152.462 292.776 152.211C292.278 151.95 291.549 151.687 290.59 151.421C289.889 151.227 289.265 151.116 288.718 151.088C288.185 151.064 287.77 151.088 287.473 151.16C287.194 151.221 286.944 151.345 286.723 151.53C286.516 151.719 286.374 151.873 286.295 151.99C286.235 152.096 286.172 152.241 286.106 152.423L279.879 150.699L279.92 150.549C280.994 146.67 284.694 145.605 291.022 147.356L291.945 147.612C293.505 148.044 294.84 148.513 295.948 149.02C297.074 149.517 297.939 150.011 298.543 150.501C299.165 150.982 299.623 151.501 299.915 152.06C300.207 152.619 300.362 153.147 300.378 153.644C300.413 154.132 300.351 154.662 300.192 155.234L300.168 155.32C299.915 156.236 299.499 156.931 298.922 157.403C298.348 157.86 297.474 158.15 296.3 158.272C295.14 158.398 293.557 158.353 291.552 158.137L287.956 157.766C284.973 157.465 283.382 157.672 283.184 158.387L292.761 161.038L293.284 159.148L298.931 160.711L297.297 166.616Z" fill="white"/>
</g>
<defs>
<filter id="filter0_d_235_34371" x="2.47955e-05" y="-9.72748e-05" width="349.837" height="310.8" filterUnits="userSpaceOnUse" color-interpolation-filters="sRGB">
<feFlood flood-opacity="0" result="BackgroundImageFix"/>
<feColorMatrix in="SourceAlpha" type="matrix" values="0 0 0 0 0 0 0 0 0 0 0 0 0 0 0 0 0 0 127 0" result="hardAlpha"/>
<feOffset/>
<feGaussianBlur stdDeviation="8.45"/>
<feComposite in2="hardAlpha" operator="out"/>
<feColorMatrix type="matrix" values="0 0 0 0 0 0 0 0 0 0 0 0 0 0 0 0 0 0 0.5 0"/>
<feBlend mode="normal" in2="BackgroundImageFix" result="effect1_dropShadow_235_34371"/>
<feBlend mode="normal" in="SourceGraphic" in2="effect1_dropShadow_235_34371" result="shape"/>
</filter>
<filter id="filter1_d_235_34371" x="5.59617" y="117.36" width="338.645" height="114.387" filterUnits="userSpaceOnUse" color-interpolation-filters="sRGB">
<feFlood flood-opacity="0" result="BackgroundImageFix"/>
<feColorMatrix in="SourceAlpha" type="matrix" values="0 0 0 0 0 0 0 0 0 0 0 0 0 0 0 0 0 0 127 0" result="hardAlpha"/>
<feOffset/>
<feGaussianBlur stdDeviation="5.65193"/>
<feComposite in2="hardAlpha" operator="out"/>
<feColorMatrix type="matrix" values="0 0 0 0 0 0 0 0 0 0 0 0 0 0 0 0 0 0 0.25 0"/>
<feBlend mode="normal" in2="BackgroundImageFix" result="effect1_dropShadow_235_34371"/>
<feBlend mode="normal" in="SourceGraphic" in2="effect1_dropShadow_235_34371" result="shape"/>
</filter>
<filter id="filter2_f_235_34371" x="33.2584" y="6.8999" width="278.955" height="297" filterUnits="userSpaceOnUse" color-interpolation-filters="sRGB">
<feFlood flood-opacity="0" result="BackgroundImageFix"/>
<feBlend mode="normal" in="SourceGraphic" in2="BackgroundImageFix" result="shape"/>
<feGaussianBlur stdDeviation="5" result="effect1_foregroundBlur_235_34371"/>
</filter>
</defs>
</svg>
