<svg width="321" height="325" viewBox="0 0 321 325" fill="none" xmlns="http://www.w3.org/2000/svg">
<g filter="url(#filter0_d_235_27579)">
<path d="M174.858 21.1515C180.871 25.0403 188.2 26.3325 195.181 24.7347C205.357 22.4051 215.952 26.2615 222.251 34.5872C226.571 40.2977 233.016 44.0197 240.122 44.9043C250.481 46.195 259.12 53.4446 262.191 63.4222C264.296 70.2658 269.08 75.967 275.455 79.2306C284.747 83.9871 290.386 93.7531 289.858 104.178C289.497 111.329 292.043 118.324 296.917 123.57C304.023 131.218 305.98 142.322 301.919 151.94C299.134 158.537 299.134 165.98 301.919 172.576C305.98 182.192 304.021 193.299 296.917 200.947C292.043 206.192 289.497 213.186 289.858 220.338C290.385 230.763 284.747 240.529 275.455 245.286C269.08 248.548 264.296 254.249 262.191 261.094C259.12 271.072 250.482 278.32 240.122 279.612C233.016 280.498 226.571 284.219 222.251 289.929C215.952 298.255 205.357 302.111 195.181 299.782C188.201 298.184 180.871 299.476 174.858 303.365C166.092 309.034 154.817 309.034 146.051 303.365C140.038 299.476 132.709 298.184 125.728 299.782C115.552 302.111 104.957 298.255 98.6579 289.929C94.3383 284.219 87.893 280.497 80.7869 279.612C70.428 278.322 61.789 271.072 58.7184 261.094C56.6126 254.251 51.8284 248.549 45.4541 245.286C36.162 240.529 30.5225 230.763 31.0505 220.338C31.4117 213.187 28.866 206.192 23.9922 200.947C16.8861 193.299 14.9286 182.194 18.9903 172.576C21.7753 165.98 21.7753 158.537 18.9903 151.94C14.9286 142.324 16.8877 131.218 23.9922 123.57C28.866 118.324 31.4117 111.331 31.0505 104.178C30.524 93.7516 36.162 83.9871 45.4541 79.2306C51.8284 75.9686 56.6126 70.2674 58.7184 63.4222C61.789 53.4446 70.4265 46.1965 80.7869 44.9043C87.893 44.0182 94.3383 40.2977 98.6579 34.5872C104.957 26.2615 115.552 22.4051 125.728 24.7347C132.708 26.3325 140.038 25.0403 146.051 21.1515C154.817 15.4827 166.092 15.4827 174.858 21.1515Z" fill="white"/>
<path d="M160.453 296.005C234.32 296.005 294.2 236.125 294.2 162.258C294.2 88.3922 234.32 28.5117 160.453 28.5117C86.5871 28.5117 26.7066 88.3922 26.7066 162.258C26.7066 236.125 86.5871 296.005 160.453 296.005Z" fill="#141211"/>
<path d="M160.455 272.629C221.412 272.629 270.827 223.214 270.827 162.257C270.827 101.301 221.412 51.8853 160.455 51.8853C99.4979 51.8853 50.0826 101.301 50.0826 162.257C50.0826 223.214 99.4979 272.629 160.455 272.629Z" stroke="#2B62A7" stroke-width="8.80003" stroke-miterlimit="10"/>
<path d="M267.899 122.449H53.0074V202.064H267.899V122.449Z" fill="#2B62A7"/>
</g>
<path d="M63.6468 171.739H62.7019C60.5859 171.739 58.7283 171.529 57.1291 171.109C55.5462 170.689 54.3105 170.172 53.4221 169.558C52.5337 168.929 51.8149 168.185 51.2657 167.329C50.7165 166.473 50.3611 165.682 50.1996 164.955C50.038 164.228 49.9573 163.469 49.9573 162.677V161.975C49.9573 161.167 50.03 160.408 50.1753 159.697C50.3369 158.986 50.6842 158.211 51.2172 157.371C51.7502 156.515 52.4529 155.788 53.3251 155.191C54.2136 154.577 55.4573 154.068 57.0565 153.664C58.6717 153.244 60.5535 153.034 62.7019 153.034H63.6468C65.149 153.034 66.522 153.131 67.7658 153.325C69.0257 153.519 70.0757 153.769 70.9156 154.076C71.7717 154.383 72.5228 154.754 73.1689 155.191C73.8312 155.61 74.3481 156.039 74.7196 156.475C75.0911 156.911 75.3899 157.379 75.6161 157.88C75.8584 158.365 76.0118 158.801 76.0764 159.188C76.1572 159.576 76.1976 159.956 76.1976 160.327V160.642H69.0499C68.5007 158.801 66.522 157.88 63.1138 157.88C59.0917 157.88 57.0807 159.285 57.0807 162.096V162.387C57.0807 162.92 57.1695 163.428 57.3472 163.913C57.541 164.398 57.8479 164.874 58.2679 165.343C58.704 165.811 59.334 166.183 60.1578 166.457C60.9977 166.732 61.9911 166.869 63.138 166.869C64.1395 166.869 65.0198 166.78 65.779 166.603C66.5382 166.409 67.1116 166.199 67.4993 165.973C67.8869 165.746 68.21 165.464 68.4684 165.125C68.7269 164.785 68.8803 164.543 68.9288 164.398C68.9773 164.252 69.0257 164.091 69.0742 163.913H76.1976V164.301C76.1976 164.85 76.1168 165.415 75.9553 165.997C75.7938 166.562 75.4384 167.208 74.8892 167.935C74.34 168.646 73.6293 169.276 72.757 169.825C71.9009 170.358 70.6814 170.81 69.0984 171.182C67.5316 171.553 65.7144 171.739 63.6468 171.739ZM91.3969 163.986L88.3682 157.783L85.4123 163.986H91.3969ZM95.0071 171.4L93.6018 168.492H83.3043L81.9233 171.4H74.9452L83.8616 153.373H93.1172L102.542 171.4H95.0071ZM106.81 171.4V158.292H99.0322V153.373H121.468V158.292H113.691V171.4H106.81ZM123.251 153.373H143.192V157.783H130.035V160.036H142.925V164.422H130.035V166.893H143.385V171.4H123.251V153.373ZM157.465 171.739H156.908C155.018 171.739 153.338 171.545 151.868 171.158C150.398 170.754 149.227 170.253 148.355 169.655C147.483 169.042 146.764 168.323 146.199 167.499C145.633 166.659 145.246 165.851 145.036 165.076C144.842 164.285 144.745 163.477 144.745 162.653V161.975C144.745 161.119 144.842 160.311 145.036 159.552C145.229 158.776 145.609 157.985 146.174 157.177C146.756 156.354 147.499 155.651 148.403 155.069C149.324 154.472 150.56 153.987 152.111 153.616C153.677 153.228 155.478 153.034 157.514 153.034H158.459C160.558 153.034 162.4 153.204 163.983 153.543C165.582 153.866 166.81 154.27 167.666 154.754C168.538 155.223 169.241 155.796 169.774 156.475C170.323 157.137 170.678 157.743 170.84 158.292C171.001 158.825 171.09 159.39 171.106 159.988V160.012H163.934C163.902 159.867 163.846 159.729 163.765 159.6C163.7 159.455 163.539 159.261 163.28 159.019C163.022 158.776 162.699 158.575 162.311 158.413C161.94 158.235 161.382 158.082 160.639 157.953C159.896 157.807 159.048 157.735 158.095 157.735C153.944 157.735 151.868 159.221 151.868 162.193V162.459C151.868 163.735 152.377 164.818 153.395 165.706C154.412 166.578 155.963 167.014 158.047 167.014C158.935 167.014 159.743 166.958 160.47 166.845C161.197 166.716 161.778 166.562 162.214 166.384C162.666 166.207 163.046 166.013 163.353 165.803C163.676 165.593 163.894 165.399 164.007 165.221C164.136 165.044 164.201 164.89 164.201 164.761H157.877V161.248H171.227V171.4H166.89C166.697 170.447 166.414 169.615 166.042 168.904C164.33 170.794 161.471 171.739 157.465 171.739ZM185.987 153.034H187.078C188.677 153.034 190.131 153.147 191.439 153.373C192.764 153.583 193.87 153.866 194.758 154.221C195.663 154.561 196.446 154.989 197.109 155.505C197.787 156.006 198.32 156.515 198.708 157.032C199.095 157.549 199.402 158.114 199.629 158.728C199.871 159.342 200.024 159.899 200.089 160.4C200.17 160.901 200.21 161.426 200.21 161.975V162.702C200.21 163.251 200.17 163.776 200.089 164.276C200.024 164.777 199.871 165.343 199.629 165.973C199.402 166.586 199.095 167.16 198.708 167.693C198.336 168.21 197.811 168.727 197.133 169.243C196.454 169.76 195.671 170.197 194.783 170.552C193.894 170.907 192.788 171.19 191.463 171.4C190.155 171.626 188.693 171.739 187.078 171.739H185.987C184.372 171.739 182.902 171.626 181.578 171.4C180.269 171.19 179.163 170.907 178.258 170.552C177.37 170.197 176.586 169.76 175.908 169.243C175.23 168.727 174.697 168.21 174.309 167.693C173.937 167.16 173.63 166.586 173.388 165.973C173.162 165.343 173.009 164.777 172.928 164.276C172.863 163.776 172.831 163.251 172.831 162.702V161.975C172.831 161.426 172.863 160.901 172.928 160.4C173.009 159.899 173.162 159.342 173.388 158.728C173.63 158.114 173.937 157.549 174.309 157.032C174.697 156.515 175.23 156.006 175.908 155.505C176.586 154.989 177.37 154.561 178.258 154.221C179.163 153.866 180.269 153.583 181.578 153.373C182.902 153.147 184.372 153.034 185.987 153.034ZM193.087 162.484V162.144C193.087 161.611 192.99 161.119 192.796 160.666C192.602 160.198 192.271 159.746 191.802 159.309C191.35 158.873 190.672 158.526 189.767 158.268C188.863 158.009 187.78 157.88 186.52 157.88C185.228 157.88 184.13 158.009 183.225 158.268C182.321 158.526 181.642 158.873 181.19 159.309C180.738 159.746 180.415 160.198 180.221 160.666C180.043 161.119 179.954 161.611 179.954 162.144V162.435C179.954 162.968 180.051 163.477 180.245 163.962C180.439 164.43 180.762 164.898 181.214 165.367C181.667 165.819 182.345 166.183 183.25 166.457C184.17 166.732 185.261 166.869 186.52 166.869C187.78 166.869 188.863 166.74 189.767 166.481C190.688 166.207 191.374 165.843 191.827 165.391C192.279 164.939 192.602 164.478 192.796 164.01C192.99 163.525 193.087 163.017 193.087 162.484ZM208.806 157.759V160.86H216.705C218.094 160.86 218.789 160.343 218.789 159.309V159.285C218.789 158.268 218.094 157.759 216.705 157.759H208.806ZM208.806 165.221V171.4H201.925V153.373H218.304C223.36 153.373 225.888 154.916 225.888 158.001V158.268C225.888 158.881 225.767 159.439 225.524 159.939C225.282 160.44 224.959 160.844 224.555 161.151C224.167 161.458 223.78 161.7 223.392 161.878C223.021 162.055 222.641 162.193 222.253 162.29C223.4 162.548 224.305 163.049 224.967 163.792C225.629 164.519 225.96 165.448 225.96 166.578V169.243C225.96 170.18 226.074 170.859 226.3 171.279V171.4H219.273C219.128 171.238 219.055 170.923 219.055 170.455V168.347C219.055 167.281 218.772 166.498 218.207 165.997C217.658 165.48 216.721 165.221 215.396 165.221H208.806ZM234.818 171.4V164.616L224.956 153.373H233.194L238.452 159.6L243.807 153.373H251.342L241.699 164.664V171.4H234.818ZM263.009 160.739H258.648V156.983C261.556 156.806 263.462 155.602 264.366 153.373H269.842V171.4H263.009V160.739Z" fill="white"/>
<defs>
<filter id="filter0_d_235_27579" x="1.90735e-06" y="-9.72748e-05" width="320.909" height="324.517" filterUnits="userSpaceOnUse" color-interpolation-filters="sRGB">
<feFlood flood-opacity="0" result="BackgroundImageFix"/>
<feColorMatrix in="SourceAlpha" type="matrix" values="0 0 0 0 0 0 0 0 0 0 0 0 0 0 0 0 0 0 127 0" result="hardAlpha"/>
<feOffset/>
<feGaussianBlur stdDeviation="8.45"/>
<feComposite in2="hardAlpha" operator="out"/>
<feColorMatrix type="matrix" values="0 0 0 0 0 0 0 0 0 0 0 0 0 0 0 0 0 0 0.5 0"/>
<feBlend mode="normal" in2="BackgroundImageFix" result="effect1_dropShadow_235_27579"/>
<feBlend mode="normal" in="SourceGraphic" in2="effect1_dropShadow_235_27579" result="shape"/>
</filter>
</defs>
</svg>
