<svg width="328" height="331" viewBox="0 0 328 331" fill="none" xmlns="http://www.w3.org/2000/svg">
<g filter="url(#filter0_d_235_30971)">
<g filter="url(#filter1_f_235_30971)">
<path d="M177.958 24.2516C183.971 28.1404 191.3 29.4326 198.281 27.8348C208.457 25.5052 219.052 29.3616 225.351 37.6873C229.671 43.3978 236.116 47.1198 243.222 48.0044C253.581 49.295 262.22 56.5447 265.291 66.5223C267.396 73.3659 272.18 79.0671 278.555 82.3307C287.847 87.0872 293.486 96.8532 292.958 107.278C292.597 114.429 295.143 121.424 300.017 126.67C307.123 134.318 309.08 145.423 305.019 155.04C302.234 161.637 302.234 169.08 305.019 175.676C309.08 185.293 307.121 196.399 300.017 204.047C295.143 209.292 292.597 216.286 292.958 223.438C293.485 233.863 287.847 243.63 278.555 248.386C272.18 251.648 267.396 257.349 265.291 264.194C262.22 274.172 253.582 281.42 243.222 282.712C236.116 283.598 229.671 287.319 225.351 293.029C219.052 301.355 208.457 305.212 198.281 302.882C191.301 301.284 183.971 302.576 177.958 306.465C169.192 312.134 157.917 312.134 149.151 306.465C143.138 302.576 135.809 301.284 128.828 302.882C118.652 305.212 108.057 301.355 101.758 293.029C97.4383 287.319 90.993 283.597 83.8869 282.712C73.528 281.422 64.889 274.172 61.8184 264.194C59.7126 257.351 54.9284 251.65 48.5541 248.386C39.262 243.63 33.6225 233.863 34.1505 223.438C34.5117 216.287 31.966 209.292 27.0922 204.047C19.9861 196.399 18.0286 185.294 22.0903 175.676C24.8753 169.08 24.8753 161.637 22.0903 155.04C18.0286 145.424 19.9877 134.318 27.0922 126.67C31.966 121.424 34.5117 114.431 34.1505 107.278C33.624 96.8517 39.262 87.0872 48.5541 82.3307C54.9284 79.0687 59.7126 73.3675 61.8184 66.5223C64.889 56.5447 73.5265 49.2966 83.8869 48.0044C90.993 47.1183 97.4383 43.3978 101.758 37.6873C108.057 29.3616 118.652 25.5052 128.828 27.8348C135.808 29.4326 143.138 28.1404 149.151 24.2516C157.917 18.5828 169.192 18.5828 177.958 24.2516Z" fill="#2B62A7"/>
</g>
<path d="M177.958 24.2516C183.971 28.1404 191.3 29.4326 198.281 27.8348C208.457 25.5052 219.052 29.3616 225.351 37.6873C229.671 43.3978 236.116 47.1198 243.222 48.0044C253.581 49.295 262.22 56.5447 265.291 66.5223C267.396 73.3659 272.18 79.0671 278.555 82.3307C287.847 87.0872 293.486 96.8532 292.958 107.278C292.597 114.429 295.143 121.424 300.017 126.67C307.123 134.318 309.08 145.423 305.019 155.04C302.234 161.637 302.234 169.08 305.019 175.676C309.08 185.293 307.121 196.399 300.017 204.047C295.143 209.292 292.597 216.286 292.958 223.438C293.485 233.863 287.847 243.63 278.555 248.386C272.18 251.648 267.396 257.349 265.291 264.194C262.22 274.172 253.582 281.42 243.222 282.712C236.116 283.598 229.671 287.319 225.351 293.029C219.052 301.355 208.457 305.212 198.281 302.882C191.301 301.284 183.971 302.576 177.958 306.465C169.192 312.134 157.917 312.134 149.151 306.465C143.138 302.576 135.809 301.284 128.828 302.882C118.652 305.212 108.057 301.355 101.758 293.029C97.4383 287.319 90.993 283.597 83.8869 282.712C73.528 281.422 64.889 274.172 61.8184 264.194C59.7126 257.351 54.9284 251.65 48.5541 248.386C39.262 243.63 33.6225 233.863 34.1505 223.438C34.5117 216.287 31.966 209.292 27.0922 204.047C19.9861 196.399 18.0286 185.294 22.0903 175.676C24.8753 169.08 24.8753 161.637 22.0903 155.04C18.0286 145.424 19.9877 134.318 27.0922 126.67C31.966 121.424 34.5117 114.431 34.1505 107.278C33.624 96.8517 39.262 87.0872 48.5541 82.3307C54.9284 79.0687 59.7126 73.3675 61.8184 66.5223C64.889 56.5447 73.5265 49.2966 83.8869 48.0044C90.993 47.1183 97.4383 43.3978 101.758 37.6873C108.057 29.3616 118.652 25.5052 128.828 27.8348C135.808 29.4326 143.138 28.1404 149.151 24.2516C157.917 18.5828 169.192 18.5828 177.958 24.2516Z" fill="white"/>
<path d="M163.553 299.105C237.42 299.105 297.3 239.225 297.3 165.359C297.3 91.4923 237.42 31.6118 163.553 31.6118C89.6871 31.6118 29.8066 91.4923 29.8066 165.359C29.8066 239.225 89.6871 299.105 163.553 299.105Z" fill="#141211"/>
<path d="M163.555 275.73C224.512 275.73 273.927 226.314 273.927 165.357C273.927 104.401 224.512 54.9854 163.555 54.9854C102.598 54.9854 53.1826 104.401 53.1826 165.357C53.1826 226.314 102.598 275.73 163.555 275.73Z" stroke="#2B62A7" stroke-width="8.80003" stroke-miterlimit="10"/>
<path d="M270.999 125.549H56.1074V205.164H270.999V125.549Z" fill="#2B62A7"/>
</g>
<path d="M70.3755 175.308H69.5175C67.5962 175.308 65.9095 175.117 64.4575 174.736C63.0202 174.355 61.8982 173.885 61.0915 173.328C60.2849 172.756 59.6322 172.081 59.1335 171.304C58.6349 170.527 58.3122 169.808 58.1655 169.148C58.0189 168.488 57.9455 167.799 57.9455 167.08V166.442C57.9455 165.709 58.0115 165.019 58.1435 164.374C58.2902 163.729 58.6055 163.025 59.0895 162.262C59.5735 161.485 60.2115 160.825 61.0035 160.282C61.8102 159.725 62.9395 159.263 64.3915 158.896C65.8582 158.515 67.5669 158.324 69.5175 158.324H70.3755C71.7395 158.324 72.9862 158.412 74.1155 158.588C75.2595 158.764 76.2129 158.991 76.9755 159.27C77.7529 159.549 78.4349 159.886 79.0215 160.282C79.6229 160.663 80.0922 161.052 80.4295 161.448C80.7669 161.844 81.0382 162.269 81.2435 162.724C81.4635 163.164 81.6029 163.56 81.6615 163.912C81.7349 164.264 81.7715 164.609 81.7715 164.946V165.232H75.2815C74.7829 163.56 72.9862 162.724 69.8915 162.724C66.2395 162.724 64.4135 164 64.4135 166.552V166.816C64.4135 167.3 64.4942 167.762 64.6555 168.202C64.8315 168.642 65.1102 169.075 65.4915 169.5C65.8875 169.925 66.4595 170.263 67.2075 170.512C67.9702 170.761 68.8722 170.886 69.9135 170.886C70.8229 170.886 71.6222 170.805 72.3115 170.644C73.0009 170.468 73.5215 170.277 73.8735 170.072C74.2255 169.867 74.5189 169.61 74.7535 169.302C74.9882 168.994 75.1275 168.774 75.1715 168.642C75.2155 168.51 75.2595 168.363 75.3035 168.202H81.7715V168.554C81.7715 169.053 81.6982 169.566 81.5515 170.094C81.4049 170.607 81.0822 171.194 80.5835 171.854C80.0849 172.499 79.4395 173.071 78.6475 173.57C77.8702 174.054 76.7629 174.465 75.3255 174.802C73.9029 175.139 72.2529 175.308 70.3755 175.308ZM95.5724 168.268L92.8224 162.636L90.1384 168.268H95.5724ZM98.8504 175L97.5744 172.36H88.2244L86.9704 175H80.6344L88.7304 158.632H97.1344L105.692 175H98.8504ZM109.567 175V163.098H102.505V158.632H122.877V163.098H115.815V175H109.567ZM124.496 158.632H142.602V162.636H130.656V164.682H142.36V168.664H130.656V170.908H142.778V175H124.496V158.632ZM155.562 175.308H155.056C153.34 175.308 151.815 175.132 150.48 174.78C149.145 174.413 148.082 173.959 147.29 173.416C146.498 172.859 145.845 172.206 145.332 171.458C144.819 170.695 144.467 169.962 144.276 169.258C144.1 168.539 144.012 167.806 144.012 167.058V166.442C144.012 165.665 144.1 164.931 144.276 164.242C144.452 163.538 144.797 162.819 145.31 162.086C145.838 161.338 146.513 160.7 147.334 160.172C148.17 159.629 149.292 159.189 150.7 158.852C152.123 158.5 153.758 158.324 155.606 158.324H156.464C158.371 158.324 160.043 158.478 161.48 158.786C162.932 159.079 164.047 159.446 164.824 159.886C165.616 160.311 166.254 160.832 166.738 161.448C167.237 162.049 167.559 162.599 167.706 163.098C167.853 163.582 167.933 164.095 167.948 164.638V164.66H161.436C161.407 164.528 161.355 164.403 161.282 164.286C161.223 164.154 161.077 163.978 160.842 163.758C160.607 163.538 160.314 163.355 159.962 163.208C159.625 163.047 159.119 162.907 158.444 162.79C157.769 162.658 156.999 162.592 156.134 162.592C152.365 162.592 150.48 163.941 150.48 166.64V166.882C150.48 168.041 150.942 169.023 151.866 169.83C152.79 170.622 154.198 171.018 156.09 171.018C156.897 171.018 157.63 170.967 158.29 170.864C158.95 170.747 159.478 170.607 159.874 170.446C160.285 170.285 160.629 170.109 160.908 169.918C161.201 169.727 161.399 169.551 161.502 169.39C161.619 169.229 161.678 169.089 161.678 168.972H155.936V165.782H168.058V175H164.12C163.944 174.135 163.687 173.379 163.35 172.734C161.795 174.45 159.199 175.308 155.562 175.308ZM181.46 158.324H182.45C183.902 158.324 185.222 158.427 186.41 158.632C187.613 158.823 188.617 159.079 189.424 159.402C190.245 159.71 190.957 160.099 191.558 160.568C192.174 161.023 192.658 161.485 193.01 161.954C193.362 162.423 193.641 162.937 193.846 163.494C194.066 164.051 194.205 164.557 194.264 165.012C194.337 165.467 194.374 165.943 194.374 166.442V167.102C194.374 167.601 194.337 168.077 194.264 168.532C194.205 168.987 194.066 169.5 193.846 170.072C193.641 170.629 193.362 171.15 193.01 171.634C192.673 172.103 192.196 172.573 191.58 173.042C190.964 173.511 190.253 173.907 189.446 174.23C188.639 174.553 187.635 174.809 186.432 175C185.244 175.205 183.917 175.308 182.45 175.308H181.46C179.993 175.308 178.659 175.205 177.456 175C176.268 174.809 175.263 174.553 174.442 174.23C173.635 173.907 172.924 173.511 172.308 173.042C171.692 172.573 171.208 172.103 170.856 171.634C170.519 171.15 170.24 170.629 170.02 170.072C169.815 169.5 169.675 168.987 169.602 168.532C169.543 168.077 169.514 167.601 169.514 167.102V166.442C169.514 165.943 169.543 165.467 169.602 165.012C169.675 164.557 169.815 164.051 170.02 163.494C170.24 162.937 170.519 162.423 170.856 161.954C171.208 161.485 171.692 161.023 172.308 160.568C172.924 160.099 173.635 159.71 174.442 159.402C175.263 159.079 176.268 158.823 177.456 158.632C178.659 158.427 179.993 158.324 181.46 158.324ZM187.906 166.904V166.596C187.906 166.112 187.818 165.665 187.642 165.254C187.466 164.829 187.165 164.418 186.74 164.022C186.329 163.626 185.713 163.311 184.892 163.076C184.071 162.841 183.088 162.724 181.944 162.724C180.771 162.724 179.773 162.841 178.952 163.076C178.131 163.311 177.515 163.626 177.104 164.022C176.693 164.418 176.4 164.829 176.224 165.254C176.063 165.665 175.982 166.112 175.982 166.596V166.86C175.982 167.344 176.07 167.806 176.246 168.246C176.422 168.671 176.715 169.097 177.126 169.522C177.537 169.933 178.153 170.263 178.974 170.512C179.81 170.761 180.8 170.886 181.944 170.886C183.088 170.886 184.071 170.769 184.892 170.534C185.728 170.285 186.351 169.955 186.762 169.544C187.173 169.133 187.466 168.715 187.642 168.29C187.818 167.85 187.906 167.388 187.906 166.904ZM202.179 162.614V165.43H209.351C210.612 165.43 211.243 164.961 211.243 164.022V164C211.243 163.076 210.612 162.614 209.351 162.614H202.179ZM202.179 169.39V175H195.931V158.632H210.803C215.394 158.632 217.689 160.033 217.689 162.834V163.076C217.689 163.633 217.579 164.139 217.359 164.594C217.139 165.049 216.846 165.415 216.479 165.694C216.127 165.973 215.775 166.193 215.423 166.354C215.086 166.515 214.741 166.64 214.389 166.728C215.43 166.963 216.252 167.417 216.853 168.092C217.454 168.752 217.755 169.595 217.755 170.622V173.042C217.755 173.893 217.858 174.509 218.063 174.89V175H211.683C211.551 174.853 211.485 174.567 211.485 174.142V172.228C211.485 171.26 211.228 170.549 210.715 170.094C210.216 169.625 209.366 169.39 208.163 169.39H202.179ZM225.797 175V168.84L216.843 158.632H224.323L229.097 164.286L233.959 158.632H240.801L232.045 168.884V175H225.797ZM258.721 175.308H257.665C256.374 175.308 255.201 175.22 254.145 175.044C253.089 174.883 252.209 174.67 251.505 174.406C250.801 174.142 250.185 173.827 249.657 173.46C249.129 173.093 248.718 172.727 248.425 172.36C248.132 171.993 247.897 171.597 247.721 171.172C247.545 170.747 247.428 170.38 247.369 170.072C247.325 169.764 247.303 169.456 247.303 169.148V168.95H253.749C253.778 169.111 253.8 169.243 253.815 169.346C253.844 169.434 253.947 169.617 254.123 169.896C254.314 170.16 254.548 170.373 254.827 170.534C255.106 170.695 255.531 170.849 256.103 170.996C256.675 171.128 257.35 171.194 258.127 171.194C258.919 171.194 259.601 171.157 260.173 171.084C260.745 171.011 261.178 170.923 261.471 170.82C261.779 170.717 262.021 170.593 262.197 170.446C262.373 170.285 262.483 170.145 262.527 170.028C262.571 169.911 262.593 169.771 262.593 169.61C262.593 168.847 261.918 168.466 260.569 168.466H255.091V164.55H260.415C261.647 164.55 262.263 164.235 262.263 163.604V163.582C262.263 163.347 262.19 163.149 262.043 162.988C261.911 162.827 261.508 162.68 260.833 162.548C260.158 162.401 259.19 162.328 257.929 162.328C257.166 162.328 256.506 162.379 255.949 162.482C255.392 162.585 254.981 162.702 254.717 162.834C254.468 162.951 254.262 163.113 254.101 163.318C253.954 163.523 253.866 163.663 253.837 163.736C253.822 163.809 253.808 163.912 253.793 164.044H247.391V163.824C247.391 163.545 247.413 163.274 247.457 163.01C247.501 162.731 247.604 162.401 247.765 162.02C247.926 161.639 248.146 161.287 248.425 160.964C248.704 160.641 249.092 160.311 249.591 159.974C250.104 159.637 250.698 159.351 251.373 159.116C252.062 158.881 252.92 158.691 253.947 158.544C254.988 158.397 256.147 158.324 257.423 158.324H258.369C260.173 158.324 261.735 158.419 263.055 158.61C264.375 158.786 265.387 159.013 266.091 159.292C266.81 159.556 267.374 159.893 267.785 160.304C268.196 160.7 268.452 161.067 268.555 161.404C268.672 161.741 268.731 162.123 268.731 162.548V162.68C268.731 163.428 268.438 164.051 267.851 164.55C267.279 165.034 266.612 165.342 265.849 165.474C266.802 165.679 267.616 166.105 268.291 166.75C268.98 167.395 269.325 168.305 269.325 169.478V169.632C269.325 173.416 265.79 175.308 258.721 175.308Z" fill="white"/>
<defs>
<filter id="filter0_d_235_30971" x="3.1" y="3.1" width="320.909" height="324.517" filterUnits="userSpaceOnUse" color-interpolation-filters="sRGB">
<feFlood flood-opacity="0" result="BackgroundImageFix"/>
<feColorMatrix in="SourceAlpha" type="matrix" values="0 0 0 0 0 0 0 0 0 0 0 0 0 0 0 0 0 0 127 0" result="hardAlpha"/>
<feOffset/>
<feGaussianBlur stdDeviation="8.45"/>
<feComposite in2="hardAlpha" operator="out"/>
<feColorMatrix type="matrix" values="0 0 0 0 0 0 0 0 0 0 0 0 0 0 0 0 0 0 0.5 0"/>
<feBlend mode="normal" in2="BackgroundImageFix" result="effect1_dropShadow_235_30971"/>
<feBlend mode="normal" in="SourceGraphic" in2="effect1_dropShadow_235_30971" result="shape"/>
</filter>
<filter id="filter1_f_235_30971" x="0" y="0" width="327.109" height="330.717" filterUnits="userSpaceOnUse" color-interpolation-filters="sRGB">
<feFlood flood-opacity="0" result="BackgroundImageFix"/>
<feBlend mode="normal" in="SourceGraphic" in2="BackgroundImageFix" result="shape"/>
<feGaussianBlur stdDeviation="10" result="effect1_foregroundBlur_235_30971"/>
</filter>
</defs>
</svg>
