<svg width="350" height="357" viewBox="0 0 350 357" fill="none" xmlns="http://www.w3.org/2000/svg">
<g filter="url(#filter0_d_235_37790)">
<g filter="url(#filter1_d_235_37790)">
<path d="M311.249 243.544C222.643 214.754 127.197 214.754 38.5895 243.544C31.3601 221.293 24.1294 199.042 16.9 176.792C119.603 143.421 230.234 143.421 332.937 176.792C325.709 199.043 318.478 221.294 311.249 243.544Z" fill="#2B62A7"/>
</g>
<g filter="url(#filter2_f_235_37790)">
<path d="M179.532 41.3955L291.761 89.5155C298.79 92.5294 302.995 99.8125 302.091 107.407L287.651 228.66C287.092 233.348 284.635 237.604 280.853 240.432L183.065 313.565C176.941 318.145 168.531 318.145 162.406 313.565L64.6181 240.432C60.8362 237.604 58.3796 233.348 57.8209 228.66L43.3801 107.407C42.4759 99.8125 46.6803 92.5294 53.7101 89.5155L165.939 41.3955C170.278 39.5348 175.192 39.5348 179.532 41.3955Z" fill="#2B62A7"/>
</g>
<path d="M179.533 41.3955L291.762 89.5155C298.79 92.5294 302.996 99.8125 302.092 107.407L287.651 228.66C287.092 233.348 284.636 237.604 280.854 240.432L183.065 313.565C176.941 318.145 168.531 318.145 162.407 313.565L64.6186 240.432C60.8367 237.604 58.3801 233.348 57.8214 228.66L43.3806 107.407C42.4764 99.8125 46.6808 92.5294 53.7106 89.5155L165.94 41.3955C170.279 39.5348 175.192 39.5348 179.533 41.3955Z" fill="white"/>
<path d="M179.019 51.737L282.783 96.2279C289.282 99.0147 293.169 105.749 292.334 112.77L278.983 224.878C278.467 229.213 276.195 233.148 272.699 235.763L182.286 303.38C176.623 307.615 168.849 307.615 163.185 303.38L72.7724 235.763C69.2754 233.148 67.0047 229.213 66.4886 224.878L53.1377 112.77C52.3009 105.749 56.1888 99.0147 62.6887 96.2279L166.453 51.737C170.464 50.0167 175.007 50.0167 179.019 51.737Z" fill="#141211"/>
<path d="M177.833 75.6897L261.991 111.775C267.262 114.034 270.415 119.497 269.736 125.191L258.908 216.116C258.49 219.633 256.647 222.823 253.812 224.944L180.482 279.784C175.889 283.219 169.584 283.219 164.99 279.784L91.6599 224.944C88.8235 222.823 86.9821 219.633 86.5637 216.116L75.7355 125.191C75.057 119.497 78.21 114.036 83.4809 111.775L167.639 75.6897C170.894 74.2942 174.578 74.2942 177.833 75.6897Z" stroke="#2B62A7" stroke-width="8.2574" stroke-miterlimit="10"/>
<path opacity="0.5" d="M293.319 227.272C216.365 200.673 133.473 200.673 56.5198 227.272C50.2414 206.715 43.9616 186.157 37.6832 165.6C126.878 134.769 222.96 134.769 312.155 165.6C305.877 186.157 299.597 206.715 293.319 227.272Z" fill="black"/>
<path d="M300.875 218.337C219.011 191.739 130.829 191.739 48.9653 218.337C42.2865 197.78 35.6062 177.222 28.9274 156.665C123.815 125.835 226.027 125.835 320.915 156.665C314.234 177.222 307.554 197.779 300.875 218.337Z" fill="#2B62A7"/>
<path d="M61.6567 190.116L60.8156 190.334C58.932 190.822 57.2301 191.064 55.7098 191.059C54.2038 191.05 52.9846 190.875 52.0522 190.534C51.116 190.178 50.3048 189.682 49.6184 189.047C48.932 188.412 48.4331 187.789 48.1216 187.179C47.8101 186.57 47.5631 185.912 47.3805 185.208L47.2184 184.582C47.032 183.864 46.9216 183.171 46.887 182.505C46.8668 181.835 46.9971 181.065 47.2777 180.194C47.5547 179.309 48.0125 178.5 48.651 177.767C49.3002 177.015 50.2899 176.275 51.6202 175.547C52.9611 174.8 54.5877 174.179 56.5 173.684L57.3411 173.466C58.6783 173.119 59.9228 172.889 61.0746 172.774C62.2409 172.656 63.2332 172.637 64.0517 172.716C64.8845 172.792 65.6388 172.949 66.3146 173.188C67.001 173.409 67.5598 173.671 67.9912 173.974C68.4225 174.276 68.7966 174.624 69.1134 175.018C69.4409 175.393 69.6781 175.746 69.825 176.076C69.9864 176.403 70.1099 176.731 70.1956 177.062L70.2683 177.342L63.9059 178.991C62.9922 177.479 61.0185 177.116 57.9847 177.902C54.4045 178.83 52.9386 180.545 53.5871 183.047L53.6542 183.306C53.7772 183.78 53.9736 184.213 54.2436 184.603C54.5279 184.989 54.9111 185.343 55.393 185.663C55.8893 185.979 56.5357 186.165 57.3324 186.219C58.1434 186.27 59.0593 186.163 60.0802 185.898C60.9716 185.667 61.7347 185.385 62.3695 185.051C63.0006 184.704 63.4625 184.385 63.7554 184.094C64.0483 183.803 64.2707 183.477 64.4225 183.115C64.5743 182.754 64.655 182.503 64.6646 182.362C64.6741 182.222 64.68 182.067 64.6822 181.897L71.0229 180.254L71.1124 180.599C71.2391 181.088 71.2976 181.61 71.288 182.164C71.2747 182.705 71.1074 183.362 70.7863 184.136C70.4614 184.895 69.9741 185.62 69.3244 186.31C68.6853 186.982 67.7041 187.666 66.3808 188.362C65.0718 189.054 63.4971 189.639 61.6567 190.116Z" fill="white"/>
<path d="M90.2444 175.224L86.4048 170.17L84.846 176.293L90.2444 175.224ZM94.8248 181.267L93.038 178.895L83.7493 180.734L83.0227 183.604L76.7282 184.85L81.5521 166.997L89.9011 165.344L101.622 179.922L94.8248 181.267Z" fill="white"/>
<path d="M111.185 178.286L109.929 166.298L102.816 167.044L102.344 162.545L122.863 160.395L123.335 164.893L116.222 165.639L117.478 177.626L111.185 178.286Z" fill="white"/>
<path d="M130.059 159.381L148.321 157.73L148.686 161.769L136.637 162.858L136.824 164.921L148.629 163.854L148.992 167.871L137.187 168.938L137.391 171.201L149.618 170.096L149.991 174.223L131.551 175.89L130.059 159.381Z" fill="white"/>
<path d="M168.387 173.302L167.874 173.313C166.137 173.349 164.589 173.203 163.23 172.875C161.871 172.532 160.784 172.094 159.971 171.562C159.157 171.014 158.483 170.367 157.947 169.621C157.411 168.859 157.039 168.124 156.831 167.415C156.638 166.691 156.533 165.951 156.517 165.193L156.504 164.57C156.488 163.783 156.562 163.038 156.725 162.337C156.888 161.62 157.222 160.885 157.726 160.132C158.245 159.363 158.915 158.703 159.735 158.151C160.57 157.584 161.697 157.115 163.115 156.743C164.548 156.357 166.2 156.144 168.072 156.105L168.94 156.087C170.871 156.046 172.567 156.167 174.029 156.448C175.505 156.715 176.642 157.062 177.438 157.491C178.249 157.905 178.906 158.419 179.409 159.032C179.927 159.631 180.265 160.181 180.424 160.682C180.583 161.169 180.675 161.687 180.702 162.237L180.702 162.259L174.109 162.397C174.076 162.264 174.021 162.138 173.945 162.021C173.883 161.889 173.73 161.714 173.488 161.496C173.246 161.278 172.945 161.099 172.585 160.958C172.24 160.801 171.725 160.671 171.04 160.567C170.354 160.447 169.573 160.397 168.696 160.415C164.88 160.495 163 161.901 163.057 164.633L163.063 164.878C163.087 166.051 163.576 167.037 164.528 167.834C165.481 168.616 166.915 168.987 168.83 168.947C169.647 168.93 170.388 168.863 171.055 168.745C171.72 168.612 172.252 168.46 172.65 168.288C173.062 168.116 173.407 167.931 173.685 167.732C173.978 167.532 174.175 167.35 174.276 167.184C174.391 167.019 174.447 166.876 174.445 166.757L168.631 166.879L168.564 163.649L180.837 163.393L181.032 172.726L177.045 172.809C176.848 171.937 176.573 171.177 176.217 170.531C174.68 172.301 172.069 173.225 168.387 173.302Z" fill="white"/>
<path d="M199.313 156.793L200.314 156.831C201.784 156.885 203.116 157.039 204.31 157.292C205.52 157.53 206.527 157.828 207.332 158.185C208.151 158.528 208.856 158.948 209.447 159.445C210.053 159.929 210.526 160.415 210.864 160.903C211.203 161.391 211.466 161.921 211.652 162.493C211.854 163.065 211.976 163.583 212.018 164.045C212.075 164.508 212.094 164.992 212.075 165.496L212.051 166.164C212.032 166.669 211.977 167.15 211.885 167.607C211.809 168.065 211.648 168.579 211.404 169.15C211.175 169.706 210.874 170.223 210.499 170.699C210.14 171.161 209.64 171.618 208.999 172.07C208.358 172.522 207.623 172.896 206.794 173.192C205.966 173.488 204.939 173.71 203.715 173.857C202.505 174.02 201.158 174.074 199.673 174.019L198.672 173.981C197.187 173.926 195.84 173.772 194.631 173.519C193.436 173.281 192.429 172.983 191.61 172.626C190.806 172.269 190.101 171.841 189.495 171.343C188.889 170.845 188.417 170.351 188.079 169.863C187.756 169.361 187.493 168.823 187.292 168.251C187.105 167.664 186.984 167.139 186.927 166.677C186.885 166.214 186.873 165.731 186.892 165.226L186.917 164.558C186.935 164.053 186.983 163.572 187.06 163.114C187.151 162.657 187.311 162.15 187.54 161.594C187.784 161.038 188.085 160.529 188.444 160.067C188.818 159.605 189.325 159.156 189.966 158.719C190.607 158.267 191.341 157.901 192.169 157.619C193.013 157.324 194.039 157.102 195.249 156.954C196.474 156.791 197.828 156.738 199.313 156.793ZM205.512 165.72L205.524 165.408C205.542 164.918 205.47 164.462 205.307 164.04C205.145 163.603 204.856 163.176 204.441 162.759C204.04 162.343 203.429 162 202.606 161.732C201.784 161.463 200.794 161.308 199.636 161.264C198.449 161.22 197.435 161.301 196.595 161.508C195.755 161.714 195.12 162.01 194.689 162.395C194.259 162.781 193.946 163.185 193.752 163.609C193.573 164.019 193.475 164.468 193.456 164.958L193.447 165.225C193.428 165.715 193.5 166.186 193.661 166.638C193.823 167.075 194.104 167.516 194.504 167.962C194.904 168.393 195.515 168.751 196.337 169.034C197.173 169.318 198.171 169.481 199.328 169.525C200.486 169.568 201.485 169.486 202.325 169.28C203.18 169.059 203.824 168.748 204.255 168.348C204.686 167.948 204.999 167.536 205.193 167.112C205.387 166.674 205.494 166.21 205.512 165.72Z" fill="white"/>
<path d="M224.219 163.372L223.948 166.211L231.178 166.903C232.449 167.025 233.13 166.613 233.221 165.666L233.223 165.644C233.312 164.713 232.721 164.186 231.45 164.064L224.219 163.372ZM223.565 170.203L223.024 175.859L216.725 175.256L218.305 158.755L233.298 160.19C237.926 160.633 240.104 162.267 239.834 165.091L239.811 165.335C239.757 165.897 239.597 166.396 239.331 166.833C239.066 167.27 238.735 167.612 238.338 167.857C237.956 168.104 237.58 168.292 237.21 168.421C236.854 168.551 236.495 168.643 236.131 168.698C237.159 169.035 237.943 169.573 238.484 170.311C239.026 171.034 239.248 171.913 239.149 172.948L238.915 175.388C238.833 176.246 238.877 176.877 239.047 177.281L239.037 177.392L232.605 176.776C232.486 176.615 232.447 176.321 232.488 175.892L232.673 173.962C232.766 172.986 232.576 172.245 232.103 171.737C231.645 171.215 230.81 170.897 229.598 170.781L223.565 170.203Z" fill="white"/>
<path d="M251.952 180.573L252.907 174.408L245.528 162.804L253.014 163.963L256.915 170.362L262.658 165.457L269.505 166.517L259.153 175.42L258.205 181.541L251.952 180.573Z" fill="white"/>
<path d="M278.312 177.458L292.122 170.992L298.821 172.846L296.361 181.736L299.689 182.657L298.549 186.78L295.22 185.859L294.376 188.908L288.3 187.226L289.143 184.177L277.355 180.915L278.312 177.458ZM290.284 180.054L291.604 175.287L284.701 178.509L290.284 180.054Z" fill="white"/>
</g>
<defs>
<filter id="filter0_d_235_37790" x="2.47955e-05" y="23.1" width="349.837" height="310.8" filterUnits="userSpaceOnUse" color-interpolation-filters="sRGB">
<feFlood flood-opacity="0" result="BackgroundImageFix"/>
<feColorMatrix in="SourceAlpha" type="matrix" values="0 0 0 0 0 0 0 0 0 0 0 0 0 0 0 0 0 0 127 0" result="hardAlpha"/>
<feOffset/>
<feGaussianBlur stdDeviation="8.45"/>
<feComposite in2="hardAlpha" operator="out"/>
<feColorMatrix type="matrix" values="0 0 0 0 0 0 0 0 0 0 0 0 0 0 0 0 0 0 0.5 0"/>
<feBlend mode="normal" in2="BackgroundImageFix" result="effect1_dropShadow_235_37790"/>
<feBlend mode="normal" in="SourceGraphic" in2="effect1_dropShadow_235_37790" result="shape"/>
</filter>
<filter id="filter1_d_235_37790" x="5.59617" y="140.46" width="338.645" height="114.387" filterUnits="userSpaceOnUse" color-interpolation-filters="sRGB">
<feFlood flood-opacity="0" result="BackgroundImageFix"/>
<feColorMatrix in="SourceAlpha" type="matrix" values="0 0 0 0 0 0 0 0 0 0 0 0 0 0 0 0 0 0 127 0" result="hardAlpha"/>
<feOffset/>
<feGaussianBlur stdDeviation="5.65193"/>
<feComposite in2="hardAlpha" operator="out"/>
<feColorMatrix type="matrix" values="0 0 0 0 0 0 0 0 0 0 0 0 0 0 0 0 0 0 0.25 0"/>
<feBlend mode="normal" in2="BackgroundImageFix" result="effect1_dropShadow_235_37790"/>
<feBlend mode="normal" in="SourceGraphic" in2="effect1_dropShadow_235_37790" result="shape"/>
</filter>
<filter id="filter2_f_235_37790" x="3.25842" y="0" width="338.955" height="357" filterUnits="userSpaceOnUse" color-interpolation-filters="sRGB">
<feFlood flood-opacity="0" result="BackgroundImageFix"/>
<feBlend mode="normal" in="SourceGraphic" in2="BackgroundImageFix" result="shape"/>
<feGaussianBlur stdDeviation="20" result="effect1_foregroundBlur_235_37790"/>
</filter>
</defs>
</svg>
