<svg width="283" height="24" viewBox="0 0 283 24" fill="none" xmlns="http://www.w3.org/2000/svg">
<path d="M11.5703 23.2729C10.0263 23.2729 8.55165 22.9831 7.14633 22.4033C5.74731 21.8235 4.49639 20.9822 3.39356 19.8794C1.66054 18.1275 0.586068 16.0573 0.170144 13.6689C0.0567098 13.0261 -7.16839e-06 12.3707 -7.16839e-06 11.7027C-7.16839e-06 11.0347 0.0567098 10.3761 0.170144 9.72704C0.586068 7.34493 1.66054 5.27476 3.39356 3.51653C4.49639 2.42001 5.74731 1.58186 7.14633 1.00208C8.55165 0.416006 10.0263 0.122968 11.5703 0.122968C13.1205 0.122968 14.5952 0.416006 15.9942 1.00208C17.3995 1.58186 18.6536 2.42001 19.7564 3.51653C19.7942 3.54804 19.8289 3.5827 19.8604 3.62052L16.9773 4.83993C16.3156 3.7308 15.5152 2.85799 14.5763 2.2215C13.6436 1.5787 12.6321 1.25731 11.5419 1.25731H11.4757C10.1523 1.30142 8.95812 1.78982 7.89311 2.7225C6.82809 3.65518 5.97733 4.90925 5.34084 6.48472C4.70435 8.05389 4.38611 9.79321 4.38611 11.7027C4.38611 12.6228 4.46488 13.5145 4.62243 14.3778C4.74216 15.0647 4.97218 15.843 5.31248 16.7127C5.65909 17.576 6.16954 18.3984 6.84384 19.1799C7.52445 19.9613 8.42246 20.5726 9.5379 21.0137C10.3508 21.3288 11.3056 21.4864 12.4021 21.4864C12.818 21.4864 13.2529 21.4643 13.7066 21.4202C15.4459 21.1429 17.0056 20.456 18.3857 19.3595C18.9403 18.9183 19.3657 18.5339 19.6619 18.2062L20.0967 17.7241L21.4485 17.7336C20.9758 18.5087 20.4118 19.224 19.7564 19.8794C18.6536 20.9822 17.3995 21.8235 15.9942 22.4033C14.5952 22.9831 13.1205 23.2729 11.5703 23.2729ZM32.6217 23.2824C31.0714 23.2824 29.5937 22.9925 28.1883 22.4127C26.7893 21.833 25.5384 20.9917 24.4356 19.8888C22.7025 18.1369 21.6281 16.0667 21.2121 13.6783C21.0987 13.0355 21.042 12.3801 21.042 11.7121C21.042 11.0441 21.0987 10.3856 21.2121 9.7365C21.6281 7.35438 22.7025 5.28421 24.4356 3.52599C25.5384 2.42946 26.7893 1.59131 28.1883 1.01153C29.5937 0.425459 31.0714 0.132421 32.6217 0.132421C34.1657 0.132421 35.6372 0.425459 37.0362 1.01153C38.4415 1.59131 39.6956 2.43261 40.7984 3.53544C41.9012 4.63197 42.7425 5.88289 43.3223 7.28821C43.9021 8.68723 44.192 10.1619 44.192 11.7121C44.192 13.2561 43.9021 14.7307 43.3223 16.1361C42.7425 17.5351 41.9012 18.786 40.7984 19.8888C39.6956 20.9917 38.4415 21.833 37.0362 22.4127C35.6372 22.9925 34.1657 23.2824 32.6217 23.2824ZM32.6217 22.1481C33.9577 22.1229 35.1645 21.6471 36.2421 20.7207C37.3198 19.7943 38.18 18.5402 38.8228 16.9585C39.4719 15.3767 39.7964 13.6279 39.7964 11.7121C39.7964 9.79006 39.4719 8.04129 38.8228 6.46582C38.18 4.88404 37.3198 3.62997 36.2421 2.70359C35.1645 1.77091 33.9546 1.29197 32.6123 1.26676H32.5177C31.1943 1.31718 30.0001 1.80872 28.9351 2.7414C27.8701 3.67408 27.0193 4.92501 26.3828 6.49418C25.7464 8.06335 25.4281 9.80267 25.4281 11.7121C25.4281 13.6153 25.7464 15.3546 26.3828 16.9301C27.0193 18.4993 27.8701 19.7502 28.9351 20.6829C30.0001 21.6156 31.1943 22.1039 32.5177 22.1481H32.6217ZM32.6217 13.2529L31.0714 11.7121L32.6217 10.1619L34.1625 11.7121L32.6217 13.2529ZM63.3529 23.2729C62.5966 23.2729 62.2185 23.2698 62.2185 23.2635L46.1865 6.52253V23.2729H45.0522V0.113516H46.1865L62.2185 16.8545V0.113516H63.3529V23.2729ZM79.9615 23.2729H75.5281V1.26676H64.2036V0.132421L91.286 0.122968L91.2954 1.25731L79.9615 1.26676V23.2729ZM107.091 23.2729H102.289L100.417 18.7639H89.2536L87.382 23.2729H86.1531L94.2163 3.85684L92.6661 0.132421H97.4681L107.091 23.2729ZM99.9448 17.6296L94.8308 5.34093L89.7263 17.6296H99.9448ZM116.119 23.2729C114.575 23.2729 113.1 22.9831 111.695 22.4033C110.296 21.8235 109.045 20.9822 107.942 19.8794C106.209 18.1275 105.134 16.0573 104.718 13.6689C104.605 13.0261 104.548 12.3707 104.548 11.7027C104.548 11.0347 104.605 10.3761 104.718 9.72704C105.134 7.34493 106.209 5.27476 107.942 3.51653C109.045 2.42001 110.296 1.58186 111.695 1.00208C113.1 0.416006 114.575 0.122968 116.119 0.122968C117.669 0.122968 119.143 0.416006 120.542 1.00208C121.948 1.58186 123.202 2.42001 124.305 3.51653C124.343 3.54804 124.377 3.5827 124.409 3.62052L121.526 4.83993C120.864 3.7308 120.064 2.85799 119.125 2.2215C118.192 1.5787 117.18 1.25731 116.09 1.25731H116.024C114.701 1.30142 113.506 1.78982 112.441 2.7225C111.376 3.65518 110.526 4.90925 109.889 6.48472C109.253 8.05389 108.934 9.79321 108.934 11.7027C108.934 12.6228 109.013 13.5145 109.171 14.3778C109.29 15.0647 109.52 15.843 109.861 16.7127C110.207 17.576 110.718 18.3984 111.392 19.1799C112.073 19.9613 112.971 20.5726 114.086 21.0137C114.899 21.3288 115.854 21.4864 116.95 21.4864C117.366 21.4864 117.801 21.4643 118.255 21.4202C119.994 21.1429 121.554 20.456 122.934 19.3595C123.489 18.9183 123.914 18.5339 124.21 18.2062L124.645 17.7241L125.997 17.7336C125.524 18.5087 124.96 19.224 124.305 19.8794C123.202 20.9822 121.948 21.8235 120.542 22.4033C119.143 22.9831 117.669 23.2729 116.119 23.2729ZM139.779 23.2729H135.346V1.26676H124.021V0.132421L151.103 0.122968L151.113 1.25731L139.779 1.26676V23.2729ZM166.256 23.254H156.69V0.104063L166.256 0.122968C167.8 0.122968 169.272 0.412855 170.671 0.992629C172.076 1.5724 173.327 2.4137 174.424 3.51653C175.526 4.61306 176.368 5.86399 176.948 7.26931C177.534 8.66833 177.827 10.1398 177.827 11.6838C177.827 13.234 177.534 14.7118 176.948 16.1172C176.368 17.5162 175.53 18.7671 174.433 19.8699C172.876 21.4076 171.058 22.4285 168.979 22.9326C168.097 23.1469 167.189 23.254 166.256 23.254ZM162.021 22.1197C165.261 22.1071 167.019 22.0913 167.296 22.0724C168.487 21.5557 169.536 20.79 170.444 19.7754C171.358 18.7608 172.076 17.5603 172.599 16.1739C173.122 14.7812 173.384 13.2876 173.384 11.6932C173.384 10.0926 173.122 8.59901 172.599 7.21259C172.076 5.81987 171.358 4.61621 170.444 3.60161C169.53 2.5807 168.475 1.81502 167.277 1.30457C167.082 1.29197 166.017 1.27936 164.082 1.26676L161.123 1.25731V22.1197H162.021ZM178.677 23.2729V0.132421L196.25 0.122968V1.25731L183.111 1.26676V10.0295L193.084 10.0201V11.1544L183.111 11.1639V22.1292L196.25 22.1197V23.254L178.677 23.2729ZM212.868 23.2729H208.435V1.26676H197.11V0.132421L224.193 0.122968L224.202 1.25731L212.868 1.26676V23.2729ZM239.998 23.2729H235.196L233.324 18.7639H222.16L220.289 23.2729H219.06L227.123 3.85684L225.573 0.132421H230.375L239.998 23.2729ZM232.852 17.6296L227.738 5.34093L222.633 17.6296H232.852ZM245.291 23.2729H240.858V0.132421H245.291V23.2729ZM246.152 23.2729V0.132421H250.585V22.1292L263.724 22.1197V23.254L246.152 23.2729ZM274.038 23.2729C271.618 23.2729 268.955 22.4947 266.05 20.9381C265.281 20.5285 264.311 19.9802 263.138 19.2933L265.067 16.0037L265.568 16.4196C265.908 16.6969 266.368 17.053 266.948 17.4878C267.528 17.9226 268.189 18.3827 268.933 18.8679C269.683 19.3532 270.477 19.8132 271.315 20.248C272.153 20.6829 272.998 21.0389 273.848 21.3162C274.706 21.5935 275.522 21.7321 276.297 21.7321C276.48 21.7321 276.662 21.7227 276.845 21.7038C277.551 21.4643 278.194 21.1429 278.773 20.7396C278.849 20.6325 278.937 20.4844 279.038 20.2953C279.145 20.1063 279.237 19.8825 279.312 19.6242C279.394 19.3658 279.435 19.0853 279.435 18.7829C279.435 17.9069 279.019 17.0908 278.187 16.3346C277.166 15.3956 275.44 14.6047 273.007 13.9619C271.488 13.5586 270.203 13.0859 269.15 12.544C267.191 11.5357 265.804 10.3068 264.991 8.85738C264.348 7.71044 264.027 6.48472 264.027 5.18023C264.027 4.69499 264.062 4.26331 264.131 3.88519C264.2 3.50708 264.27 3.21089 264.339 2.99663L264.443 2.67523C264.493 2.54289 264.55 2.4137 264.613 2.28767C265.168 1.25416 266.129 0.56095 267.496 0.208044C268.139 0.0694023 268.772 8.15894e-05 269.396 8.15894e-05C269.913 8.15894e-05 270.408 0.0252891 270.88 0.0757042L272.761 0.264761L278.792 1.17223L278.083 4.70759L277.422 4.4051C276.987 4.20344 276.407 3.95452 275.682 3.65833C274.964 3.36214 274.167 3.0691 273.291 2.77921C272.421 2.48302 271.539 2.2341 270.644 2.03244C269.755 1.82448 268.936 1.7205 268.186 1.7205C267.26 1.7205 266.551 1.90325 266.059 2.26876L265.851 2.43891C265.536 2.84223 265.379 3.30227 265.379 3.81902C265.379 4.28536 265.492 4.7454 265.719 5.19914C266.217 6.19484 267.137 6.98887 268.479 7.58125C269.191 7.89635 269.9 8.17048 270.606 8.40365L276.76 10.5494C277.459 10.7763 278.184 11.0662 278.934 11.4191C279.69 11.772 280.361 12.2573 280.948 12.8748C281.742 13.7571 282.183 14.8316 282.271 16.0983L282.28 16.4386C282.28 17.5099 282.006 18.5276 281.458 19.4918C280.891 20.4434 280.109 21.2343 279.114 21.8645C277.652 22.8035 275.96 23.2729 274.038 23.2729Z" fill="white"/>
</svg>
