<svg width="50" height="257" viewBox="0 0 50 257" fill="none" xmlns="http://www.w3.org/2000/svg">
<mask id="path-1-outside-1_235_20825" maskUnits="userSpaceOnUse" x="-0.0555534" y="-0.851322" width="51" height="258" fill="black">
<rect fill="white" x="-0.0555534" y="-0.851322" width="51" height="258"/>
<path d="M48.9445 228.325L48.9445 255.262L2.17185 255.262L2.17185 228.325L10.2979 228.325L10.2979 245.345L20.5674 245.345L20.5674 229.508L28.6934 229.508L28.6934 245.345L40.7545 245.345L40.7545 228.325L48.9445 228.325ZM2.17185 181.84L48.9445 197.74L48.9445 208.553L2.17185 224.422L2.17185 214.408L30.0051 205.61C30.4743 205.461 31.3594 205.216 32.6604 204.874C33.9401 204.533 35.3051 204.192 36.7554 203.851C38.1844 203.488 39.3681 203.243 40.3066 203.115C39.3681 202.987 38.1844 202.763 36.7554 202.443C35.3264 202.102 33.9721 201.771 32.6924 201.451C31.3914 201.11 30.4956 200.865 30.0051 200.715L2.17185 191.854L2.17185 181.84ZM48.9445 148.984L48.9445 175.921L2.17185 175.921L2.17184 148.984L10.2979 148.984L10.2979 166.004L20.5674 166.004L20.5674 150.168L28.6934 150.168L28.6934 166.004L40.7544 166.004L40.7544 148.984L48.9445 148.984ZM48.9445 97.7005L48.9445 110.305L13.5611 130.652L13.5611 130.94C15.0327 130.855 16.515 130.78 18.008 130.716C19.501 130.652 20.9939 130.588 22.4869 130.524C23.9585 130.461 25.4408 130.397 26.9338 130.333L48.9445 130.333L48.9445 139.194L2.17184 139.194L2.17184 126.685L37.2033 106.37L37.2033 106.146C35.753 106.189 34.3133 106.242 32.8844 106.306C31.4554 106.37 30.0264 106.434 28.5974 106.498C27.1684 106.541 25.7394 106.584 24.3105 106.626L2.17184 106.626L2.17184 97.7005L48.9445 97.7005ZM48.9444 67.8518L48.9444 77.7693L10.4258 77.7693L10.4258 90.4703L2.17184 90.4703L2.17184 55.1509L10.4258 55.1509L10.4258 67.8518L48.9444 67.8518ZM48.9444 1.49992L48.9444 34.196L42.0661 34.196L30.197 22.4548C27.7656 20.0874 25.7394 18.1892 24.1185 16.7602C22.4762 15.3099 20.9833 14.2648 19.6396 13.625C18.2959 12.9638 16.8563 12.6332 15.3206 12.6332C13.4651 12.6332 12.0788 13.1557 11.1616 14.2008C10.2232 15.2246 9.75399 16.6002 9.75399 18.3278C9.75399 20.1407 10.1699 21.9003 11.0017 23.6065C11.8335 25.3128 13.0172 27.0937 14.5528 28.9492L8.18637 34.3239C7.03466 32.9803 5.94692 31.5619 4.92317 30.069C3.89942 28.5547 3.07829 26.8058 2.45977 24.8222C1.81992 22.8174 1.5 20.418 1.5 17.624C1.5 14.5527 2.05453 11.9187 3.1636 9.72192C4.27266 7.50379 5.78696 5.79754 7.70649 4.60317C9.60469 3.40879 11.7588 2.8116 14.1689 2.8116C16.7496 2.8116 19.1064 3.32348 21.2392 4.34723C23.372 5.37098 25.4835 6.86395 27.5737 8.82614C29.6638 10.767 31.9779 13.1131 34.516 15.8644L40.1786 21.879L40.6265 21.879L40.6265 1.49992L48.9444 1.49992Z"/>
</mask>
<path d="M48.9445 228.325L48.9445 255.262L2.17185 255.262L2.17185 228.325L10.2979 228.325L10.2979 245.345L20.5674 245.345L20.5674 229.508L28.6934 229.508L28.6934 245.345L40.7545 245.345L40.7545 228.325L48.9445 228.325ZM2.17185 181.84L48.9445 197.74L48.9445 208.553L2.17185 224.422L2.17185 214.408L30.0051 205.61C30.4743 205.461 31.3594 205.216 32.6604 204.874C33.9401 204.533 35.3051 204.192 36.7554 203.851C38.1844 203.488 39.3681 203.243 40.3066 203.115C39.3681 202.987 38.1844 202.763 36.7554 202.443C35.3264 202.102 33.9721 201.771 32.6924 201.451C31.3914 201.11 30.4956 200.865 30.0051 200.715L2.17185 191.854L2.17185 181.84ZM48.9445 148.984L48.9445 175.921L2.17185 175.921L2.17184 148.984L10.2979 148.984L10.2979 166.004L20.5674 166.004L20.5674 150.168L28.6934 150.168L28.6934 166.004L40.7544 166.004L40.7544 148.984L48.9445 148.984ZM48.9445 97.7005L48.9445 110.305L13.5611 130.652L13.5611 130.94C15.0327 130.855 16.515 130.78 18.008 130.716C19.501 130.652 20.9939 130.588 22.4869 130.524C23.9585 130.461 25.4408 130.397 26.9338 130.333L48.9445 130.333L48.9445 139.194L2.17184 139.194L2.17184 126.685L37.2033 106.37L37.2033 106.146C35.753 106.189 34.3133 106.242 32.8844 106.306C31.4554 106.37 30.0264 106.434 28.5974 106.498C27.1684 106.541 25.7394 106.584 24.3105 106.626L2.17184 106.626L2.17184 97.7005L48.9445 97.7005ZM48.9444 67.8518L48.9444 77.7693L10.4258 77.7693L10.4258 90.4703L2.17184 90.4703L2.17184 55.1509L10.4258 55.1509L10.4258 67.8518L48.9444 67.8518ZM48.9444 1.49992L48.9444 34.196L42.0661 34.196L30.197 22.4548C27.7656 20.0874 25.7394 18.1892 24.1185 16.7602C22.4762 15.3099 20.9833 14.2648 19.6396 13.625C18.2959 12.9638 16.8563 12.6332 15.3206 12.6332C13.4651 12.6332 12.0788 13.1557 11.1616 14.2008C10.2232 15.2246 9.75399 16.6002 9.75399 18.3278C9.75399 20.1407 10.1699 21.9003 11.0017 23.6065C11.8335 25.3128 13.0172 27.0937 14.5528 28.9492L8.18637 34.3239C7.03466 32.9803 5.94692 31.5619 4.92317 30.069C3.89942 28.5547 3.07829 26.8058 2.45977 24.8222C1.81992 22.8174 1.5 20.418 1.5 17.624C1.5 14.5527 2.05453 11.9187 3.1636 9.72192C4.27266 7.50379 5.78696 5.79754 7.70649 4.60317C9.60469 3.40879 11.7588 2.8116 14.1689 2.8116C16.7496 2.8116 19.1064 3.32348 21.2392 4.34723C23.372 5.37098 25.4835 6.86395 27.5737 8.82614C29.6638 10.767 31.9779 13.1131 34.516 15.8644L40.1786 21.879L40.6265 21.879L40.6265 1.49992L48.9444 1.49992Z" fill="#1D110F"/>
<path d="M48.9445 228.325L50.4445 228.325L50.4445 226.825L48.9445 226.825L48.9445 228.325ZM48.9445 255.262L48.9445 256.762L50.4445 256.762L50.4445 255.262L48.9445 255.262ZM2.17185 255.262L0.671848 255.262L0.671848 256.762L2.17185 256.762L2.17185 255.262ZM2.17185 228.325L2.17185 226.825L0.671847 226.825L0.671847 228.325L2.17185 228.325ZM10.2979 228.325L11.7979 228.325L11.7979 226.825L10.2979 226.825L10.2979 228.325ZM10.2979 245.345L8.79787 245.345L8.79787 246.845L10.2979 246.845L10.2979 245.345ZM20.5674 245.345L20.5674 246.845L22.0674 246.845L22.0674 245.345L20.5674 245.345ZM20.5674 229.508L20.5674 228.008L19.0674 228.008L19.0674 229.508L20.5674 229.508ZM28.6934 229.508L30.1934 229.508L30.1934 228.008L28.6934 228.008L28.6934 229.508ZM28.6934 245.345L27.1934 245.345L27.1934 246.845L28.6934 246.845L28.6934 245.345ZM40.7545 245.345L40.7545 246.845L42.2545 246.845L42.2545 245.345L40.7545 245.345ZM40.7545 228.325L40.7545 226.825L39.2545 226.825L39.2545 228.325L40.7545 228.325ZM48.9445 228.325L47.4445 228.325L47.4445 255.262L48.9445 255.262L50.4445 255.262L50.4445 228.325L48.9445 228.325ZM48.9445 255.262L48.9445 253.762L2.17185 253.762L2.17185 255.262L2.17185 256.762L48.9445 256.762L48.9445 255.262ZM2.17185 255.262L3.67185 255.262L3.67185 228.325L2.17185 228.325L0.671847 228.325L0.671848 255.262L2.17185 255.262ZM2.17185 228.325L2.17185 229.825L10.2979 229.825L10.2979 228.325L10.2979 226.825L2.17185 226.825L2.17185 228.325ZM10.2979 228.325L8.79787 228.325L8.79787 245.345L10.2979 245.345L11.7979 245.345L11.7979 228.325L10.2979 228.325ZM10.2979 245.345L10.2979 246.845L20.5674 246.845L20.5674 245.345L20.5674 243.845L10.2979 243.845L10.2979 245.345ZM20.5674 245.345L22.0674 245.345L22.0674 229.508L20.5674 229.508L19.0674 229.508L19.0674 245.345L20.5674 245.345ZM20.5674 229.508L20.5674 231.008L28.6934 231.008L28.6934 229.508L28.6934 228.008L20.5674 228.008L20.5674 229.508ZM28.6934 229.508L27.1934 229.508L27.1934 245.345L28.6934 245.345L30.1934 245.345L30.1934 229.508L28.6934 229.508ZM28.6934 245.345L28.6934 246.845L40.7545 246.845L40.7545 245.345L40.7545 243.845L28.6934 243.845L28.6934 245.345ZM40.7545 245.345L42.2545 245.345L42.2545 228.325L40.7545 228.325L39.2545 228.325L39.2545 245.345L40.7545 245.345ZM40.7545 228.325L40.7545 229.825L48.9445 229.825L48.9445 228.325L48.9445 226.825L40.7545 226.825L40.7545 228.325ZM2.17184 181.84L2.65463 180.42L0.671845 179.746L0.671845 181.84L2.17184 181.84ZM48.9445 197.74L50.4445 197.74L50.4445 196.666L49.4272 196.32L48.9445 197.74ZM48.9445 208.553L49.4264 209.974L50.4445 209.629L50.4445 208.553L48.9445 208.553ZM2.17185 224.422L0.671847 224.422L0.671847 226.514L2.65376 225.842L2.17185 224.422ZM2.17185 214.408L1.71976 212.978L0.671846 213.309L0.671846 214.408L2.17185 214.408ZM30.0051 205.61L30.4572 207.04L30.4599 207.04L30.0051 205.61ZM32.6604 204.874L33.041 206.325L33.0469 206.324L32.6604 204.874ZM36.7554 203.851L37.099 205.311L37.1117 205.308L37.1243 205.305L36.7554 203.851ZM40.3066 203.115L40.5092 204.601L40.5092 201.629L40.3066 203.115ZM36.7554 202.443L36.407 203.902L36.4173 203.904L36.4277 203.907L36.7554 202.443ZM32.6924 201.451L32.3118 202.902L32.3202 202.904L32.3286 202.906L32.6924 201.451ZM30.0051 200.715L29.55 202.145L29.5591 202.148L29.5683 202.15L30.0051 200.715ZM2.17185 191.854L0.671845 191.854L0.671845 192.95L1.71677 193.283L2.17185 191.854ZM2.17184 181.84L1.68906 183.26L48.4617 199.16L48.9445 197.74L49.4272 196.32L2.65463 180.42L2.17184 181.84ZM48.9445 197.74L47.4445 197.74L47.4445 208.553L48.9445 208.553L50.4445 208.553L50.4445 197.74L48.9445 197.74ZM48.9445 208.553L48.4625 207.133L1.68994 223.001L2.17185 224.422L2.65376 225.842L49.4264 209.974L48.9445 208.553ZM2.17185 224.422L3.67185 224.422L3.67185 214.408L2.17185 214.408L0.671846 214.408L0.671847 224.422L2.17185 224.422ZM2.17185 214.408L2.62394 215.838L30.4572 207.04L30.0051 205.61L29.553 204.18L1.71976 212.978L2.17185 214.408ZM30.0051 205.61L30.4599 207.04C30.887 206.904 31.7364 206.667 33.041 206.325L32.6604 204.874L32.2799 203.423C30.9824 203.764 30.0615 204.018 29.5503 204.181L30.0051 205.61ZM32.6604 204.874L33.0469 206.324C34.3107 205.987 35.6613 205.649 37.099 205.311L36.7554 203.851L36.4119 202.391C34.9489 202.735 33.5695 203.08 32.2739 203.425L32.6604 204.874ZM36.7554 203.851L37.1243 205.305C38.5251 204.949 39.6485 204.718 40.5092 204.601L40.3066 203.115L40.1039 201.629C39.0877 201.767 37.8438 202.027 36.3865 202.397L36.7554 203.851ZM40.3066 203.115L40.5092 201.629C39.6289 201.509 38.4904 201.294 37.0831 200.979L36.7554 202.443L36.4277 203.907C37.8784 204.232 39.1074 204.465 40.1039 204.601L40.3066 203.115ZM36.7554 202.443L37.1038 200.984C35.6794 200.644 34.3302 200.315 33.0562 199.996L32.6924 201.451L32.3286 202.906C33.614 203.228 34.9735 203.56 36.407 203.902L36.7554 202.443ZM32.6924 201.451L33.073 200C31.7701 199.659 30.9008 199.42 30.4418 199.28L30.0051 200.715L29.5683 202.15C30.0904 202.309 31.0127 202.561 32.3118 202.902L32.6924 201.451ZM30.0051 200.715L30.4601 199.286L2.62692 190.424L2.17185 191.854L1.71677 193.283L29.55 202.145L30.0051 200.715ZM2.17185 191.854L3.67185 191.854L3.67184 181.84L2.17184 181.84L0.671845 181.84L0.671845 191.854L2.17185 191.854ZM48.9445 148.984L50.4445 148.984L50.4445 147.484L48.9445 147.484L48.9445 148.984ZM48.9445 175.921L48.9445 177.421L50.4445 177.421L50.4445 175.921L48.9445 175.921ZM2.17184 175.921L0.671845 175.921L0.671845 177.421L2.17184 177.421L2.17184 175.921ZM2.17184 148.984L2.17184 147.484L0.671843 147.484L0.671843 148.984L2.17184 148.984ZM10.2979 148.984L11.7979 148.984L11.7979 147.484L10.2979 147.484L10.2979 148.984ZM10.2979 166.004L8.79787 166.004L8.79787 167.504L10.2979 167.504L10.2979 166.004ZM20.5674 166.004L20.5674 167.504L22.0674 167.504L22.0674 166.004L20.5674 166.004ZM20.5674 150.168L20.5674 148.668L19.0674 148.668L19.0674 150.168L20.5674 150.168ZM28.6934 150.168L30.1934 150.168L30.1934 148.668L28.6934 148.668L28.6934 150.168ZM28.6934 166.004L27.1934 166.004L27.1934 167.504L28.6934 167.504L28.6934 166.004ZM40.7544 166.004L40.7544 167.504L42.2544 167.504L42.2544 166.004L40.7544 166.004ZM40.7544 148.984L40.7544 147.484L39.2544 147.484L39.2544 148.984L40.7544 148.984ZM48.9445 148.984L47.4445 148.984L47.4445 175.921L48.9445 175.921L50.4445 175.921L50.4445 148.984L48.9445 148.984ZM48.9445 175.921L48.9445 174.421L2.17184 174.421L2.17184 175.921L2.17184 177.421L48.9445 177.421L48.9445 175.921ZM2.17184 175.921L3.67184 175.921L3.67184 148.984L2.17184 148.984L0.671843 148.984L0.671845 175.921L2.17184 175.921ZM2.17184 148.984L2.17184 150.484L10.2979 150.484L10.2979 148.984L10.2979 147.484L2.17184 147.484L2.17184 148.984ZM10.2979 148.984L8.79787 148.984L8.79787 166.004L10.2979 166.004L11.7979 166.004L11.7979 148.984L10.2979 148.984ZM10.2979 166.004L10.2979 167.504L20.5674 167.504L20.5674 166.004L20.5674 164.504L10.2979 164.504L10.2979 166.004ZM20.5674 166.004L22.0674 166.004L22.0674 150.168L20.5674 150.168L19.0674 150.168L19.0674 166.004L20.5674 166.004ZM20.5674 150.168L20.5674 151.668L28.6934 151.668L28.6934 150.168L28.6934 148.668L20.5674 148.668L20.5674 150.168ZM28.6934 150.168L27.1934 150.168L27.1934 166.004L28.6934 166.004L30.1934 166.004L30.1934 150.168L28.6934 150.168ZM28.6934 166.004L28.6934 167.504L40.7544 167.504L40.7544 166.004L40.7544 164.504L28.6934 164.504L28.6934 166.004ZM40.7544 166.004L42.2544 166.004L42.2544 148.984L40.7544 148.984L39.2544 148.984L39.2544 166.004L40.7544 166.004ZM40.7544 148.984L40.7544 150.484L48.9445 150.484L48.9445 148.984L48.9445 147.484L40.7544 147.484L40.7544 148.984ZM48.9445 97.7005L50.4445 97.7005L50.4445 96.2005L48.9445 96.2005L48.9445 97.7005ZM48.9445 110.305L49.6922 111.606L50.4445 111.173L50.4445 110.305L48.9445 110.305ZM13.5611 130.652L12.8133 129.352L12.0611 129.785L12.0611 130.652L13.5611 130.652ZM13.5611 130.94L12.0611 130.94L12.0611 132.53L13.6479 132.438L13.5611 130.94ZM22.4869 130.524L22.5511 132.023L22.552 132.023L22.4869 130.524ZM26.9338 130.333L26.9338 128.833L26.9017 128.833L26.8696 128.834L26.9338 130.333ZM48.9445 130.333L50.4445 130.333L50.4445 128.833L48.9445 128.833L48.9445 130.333ZM48.9445 139.194L48.9445 140.694L50.4445 140.694L50.4445 139.194L48.9445 139.194ZM2.17184 139.194L0.671843 139.194L0.671843 140.694L2.17184 140.694L2.17184 139.194ZM2.17184 126.685L1.41936 125.388L0.671842 125.821L0.671842 126.685L2.17184 126.685ZM37.2033 106.37L37.9558 107.668L38.7033 107.234L38.7033 106.37L37.2033 106.37ZM37.2033 106.146L38.7033 106.146L38.7033 104.602L37.1592 104.647L37.2033 106.146ZM28.5974 106.498L28.6422 107.998L28.6533 107.997L28.6645 107.997L28.5974 106.498ZM24.3104 106.626L24.3104 108.126L24.3328 108.126L24.3552 108.126L24.3104 106.626ZM2.17184 106.626L0.671842 106.626L0.671842 108.126L2.17184 108.126L2.17184 106.626ZM2.17184 97.7005L2.17184 96.2005L0.671841 96.2005L0.671841 97.7005L2.17184 97.7005ZM48.9445 97.7005L47.4445 97.7005L47.4445 110.305L48.9445 110.305L50.4445 110.305L50.4445 97.7005L48.9445 97.7005ZM48.9445 110.305L48.1967 109.005L12.8133 129.352L13.5611 130.652L14.3088 131.953L49.6922 111.606L48.9445 110.305ZM13.5611 130.652L12.0611 130.652L12.0611 130.94L13.5611 130.94L15.0611 130.94L15.0611 130.652L13.5611 130.652ZM13.5611 130.94L13.6479 132.438C15.1119 132.353 16.5867 132.279 18.0722 132.215L18.008 130.716L17.9438 129.218C16.4434 129.282 14.9535 129.357 13.4743 129.443L13.5611 130.94ZM18.008 130.716L18.0722 132.215C18.1656 132.211 18.0489 132.216 18.1422 132.212C18.2355 132.208 18.1188 132.213 18.2122 132.209C18.3055 132.205 18.1888 132.21 18.2822 132.206C18.3755 132.202 18.2588 132.207 18.3521 132.203C18.4455 132.199 18.3288 132.204 18.4221 132.2C18.5155 132.196 18.3988 132.201 18.4921 132.197C18.5855 132.193 18.4688 132.198 18.5621 132.194C18.6554 132.19 18.5387 132.195 18.6321 132.191C18.7254 132.187 18.6087 132.192 18.7021 132.188C18.7954 132.184 18.6787 132.189 18.772 132.185C18.8654 132.181 18.7487 132.186 18.842 132.182C18.9354 132.178 18.8187 132.183 18.912 132.179C19.0054 132.175 18.8887 132.18 18.982 132.176C19.0753 132.172 18.9586 132.177 19.052 132.173C19.1453 132.169 19.0286 132.174 19.122 132.17C19.2153 132.166 19.0986 132.171 19.1919 132.167C19.2853 132.163 19.1686 132.168 19.2619 132.164C19.3553 132.16 19.2386 132.165 19.3319 132.161C19.4252 132.157 19.3085 132.162 19.4019 132.158C19.4952 132.154 19.3785 132.159 19.4719 132.155C19.5652 132.151 19.4485 132.156 19.5419 132.152C19.6352 132.148 19.5185 132.153 19.6118 132.149C19.7052 132.145 19.5885 132.15 19.6818 132.146C19.7752 132.142 19.6585 132.147 19.7518 132.143C19.8451 132.139 19.7284 132.144 19.8218 132.14C19.9151 132.136 19.7984 132.141 19.8918 132.137C19.9851 132.133 19.8684 132.138 19.9618 132.134C20.0551 132.13 19.9384 132.135 20.0317 132.131C20.1251 132.127 20.0084 132.132 20.1017 132.128C20.1951 132.124 20.0784 132.129 20.1717 132.125C20.265 132.121 20.1483 132.126 20.2417 132.122C20.335 132.118 20.2183 132.123 20.3117 132.119C20.5612 132.108 20.622 132.106 20.8715 132.095C21.1211 132.084 21.1819 132.082 21.4314 132.071C21.6809 132.06 21.7417 132.058 21.9913 132.047C22.2408 132.036 22.3016 132.034 22.5511 132.023L22.4869 130.524L22.4227 129.026C22.3293 129.03 22.446 129.025 22.3527 129.029C22.2593 129.033 22.376 129.028 22.2827 129.032C22.1894 129.036 22.3061 129.031 22.2127 129.035C22.1194 129.039 22.2361 129.034 22.1427 129.038C22.0494 129.042 22.1661 129.037 22.0728 129.041C21.9794 129.045 22.0961 129.04 22.0028 129.044C21.9094 129.048 22.0261 129.043 21.9328 129.047C21.8394 129.051 21.9561 129.046 21.8628 129.05C21.7695 129.054 21.8862 129.049 21.7928 129.053C21.6995 129.057 21.8162 129.052 21.7228 129.056C21.6295 129.06 21.7462 129.055 21.6529 129.059C21.5595 129.063 21.6762 129.058 21.5829 129.062C21.4895 129.066 21.6062 129.061 21.5129 129.065C21.4195 129.069 21.5362 129.064 21.4429 129.068C21.3496 129.072 21.4663 129.067 21.3729 129.071C21.2796 129.075 21.3963 129.07 21.3029 129.074C21.2096 129.078 21.3263 129.073 21.233 129.077C21.1396 129.081 21.2563 129.076 21.163 129.08C21.0696 129.084 21.1863 129.079 21.093 129.083C20.9997 129.087 21.1164 129.082 21.023 129.086C20.9297 129.09 21.0464 129.085 20.953 129.089C20.8597 129.093 20.9764 129.088 20.883 129.092C20.7897 129.096 20.9064 129.091 20.8131 129.095C20.7197 129.099 20.8364 129.094 20.7431 129.098C20.6497 129.102 20.7664 129.097 20.6731 129.101C20.5798 129.105 20.6965 129.1 20.6031 129.104C20.5098 129.108 20.6265 129.103 20.5331 129.107C20.4398 129.111 20.5565 129.106 20.4631 129.11C20.3698 129.114 20.4865 129.109 20.3932 129.113C20.2998 129.117 20.4165 129.112 20.3232 129.116C20.2298 129.12 20.3465 129.115 20.2532 129.119C20.1599 129.123 20.2766 129.118 20.1832 129.122C19.9337 129.133 19.8729 129.135 19.6234 129.146C19.3738 129.157 19.313 129.159 19.0635 129.17C18.8139 129.181 18.7532 129.183 18.5036 129.194C18.2541 129.205 18.1933 129.207 17.9438 129.218L18.008 130.716ZM22.4869 130.524L22.552 132.023C24.0234 131.959 25.5054 131.895 26.998 131.831L26.9338 130.333L26.8696 128.834C25.3763 128.898 23.8937 128.962 22.4217 129.026L22.4869 130.524ZM26.9338 130.333L26.9338 131.833L48.9445 131.833L48.9445 130.333L48.9445 128.833L26.9338 128.833L26.9338 130.333ZM48.9445 130.333L47.4445 130.333L47.4445 139.194L48.9445 139.194L50.4445 139.194L50.4445 130.333L48.9445 130.333ZM48.9445 139.194L48.9445 137.694L2.17184 137.694L2.17184 139.194L2.17184 140.694L48.9445 140.694L48.9445 139.194ZM2.17184 139.194L3.67184 139.194L3.67184 126.685L2.17184 126.685L0.671842 126.685L0.671843 139.194L2.17184 139.194ZM2.17184 126.685L2.92433 127.983L37.9558 107.668L37.2033 106.37L36.4508 105.073L1.41936 125.388L2.17184 126.685ZM37.2033 106.37L38.7033 106.37L38.7033 106.146L37.2033 106.146L35.7033 106.146L35.7033 106.37L37.2033 106.37ZM37.2033 106.146L37.1592 104.647C35.7013 104.69 34.254 104.744 32.8173 104.808L32.8844 106.306L32.9515 107.805C34.3727 107.741 35.8047 107.688 37.2474 107.646L37.2033 106.146ZM32.8844 106.306L32.8173 104.808C32.6983 104.813 32.6684 104.815 32.5493 104.82C32.4303 104.825 32.4004 104.827 32.2814 104.832C32.1624 104.837 32.1325 104.839 32.0135 104.844C31.8944 104.849 31.8645 104.851 31.7455 104.856C31.6265 104.861 31.5966 104.863 31.4776 104.868C31.3586 104.873 31.3287 104.875 31.2097 104.88C31.0906 104.885 31.0607 104.887 30.9417 104.892C30.8227 104.897 30.7928 104.899 30.6738 104.904C30.6143 104.907 30.6998 104.903 30.6403 104.905C30.5808 104.908 30.6663 104.904 30.6068 104.907C30.5473 104.91 30.6328 104.906 30.5733 104.908C30.5138 104.911 30.5994 104.907 30.5398 104.91C30.4803 104.913 30.5659 104.909 30.5063 104.911C30.4468 104.914 30.5324 104.91 30.4728 104.913C30.4133 104.916 30.4989 104.912 30.4393 104.914C30.3798 104.917 30.4654 104.913 30.4059 104.916C30.3463 104.919 30.4319 104.915 30.3724 104.917C30.3128 104.92 30.3984 104.916 30.3389 104.919C30.2793 104.922 30.3649 104.918 30.3054 104.92C30.2458 104.923 30.3314 104.919 30.2719 104.922C30.2123 104.925 30.2979 104.921 30.2384 104.923C30.1789 104.926 30.2644 104.922 30.2049 104.925C30.1454 104.928 30.2309 104.924 30.1714 104.926C30.1119 104.929 30.1974 104.925 30.1379 104.928C30.0784 104.931 30.164 104.927 30.1044 104.929C30.0449 104.932 30.1305 104.928 30.0709 104.931C30.0114 104.934 30.097 104.93 30.0374 104.932C29.9779 104.935 30.0635 104.931 30.004 104.934C29.9444 104.937 30.03 104.933 29.9705 104.935C29.9109 104.938 29.9965 104.934 29.937 104.937C29.8774 104.94 29.963 104.936 29.9035 104.938C29.8439 104.941 29.9295 104.937 29.87 104.94C29.8104 104.943 29.896 104.939 29.8365 104.941C29.777 104.944 29.8625 104.94 29.803 104.943C29.7435 104.946 29.829 104.942 29.7695 104.944C29.71 104.947 29.7955 104.943 29.736 104.946C29.6765 104.949 29.7621 104.945 29.7025 104.947C29.643 104.95 29.7286 104.946 29.669 104.949C29.6095 104.952 29.6951 104.948 29.6355 104.95C29.576 104.953 29.6616 104.949 29.6021 104.952C29.5425 104.955 29.6281 104.951 29.5686 104.953C29.509 104.956 29.5946 104.952 29.5351 104.955C29.4755 104.958 29.5611 104.954 29.5016 104.956C29.442 104.959 29.5276 104.955 29.4681 104.958C29.4085 104.961 29.4941 104.957 29.4346 104.959C29.3751 104.962 29.4606 104.958 29.4011 104.961C29.3416 104.964 29.4271 104.96 29.3676 104.962C29.3081 104.965 29.3936 104.961 29.3341 104.964C29.2746 104.967 29.3602 104.963 29.3006 104.965C29.2411 104.968 29.3267 104.964 29.2671 104.967C29.2076 104.97 29.2932 104.966 29.2336 104.968C29.1741 104.971 29.2597 104.967 29.2001 104.97C29.1406 104.973 29.2262 104.969 29.1667 104.971C29.1071 104.974 29.1927 104.97 29.1332 104.973C29.0736 104.976 29.1592 104.972 29.0997 104.974C29.0401 104.977 29.1257 104.973 29.0662 104.976C29.0066 104.979 29.0922 104.975 29.0327 104.977C28.9732 104.98 29.0587 104.976 28.9992 104.979C28.9397 104.982 29.0252 104.978 28.9657 104.98C28.9062 104.983 28.9917 104.979 28.9322 104.982C28.8727 104.985 28.9583 104.981 28.8987 104.983C28.8392 104.986 28.9248 104.982 28.8652 104.985C28.8057 104.988 28.8913 104.984 28.8317 104.986C28.7722 104.989 28.8578 104.985 28.7982 104.988C28.7387 104.991 28.8243 104.987 28.7648 104.989C28.7052 104.992 28.7908 104.988 28.7313 104.991C28.6717 104.994 28.7573 104.99 28.6978 104.992C28.6382 104.995 28.7238 104.991 28.6643 104.994C28.6047 104.997 28.6903 104.993 28.6308 104.995C28.5713 104.998 28.6568 104.994 28.5973 104.997C28.5378 105 28.6233 104.996 28.5638 104.998C28.5043 105.001 28.5898 104.997 28.5303 105L28.5974 106.498L28.6645 107.997C28.7835 107.992 28.8134 107.99 28.9324 107.985C29.0515 107.98 29.0814 107.978 29.2004 107.973C29.3194 107.968 29.3493 107.966 29.4683 107.961C29.5873 107.956 29.6172 107.954 29.7362 107.949C29.8553 107.944 29.8852 107.942 30.0042 107.937C30.1232 107.932 30.1531 107.93 30.2721 107.925C30.3911 107.92 30.421 107.918 30.54 107.913C30.6591 107.908 30.689 107.906 30.808 107.901C30.8675 107.898 30.7819 107.902 30.8415 107.899C30.901 107.897 30.8154 107.901 30.875 107.898C30.9345 107.895 30.8489 107.899 30.9085 107.896C30.968 107.894 30.8824 107.898 30.9419 107.895C31.0015 107.892 30.9159 107.896 30.9754 107.893C31.035 107.891 30.9494 107.895 31.0089 107.892C31.0685 107.889 30.9829 107.893 31.0424 107.89C31.102 107.888 31.0164 107.892 31.0759 107.889C31.1355 107.886 31.0499 107.89 31.1094 107.887C31.1689 107.885 31.0834 107.889 31.1429 107.886C31.2024 107.883 31.1169 107.887 31.1764 107.884C31.2359 107.882 31.1503 107.886 31.2099 107.883C31.2694 107.88 31.1838 107.884 31.2434 107.881C31.3029 107.879 31.2173 107.883 31.2769 107.88C31.3364 107.877 31.2508 107.881 31.3104 107.878C31.3699 107.876 31.2843 107.88 31.3439 107.877C31.4034 107.874 31.3178 107.878 31.3773 107.875C31.4369 107.873 31.3513 107.877 31.4108 107.874C31.4704 107.871 31.3848 107.875 31.4443 107.872C31.5039 107.87 31.4183 107.874 31.4778 107.871C31.5374 107.868 31.4518 107.872 31.5113 107.869C31.5708 107.867 31.4853 107.871 31.5448 107.868C31.6043 107.865 31.5188 107.869 31.5783 107.866C31.6378 107.864 31.5523 107.868 31.6118 107.865C31.6713 107.862 31.5857 107.866 31.6453 107.863C31.7048 107.861 31.6192 107.865 31.6788 107.862C31.7383 107.859 31.6527 107.863 31.7123 107.86C31.7718 107.858 31.6862 107.862 31.7458 107.859C31.8053 107.856 31.7197 107.86 31.7792 107.857C31.8388 107.855 31.7532 107.859 31.8127 107.856C31.8723 107.853 31.7867 107.857 31.8462 107.854C31.9058 107.852 31.8202 107.856 31.8797 107.853C31.9393 107.85 31.8537 107.854 31.9132 107.851C31.9727 107.849 31.8872 107.853 31.9467 107.85C32.0062 107.847 31.9207 107.851 31.9802 107.848C32.0397 107.846 31.9542 107.85 32.0137 107.847C32.0732 107.844 31.9876 107.848 32.0472 107.845C32.1067 107.843 32.0211 107.847 32.0807 107.844C32.1402 107.841 32.0546 107.845 32.1142 107.842C32.1737 107.84 32.0881 107.844 32.1477 107.841C32.2072 107.838 32.1216 107.842 32.1811 107.839C32.2407 107.837 32.1551 107.841 32.2146 107.838C32.2742 107.835 32.1886 107.839 32.2481 107.836C32.3077 107.834 32.2221 107.838 32.2816 107.835C32.3412 107.832 32.2556 107.836 32.3151 107.833C32.3746 107.831 32.2891 107.835 32.3486 107.832C32.4081 107.829 32.3226 107.833 32.3821 107.83C32.4416 107.828 32.3561 107.832 32.4156 107.829C32.4751 107.826 32.3896 107.83 32.4491 107.827C32.5086 107.825 32.423 107.829 32.4826 107.826C32.5421 107.823 32.4565 107.827 32.5161 107.824C32.5756 107.822 32.49 107.826 32.5496 107.823C32.6091 107.82 32.5235 107.824 32.583 107.821C32.6426 107.819 32.557 107.823 32.6165 107.82C32.6761 107.817 32.5905 107.821 32.65 107.818C32.7096 107.816 32.624 107.82 32.6835 107.817C32.7431 107.814 32.6575 107.818 32.717 107.815C32.7766 107.813 32.691 107.817 32.7505 107.814C32.81 107.811 32.7245 107.815 32.784 107.812C32.8435 107.81 32.758 107.814 32.8175 107.811C32.8472 107.81 32.9217 107.806 32.9515 107.805L32.8844 106.306ZM28.5974 106.498L28.5527 104.999C28.5522 104.999 28.5196 105 28.5192 105C28.5187 105 28.4861 105.001 28.4857 105.001C28.4852 105.001 28.4526 105.002 28.4522 105.002C28.4517 105.002 28.4191 105.003 28.4187 105.003C28.4182 105.003 28.3856 105.004 28.3852 105.004C28.3847 105.004 28.3522 105.005 28.3517 105.005C28.3513 105.005 28.3187 105.006 28.3182 105.006C28.3178 105.006 28.2852 105.007 28.2847 105.007C28.2843 105.007 28.2517 105.008 28.2512 105.008C28.2508 105.008 28.2182 105.009 28.2177 105.009C28.2173 105.009 28.1847 105.01 28.1842 105.01C28.1838 105.01 28.1512 105.011 28.1508 105.011C28.1503 105.011 28.1177 105.012 28.1173 105.012C28.1168 105.012 28.0842 105.013 28.0838 105.013C28.0833 105.013 28.0507 105.014 28.0503 105.014C28.0498 105.014 28.0172 105.015 28.0168 105.015C28.0163 105.015 27.9837 105.016 27.9833 105.016C27.9828 105.016 27.9502 105.017 27.9498 105.017C27.9493 105.017 27.9168 105.018 27.9163 105.018C27.9159 105.018 27.8833 105.019 27.8828 105.019C27.8824 105.019 27.8498 105.02 27.8493 105.02C27.8489 105.02 27.8163 105.021 27.8158 105.021C27.8154 105.021 27.7828 105.022 27.7823 105.022C27.7819 105.022 27.7493 105.023 27.7488 105.023C27.7484 105.023 27.7158 105.024 27.7154 105.024C27.7149 105.024 27.6823 105.025 27.6819 105.025C27.6814 105.025 27.6488 105.026 27.6484 105.026C27.6479 105.026 27.6153 105.027 27.6149 105.027C27.6144 105.027 27.5818 105.028 27.5814 105.028C27.5809 105.028 27.5483 105.029 27.5479 105.029C27.5474 105.029 27.5149 105.03 27.5144 105.03C27.514 105.03 27.4814 105.031 27.4809 105.031C27.4805 105.031 27.4479 105.032 27.4474 105.032C27.447 105.032 27.4144 105.033 27.4139 105.033C27.4135 105.033 27.3809 105.034 27.3804 105.034C27.38 105.034 27.3474 105.035 27.3469 105.035C27.3465 105.035 27.3139 105.036 27.3135 105.036C27.313 105.036 27.2804 105.037 27.28 105.037C27.2795 105.037 27.2469 105.038 27.2465 105.038C27.246 105.038 27.2134 105.039 27.213 105.039C27.2125 105.039 27.1799 105.04 27.1795 105.04C27.179 105.04 27.1464 105.041 27.146 105.041C27.1455 105.041 27.113 105.042 27.1125 105.042C27.112 105.042 27.0795 105.043 27.079 105.043C27.0786 105.043 27.046 105.044 27.0455 105.044C27.0451 105.044 27.0125 105.045 27.012 105.045C27.0116 105.045 26.979 105.046 26.9785 105.046C26.9781 105.046 26.9455 105.047 26.945 105.047C26.9446 105.047 26.912 105.048 26.9115 105.048C26.9111 105.048 26.8785 105.049 26.8781 105.049C26.8776 105.049 26.845 105.05 26.8446 105.05C26.8441 105.05 26.8115 105.051 26.8111 105.051C26.8106 105.051 26.778 105.052 26.7776 105.052C26.7771 105.052 26.7445 105.053 26.7441 105.053C26.7436 105.053 26.7111 105.054 26.7106 105.054C26.7101 105.054 26.6776 105.055 26.6771 105.055C26.6767 105.055 26.6441 105.056 26.6436 105.056C26.6432 105.056 26.6106 105.057 26.6101 105.057C26.6097 105.057 26.5771 105.058 26.5766 105.058C26.5762 105.058 26.5436 105.059 26.5431 105.059C26.5427 105.059 26.5101 105.06 26.5096 105.06C26.5092 105.06 26.4766 105.061 26.4762 105.061C26.4757 105.061 26.4431 105.062 26.4427 105.062C26.4422 105.062 26.4096 105.063 26.4092 105.063C26.3154 105.066 26.2351 105.068 26.1412 105.071C26.0474 105.074 25.9671 105.076 25.8733 105.079C25.7795 105.082 25.6992 105.084 25.6054 105.087C25.5115 105.09 25.4313 105.092 25.3374 105.095C25.2436 105.098 25.1633 105.1 25.0695 105.103C24.9757 105.106 24.8954 105.108 24.8016 105.111C24.7077 105.114 24.6274 105.116 24.5336 105.119C24.4398 105.122 24.3595 105.124 24.2657 105.127L24.3104 106.626L24.3552 108.126C24.3557 108.126 24.3882 108.125 24.3887 108.125C24.3891 108.125 24.4217 108.124 24.4222 108.124C24.4226 108.124 24.4552 108.123 24.4557 108.123C24.4561 108.123 24.4887 108.122 24.4892 108.122C24.4896 108.122 24.5222 108.121 24.5227 108.121C24.5231 108.121 24.5557 108.12 24.5562 108.12C24.5566 108.12 24.5892 108.119 24.5897 108.119C24.5901 108.119 24.6227 108.118 24.6231 108.118C24.6236 108.118 24.6562 108.117 24.6566 108.117C24.6571 108.117 24.6897 108.116 24.6901 108.116C24.6906 108.116 24.7232 108.115 24.7236 108.115C24.7241 108.115 24.7567 108.114 24.7571 108.114C24.7576 108.114 24.7902 108.113 24.7906 108.113C24.7911 108.113 24.8236 108.112 24.8241 108.112C24.8245 108.112 24.8571 108.111 24.8576 108.111C24.858 108.111 24.8906 108.11 24.8911 108.11C24.8915 108.11 24.9241 108.109 24.9246 108.109C24.925 108.109 24.9576 108.108 24.9581 108.108C24.9585 108.108 24.9911 108.107 24.9916 108.107C24.992 108.107 25.0246 108.106 25.025 108.106C25.0255 108.106 25.0581 108.105 25.0585 108.105C25.059 108.105 25.0916 108.104 25.092 108.104C25.0925 108.104 25.1251 108.103 25.1255 108.103C25.126 108.103 25.1586 108.102 25.159 108.102C25.1595 108.102 25.1921 108.101 25.1925 108.101C25.193 108.101 25.2255 108.1 25.226 108.1C25.2264 108.1 25.259 108.099 25.2595 108.099C25.2599 108.099 25.2925 108.098 25.293 108.098C25.2934 108.098 25.326 108.097 25.3265 108.097C25.3269 108.097 25.3595 108.096 25.36 108.096C25.3604 108.096 25.393 108.095 25.3935 108.095C25.3939 108.095 25.4265 108.094 25.4269 108.094C25.4274 108.094 25.46 108.093 25.4604 108.093C25.4609 108.093 25.4935 108.092 25.4939 108.092C25.4944 108.092 25.527 108.091 25.5274 108.091C25.5279 108.091 25.5605 108.09 25.5609 108.09C25.5614 108.09 25.594 108.089 25.5944 108.089C25.5949 108.089 25.6274 108.088 25.6279 108.088C25.6284 108.088 25.6609 108.087 25.6614 108.087C25.6618 108.087 25.6944 108.086 25.6949 108.086C25.6953 108.086 25.7279 108.085 25.7284 108.085C25.7288 108.085 25.7614 108.084 25.7619 108.084C25.7623 108.084 25.7949 108.083 25.7954 108.083C25.7958 108.083 25.8284 108.082 25.8289 108.082C25.8293 108.082 25.8619 108.081 25.8623 108.081C25.8628 108.081 25.8954 108.08 25.8958 108.08C25.8963 108.08 25.9289 108.079 25.9293 108.079C25.9298 108.079 25.9624 108.078 25.9628 108.078C25.9633 108.078 25.9959 108.077 25.9963 108.077C25.9968 108.077 26.0293 108.076 26.0298 108.076C26.0303 108.076 26.0628 108.075 26.0633 108.075C26.0637 108.075 26.0963 108.074 26.0968 108.074C26.0972 108.074 26.1298 108.073 26.1303 108.073C26.1307 108.073 26.1633 108.072 26.1638 108.072C26.1642 108.072 26.1968 108.071 26.1973 108.071C26.1977 108.071 26.2303 108.07 26.2308 108.07C26.2312 108.07 26.2638 108.069 26.2642 108.069C26.2647 108.069 26.2973 108.068 26.2977 108.068C26.2982 108.068 26.3308 108.067 26.3312 108.067C26.3317 108.067 26.3643 108.066 26.3647 108.066C26.3652 108.066 26.3978 108.065 26.3982 108.065C26.3987 108.065 26.4313 108.064 26.4317 108.064C26.4322 108.064 26.4647 108.063 26.4652 108.063C26.4656 108.063 26.4982 108.062 26.4987 108.062C26.5925 108.059 26.6728 108.056 26.7666 108.054C26.8604 108.051 26.9407 108.048 27.0346 108.046C27.1284 108.043 27.2087 108.04 27.3025 108.038C27.3963 108.035 27.4766 108.032 27.5704 108.03C27.6642 108.027 27.7445 108.024 27.8384 108.022C27.9322 108.019 28.0125 108.016 28.1063 108.014C28.2001 108.011 28.2804 108.008 28.3742 108.006C28.468 108.003 28.5483 108 28.6422 107.998L28.5974 106.498ZM24.3104 106.626L24.3104 105.126L2.17184 105.126L2.17184 106.626L2.17184 108.126L24.3104 108.126L24.3104 106.626ZM2.17184 106.626L3.67184 106.626L3.67184 97.7005L2.17184 97.7005L0.671841 97.7005L0.671842 106.626L2.17184 106.626ZM2.17184 97.7005L2.17184 99.2005L48.9445 99.2005L48.9445 97.7005L48.9445 96.2005L2.17184 96.2005L2.17184 97.7005ZM48.9444 67.8518L50.4444 67.8518L50.4444 66.3518L48.9444 66.3518L48.9444 67.8518ZM48.9444 77.7693L48.9445 79.2693L50.4445 79.2693L50.4444 77.7693L48.9444 77.7693ZM10.4258 77.7693L10.4258 76.2693L8.92583 76.2693L8.92583 77.7693L10.4258 77.7693ZM10.4258 90.4703L10.4258 91.9703L11.9258 91.9703L11.9258 90.4703L10.4258 90.4703ZM2.17184 90.4703L0.671841 90.4703L0.671841 91.9703L2.17184 91.9703L2.17184 90.4703ZM2.17184 55.1509L2.17184 53.6509L0.671839 53.6509L0.671839 55.1509L2.17184 55.1509ZM10.4258 55.1509L11.9258 55.1509L11.9258 53.6509L10.4258 53.6509L10.4258 55.1509ZM10.4258 67.8518L8.92583 67.8518L8.92583 69.3518L10.4258 69.3518L10.4258 67.8518ZM48.9444 67.8518L47.4444 67.8518L47.4444 77.7693L48.9444 77.7693L50.4444 77.7693L50.4444 67.8518L48.9444 67.8518ZM48.9444 77.7693L48.9444 76.2693L10.4258 76.2693L10.4258 77.7693L10.4258 79.2693L48.9445 79.2693L48.9444 77.7693ZM10.4258 77.7693L8.92583 77.7693L8.92583 90.4703L10.4258 90.4703L11.9258 90.4703L11.9258 77.7693L10.4258 77.7693ZM10.4258 90.4703L10.4258 88.9703L2.17184 88.9703L2.17184 90.4703L2.17184 91.9703L10.4258 91.9703L10.4258 90.4703ZM2.17184 90.4703L3.67184 90.4703L3.67184 55.1509L2.17184 55.1509L0.671839 55.1509L0.671841 90.4703L2.17184 90.4703ZM2.17184 55.1509L2.17184 56.6509L10.4258 56.6509L10.4258 55.1509L10.4258 53.6509L2.17184 53.6509L2.17184 55.1509ZM10.4258 55.1509L8.92583 55.1509L8.92583 67.8518L10.4258 67.8518L11.9258 67.8518L11.9258 55.1509L10.4258 55.1509ZM10.4258 67.8518L10.4258 69.3518L48.9444 69.3518L48.9444 67.8518L48.9444 66.3518L10.4258 66.3518L10.4258 67.8518ZM48.9444 1.49994L50.4444 1.49994L50.4444 -6.41605e-05L48.9444 -6.4095e-05L48.9444 1.49994ZM48.9444 34.196L48.9444 35.696L50.4444 35.696L50.4444 34.196L48.9444 34.196ZM42.0661 34.196L41.0112 35.2624L41.4496 35.696L42.0661 35.696L42.0661 34.196ZM30.197 22.4548L31.2519 21.3884L31.2434 21.3801L30.197 22.4548ZM24.1185 16.7602L23.1256 17.8845L23.1266 17.8854L24.1185 16.7602ZM19.6396 13.625L18.9773 14.9709L18.986 14.9751L18.9947 14.9793L19.6396 13.625ZM11.1616 14.2008L12.2674 15.2144L12.2784 15.2024L12.2891 15.1902L11.1616 14.2008ZM14.5528 28.9492L15.5204 30.0954L16.6554 29.1372L15.7084 27.9929L14.5528 28.9492ZM8.18638 34.3239L7.04749 35.3001L8.01639 36.4305L9.154 35.4701L8.18638 34.3239ZM4.92317 30.069L3.68048 30.9091L3.68607 30.9173L4.92317 30.069ZM2.45977 24.8222L3.89179 24.3757L3.88876 24.3662L2.45977 24.8222ZM3.1636 9.72192L4.50264 10.3979L4.50524 10.3927L3.1636 9.72192ZM7.70649 4.60318L8.49896 5.87677L8.50533 5.87276L7.70649 4.60318ZM27.5737 8.82614L26.547 9.91977L26.553 9.92532L27.5737 8.82614ZM34.516 15.8644L33.4134 16.8815L33.4186 16.8871L33.4238 16.8927L34.516 15.8644ZM40.1786 21.879L39.0865 22.9072L39.5306 23.379L40.1786 23.379L40.1786 21.879ZM40.6265 21.879L40.6265 23.379L42.1265 23.379L42.1265 21.879L40.6265 21.879ZM40.6265 1.49994L40.6265 -6.37314e-05L39.1265 -6.36658e-05L39.1265 1.49994L40.6265 1.49994ZM48.9444 1.49994L47.4444 1.49994L47.4444 34.196L48.9444 34.196L50.4444 34.196L50.4444 1.49994L48.9444 1.49994ZM48.9444 34.196L48.9444 32.696L42.0661 32.696L42.0661 34.196L42.0661 35.696L48.9444 35.696L48.9444 34.196ZM42.0661 34.196L43.121 33.1296L31.2519 21.3884L30.197 22.4548L29.1421 23.5212L41.0112 35.2624L42.0661 34.196ZM30.197 22.4548L31.2434 21.3801C28.803 19.0039 26.7573 17.0868 25.1104 15.635L24.1185 16.7602L23.1266 17.8854C24.7216 19.2915 26.7282 21.1709 29.1506 23.5295L30.197 22.4548ZM24.1185 16.7602L25.1114 15.6359C23.4089 14.1323 21.7985 12.9917 20.2845 12.2707L19.6396 13.625L18.9947 14.9793C20.168 15.538 21.5436 16.4875 23.1256 17.8845L24.1185 16.7602ZM19.6396 13.625L20.3018 12.2791C18.7468 11.5139 17.0799 11.1332 15.3206 11.1332L15.3206 12.6332L15.3206 14.1332C16.6327 14.1332 17.845 14.4137 18.9773 14.9709L19.6396 13.625ZM15.3206 12.6332L15.3206 11.1332C13.1857 11.1332 11.3232 11.7426 10.0342 13.2114L11.1616 14.2008L12.2891 15.1902C12.8343 14.5689 13.7445 14.1332 15.3206 14.1332L15.3206 12.6332ZM11.1616 14.2008L10.0559 13.1872C8.80595 14.5508 8.25399 16.3206 8.25399 18.3278L9.75399 18.3278L11.254 18.3278C11.254 16.8799 11.6405 15.8983 12.2674 15.2144L11.1616 14.2008ZM9.75399 18.3278L8.25399 18.3278C8.25399 20.3793 8.72659 22.3627 9.65337 24.2638L11.0017 23.6065L12.35 22.9492C11.6132 21.4378 11.254 19.9022 11.254 18.3278L9.75399 18.3278ZM11.0017 23.6065L9.65337 24.2638C10.5491 26.1012 11.805 27.9816 13.3972 29.9056L14.5528 28.9492L15.7084 27.9929C14.2294 26.2058 13.1179 24.5244 12.35 22.9492L11.0017 23.6065ZM14.5528 28.9492L13.5852 27.8031L7.21875 33.1778L8.18638 34.3239L9.154 35.4701L15.5204 30.0954L14.5528 28.9492ZM8.18638 34.3239L9.32526 33.3477C8.20934 32.0458 7.15429 30.6703 6.16026 29.2207L4.92317 30.069L3.68607 30.9173C4.73955 32.4536 5.85998 33.9147 7.04749 35.3001L8.18638 34.3239ZM4.92317 30.069L6.16583 29.2289C5.23437 27.8511 4.47255 26.2382 3.89176 24.3757L2.45977 24.8222L1.02778 25.2688C1.68402 27.3733 2.56447 29.2583 3.68051 30.9091L4.92317 30.069ZM2.45977 24.8222L3.88876 24.3662C3.30851 22.5481 3 20.3107 3 17.624L1.5 17.624L7.9929e-07 17.624C9.26109e-07 20.5253 0.331342 23.0867 1.03078 25.2783L2.45977 24.8222ZM1.5 17.624L3 17.624C3 14.7306 3.52239 12.3396 4.50263 10.3979L3.1636 9.72192L1.82457 9.0459C0.586678 11.4979 6.57266e-07 14.3749 7.9929e-07 17.624L1.5 17.624ZM3.1636 9.72192L4.50524 10.3927C5.50283 8.39757 6.83713 6.91077 8.49894 5.87675L7.70649 4.60318L6.91404 3.32959C4.73679 4.68433 3.0425 6.61001 1.82196 9.0511L3.1636 9.72192ZM7.70649 4.60318L8.50533 5.87276C10.1463 4.84021 12.0195 4.31161 14.1689 4.31161L14.1689 2.81161L14.1689 1.31161C11.4981 1.31161 9.06305 1.97735 6.90765 3.33359L7.70649 4.60318ZM14.1689 2.81161L14.1689 4.31161C16.5456 4.31161 18.6777 4.78158 20.5901 5.69951L21.2392 4.34723L21.8883 2.99493C19.535 1.86539 16.9536 1.31161 14.1689 1.31161L14.1689 2.81161ZM21.2392 4.34723L20.5901 5.69951C22.5589 6.64453 24.5459 8.04114 26.547 9.91975L27.5737 8.82614L28.6003 7.73253C26.4211 5.68677 24.1851 4.09741 21.8883 2.99493L21.2392 4.34723ZM27.5737 8.82614L26.553 9.92532C28.6077 11.8332 30.894 14.1504 33.4134 16.8815L34.516 15.8644L35.6185 14.8473C33.0618 12.0758 30.72 9.70076 28.5943 7.72694L27.5737 8.82614ZM34.516 15.8644L33.4238 16.8927L39.0865 22.9072L40.1786 21.879L41.2707 20.8507L35.6081 14.8362L34.516 15.8644ZM40.1786 21.879L40.1786 23.379L40.6265 23.379L40.6265 21.879L40.6265 20.379L40.1786 20.379L40.1786 21.879ZM40.6265 21.879L42.1265 21.879L42.1265 1.49994L40.6265 1.49994L39.1265 1.49994L39.1265 21.879L40.6265 21.879ZM40.6265 1.49994L40.6265 2.99994L48.9444 2.99994L48.9444 1.49994L48.9444 -6.4095e-05L40.6265 -6.37314e-05L40.6265 1.49994Z" fill="#636363" mask="url(#path-1-outside-1_235_20825)"/>
</svg>
