<svg width="49" height="248" viewBox="0 0 49 248" fill="none" xmlns="http://www.w3.org/2000/svg">
<mask id="path-1-outside-1_235_24197" maskUnits="userSpaceOnUse" x="-0.727367" y="-0.105228" width="51" height="249" fill="black">
<rect fill="white" x="-0.727367" y="-0.105228" width="51" height="249"/>
<path d="M48.2726 220.071L48.2726 247.008L1.50004 247.008L1.50003 220.071L9.62606 220.071L9.62606 237.091L19.8956 237.091L19.8956 221.254L28.0216 221.254L28.0216 237.091L40.0826 237.091L40.0826 220.071L48.2726 220.071ZM1.50003 173.586L48.2726 189.486L48.2726 200.3L1.50003 216.168L1.50003 206.154L29.3333 197.356C29.8025 197.207 30.6876 196.962 31.9886 196.62C33.2683 196.279 34.6333 195.938 36.0836 195.597C37.5126 195.234 38.6963 194.989 39.6347 194.861C38.6963 194.733 37.5126 194.509 36.0836 194.189C34.6546 193.848 33.3003 193.517 32.0206 193.197C30.7196 192.856 29.8238 192.611 29.3333 192.461L1.50003 183.6L1.50003 173.586ZM48.2726 140.73L48.2726 167.668L1.50003 167.668L1.50003 140.73L9.62605 140.73L9.62605 157.75L19.8956 157.75L19.8956 141.914L28.0216 141.914L28.0216 157.75L40.0826 157.75L40.0826 140.73L48.2726 140.73ZM48.2726 89.4466L48.2726 102.052L12.8893 122.399L12.8893 122.686C14.3609 122.601 15.8432 122.527 17.3362 122.463C18.8291 122.399 20.3221 122.335 21.8151 122.271C23.2867 122.207 24.769 122.143 26.262 122.079L48.2726 122.079L48.2726 130.94L1.50003 130.94L1.50003 118.432L36.5315 98.1165L36.5315 97.8925C35.0812 97.9352 33.6415 97.9885 32.2125 98.0525C30.7836 98.1165 29.3546 98.1805 27.9256 98.2444C26.4966 98.2871 25.0676 98.3297 23.6386 98.3724L1.50003 98.3724L1.50003 89.4466L48.2726 89.4466ZM48.2726 59.5979L48.2726 69.5154L9.75402 69.5154L9.75402 82.2163L1.50003 82.2163L1.50003 46.897L9.75402 46.897L9.75402 59.5979L48.2726 59.5979ZM48.2726 1.5L48.2726 11.3856L21.2072 11.3856C20.4607 11.3856 19.5436 11.3749 18.4559 11.3536C17.3468 11.3323 16.2164 11.3003 15.0647 11.2576C13.8917 11.215 12.8359 11.1723 11.8975 11.1297C12.1748 11.3643 12.6546 11.8442 13.3371 12.5693C13.9983 13.2731 14.5955 13.9343 15.1287 14.5528L19.4477 19.9275L13.4971 24.6944L1.50003 9.62603L1.50002 1.50001L48.2726 1.5Z"/>
</mask>
<path d="M48.2726 220.071L48.2726 247.008L1.50004 247.008L1.50003 220.071L9.62606 220.071L9.62606 237.091L19.8956 237.091L19.8956 221.254L28.0216 221.254L28.0216 237.091L40.0826 237.091L40.0826 220.071L48.2726 220.071ZM1.50003 173.586L48.2726 189.486L48.2726 200.3L1.50003 216.168L1.50003 206.154L29.3333 197.356C29.8025 197.207 30.6876 196.962 31.9886 196.62C33.2683 196.279 34.6333 195.938 36.0836 195.597C37.5126 195.234 38.6963 194.989 39.6347 194.861C38.6963 194.733 37.5126 194.509 36.0836 194.189C34.6546 193.848 33.3003 193.517 32.0206 193.197C30.7196 192.856 29.8238 192.611 29.3333 192.461L1.50003 183.6L1.50003 173.586ZM48.2726 140.73L48.2726 167.668L1.50003 167.668L1.50003 140.73L9.62605 140.73L9.62605 157.75L19.8956 157.75L19.8956 141.914L28.0216 141.914L28.0216 157.75L40.0826 157.75L40.0826 140.73L48.2726 140.73ZM48.2726 89.4466L48.2726 102.052L12.8893 122.399L12.8893 122.686C14.3609 122.601 15.8432 122.527 17.3362 122.463C18.8291 122.399 20.3221 122.335 21.8151 122.271C23.2867 122.207 24.769 122.143 26.262 122.079L48.2726 122.079L48.2726 130.94L1.50003 130.94L1.50003 118.432L36.5315 98.1165L36.5315 97.8925C35.0812 97.9352 33.6415 97.9885 32.2125 98.0525C30.7836 98.1165 29.3546 98.1805 27.9256 98.2444C26.4966 98.2871 25.0676 98.3297 23.6386 98.3724L1.50003 98.3724L1.50003 89.4466L48.2726 89.4466ZM48.2726 59.5979L48.2726 69.5154L9.75402 69.5154L9.75402 82.2163L1.50003 82.2163L1.50003 46.897L9.75402 46.897L9.75402 59.5979L48.2726 59.5979ZM48.2726 1.5L48.2726 11.3856L21.2072 11.3856C20.4607 11.3856 19.5436 11.3749 18.4559 11.3536C17.3468 11.3323 16.2164 11.3003 15.0647 11.2576C13.8917 11.215 12.8359 11.1723 11.8975 11.1297C12.1748 11.3643 12.6546 11.8442 13.3371 12.5693C13.9983 13.2731 14.5955 13.9343 15.1287 14.5528L19.4477 19.9275L13.4971 24.6944L1.50003 9.62603L1.50002 1.50001L48.2726 1.5Z" fill="#1D110F"/>
<path d="M48.2726 220.071L49.7726 220.071L49.7726 218.571L48.2726 218.571L48.2726 220.071ZM48.2726 247.008L48.2726 248.508L49.7726 248.508L49.7726 247.008L48.2726 247.008ZM1.50003 247.008L3.4075e-05 247.008L3.41405e-05 248.508L1.50003 248.508L1.50003 247.008ZM1.50003 220.071L1.50003 218.571L3.28319e-05 218.571L3.28975e-05 220.071L1.50003 220.071ZM9.62606 220.071L11.1261 220.071L11.1261 218.571L9.62606 218.571L9.62606 220.071ZM9.62606 237.091L8.12606 237.091L8.12606 238.591L9.62606 238.591L9.62606 237.091ZM19.8956 237.091L19.8956 238.591L21.3956 238.591L21.3956 237.091L19.8956 237.091ZM19.8956 221.254L19.8956 219.754L18.3956 219.754L18.3956 221.254L19.8956 221.254ZM28.0216 221.254L29.5216 221.254L29.5216 219.754L28.0216 219.754L28.0216 221.254ZM28.0216 237.091L26.5216 237.091L26.5216 238.591L28.0216 238.591L28.0216 237.091ZM40.0826 237.091L40.0826 238.591L41.5826 238.591L41.5826 237.091L40.0826 237.091ZM40.0826 220.071L40.0826 218.571L38.5826 218.571L38.5826 220.071L40.0826 220.071ZM48.2726 220.071L46.7726 220.071L46.7726 247.008L48.2726 247.008L49.7726 247.008L49.7726 220.071L48.2726 220.071ZM48.2726 247.008L48.2726 245.508L1.50003 245.508L1.50003 247.008L1.50003 248.508L48.2726 248.508L48.2726 247.008ZM1.50003 247.008L3.00003 247.008L3.00003 220.071L1.50003 220.071L3.28975e-05 220.071L3.4075e-05 247.008L1.50003 247.008ZM1.50003 220.071L1.50003 221.571L9.62606 221.571L9.62606 220.071L9.62606 218.571L1.50003 218.571L1.50003 220.071ZM9.62606 220.071L8.12606 220.071L8.12606 237.091L9.62606 237.091L11.1261 237.091L11.1261 220.071L9.62606 220.071ZM9.62606 237.091L9.62606 238.591L19.8956 238.591L19.8956 237.091L19.8956 235.591L9.62606 235.591L9.62606 237.091ZM19.8956 237.091L21.3956 237.091L21.3956 221.254L19.8956 221.254L18.3956 221.254L18.3956 237.091L19.8956 237.091ZM19.8956 221.254L19.8956 222.754L28.0216 222.754L28.0216 221.254L28.0216 219.754L19.8956 219.754L19.8956 221.254ZM28.0216 221.254L26.5216 221.254L26.5216 237.091L28.0216 237.091L29.5216 237.091L29.5216 221.254L28.0216 221.254ZM28.0216 237.091L28.0216 238.591L40.0826 238.591L40.0826 237.091L40.0826 235.591L28.0216 235.591L28.0216 237.091ZM40.0826 237.091L41.5826 237.091L41.5826 220.071L40.0826 220.071L38.5826 220.071L38.5826 237.091L40.0826 237.091ZM40.0826 220.071L40.0826 221.571L48.2726 221.571L48.2726 220.071L48.2726 218.571L40.0826 218.571L40.0826 220.071ZM1.50003 173.586L1.98282 172.166L3.0774e-05 171.492L3.08656e-05 173.586L1.50003 173.586ZM48.2726 189.486L49.7726 189.486L49.7726 188.412L48.7554 188.066L48.2726 189.486ZM48.2726 200.3L48.7546 201.72L49.7726 201.375L49.7726 200.3L48.2726 200.3ZM1.50003 216.168L3.27269e-05 216.168L3.28184e-05 218.261L1.98195 217.588L1.50003 216.168ZM1.50003 206.154L1.04794 204.724L3.22411e-05 205.055L3.22892e-05 206.154L1.50003 206.154ZM29.3333 197.356L29.7853 198.787L29.7881 198.786L29.3333 197.356ZM31.9886 196.62L32.3692 198.071L32.3751 198.07L31.9886 196.62ZM36.0836 195.597L36.4272 197.057L36.4399 197.054L36.4525 197.051L36.0836 195.597ZM39.6347 194.861L39.8374 196.347L39.8374 193.375L39.6347 194.861ZM36.0836 194.189L35.7352 195.648L35.7455 195.651L35.7559 195.653L36.0836 194.189ZM32.0206 193.197L31.64 194.648L31.6484 194.65L31.6568 194.653L32.0206 193.197ZM29.3333 192.461L28.8782 193.891L28.8873 193.894L28.8965 193.897L29.3333 192.461ZM1.50003 183.6L3.13033e-05 183.6L3.13512e-05 184.696L1.04496 185.029L1.50003 183.6ZM1.50003 173.586L1.01725 175.006L47.7899 190.906L48.2726 189.486L48.7554 188.066L1.98282 172.166L1.50003 173.586ZM48.2726 189.486L46.7726 189.486L46.7726 200.3L48.2726 200.3L49.7726 200.3L49.7726 189.486L48.2726 189.486ZM48.2726 200.3L47.7907 198.879L1.01812 214.747L1.50003 216.168L1.98195 217.588L48.7546 201.72L48.2726 200.3ZM1.50003 216.168L3.00003 216.168L3.00003 206.154L1.50003 206.154L3.22892e-05 206.154L3.27269e-05 216.168L1.50003 216.168ZM1.50003 206.154L1.95212 207.584L29.7853 198.787L29.3333 197.356L28.8812 195.926L1.04794 204.724L1.50003 206.154ZM29.3333 197.356L29.7881 198.786C30.2152 198.65 31.0646 198.414 32.3692 198.071L31.9886 196.62L31.608 195.17C30.3106 195.51 29.3897 195.764 28.8784 195.927L29.3333 197.356ZM31.9886 196.62L32.3751 198.07C33.6389 197.733 34.9895 197.395 36.4272 197.057L36.0836 195.597L35.7401 194.137C34.2771 194.481 32.8977 194.826 31.6021 195.171L31.9886 196.62ZM36.0836 195.597L36.4525 197.051C37.8532 196.695 38.9767 196.465 39.8374 196.347L39.6347 194.861L39.4321 193.375C38.4159 193.513 37.1719 193.773 35.7147 194.143L36.0836 195.597ZM39.6347 194.861L39.8374 193.375C38.9571 193.255 37.8186 193.04 36.4113 192.725L36.0836 194.189L35.7559 195.653C37.2066 195.978 38.4356 196.211 39.4321 196.347L39.6347 194.861ZM36.0836 194.189L36.432 192.73C35.0076 192.39 33.6584 192.061 32.3844 191.742L32.0206 193.197L31.6568 194.653C32.9421 194.974 34.3016 195.306 35.7352 195.648L36.0836 194.189ZM32.0206 193.197L32.4012 191.746C31.0983 191.405 30.229 191.166 29.77 191.026L29.3333 192.461L28.8965 193.897C29.4186 194.055 30.3408 194.307 31.64 194.648L32.0206 193.197ZM29.3333 192.461L29.7883 191.032L1.95511 182.17L1.50003 183.6L1.04496 185.029L28.8782 193.891L29.3333 192.461ZM1.50003 183.6L3.00003 183.6L3.00003 173.586L1.50003 173.586L3.08656e-05 173.586L3.13033e-05 183.6L1.50003 183.6ZM48.2726 140.73L49.7726 140.73L49.7726 139.23L48.2726 139.23L48.2726 140.73ZM48.2726 167.668L48.2726 169.168L49.7726 169.168L49.7726 167.668L48.2726 167.668ZM1.50003 167.668L3.06069e-05 167.668L3.06724e-05 169.168L1.50003 169.168L1.50003 167.668ZM1.50003 140.73L1.50003 139.23L2.93638e-05 139.23L2.94294e-05 140.73L1.50003 140.73ZM9.62605 140.73L11.1261 140.73L11.1261 139.23L9.62605 139.23L9.62605 140.73ZM9.62605 157.75L8.12605 157.75L8.12605 159.25L9.62605 159.25L9.62605 157.75ZM19.8955 157.75L19.8955 159.25L21.3955 159.25L21.3955 157.75L19.8955 157.75ZM19.8955 141.914L19.8955 140.414L18.3955 140.414L18.3955 141.914L19.8955 141.914ZM28.0216 141.914L29.5216 141.914L29.5216 140.414L28.0216 140.414L28.0216 141.914ZM28.0216 157.75L26.5216 157.75L26.5216 159.25L28.0216 159.25L28.0216 157.75ZM40.0826 157.75L40.0826 159.25L41.5826 159.25L41.5826 157.75L40.0826 157.75ZM40.0826 140.73L40.0826 139.23L38.5826 139.23L38.5826 140.73L40.0826 140.73ZM48.2726 140.73L46.7726 140.73L46.7726 167.668L48.2726 167.668L49.7726 167.668L49.7726 140.73L48.2726 140.73ZM48.2726 167.668L48.2726 166.168L1.50003 166.168L1.50003 167.668L1.50003 169.168L48.2726 169.168L48.2726 167.668ZM1.50003 167.668L3.00003 167.668L3.00003 140.73L1.50003 140.73L2.94294e-05 140.73L3.06069e-05 167.668L1.50003 167.668ZM1.50003 140.73L1.50003 142.23L9.62605 142.23L9.62605 140.73L9.62605 139.23L1.50003 139.23L1.50003 140.73ZM9.62605 140.73L8.12605 140.73L8.12605 157.75L9.62605 157.75L11.1261 157.75L11.1261 140.73L9.62605 140.73ZM9.62605 157.75L9.62605 159.25L19.8955 159.25L19.8955 157.75L19.8955 156.25L9.62605 156.25L9.62605 157.75ZM19.8955 157.75L21.3955 157.75L21.3955 141.914L19.8955 141.914L18.3955 141.914L18.3955 157.75L19.8955 157.75ZM19.8955 141.914L19.8955 143.414L28.0216 143.414L28.0216 141.914L28.0216 140.414L19.8955 140.414L19.8955 141.914ZM28.0216 141.914L26.5216 141.914L26.5216 157.75L28.0216 157.75L29.5216 157.75L29.5216 141.914L28.0216 141.914ZM28.0216 157.75L28.0216 159.25L40.0826 159.25L40.0826 157.75L40.0826 156.25L28.0216 156.25L28.0216 157.75ZM40.0826 157.75L41.5826 157.75L41.5826 140.73L40.0826 140.73L38.5826 140.73L38.5826 157.75L40.0826 157.75ZM40.0826 140.73L40.0826 142.23L48.2726 142.23L48.2726 140.73L48.2726 139.23L40.0826 139.23L40.0826 140.73ZM48.2726 89.4466L49.7726 89.4466L49.7726 87.9466L48.2726 87.9466L48.2726 89.4466ZM48.2726 102.052L49.0204 103.352L49.7726 102.919L49.7726 102.052L48.2726 102.052ZM12.8893 122.399L12.1415 121.098L11.3893 121.531L11.3893 122.399L12.8893 122.399ZM12.8893 122.686L11.3893 122.686L11.3893 124.276L12.9761 124.184L12.8893 122.686ZM21.8151 122.271L21.8793 123.769L21.8802 123.769L21.8151 122.271ZM26.262 122.079L26.262 120.579L26.2299 120.579L26.1978 120.58L26.262 122.079ZM48.2726 122.079L49.7726 122.079L49.7726 120.579L48.2726 120.579L48.2726 122.079ZM48.2726 130.94L48.2726 132.44L49.7726 132.44L49.7726 130.94L48.2726 130.94ZM1.50003 130.94L2.90015e-05 130.94L2.90671e-05 132.44L1.50003 132.44L1.50003 130.94ZM1.50003 118.432L0.747541 117.134L2.84169e-05 117.567L2.84547e-05 118.432L1.50003 118.432ZM36.5315 98.1165L37.284 99.4141L38.0315 98.9806L38.0315 98.1165L36.5315 98.1165ZM36.5315 97.8925L38.0315 97.8925L38.0315 96.3478L36.4874 96.3932L36.5315 97.8925ZM27.9256 98.2444L27.9703 99.7438L27.9815 99.7434L27.9927 99.7429L27.9256 98.2444ZM23.6386 98.3724L23.6386 99.8724L23.661 99.8724L23.6834 99.8717L23.6386 98.3724ZM1.50003 98.3724L2.75779e-05 98.3724L2.76435e-05 99.8724L1.50003 99.8724L1.50003 98.3724ZM1.50003 89.4466L1.50003 87.9466L2.71222e-05 87.9466L2.71877e-05 89.4466L1.50003 89.4466ZM48.2726 89.4466L46.7726 89.4466L46.7726 102.052L48.2726 102.052L49.7726 102.052L49.7726 89.4466L48.2726 89.4466ZM48.2726 102.052L47.5249 100.751L12.1415 121.098L12.8893 122.399L13.637 123.699L49.0204 103.352L48.2726 102.052ZM12.8893 122.399L11.3893 122.399L11.3893 122.686L12.8893 122.686L14.3893 122.686L14.3893 122.399L12.8893 122.399ZM12.8893 122.686L12.9761 124.184C14.4401 124.099 15.9149 124.025 17.4004 123.961L17.3362 122.463L17.2719 120.964C15.7715 121.028 14.2817 121.103 12.8024 121.189L12.8893 122.686ZM17.3362 122.463L17.4004 123.961C17.4937 123.957 17.377 123.962 17.4704 123.958C17.5637 123.954 17.447 123.959 17.5404 123.955C17.6337 123.951 17.517 123.956 17.6103 123.952C17.7037 123.948 17.587 123.953 17.6803 123.949C17.7737 123.945 17.657 123.95 17.7503 123.946C17.8437 123.942 17.727 123.947 17.8203 123.943C17.9136 123.939 17.7969 123.944 17.8903 123.94C17.9836 123.936 17.8669 123.941 17.9603 123.937C18.0536 123.933 17.9369 123.938 18.0302 123.934C18.1236 123.93 18.0069 123.935 18.1002 123.931C18.1936 123.927 18.0769 123.932 18.1702 123.928C18.2636 123.924 18.1469 123.929 18.2402 123.925C18.3335 123.921 18.2168 123.926 18.3102 123.922C18.4035 123.918 18.2868 123.923 18.3802 123.919C18.4735 123.915 18.3568 123.92 18.4501 123.916C18.5435 123.912 18.4268 123.917 18.5201 123.913C18.6135 123.909 18.4968 123.914 18.5901 123.91C18.6835 123.906 18.5668 123.911 18.6601 123.907C18.7534 123.903 18.6367 123.908 18.7301 123.904C18.8234 123.9 18.7067 123.905 18.8001 123.901C18.8934 123.897 18.7767 123.902 18.87 123.898C18.9634 123.894 18.8467 123.899 18.94 123.895C19.0334 123.891 18.9167 123.896 19.01 123.892C19.1033 123.888 18.9867 123.893 19.08 123.889C19.1733 123.885 19.0566 123.89 19.15 123.886C19.2433 123.882 19.1266 123.887 19.22 123.883C19.3133 123.879 19.1966 123.884 19.2899 123.88C19.3833 123.876 19.2666 123.881 19.3599 123.877C19.4533 123.873 19.3366 123.878 19.4299 123.874C19.5232 123.87 19.4065 123.875 19.4999 123.871C19.5932 123.867 19.4765 123.872 19.5699 123.868C19.6632 123.864 19.5465 123.869 19.6399 123.865C19.8894 123.854 19.9502 123.852 20.1997 123.841C20.4493 123.831 20.51 123.828 20.7596 123.817C21.0091 123.807 21.0699 123.804 21.3194 123.793C21.569 123.783 21.6298 123.78 21.8793 123.769L21.8151 122.271L21.7509 120.772C21.6575 120.776 21.7742 120.771 21.6809 120.775C21.5875 120.779 21.7042 120.774 21.6109 120.778C21.5175 120.782 21.6342 120.777 21.5409 120.781C21.4476 120.785 21.5643 120.78 21.4709 120.784C21.3776 120.788 21.4943 120.783 21.4009 120.787C21.3076 120.791 21.4243 120.786 21.331 120.79C21.2376 120.794 21.3543 120.789 21.261 120.793C21.1676 120.797 21.2843 120.792 21.191 120.796C21.0977 120.8 21.2143 120.795 21.121 120.799C21.0277 120.803 21.1444 120.798 21.051 120.802C20.9577 120.806 21.0744 120.801 20.981 120.805C20.8877 120.809 21.0044 120.804 20.9111 120.808C20.8177 120.812 20.9344 120.807 20.8411 120.811C20.7477 120.815 20.8644 120.81 20.7711 120.814C20.6778 120.818 20.7945 120.813 20.7011 120.817C20.6078 120.821 20.7245 120.816 20.6311 120.82C20.5378 120.824 20.6545 120.819 20.5611 120.823C20.4678 120.827 20.5845 120.822 20.4912 120.826C20.3978 120.83 20.5145 120.825 20.4212 120.829C20.3278 120.833 20.4445 120.828 20.3512 120.832C20.2579 120.836 20.3746 120.831 20.2812 120.835C20.1879 120.839 20.3046 120.834 20.2112 120.838C20.1179 120.842 20.2346 120.837 20.1412 120.841C20.0479 120.845 20.1646 120.84 20.0713 120.844C19.9779 120.848 20.0946 120.843 20.0013 120.847C19.9079 120.851 20.0246 120.846 19.9313 120.85C19.838 120.854 19.9547 120.849 19.8613 120.853C19.768 120.857 19.8847 120.852 19.7913 120.856C19.698 120.86 19.8147 120.855 19.7213 120.859C19.628 120.863 19.7447 120.858 19.6514 120.862C19.558 120.866 19.6747 120.861 19.5814 120.865C19.488 120.869 19.6047 120.864 19.5114 120.868C19.2619 120.879 19.2011 120.881 18.9515 120.892C18.702 120.903 18.6412 120.905 18.3917 120.916C18.1421 120.927 18.0813 120.929 17.8318 120.94C17.5823 120.951 17.5215 120.953 17.2719 120.964L17.3362 122.463ZM21.8151 122.271L21.8802 123.769C23.3516 123.705 24.8336 123.641 26.3262 123.577L26.262 122.079L26.1978 120.58C24.7045 120.644 23.2219 120.708 21.7499 120.772L21.8151 122.271ZM26.262 122.079L26.262 123.579L48.2726 123.579L48.2726 122.079L48.2726 120.579L26.262 120.579L26.262 122.079ZM48.2726 122.079L46.7726 122.079L46.7726 130.94L48.2726 130.94L49.7726 130.94L49.7726 122.079L48.2726 122.079ZM48.2726 130.94L48.2726 129.44L1.50003 129.44L1.50003 130.94L1.50003 132.44L48.2726 132.44L48.2726 130.94ZM1.50003 130.94L3.00003 130.94L3.00003 118.432L1.50003 118.432L2.84547e-05 118.432L2.90015e-05 130.94L1.50003 130.94ZM1.50003 118.432L2.25252 119.729L37.284 99.4141L36.5315 98.1165L35.779 96.8189L0.747541 117.134L1.50003 118.432ZM36.5315 98.1165L38.0315 98.1165L38.0315 97.8925L36.5315 97.8925L35.0315 97.8925L35.0315 98.1165L36.5315 98.1165ZM36.5315 97.8925L36.4874 96.3932C35.0295 96.436 33.5822 96.4897 32.1455 96.554L32.2125 98.0525L32.2796 99.551C33.7009 99.4873 35.1328 99.4343 36.5756 99.3919L36.5315 97.8925ZM32.2125 98.0525L32.1455 96.554C32.0264 96.5593 31.9965 96.5607 31.8775 96.566C31.7585 96.5713 31.7286 96.5726 31.6096 96.578C31.4906 96.5833 31.4607 96.5847 31.3416 96.59C31.2226 96.5953 31.1927 96.5966 31.0737 96.602C30.9547 96.6073 30.9248 96.6086 30.8058 96.614C30.6868 96.6193 30.6569 96.6206 30.5378 96.626C30.4188 96.6313 30.3889 96.6326 30.2699 96.638C30.1509 96.6433 30.121 96.6446 30.002 96.65C29.9424 96.6526 30.028 96.6488 29.9685 96.6515C29.9089 96.6541 29.9945 96.6503 29.935 96.653C29.8755 96.6556 29.961 96.6518 29.9015 96.6545C29.842 96.6571 29.9275 96.6533 29.868 96.656C29.8085 96.6586 29.8941 96.6548 29.8345 96.6575C29.775 96.6601 29.8606 96.6563 29.801 96.659C29.7415 96.6616 29.8271 96.6578 29.7675 96.6605C29.708 96.6631 29.7936 96.6593 29.734 96.662C29.6745 96.6646 29.7601 96.6608 29.7005 96.6634C29.641 96.6661 29.7266 96.6623 29.6671 96.665C29.6075 96.6676 29.6931 96.6638 29.6336 96.6665C29.574 96.6691 29.6596 96.6653 29.6001 96.668C29.5405 96.6706 29.6261 96.6668 29.5666 96.6695C29.507 96.6721 29.5926 96.6683 29.5331 96.671C29.4736 96.6736 29.5591 96.6698 29.4996 96.6725C29.4401 96.6751 29.5256 96.6713 29.4661 96.6739C29.4066 96.6766 29.4921 96.6728 29.4326 96.6755C29.3731 96.6781 29.4587 96.6743 29.3991 96.677C29.3396 96.6796 29.4252 96.6758 29.3656 96.6784C29.3061 96.6811 29.3917 96.6773 29.3321 96.68C29.2726 96.6826 29.3582 96.6788 29.2986 96.6815C29.2391 96.6841 29.3247 96.6803 29.2652 96.683C29.2056 96.6856 29.2912 96.6818 29.2317 96.6844C29.1721 96.6871 29.2577 96.6833 29.1982 96.686C29.1386 96.6886 29.2242 96.6848 29.1647 96.6875C29.1051 96.6901 29.1907 96.6863 29.1312 96.6889C29.0717 96.6916 29.1572 96.6878 29.0977 96.6905C29.0382 96.6931 29.1237 96.6893 29.0642 96.692C29.0047 96.6946 29.0902 96.6908 29.0307 96.6934C28.9712 96.6961 29.0568 96.6923 28.9972 96.6949C28.9377 96.6976 29.0233 96.6938 28.9637 96.6965C28.9042 96.6991 28.9898 96.6953 28.9302 96.698C28.8707 96.7006 28.9563 96.6968 28.8967 96.6994C28.8372 96.7021 28.9228 96.6983 28.8633 96.701C28.8037 96.7036 28.8893 96.6998 28.8298 96.7025C28.7702 96.7051 28.8558 96.7013 28.7963 96.7039C28.7367 96.7066 28.8223 96.7028 28.7628 96.7054C28.7032 96.7081 28.7888 96.7043 28.7293 96.707C28.6697 96.7096 28.7553 96.7058 28.6958 96.7084C28.6363 96.7111 28.7218 96.7073 28.6623 96.7099C28.6028 96.7126 28.6883 96.7088 28.6288 96.7115C28.5693 96.7141 28.6549 96.7103 28.5953 96.7129C28.5358 96.7156 28.6214 96.7118 28.5618 96.7144C28.5023 96.7171 28.5879 96.7133 28.5283 96.7159C28.4688 96.7186 28.5544 96.7148 28.4948 96.7174C28.4353 96.7201 28.5209 96.7163 28.4614 96.7189C28.4018 96.7216 28.4874 96.7178 28.4279 96.7204C28.3683 96.7231 28.4539 96.7193 28.3944 96.722C28.3348 96.7246 28.4204 96.7208 28.3609 96.7234C28.3013 96.7261 28.3869 96.7223 28.3274 96.7249C28.2678 96.7276 28.3534 96.7238 28.2939 96.7264C28.2344 96.7291 28.3199 96.7253 28.2604 96.7279C28.2009 96.7306 28.2864 96.7268 28.2269 96.7294C28.1674 96.7321 28.2529 96.7283 28.1934 96.7309C28.1339 96.7336 28.2195 96.7298 28.1599 96.7325C28.1004 96.7351 28.186 96.7313 28.1264 96.7339C28.0669 96.7366 28.1525 96.7328 28.0929 96.7354C28.0334 96.7381 28.119 96.7343 28.0594 96.7369C27.9999 96.7396 28.0855 96.7358 28.026 96.7384C27.9664 96.7411 28.052 96.7373 27.9925 96.7399C27.9329 96.7426 28.0185 96.7388 27.959 96.7414C27.8994 96.7441 27.985 96.7403 27.9255 96.7429C27.8659 96.7456 27.9515 96.7418 27.892 96.7444C27.8325 96.7471 27.918 96.7433 27.8585 96.7459L27.9256 98.2444L27.9927 99.7429C28.1117 99.7376 28.1416 99.7363 28.2606 99.7309C28.3796 99.7256 28.4095 99.7243 28.5286 99.7189C28.6476 99.7136 28.6775 99.7123 28.7965 99.7069C28.9155 99.7016 28.9454 99.7003 29.0644 99.6949C29.1834 99.6896 29.2133 99.6883 29.3324 99.683C29.4514 99.6776 29.4813 99.6763 29.6003 99.671C29.7193 99.6656 29.7492 99.6643 29.8682 99.659C29.9873 99.6536 30.0172 99.6523 30.1362 99.647C30.1957 99.6443 30.1101 99.6481 30.1697 99.6455C30.2292 99.6428 30.1436 99.6466 30.2031 99.644C30.2627 99.6413 30.1771 99.6451 30.2366 99.6425C30.2962 99.6398 30.2106 99.6436 30.2701 99.641C30.3297 99.6383 30.2441 99.6421 30.3036 99.6395C30.3632 99.6368 30.2776 99.6406 30.3371 99.638C30.3967 99.6353 30.3111 99.6391 30.3706 99.6365C30.4301 99.6338 30.3446 99.6376 30.4041 99.635C30.4636 99.6323 30.3781 99.6361 30.4376 99.6335C30.4971 99.6308 30.4116 99.6346 30.4711 99.632C30.5306 99.6293 30.445 99.6331 30.5046 99.6305C30.5641 99.6278 30.4785 99.6316 30.5381 99.629C30.5976 99.6263 30.512 99.6301 30.5716 99.6275C30.6311 99.6248 30.5455 99.6286 30.6051 99.626C30.6646 99.6233 30.579 99.6271 30.6385 99.6245C30.6981 99.6218 30.6125 99.6256 30.672 99.623C30.7316 99.6203 30.646 99.6241 30.7055 99.6215C30.7651 99.6188 30.6795 99.6226 30.739 99.62C30.7986 99.6173 30.713 99.6211 30.7725 99.6185C30.832 99.6158 30.7465 99.6196 30.806 99.617C30.8655 99.6143 30.78 99.6181 30.8395 99.6155C30.899 99.6128 30.8135 99.6166 30.873 99.614C30.9325 99.6113 30.8469 99.6151 30.9065 99.6125C30.966 99.6098 30.8804 99.6136 30.94 99.611C30.9995 99.6083 30.9139 99.6121 30.9735 99.6095C31.033 99.6068 30.9474 99.6106 31.007 99.608C31.0665 99.6053 30.9809 99.6091 31.0404 99.6065C31.1 99.6038 31.0144 99.6076 31.0739 99.605C31.1335 99.6023 31.0479 99.6061 31.1074 99.6035C31.167 99.6008 31.0814 99.6046 31.1409 99.602C31.2005 99.5993 31.1149 99.6031 31.1744 99.6005C31.2339 99.5978 31.1484 99.6016 31.2079 99.599C31.2674 99.5963 31.1819 99.6001 31.2414 99.5975C31.3009 99.5948 31.2154 99.5986 31.2749 99.596C31.3344 99.5933 31.2488 99.5971 31.3084 99.5945C31.3679 99.5918 31.2823 99.5956 31.3419 99.593C31.4014 99.5903 31.3158 99.5941 31.3754 99.5915C31.4349 99.5888 31.3493 99.5926 31.4089 99.59C31.4684 99.5873 31.3828 99.5911 31.4423 99.5885C31.5019 99.5858 31.4163 99.5896 31.4758 99.587C31.5354 99.5843 31.4498 99.5881 31.5093 99.5855C31.5689 99.5828 31.4833 99.5866 31.5428 99.584C31.6024 99.5813 31.5168 99.5851 31.5763 99.5825C31.6358 99.5798 31.5503 99.5836 31.6098 99.581C31.6693 99.5783 31.5838 99.5821 31.6433 99.5795C31.7028 99.5768 31.6173 99.5806 31.6768 99.578C31.7363 99.5753 31.6508 99.5791 31.7103 99.5765C31.7698 99.5738 31.6842 99.5776 31.7438 99.575C31.8033 99.5723 31.7177 99.5761 31.7773 99.5735C31.8368 99.5708 31.7512 99.5746 31.8108 99.572C31.8703 99.5693 31.7847 99.5731 31.8443 99.5705C31.9038 99.5678 31.8182 99.5716 31.8777 99.569C31.9373 99.5663 31.8517 99.5701 31.9112 99.5675C31.9708 99.5648 31.8852 99.5686 31.9447 99.566C32.0043 99.5633 31.9187 99.5671 31.9782 99.5645C32.0378 99.5618 31.9522 99.5656 32.0117 99.563C32.0712 99.5603 31.9857 99.5641 32.0452 99.5615C32.1047 99.5588 32.0192 99.5627 32.0787 99.56C32.1382 99.5573 32.0527 99.5612 32.1122 99.5585C32.1717 99.5558 32.0861 99.5596 32.1457 99.557C32.1754 99.5556 32.2499 99.5523 32.2796 99.551L32.2125 98.0525ZM27.9256 98.2444L27.8808 96.7451C27.8804 96.7451 27.8478 96.7461 27.8473 96.7461C27.8469 96.7461 27.8143 96.7471 27.8139 96.7471C27.8134 96.7471 27.7808 96.7481 27.7804 96.7481C27.7799 96.7481 27.7473 96.7491 27.7469 96.7491C27.7464 96.7491 27.7138 96.7501 27.7134 96.7501C27.7129 96.7501 27.6803 96.7511 27.6799 96.7511C27.6794 96.7511 27.6468 96.7521 27.6464 96.7521C27.6459 96.7521 27.6134 96.7531 27.6129 96.7531C27.6125 96.7531 27.5799 96.7541 27.5794 96.7541C27.579 96.7541 27.5464 96.7551 27.5459 96.7551C27.5455 96.7551 27.5129 96.7561 27.5124 96.7561C27.512 96.7561 27.4794 96.7571 27.4789 96.7571C27.4785 96.7571 27.4459 96.7581 27.4454 96.7581C27.445 96.7581 27.4124 96.7591 27.4119 96.7591C27.4115 96.7591 27.3789 96.7601 27.3785 96.7601C27.378 96.7601 27.3454 96.7611 27.345 96.7611C27.3445 96.7611 27.3119 96.7621 27.3115 96.7621C27.311 96.7621 27.2784 96.7631 27.278 96.7631C27.2775 96.7631 27.2449 96.7641 27.2445 96.7641C27.244 96.7641 27.2114 96.7651 27.211 96.7651C27.2105 96.7651 27.178 96.7661 27.1775 96.7661C27.1771 96.7661 27.1445 96.7671 27.144 96.7671C27.1436 96.7671 27.111 96.7681 27.1105 96.7681C27.1101 96.7681 27.0775 96.7691 27.077 96.7691C27.0766 96.7691 27.044 96.7701 27.0435 96.7701C27.0431 96.7701 27.0105 96.7711 27.01 96.7711C27.0096 96.7711 26.977 96.7721 26.9766 96.7721C26.9761 96.7721 26.9435 96.7731 26.9431 96.7731C26.9426 96.7731 26.91 96.7741 26.9096 96.7741C26.9091 96.7741 26.8765 96.7751 26.8761 96.7751C26.8756 96.7751 26.843 96.7761 26.8426 96.7761C26.8421 96.7761 26.8095 96.7771 26.8091 96.7771C26.8086 96.7771 26.7761 96.7781 26.7756 96.7781C26.7752 96.7781 26.7426 96.7791 26.7421 96.7791C26.7417 96.7791 26.7091 96.7801 26.7086 96.7801C26.7082 96.7801 26.6756 96.7811 26.6751 96.7811C26.6747 96.7811 26.6421 96.7821 26.6416 96.7821C26.6412 96.7821 26.6086 96.7831 26.6081 96.7831C26.6077 96.7831 26.5751 96.7841 26.5747 96.7841C26.5742 96.7841 26.5416 96.7851 26.5412 96.7851C26.5407 96.7851 26.5081 96.7861 26.5077 96.7861C26.5072 96.7861 26.4746 96.7871 26.4742 96.7871C26.4737 96.7871 26.4411 96.7881 26.4407 96.7881C26.4402 96.7881 26.4076 96.7891 26.4072 96.7891C26.4067 96.7891 26.3742 96.7901 26.3737 96.7901C26.3733 96.7901 26.3407 96.7911 26.3402 96.7911C26.3398 96.7911 26.3072 96.7921 26.3067 96.7921C26.3063 96.7921 26.2737 96.7931 26.2732 96.7931C26.2728 96.7931 26.2402 96.7941 26.2397 96.7941C26.2393 96.7941 26.2067 96.7951 26.2062 96.7951C26.2058 96.7951 26.1732 96.7961 26.1728 96.7961C26.1723 96.7961 26.1397 96.7971 26.1393 96.7971C26.1388 96.7971 26.1062 96.7981 26.1058 96.7981C26.1053 96.7981 26.0727 96.7991 26.0723 96.7991C26.0718 96.7991 26.0392 96.8001 26.0388 96.8001C26.0383 96.8001 26.0057 96.8011 26.0053 96.8011C26.0048 96.8011 25.9723 96.8021 25.9718 96.8021C25.9714 96.8021 25.9388 96.8031 25.9383 96.8031C25.9379 96.8031 25.9053 96.8041 25.9048 96.8041C25.9044 96.8041 25.8718 96.8051 25.8713 96.8051C25.8709 96.8051 25.8383 96.8061 25.8378 96.8061C25.8374 96.8061 25.8048 96.8071 25.8043 96.8071C25.8039 96.8071 25.7713 96.8081 25.7709 96.8081C25.7704 96.8081 25.7378 96.8091 25.7374 96.8091C25.6435 96.8119 25.5632 96.8143 25.4694 96.8171C25.3756 96.8199 25.2953 96.8223 25.2015 96.8251C25.1077 96.8279 25.0274 96.8303 24.9336 96.8331C24.8397 96.8359 24.7594 96.8383 24.6656 96.8411C24.5718 96.8439 24.4915 96.8463 24.3977 96.8491C24.3039 96.8519 24.2236 96.8543 24.1298 96.8571C24.0359 96.8599 23.9556 96.8623 23.8618 96.8651C23.768 96.8679 23.6877 96.8703 23.5939 96.8731L23.6386 98.3724L23.6834 99.8717C23.6838 99.8717 23.7164 99.8708 23.7169 99.8707C23.7173 99.8707 23.7499 99.8697 23.7504 99.8697C23.7508 99.8697 23.7834 99.8688 23.7839 99.8687C23.7843 99.8687 23.8169 99.8678 23.8174 99.8677C23.8178 99.8677 23.8504 99.8668 23.8509 99.8667C23.8513 99.8667 23.8839 99.8658 23.8843 99.8657C23.8848 99.8657 23.9174 99.8647 23.9178 99.8647C23.9183 99.8647 23.9509 99.8638 23.9513 99.8637C23.9518 99.8637 23.9844 99.8628 23.9848 99.8627C23.9853 99.8627 24.0179 99.8618 24.0183 99.8617C24.0188 99.8617 24.0514 99.8607 24.0518 99.8607C24.0523 99.8607 24.0848 99.8598 24.0853 99.8597C24.0857 99.8597 24.1183 99.8588 24.1188 99.8587C24.1192 99.8587 24.1518 99.8578 24.1523 99.8577C24.1527 99.8577 24.1853 99.8567 24.1858 99.8567C24.1862 99.8567 24.2188 99.8558 24.2193 99.8557C24.2197 99.8557 24.2523 99.8547 24.2528 99.8547C24.2532 99.8547 24.2858 99.8538 24.2862 99.8537C24.2867 99.8537 24.3193 99.8528 24.3197 99.8528C24.3202 99.8527 24.3528 99.8518 24.3532 99.8517C24.3537 99.8517 24.3863 99.8508 24.3867 99.8507C24.3872 99.8507 24.4198 99.8498 24.4202 99.8497C24.4207 99.8497 24.4533 99.8488 24.4537 99.8487C24.4542 99.8487 24.4867 99.8478 24.4872 99.8477C24.4876 99.8477 24.5202 99.8468 24.5207 99.8467C24.5211 99.8467 24.5537 99.8458 24.5542 99.8457C24.5546 99.8457 24.5872 99.8448 24.5877 99.8447C24.5881 99.8447 24.6207 99.8438 24.6212 99.8437C24.6216 99.8437 24.6542 99.8428 24.6547 99.8427C24.6551 99.8427 24.6877 99.8418 24.6881 99.8417C24.6886 99.8417 24.7212 99.8408 24.7216 99.8407C24.7221 99.8407 24.7547 99.8398 24.7551 99.8398C24.7556 99.8397 24.7882 99.8388 24.7886 99.8387C24.7891 99.8387 24.8217 99.8378 24.8221 99.8378C24.8226 99.8377 24.8552 99.8368 24.8556 99.8367C24.8561 99.8367 24.8886 99.8358 24.8891 99.8358C24.8896 99.8357 24.9221 99.8348 24.9226 99.8347C24.923 99.8347 24.9556 99.8338 24.9561 99.8337C24.9565 99.8337 24.9891 99.8328 24.9896 99.8327C24.99 99.8327 25.0226 99.8318 25.0231 99.8318C25.0235 99.8317 25.0561 99.8308 25.0566 99.8307C25.057 99.8307 25.0896 99.8298 25.0901 99.8297C25.0905 99.8297 25.1231 99.8288 25.1235 99.8287C25.124 99.8287 25.1566 99.8278 25.157 99.8278C25.1575 99.8277 25.1901 99.8268 25.1905 99.8267C25.191 99.8267 25.2236 99.8258 25.224 99.8257C25.2245 99.8257 25.2571 99.8248 25.2575 99.8248C25.258 99.8247 25.2906 99.8238 25.291 99.8237C25.2915 99.8237 25.324 99.8228 25.3245 99.8228C25.3249 99.8227 25.3575 99.8218 25.358 99.8217C25.3584 99.8217 25.391 99.8208 25.3915 99.8208C25.3919 99.8207 25.4245 99.8198 25.425 99.8197C25.4254 99.8197 25.458 99.8188 25.4585 99.8188C25.4589 99.8187 25.4915 99.8178 25.492 99.8177C25.4924 99.8177 25.525 99.8168 25.5254 99.8168C25.5259 99.8167 25.5585 99.8158 25.5589 99.8157C25.5594 99.8157 25.592 99.8148 25.5924 99.8148C25.5929 99.8147 25.6255 99.8138 25.6259 99.8137C25.6264 99.8137 25.659 99.8128 25.6594 99.8128C25.6599 99.8127 25.6925 99.8118 25.6929 99.8118C25.6934 99.8117 25.7259 99.8108 25.7264 99.8108C25.7268 99.8107 25.7594 99.8098 25.7599 99.8098C25.7603 99.8097 25.7929 99.8088 25.7934 99.8087C25.7938 99.8087 25.8264 99.8078 25.8269 99.8078C25.9207 99.805 26.001 99.8025 26.0948 99.7998C26.1886 99.7969 26.2689 99.7946 26.3627 99.7918C26.4566 99.789 26.5369 99.7866 26.6307 99.7838C26.7245 99.781 26.8048 99.7786 26.8986 99.7758C26.9924 99.773 27.0727 99.7706 27.1665 99.7678C27.2604 99.765 27.3407 99.7626 27.4345 99.7598C27.5283 99.757 27.6086 99.7546 27.7024 99.7518C27.7962 99.749 27.8765 99.7466 27.9703 99.7438L27.9256 98.2444ZM23.6386 98.3724L23.6386 96.8724L1.50003 96.8724L1.50003 98.3724L1.50003 99.8724L23.6386 99.8724L23.6386 98.3724ZM1.50003 98.3724L3.00003 98.3724L3.00003 89.4466L1.50003 89.4466L2.71877e-05 89.4466L2.75779e-05 98.3724L1.50003 98.3724ZM1.50003 89.4466L1.50003 90.9466L48.2726 90.9466L48.2726 89.4466L48.2726 87.9466L1.50003 87.9466L1.50003 89.4466ZM48.2726 59.5979L49.7726 59.5979L49.7726 58.0979L48.2726 58.0979L48.2726 59.5979ZM48.2726 69.5154L48.2726 71.0154L49.7726 71.0154L49.7726 69.5154L48.2726 69.5154ZM9.75402 69.5154L9.75402 68.0154L8.25402 68.0154L8.25402 69.5154L9.75402 69.5154ZM9.75402 82.2164L9.75402 83.7164L11.254 83.7164L11.254 82.2164L9.75402 82.2164ZM1.50003 82.2164L2.68717e-05 82.2164L2.69373e-05 83.7164L1.50003 83.7164L1.50003 82.2164ZM1.50003 46.897L1.50003 45.397L2.52623e-05 45.397L2.53278e-05 46.897L1.50003 46.897ZM9.75402 46.897L11.254 46.897L11.254 45.397L9.75402 45.397L9.75402 46.897ZM9.75402 59.5979L8.25402 59.5979L8.25402 61.0979L9.75402 61.0979L9.75402 59.5979ZM48.2726 59.5979L46.7726 59.5979L46.7726 69.5154L48.2726 69.5154L49.7726 69.5154L49.7726 59.5979L48.2726 59.5979ZM48.2726 69.5154L48.2726 68.0154L9.75402 68.0154L9.75402 69.5154L9.75402 71.0154L48.2726 71.0154L48.2726 69.5154ZM9.75402 69.5154L8.25402 69.5154L8.25402 82.2164L9.75402 82.2164L11.254 82.2164L11.254 69.5154L9.75402 69.5154ZM9.75402 82.2164L9.75402 80.7164L1.50003 80.7164L1.50003 82.2164L1.50003 83.7164L9.75402 83.7164L9.75402 82.2164ZM1.50003 82.2164L3.00003 82.2164L3.00003 46.897L1.50003 46.897L2.53278e-05 46.897L2.68717e-05 82.2164L1.50003 82.2164ZM1.50003 46.897L1.50003 48.397L9.75402 48.397L9.75402 46.897L9.75402 45.397L1.50003 45.397L1.50003 46.897ZM9.75402 46.897L8.25402 46.897L8.25402 59.5979L9.75402 59.5979L11.254 59.5979L11.254 46.897L9.75402 46.897ZM9.75402 59.5979L9.75402 61.0979L48.2726 61.0979L48.2726 59.5979L48.2726 58.0979L9.75402 58.0979L9.75402 59.5979ZM48.2726 1.5L49.7726 1.5L49.7726 -3.12536e-06L48.2726 -3.0598e-06L48.2726 1.5ZM48.2726 11.3856L48.2726 12.8856L49.7726 12.8856L49.7726 11.3856L48.2726 11.3856ZM18.4559 11.3536L18.4853 9.8539L18.4847 9.85388L18.4559 11.3536ZM15.0647 11.2576L15.1202 9.75865L15.1192 9.75862L15.0647 11.2576ZM11.8975 11.1297L11.9656 9.63121L7.56818 9.43132L10.9286 12.2747L11.8975 11.1297ZM13.3371 12.5693L14.4304 11.5423L14.4294 11.5413L13.3371 12.5693ZM15.1287 14.5528L16.298 13.6132L16.2817 13.593L16.2648 13.5734L15.1287 14.5528ZM19.4477 19.9275L20.3855 21.0982L21.5579 20.159L20.6169 18.9879L19.4477 19.9275ZM13.4971 24.6943L12.3236 25.6287L13.2607 26.8057L14.4349 25.865L13.4971 24.6943ZM1.50002 9.62602L2.36987e-05 9.62602L2.37216e-05 10.1502L0.326539 10.5603L1.50002 9.62602ZM1.50002 1.5L1.50002 -1.0153e-06L2.32779e-05 -9.49734e-07L2.33435e-05 1.5L1.50002 1.5ZM48.2726 1.5L46.7726 1.5L46.7726 11.3856L48.2726 11.3856L49.7726 11.3856L49.7726 1.5L48.2726 1.5ZM48.2726 11.3856L48.2726 9.8856L21.2072 9.8856L21.2072 11.3856L21.2072 12.8856L48.2726 12.8856L48.2726 11.3856ZM21.2072 11.3856L21.2072 9.8856C20.4739 9.8856 19.5672 9.87511 18.4853 9.8539L18.4559 11.3536L18.4265 12.8533C19.52 12.8748 20.4476 12.8856 21.2072 12.8856L21.2072 11.3856ZM18.4559 11.3536L18.4847 9.85388C17.3849 9.83273 16.2634 9.80099 15.1202 9.75865L15.0647 11.2576L15.0092 12.7566C16.1695 12.7996 17.3088 12.8318 18.4271 12.8533L18.4559 11.3536ZM15.0647 11.2576L15.1192 9.75862C13.9497 9.71609 12.8986 9.67361 11.9656 9.63121L11.8975 11.1297L11.8294 12.6281C12.7733 12.671 13.8337 12.7139 15.0102 12.7566L15.0647 11.2576ZM11.8975 11.1297L10.9286 12.2747C11.1315 12.4465 11.5565 12.866 12.2448 13.5973L13.3371 12.5693L14.4294 11.5413C13.7528 10.8223 13.218 10.2821 12.8664 9.98459L11.8975 11.1297ZM13.3371 12.5693L12.2439 13.5963C12.893 14.2873 13.4756 14.9325 13.9926 15.5322L15.1287 14.5528L16.2648 13.5734C15.7154 12.9361 15.1037 12.259 14.4304 11.5423L13.3371 12.5693ZM15.1287 14.5528L13.9594 15.4924L18.2784 20.8671L19.4477 19.9275L20.6169 18.9879L16.298 13.6132L15.1287 14.5528ZM19.4477 19.9275L18.5098 18.7568L12.5593 23.5237L13.4971 24.6943L14.4349 25.865L20.3855 21.0982L19.4477 19.9275ZM13.4971 24.6943L14.6706 23.7601L2.67351 8.69173L1.50002 9.62602L0.326539 10.5603L12.3236 25.6287L13.4971 24.6943ZM1.50002 9.62602L3.00002 9.62602L3.00002 1.5L1.50002 1.5L2.33435e-05 1.5L2.36987e-05 9.62602L1.50002 9.62602ZM1.50002 1.5L1.50002 3L48.2726 3L48.2726 1.5L48.2726 -3.0598e-06L1.50002 -1.0153e-06L1.50002 1.5Z" fill="#636363" mask="url(#path-1-outside-1_235_24197)"/>
</svg>
