<svg width="373" height="377" viewBox="0 0 373 377" fill="none" xmlns="http://www.w3.org/2000/svg">
<path d="M92.9395 88.06L372.5 0V376.19L92.9395 304.131V88.06Z" fill="#C2C2C2"/>
<ellipse cx="109.169" cy="363.563" rx="56.7972" ry="12.5397" fill="#201F1F"/>
<path d="M108.909 305.291C169.057 305.291 217.818 256.414 217.818 196.122C217.818 135.83 169.057 86.9535 108.909 86.9535C48.7601 86.9535 0 135.83 0 196.122C0 256.414 48.7601 305.291 108.909 305.291Z" fill="#2B62A7"/>
<path d="M14.862 211.117C10.1433 206.731 9.76341 199.386 13.9809 194.513C28.336 177.931 63.335 143.625 108.357 142.009C153.869 140.375 192.792 177.147 208.563 194.508C212.979 199.369 212.657 206.884 207.842 211.348C190.757 227.187 149.809 260.985 111.476 260.985C72.9562 260.985 31.7948 226.855 14.862 211.117Z" fill="white"/>
<path d="M144.282 236.514C163.59 217.16 163.59 185.781 144.282 166.427C124.974 147.073 93.6692 147.073 74.3612 166.427C55.0531 185.781 55.0531 217.16 74.3612 236.514C93.6692 255.868 124.974 255.868 144.282 236.514Z" fill="#433930"/>
<path d="M99.8639 223.489C113.781 221.803 123.699 209.127 122.017 195.177C120.335 181.226 107.689 171.284 93.7723 172.971C79.8552 174.657 69.9369 187.333 71.6191 201.283C73.3012 215.233 85.9469 225.175 99.8639 223.489Z" fill="#D5ABAB"/>
<path d="M121.893 196.848C126.152 196.496 129.32 192.749 128.969 188.48C128.618 184.21 124.88 181.034 120.621 181.387C116.361 181.739 113.193 185.485 113.544 189.755C113.896 194.025 117.633 197.2 121.893 196.848Z" fill="#E0DBC0"/>
</svg>
