<svg width="413" height="61" viewBox="0 0 413 61" fill="none" xmlns="http://www.w3.org/2000/svg">
<path d="M30.2422 60.5091C26.1934 60.5091 22.3339 59.752 18.6637 58.2378C15.01 56.7236 11.743 54.5265 8.8628 51.6462C4.33676 47.0708 1.53062 41.6643 0.444366 35.4266C0.148116 33.7478 -9.1251e-06 32.0361 -9.1251e-06 30.2916C-9.1251e-06 28.547 0.148116 26.8271 0.444366 25.1319C1.53062 18.9106 4.33676 13.5041 8.8628 8.91219C11.743 6.04844 15.01 3.85948 18.6637 2.34531C22.3339 0.814686 26.1934 0.0493734 30.2422 0.0493734C34.2745 0.0493734 38.1175 0.814686 41.7712 2.34531C45.4415 3.85948 48.7167 6.05667 51.5969 8.93687C54.4771 11.8006 56.6743 15.0676 58.1884 18.7378C59.7026 22.3916 60.4597 26.2428 60.4597 30.2916C60.4597 34.3239 59.7026 38.1751 58.1884 41.8453C56.6743 45.4991 54.4771 48.766 51.5969 51.6462C48.7167 54.5265 45.4415 56.7236 41.7712 58.2378C38.1175 59.752 34.2745 60.5091 30.2422 60.5091ZM30.2422 57.5466C33.7313 57.4807 36.8831 56.2381 39.6975 53.8187C42.5119 51.3994 44.7584 48.1242 46.4372 43.9931C48.1324 39.8621 48.98 35.2949 48.98 30.2916C48.98 25.2718 48.1324 20.7046 46.4372 16.59C44.7584 12.459 42.5119 9.18375 39.6975 6.76437C36.8831 4.32854 33.7231 3.07771 30.2175 3.01187H29.9706C26.5144 3.14354 23.3955 4.42729 20.6141 6.86312C17.8326 9.29896 15.6107 12.5659 13.9484 16.6641C12.2861 20.7622 11.455 25.3047 11.455 30.2916C11.455 35.262 12.2861 39.8045 13.9484 43.9191C15.6107 48.0172 17.8326 51.2842 20.6141 53.72C23.3955 56.1558 26.5144 57.4314 29.9706 57.5466H30.2422ZM30.2422 34.3156L26.1934 30.2916L30.2422 26.2428L34.2662 30.2916L30.2422 34.3156ZM105.811 60.4844H94.2322V52.2634C93.2941 53.2674 92.323 54.1808 91.3191 55.0037C86.7601 58.6246 82.0036 60.435 77.0497 60.435C76.1445 60.435 75.231 60.3774 74.3094 60.2622C70.8202 59.6861 68.0141 58.2625 65.8909 55.9912C63.8501 53.6542 62.7885 50.8233 62.7062 47.4987V16.6641H74.2847V45.7953L74.3587 47.0791C74.4081 47.9349 74.5562 48.9635 74.8031 50.165C75.0665 51.3665 75.4779 52.535 76.0375 53.6706C76.6135 54.7898 77.4118 55.6539 78.4322 56.2628C79.0741 56.6578 79.8311 56.8553 80.7034 56.8553C81.2136 56.8553 81.7568 56.7895 82.3328 56.6578C86.8753 55.193 90.8418 52.1811 94.2322 47.6222V16.6641H105.811V60.4844ZM119.611 60.4844H108.032V16.6641H119.611V31.1309C120.779 29.5674 122.178 27.9216 123.808 26.1934C130.013 19.8405 136.259 16.6641 142.546 16.6641V26.1687L139.237 26.1441C138.036 26.1441 136.579 26.1687 134.868 26.2181C133.173 26.251 131.502 26.3745 129.856 26.5884C128.227 26.7859 127.157 27.1069 126.647 27.5512C123.75 30.4479 121.405 33.361 119.611 36.2906V60.4844ZM160.074 60.4844H157.111V-1.64285e-06H160.074L186.613 27.8228L213.152 0.0246859H217.25V60.4597H205.672V12.1462L188.662 29.9706L193.92 35.4759L185.576 43.4994L160.074 16.7628V60.4844ZM231.149 60.5831H219.571V16.7628H231.149V60.5831ZM225.347 11.8006L231.174 5.97437L225.347 0.148123L219.521 5.97437L225.347 11.8006ZM253.738 60.5831C249.146 60.5831 244.135 59.1101 238.703 56.1641C236.893 55.193 235.124 54.1973 233.396 53.1769L238.259 44.5856L240.234 46.6841C241.534 48.083 243.164 49.6548 245.122 51.3994C247.081 53.144 249.08 54.6252 251.121 55.8431C252.866 56.9129 254.438 57.4478 255.837 57.4478C256.051 57.4478 256.264 57.4314 256.478 57.3984C257.828 57.1845 259.087 56.8059 260.256 56.2628C260.289 56.2299 260.404 56.1065 260.601 55.8925C260.815 55.6621 261.013 55.3494 261.194 54.9544C261.375 54.5594 261.465 54.115 261.465 53.6212C261.465 53.5719 261.457 53.3991 261.441 53.1028C261.441 52.7901 261.235 52.2964 260.823 51.6216C260.412 50.9468 259.696 50.2308 258.676 49.4737C257.672 48.7002 256.273 47.902 254.479 47.0791C252.701 46.2561 250.438 45.425 247.69 44.5856C243.937 43.3842 241.123 41.7466 239.247 39.6728C237.387 37.5991 236.169 35.4183 235.593 33.1306L235.568 33.1059C235.321 32.2007 235.148 31.3202 235.05 30.4644C234.852 29.3452 234.753 28.0697 234.753 26.6378C234.753 21.437 237.025 18.2687 241.567 17.1331C242.67 16.8862 243.921 16.7628 245.32 16.7628C246.225 16.7628 247.097 16.804 247.937 16.8862C250.537 17.1002 253.129 17.4294 255.713 17.8737L264.304 19.3797L262.552 28.5141L259.811 26.9834C257.968 25.9795 255.754 24.8932 253.17 23.7247C250.586 22.5397 248.085 21.6262 245.665 20.9844C244.447 20.6717 243.369 20.5153 242.431 20.5153C241.493 20.5153 240.687 20.6717 240.012 20.9844L239.271 21.6016C238.547 22.3257 238.185 23.2309 238.185 24.3172C238.185 24.778 238.317 25.4117 238.58 26.2181C238.86 27.0246 239.419 27.8228 240.259 28.6128C241.263 29.5016 242.407 30.234 243.69 30.81C244.974 31.3696 246.258 31.8551 247.542 32.2666L258.799 36.2166C260.132 36.6445 261.515 37.1958 262.947 37.8706C264.395 38.5454 265.687 39.4753 266.822 40.6603C268.337 42.372 269.184 44.4457 269.365 46.8816L269.39 47.5234C269.39 49.6136 268.863 51.5722 267.81 53.3991C265.489 57.1186 261.877 59.431 256.972 60.3362C255.919 60.5008 254.841 60.5831 253.738 60.5831ZM291.362 60.5831C286.77 60.5831 281.758 59.1101 276.327 56.1641C274.517 55.193 272.747 54.1973 271.019 53.1769L275.883 44.5856L277.858 46.6841C279.158 48.083 280.787 49.6548 282.746 51.3994C284.704 53.144 286.704 54.6252 288.745 55.8431C290.49 56.9129 292.061 57.4478 293.46 57.4478C293.674 57.4478 293.888 57.4314 294.102 57.3984C295.452 57.1845 296.711 56.8059 297.879 56.2628C297.912 56.2299 298.027 56.1065 298.225 55.8925C298.439 55.6621 298.636 55.3494 298.817 54.9544C298.999 54.5594 299.089 54.115 299.089 53.6212C299.089 53.5719 299.081 53.3991 299.064 53.1028C299.064 52.7901 298.859 52.2964 298.447 51.6216C298.036 50.9468 297.32 50.2308 296.299 49.4737C295.295 48.7002 293.896 47.902 292.102 47.0791C290.325 46.2561 288.062 45.425 285.313 44.5856C281.561 43.3842 278.747 41.7466 276.87 39.6728C275.011 37.5991 273.793 35.4183 273.217 33.1306L273.192 33.1059C272.945 32.2007 272.772 31.3202 272.673 30.4644C272.476 29.3452 272.377 28.0697 272.377 26.6378C272.377 21.437 274.648 18.2687 279.191 17.1331C280.294 16.8862 281.544 16.7628 282.943 16.7628C283.849 16.7628 284.721 16.804 285.56 16.8862C288.161 17.1002 290.753 17.4294 293.337 17.8737L301.928 19.3797L300.175 28.5141L297.435 26.9834C295.592 25.9795 293.378 24.8932 290.794 23.7247C288.21 22.5397 285.708 21.6262 283.289 20.9844C282.071 20.6717 280.993 20.5153 280.055 20.5153C279.117 20.5153 278.31 20.6717 277.636 20.9844L276.895 21.6016C276.171 22.3257 275.809 23.2309 275.809 24.3172C275.809 24.778 275.94 25.4117 276.204 26.2181C276.484 27.0246 277.043 27.8228 277.882 28.6128C278.886 29.5016 280.03 30.234 281.314 30.81C282.598 31.3696 283.882 31.8551 285.165 32.2666L296.423 36.2166C297.756 36.6445 299.138 37.1958 300.57 37.8706C302.019 38.5454 303.311 39.4753 304.446 40.6603C305.96 42.372 306.808 44.4457 306.989 46.8816L307.014 47.5234C307.014 49.6136 306.487 51.5722 305.434 53.3991C303.113 57.1186 299.501 59.431 294.596 60.3362C293.543 60.5008 292.465 60.5831 291.362 60.5831ZM321.012 60.5831H309.433V16.7628H321.012V60.5831ZM315.21 11.8006L321.036 5.97437L315.21 0.148123L309.384 5.97437L315.21 11.8006ZM345.131 60.4844C342.202 60.4844 339.412 59.9412 336.762 58.855C334.112 57.7523 331.742 56.1641 329.652 54.0903C327.578 52.0001 325.99 49.6301 324.887 46.9803C323.801 44.3305 323.258 41.5408 323.258 38.6112C323.258 35.6981 323.801 32.9167 324.887 30.2669C325.99 27.6006 327.578 25.2306 329.652 23.1569C331.742 21.0667 334.112 19.4784 336.762 18.3922C339.412 17.2895 342.202 16.7381 345.131 16.7381C348.044 16.7381 350.826 17.2895 353.476 18.3922C356.142 19.4784 358.512 21.0667 360.586 23.1569C362.659 25.2306 364.248 27.6006 365.35 30.2669C366.453 32.9167 367.004 35.6981 367.004 38.6112C367.004 41.5408 366.453 44.3305 365.35 46.9803C364.248 49.6301 362.659 52.0001 360.586 54.0903C358.512 56.1641 356.142 57.7523 353.476 58.855C350.826 59.9412 348.044 60.4844 345.131 60.4844ZM345.304 57.5219C347.197 57.4231 348.908 56.5261 350.439 54.8309C351.97 53.1357 353.188 50.8727 354.093 48.0419C355.014 45.1946 355.475 42.051 355.475 38.6112C355.475 35.1879 355.023 32.0691 354.117 29.2547C353.212 26.4239 352.003 24.1608 350.488 22.4656C348.991 20.754 347.304 19.8323 345.427 19.7006H344.81C342.934 19.8323 341.239 20.754 339.725 22.4656C338.227 24.1608 337.026 26.4239 336.12 29.2547C335.232 32.0691 334.787 35.1879 334.787 38.6112C334.787 42.051 335.24 45.1864 336.145 48.0172C337.05 50.848 338.26 53.111 339.774 54.8062C341.305 56.5015 343.016 57.4067 344.909 57.5219H345.304ZM412.331 60.4844H400.752V31.3284L400.678 30.0447C400.629 29.1889 400.472 28.1602 400.209 26.9587C399.962 25.7573 399.551 24.597 398.975 23.4778C398.415 22.3586 397.625 21.4946 396.605 20.8856C395.963 20.4906 395.206 20.2931 394.333 20.2931C393.823 20.2931 393.28 20.359 392.704 20.4906C390.202 21.2806 387.832 22.5891 385.594 24.4159C383.882 25.8149 382.286 27.5101 380.805 29.5016V60.4597H369.226V16.7628H380.805V24.885C381.743 23.881 382.714 22.9594 383.718 22.12C388.277 18.5156 393.025 16.7134 397.963 16.7134C398.884 16.7134 399.814 16.771 400.752 16.8862C404.225 17.4623 407.023 18.8859 409.146 21.1572C411.187 23.4943 412.248 26.3169 412.331 29.625V60.4844Z" fill="white"/>
</svg>
