<svg width="186" height="59" viewBox="0 0 186 59" fill="none" xmlns="http://www.w3.org/2000/svg">
<path d="M10.941 57.957C9.4936 57.957 8.09748 57.6949 6.75265 57.1705C5.40782 56.6353 4.22254 55.8761 3.19682 54.893C2.17111 53.9099 1.37902 52.7738 0.820575 51.4848C0.273525 50.1959 0 48.8577 0 47.4705C0 46.0832 0.273525 44.745 0.820575 43.4561C1.37902 42.1671 2.17111 41.031 3.19682 40.0479C4.22254 39.0648 5.40782 38.3111 6.75265 37.7867C8.09748 37.2515 9.4936 36.9839 10.941 36.9839C12.3884 36.9839 13.7845 37.2515 15.1294 37.7867C16.4742 38.3111 17.6595 39.0648 18.6852 40.0479C19.7109 41.031 20.4973 42.1671 21.0443 43.4561C21.6028 44.745 21.882 46.0832 21.882 47.4705C21.882 48.8577 21.6028 50.1959 21.0443 51.4848C20.4973 52.7738 19.7109 53.9099 18.6852 54.893C17.6595 55.8761 16.4742 56.6353 15.1294 57.1705C13.7845 57.6949 12.3884 57.957 10.941 57.957ZM10.941 53.7624C12.7531 53.7624 14.2974 53.1507 15.5738 51.9273C16.8617 50.6929 17.5056 49.2073 17.5056 47.4705C17.5056 45.7336 16.8617 44.2535 15.5738 43.03C14.2974 41.7957 12.7531 41.1785 10.941 41.1785C9.1289 41.1785 7.57893 41.7957 6.29108 43.03C5.01463 44.2535 4.3764 45.7336 4.3764 47.4705C4.3764 49.2073 5.01463 50.6929 6.29108 51.9273C7.57893 53.1507 9.1289 53.7624 10.941 53.7624Z" fill="white"/>
<path d="M23.6941 41.1785V36.9839H34.6351C36.4472 36.9839 37.9915 37.601 39.268 38.8354C40.5558 40.0588 41.1997 41.539 41.1997 43.2758C41.1997 45.0127 40.5558 46.4983 39.268 47.7326C37.9915 48.9561 36.4472 49.5678 34.6351 49.5678H28.0705V57.957H23.6941V45.3731H34.6351C35.2392 45.3731 35.752 45.1711 36.1737 44.7669C36.6068 44.3518 36.8233 43.8548 36.8233 43.2758C36.8233 42.6969 36.6068 42.2053 36.1737 41.8011C35.752 41.386 35.2392 41.1785 34.6351 41.1785H23.6941Z" fill="white"/>
<path d="M42.3109 41.1785V36.9839H57.6283V41.1785H42.3109ZM57.6283 45.3731V49.5678H46.6873V53.7624H57.6283V57.957H42.3109V45.3731H57.6283Z" fill="white"/>
<path d="M65.5093 46.1596V57.957H61.1329V35.9352L74.2621 48.7813V36.9839H78.6385V59.0057L65.5093 46.1596Z" fill="white"/>
<path d="M96.1441 49.5678V57.957H91.7677V36.9839H96.1441V45.3731H104.897V36.9839H109.273V57.957H104.897V49.5678H96.1441Z" fill="white"/>
<path d="M122.214 57.957C120.767 57.957 119.371 57.6949 118.026 57.1705C116.681 56.6353 115.496 55.8761 114.47 54.893C113.445 53.9099 112.652 52.7738 112.094 51.4848C111.547 50.1959 111.273 48.8577 111.273 47.4705C111.273 46.0832 111.547 44.745 112.094 43.4561C112.652 42.1671 113.445 41.031 114.47 40.0479C115.496 39.0648 116.681 38.3111 118.026 37.7867C119.371 37.2515 120.767 36.9839 122.214 36.9839C123.662 36.9839 125.058 37.2515 126.403 37.7867C127.748 38.3111 128.933 39.0648 129.959 40.0479C130.984 41.031 131.771 42.1671 132.318 43.4561C132.876 44.745 133.155 46.0832 133.155 47.4705C133.155 48.8577 132.876 50.1959 132.318 51.4848C131.771 52.7738 130.984 53.9099 129.959 54.893C128.933 55.8761 127.748 56.6353 126.403 57.1705C125.058 57.6949 123.662 57.957 122.214 57.957ZM122.214 53.7624C124.027 53.7624 125.571 53.1507 126.847 51.9273C128.135 50.6929 128.779 49.2073 128.779 47.4705C128.779 45.7336 128.135 44.2535 126.847 43.03C125.571 41.7957 124.027 41.1785 122.214 41.1785C120.402 41.1785 118.852 41.7957 117.565 43.03C116.288 44.2535 115.65 45.7336 115.65 47.4705C115.65 49.2073 116.288 50.6929 117.565 51.9273C118.852 53.1507 120.402 53.7624 122.214 53.7624Z" fill="white"/>
<path d="M135.087 49.5678V36.9839H139.464V49.5678C139.464 50.7257 139.891 51.7142 140.746 52.5335C141.601 53.3528 142.632 53.7624 143.84 53.7624C145.048 53.7624 146.08 53.3528 146.934 52.5335C147.789 51.7142 148.216 50.7257 148.216 49.5678V36.9839H152.593V49.5678C152.593 50.682 152.371 51.7525 151.926 52.7793C151.482 53.8061 150.849 54.7127 150.029 55.4992C149.208 56.2857 148.262 56.892 147.191 57.318C146.119 57.744 145.003 57.957 143.84 57.957C142.678 57.957 141.561 57.744 140.489 57.318C139.418 56.892 138.472 56.2857 137.652 55.4992C136.831 54.7127 136.198 53.8061 135.754 52.7793C135.309 51.7525 135.087 50.682 135.087 49.5678Z" fill="white"/>
<path d="M156.268 52.4188C156.417 52.6264 156.895 52.9322 157.704 53.3364C158.605 53.7843 159.573 54.0246 160.611 54.0573H160.764C161.437 54.0573 162.104 53.9263 162.765 53.6641C163.426 53.4019 163.767 52.9322 163.79 52.255V52.1894C163.79 51.6432 163.528 51.1681 163.004 50.7639C162.491 50.3488 161.881 49.9556 161.175 49.5842C160.468 49.2128 159.733 48.8577 158.969 48.5191C158.046 48.1259 157.209 47.6507 156.456 47.0936C155.716 46.5365 155.129 45.892 154.696 45.1601C154.308 44.4719 154.114 43.6745 154.114 42.7679V42.5385C154.149 41.3915 154.519 40.3811 155.226 39.5072C155.932 38.6224 156.872 37.9397 158.046 37.459C159.14 37.0003 160.32 36.7709 161.585 36.7709H161.841C163.494 36.8255 164.896 37.1914 166.047 37.8687C166.583 38.1855 166.947 38.4422 167.141 38.6388L165.158 42.1616C165.078 42.0524 164.651 41.8394 163.876 41.5226C163.101 41.2058 162.4 41.042 161.773 41.031H161.636C160.952 41.031 160.348 41.1949 159.824 41.5226C159.3 41.8394 159.026 42.2872 159.004 42.8662V42.899C159.004 43.4888 159.283 43.9422 159.841 44.2589C160.411 44.5757 161.112 44.898 161.944 45.2257C162.366 45.3895 162.839 45.5861 163.363 45.8155C164.503 46.2962 165.488 46.8533 166.32 47.4868C167.152 48.1204 167.779 48.8304 168.201 49.6169C168.6 50.3597 168.799 51.1899 168.799 52.1075V52.255C168.754 53.533 168.343 54.6254 167.568 55.532C166.805 56.4387 165.802 57.1323 164.56 57.6129C163.408 58.0608 162.172 58.2847 160.85 58.2847H160.491C158.69 58.2301 157.078 57.8423 155.653 57.1214C154.946 56.7609 154.451 56.4441 154.166 56.171L156.268 52.4188Z" fill="white"/>
<path d="M170.543 41.1785V36.9839H185.86V41.1785H170.543ZM185.86 45.3731V49.5678H174.919V53.7624H185.86V57.957H170.543V45.3731H185.86Z" fill="white"/>
<path d="M25.5949 23.7168C25.0214 24.7251 24.3331 25.6569 23.5301 26.5124C22.2395 27.8873 20.7482 28.949 19.0561 29.6976C17.364 30.4308 15.6074 30.7975 13.7863 30.7975C11.9652 30.7975 10.2086 30.4308 8.51652 29.6976C6.82445 28.949 5.33314 27.8873 4.04257 26.5124C2.75201 25.1375 1.75541 23.5488 1.05277 21.7461C0.364474 19.9435 0.0203247 18.0721 0.0203247 16.132C0.0203247 14.1919 0.364474 12.3205 1.05277 10.5179C1.75541 8.71526 2.75201 7.1265 4.04257 5.75161C5.33314 4.37673 6.82445 3.32265 8.51652 2.58937C10.2086 1.84082 11.9652 1.46655 13.7863 1.46655C15.6074 1.46655 17.364 1.84082 19.0561 2.58937C20.7482 3.32265 22.2395 4.37673 23.5301 5.75161C24.6055 6.89735 25.4731 8.18822 26.1327 9.62421L21.207 12.2136C20.8199 11.3887 20.2965 10.6172 19.6369 9.89919C18.0165 8.18822 16.0663 7.33273 13.7863 7.33273C11.5063 7.33273 9.55614 8.19586 7.93577 9.92211C6.32974 11.6331 5.52672 13.703 5.52672 16.132C5.52672 18.561 6.32974 20.6386 7.93577 22.3648C9.55614 24.0758 11.5063 24.9313 13.7863 24.9313C16.0663 24.9313 18.0165 24.0682 19.6369 22.3419C20.1244 21.8225 20.5331 21.2726 20.8629 20.6921L25.5949 23.7168Z" fill="white"/>
<path d="M24.2829 30.7975L36.6723 0L49.0617 30.7975H43.2111L36.6723 15.0321L30.1334 30.7975H24.2829Z" fill="white"/>
<path d="M55.6435 18.3318V30.7975H50.1371V0L63.9031 20.5317L77.6691 0V30.7975H72.1627V18.3318L63.9031 30.7975L55.6435 18.3318Z" fill="white"/>
<path d="M87.5849 19.0651V24.9313H95.8445C96.6045 24.9313 97.2498 24.6487 97.7803 24.0834C98.3253 23.5029 98.5977 22.8079 98.5977 21.9982C98.5977 21.1885 98.3253 20.5011 97.7803 19.9359C97.2498 19.3554 96.6045 19.0651 95.8445 19.0651H87.5849ZM82.0785 7.33273V1.46655H95.8445C98.1245 1.46655 100.068 2.32967 101.674 4.05592C103.294 5.76689 104.104 7.83686 104.104 10.2658C104.104 12.5268 103.401 14.4821 101.996 16.132C103.401 17.7819 104.104 19.7373 104.104 21.9982C104.104 24.4272 103.294 26.5048 101.674 28.231C100.068 29.942 98.1245 30.7975 95.8445 30.7975H82.0785V13.1989H95.8445C96.6045 13.1989 97.2498 12.9163 97.7803 12.3511C98.3253 11.7706 98.5977 11.0755 98.5977 10.2658C98.5977 9.45617 98.3253 8.76873 97.7803 8.2035C97.2498 7.62299 96.6045 7.33273 95.8445 7.33273H82.0785Z" fill="white"/>
<path d="M106.857 7.33273V1.46655H120.623C122.903 1.46655 124.846 2.32967 126.452 4.05592C128.073 5.76689 128.883 7.83686 128.883 10.2658C128.883 12.6948 128.073 14.7724 126.452 16.4987C124.846 18.2096 122.903 19.0651 120.623 19.0651H119.247L128.883 30.7975H121.656L112.364 19.7984V30.7975H106.857V13.1989H120.623C121.383 13.1989 122.029 12.9163 122.559 12.3511C123.104 11.7706 123.376 11.0755 123.376 10.2658C123.376 9.45617 123.104 8.76873 122.559 8.2035C122.029 7.62299 121.383 7.33273 120.623 7.33273H106.857Z" fill="white"/>
<path d="M136.884 30.7975H131.378V1.46655H136.884V30.7975Z" fill="white"/>
<path d="M137.96 30.7975L150.349 0L162.739 30.7975H156.888L150.349 15.0321L143.81 30.7975H137.96Z" fill="white"/>
<path d="M169.32 14.2988V30.7975H163.814V0L180.333 17.9652V1.46655H185.84V32.264L169.32 14.2988Z" fill="white"/>
</svg>
