<svg width="393" height="346" viewBox="0 0 393 346" fill="none" xmlns="http://www.w3.org/2000/svg">
<mask id="path-1-inside-1_235_34403" fill="white">
<path d="M1.5 295.89H392.5V334H1.5V295.89Z"/>
</mask>
<path d="M1.5 295.89H392.5V334H1.5V295.89Z" fill="#2B62A7"/>
<path d="M1.5 295.89V296.207H392.5V295.89V295.572H1.5V295.89Z" fill="#2B62A7" mask="url(#path-1-inside-1_235_34403)"/>
<path d="M75.3307 319.644V312.637H78.3634C78.9839 312.637 79.5211 312.741 79.9748 312.948C80.4352 313.148 80.7888 313.438 81.0357 313.818C81.2826 314.199 81.406 314.653 81.406 315.18C81.406 315.7 81.2826 316.151 81.0357 316.531C80.7888 316.911 80.4352 317.205 79.9748 317.412C79.5211 317.612 78.9839 317.712 78.3634 317.712H76.9521V319.644H75.3307ZM76.9521 316.391H78.2733C78.7671 316.391 79.1374 316.284 79.3843 316.07C79.6378 315.857 79.7646 315.56 79.7646 315.18C79.7646 314.793 79.6378 314.492 79.3843 314.279C79.1374 314.065 78.7671 313.959 78.2733 313.959H76.9521V316.391ZM82.8639 319.644V312.637H85.8565C86.8307 312.637 87.588 312.864 88.1285 313.318C88.669 313.772 88.9392 314.392 88.9392 315.18C88.9392 315.7 88.8124 316.151 88.5589 316.531C88.312 316.904 87.9617 317.191 87.5079 317.392L89.0693 319.644H87.3278L85.9766 317.692C85.9499 317.692 85.9232 317.692 85.8965 317.692H84.4853V319.644H82.8639ZM84.4853 316.401H85.8064C86.3002 316.401 86.6705 316.294 86.9174 316.08C87.171 315.86 87.2978 315.56 87.2978 315.18C87.2978 314.793 87.171 314.492 86.9174 314.279C86.6705 314.065 86.3002 313.959 85.8064 313.959H84.4853V316.401ZM90.5241 319.644V312.637H92.1455V319.644H90.5241ZM97.4614 319.764C96.9209 319.764 96.4172 319.674 95.9501 319.493C95.4897 319.313 95.0893 319.063 94.749 318.743C94.4087 318.416 94.1418 318.032 93.9483 317.592C93.7615 317.151 93.6681 316.668 93.6681 316.14C93.6681 315.613 93.7615 315.13 93.9483 314.689C94.1418 314.249 94.4087 313.869 94.749 313.548C95.096 313.221 95.4997 312.968 95.9601 312.788C96.4205 312.607 96.9243 312.517 97.4714 312.517C98.0786 312.517 98.6291 312.624 99.1229 312.838C99.6166 313.051 100.027 313.358 100.354 313.758L99.313 314.719C98.8326 314.172 98.2454 313.899 97.5515 313.899C97.1111 313.899 96.7208 313.995 96.3805 314.189C96.0468 314.376 95.7833 314.639 95.5898 314.979C95.4029 315.313 95.3095 315.7 95.3095 316.14C95.3095 316.581 95.4029 316.971 95.5898 317.312C95.7833 317.645 96.0468 317.909 96.3805 318.102C96.7208 318.289 97.1111 318.382 97.5515 318.382C98.2454 318.382 98.8326 318.106 99.313 317.552L100.354 318.513C100.027 318.92 99.6166 319.23 99.1229 319.443C98.6291 319.657 98.0753 319.764 97.4614 319.764ZM101.651 319.644V312.637H103.273V319.644H101.651ZM105.236 319.644V312.637H106.577L110.06 316.901V312.637H111.661V319.644H110.33L106.837 315.38V319.644H105.236ZM117.002 319.764C116.448 319.764 115.938 319.674 115.471 319.493C115.011 319.313 114.607 319.063 114.26 318.743C113.92 318.416 113.653 318.032 113.459 317.592C113.272 317.151 113.179 316.668 113.179 316.14C113.179 315.613 113.272 315.13 113.459 314.689C113.653 314.249 113.923 313.869 114.27 313.548C114.617 313.221 115.024 312.968 115.491 312.788C115.958 312.607 116.472 312.517 117.032 312.517C117.646 312.517 118.203 312.621 118.704 312.828C119.204 313.034 119.625 313.335 119.965 313.728L118.924 314.689C118.423 314.162 117.82 313.899 117.112 313.899C116.659 313.899 116.258 313.992 115.911 314.179C115.571 314.366 115.304 314.629 115.111 314.969C114.917 315.303 114.82 315.693 114.82 316.14C114.82 316.574 114.917 316.961 115.111 317.302C115.304 317.642 115.571 317.909 115.911 318.102C116.252 318.289 116.645 318.382 117.092 318.382C117.313 318.382 117.526 318.362 117.733 318.322C117.946 318.276 118.153 318.199 118.353 318.092V316.03H119.835V318.873C119.448 319.166 119.004 319.39 118.504 319.543C118.003 319.69 117.503 319.764 117.002 319.764Z" fill="white"/>
<path d="M285.849 319.644V313.939H284.448V312.637H287.47V319.644H285.849ZM291.37 319.764C290.883 319.764 290.399 319.7 289.918 319.573C289.445 319.44 289.038 319.253 288.697 319.013L289.338 317.772C289.605 317.972 289.912 318.129 290.259 318.242C290.612 318.349 290.969 318.402 291.33 318.402C291.737 318.402 292.057 318.322 292.291 318.162C292.524 318.002 292.641 317.779 292.641 317.492C292.641 317.312 292.594 317.155 292.501 317.021C292.407 316.881 292.24 316.774 292 316.701C291.76 316.621 291.43 316.581 291.009 316.581H289.218L289.578 312.637H293.852V313.939H290.929L290.819 315.27H291.39C292.077 315.27 292.634 315.366 293.061 315.56C293.488 315.747 293.799 316.004 293.992 316.331C294.186 316.658 294.282 317.028 294.282 317.442C294.282 317.855 294.179 318.239 293.972 318.593C293.765 318.946 293.445 319.23 293.011 319.443C292.584 319.657 292.037 319.764 291.37 319.764ZM295.3 321.185L295.731 319.604C295.571 319.53 295.441 319.42 295.34 319.273C295.247 319.126 295.2 318.95 295.2 318.743C295.2 318.456 295.29 318.226 295.471 318.052C295.657 317.872 295.891 317.782 296.171 317.782C296.451 317.782 296.682 317.872 296.862 318.052C297.042 318.226 297.132 318.456 297.132 318.743C297.132 318.87 297.115 319 297.082 319.133C297.049 319.267 296.975 319.47 296.862 319.744L296.291 321.185H295.3ZM301.036 319.764C300.462 319.764 299.948 319.624 299.494 319.343C299.047 319.056 298.69 318.643 298.423 318.102C298.163 317.562 298.033 316.908 298.033 316.14C298.033 315.373 298.163 314.719 298.423 314.179C298.69 313.638 299.047 313.228 299.494 312.948C299.948 312.661 300.462 312.517 301.036 312.517C301.616 312.517 302.13 312.661 302.577 312.948C303.031 313.228 303.388 313.638 303.648 314.179C303.908 314.719 304.038 315.373 304.038 316.14C304.038 316.908 303.908 317.562 303.648 318.102C303.388 318.643 303.031 319.056 302.577 319.343C302.13 319.624 301.616 319.764 301.036 319.764ZM301.036 318.392C301.443 318.392 301.773 318.216 302.027 317.862C302.28 317.508 302.407 316.935 302.407 316.14C302.407 315.346 302.28 314.773 302.027 314.419C301.773 314.065 301.443 313.889 301.036 313.889C300.635 313.889 300.308 314.065 300.055 314.419C299.801 314.773 299.674 315.346 299.674 316.14C299.674 316.935 299.801 317.508 300.055 317.862C300.308 318.216 300.635 318.392 301.036 318.392ZM308.129 319.764C307.555 319.764 307.041 319.624 306.588 319.343C306.141 319.056 305.784 318.643 305.517 318.102C305.256 317.562 305.126 316.908 305.126 316.14C305.126 315.373 305.256 314.719 305.517 314.179C305.784 313.638 306.141 313.228 306.588 312.948C307.041 312.661 307.555 312.517 308.129 312.517C308.71 312.517 309.223 312.661 309.67 312.948C310.124 313.228 310.481 313.638 310.741 314.179C311.002 314.719 311.132 315.373 311.132 316.14C311.132 316.908 311.002 317.562 310.741 318.102C310.481 318.643 310.124 319.056 309.67 319.343C309.223 319.624 308.71 319.764 308.129 319.764ZM308.129 318.392C308.536 318.392 308.866 318.216 309.12 317.862C309.373 317.508 309.5 316.935 309.5 316.14C309.5 315.346 309.373 314.773 309.12 314.419C308.866 314.065 308.536 313.889 308.129 313.889C307.729 313.889 307.402 314.065 307.148 314.419C306.895 314.773 306.768 315.346 306.768 316.14C306.768 316.935 306.895 317.508 307.148 317.862C307.402 318.216 307.729 318.392 308.129 318.392ZM315.222 319.764C314.648 319.764 314.135 319.624 313.681 319.343C313.234 319.056 312.877 318.643 312.61 318.102C312.35 317.562 312.22 316.908 312.22 316.14C312.22 315.373 312.35 314.719 312.61 314.179C312.877 313.638 313.234 313.228 313.681 312.948C314.135 312.661 314.648 312.517 315.222 312.517C315.803 312.517 316.317 312.661 316.764 312.948C317.217 313.228 317.574 313.638 317.835 314.179C318.095 314.719 318.225 315.373 318.225 316.14C318.225 316.908 318.095 317.562 317.835 318.102C317.574 318.643 317.217 319.056 316.764 319.343C316.317 319.624 315.803 319.764 315.222 319.764ZM315.222 318.392C315.629 318.392 315.96 318.216 316.213 317.862C316.467 317.508 316.594 316.935 316.594 316.14C316.594 315.346 316.467 314.773 316.213 314.419C315.96 314.065 315.629 313.889 315.222 313.889C314.822 313.889 314.495 314.065 314.241 314.419C313.988 314.773 313.861 315.346 313.861 316.14C313.861 316.935 313.988 317.508 314.241 317.862C314.495 318.216 314.822 318.392 315.222 318.392Z" fill="white"/>
<mask id="path-5-inside-2_235_34403" fill="white">
<path d="M1.25586 0H392.5V59.66H1.25586V0Z"/>
</mask>
<path d="M1.25586 0H392.5V59.66H1.25586V0Z" fill="#2B62A7"/>
<path d="M392.5 59.66V59.2366H1.25586V59.66V60.0834H392.5V59.66Z" fill="#2B62A7" mask="url(#path-5-inside-2_235_34403)"/>
<path d="M69.6335 31.077C70.6904 31.4157 71.3679 32.2287 71.3679 33.4212C71.3679 35.0608 70.0671 36.0093 67.5738 36.0093H62.6686V26.524H67.3028C69.6741 26.524 70.8937 27.5132 70.8937 28.9902C70.8937 29.9387 70.4059 30.6704 69.6335 31.077ZM67.0318 28.1772H64.8502V30.413H67.0318C68.1023 30.413 68.685 30.0336 68.685 29.2883C68.685 28.543 68.1023 28.1772 67.0318 28.1772ZM67.4112 34.3561C68.5495 34.3561 69.1592 34.0038 69.1592 33.1908C69.1592 32.3913 68.5495 32.0119 67.4112 32.0119H64.8502V34.3561H67.4112ZM75.618 34.2477H80.7806V36.0093H73.4364V26.524H80.6045V28.2856H75.618V30.3452H80.0218V32.0526H75.618V34.2477ZM89.465 26.524H91.6331V36.0093H89.8309L85.1018 30.2504V36.0093H82.9338V26.524H84.7495L89.465 32.2829V26.524ZM96.4654 34.2477H101.628V36.0093H94.2838V26.524H101.452V28.2856H96.4654V30.3452H100.869V32.0526H96.4654V34.2477ZM110.949 28.2856H105.976V30.7924H110.367V32.5539H105.976V36.0093H103.781V26.524H110.949V28.2856ZM112.842 36.0093V26.524H115.037V36.0093H112.842ZM119.659 36.0093V28.3127H116.624V26.524H124.89V28.3127H121.855V36.0093H119.659ZM129.528 36.1719C128.024 36.1719 126.506 35.7247 125.666 35.0743L126.411 33.4212C127.211 34.0038 128.403 34.4103 129.541 34.4103C130.842 34.4103 131.371 33.9767 131.371 33.3941C131.371 31.619 125.856 32.8385 125.856 29.3154C125.856 27.7029 127.157 26.3614 129.853 26.3614C131.045 26.3614 132.265 26.646 133.146 27.2016L132.468 28.8683C131.587 28.3669 130.68 28.123 129.839 28.123C128.539 28.123 128.037 28.6108 128.037 29.207C128.037 30.955 133.552 29.749 133.552 33.2315C133.552 34.8168 132.238 36.1719 129.528 36.1719Z" fill="white"/>
<path d="M35.714 94.4905C34.6266 94.4905 33.5595 94.1246 32.9904 93.5962L33.3664 92.8035C33.8949 93.2811 34.7994 93.6266 35.714 93.6266C36.9437 93.6266 37.4722 93.149 37.4722 92.5291C37.4722 90.7912 33.1632 91.8888 33.1632 89.2465C33.1632 88.1489 34.0168 87.214 35.8868 87.214C36.7201 87.214 37.5839 87.4375 38.1734 87.844L37.838 88.6571C37.2181 88.2607 36.5169 88.0778 35.8868 88.0778C34.6774 88.0778 34.1591 88.5859 34.1591 89.2059C34.1591 90.9437 38.4681 89.8563 38.4681 92.4681C38.4681 93.5555 37.5941 94.4905 35.714 94.4905ZM42.4224 94.4702C40.8065 94.4702 39.6174 93.3218 39.6174 91.7161C39.6174 90.1103 40.8065 88.9721 42.4224 88.9721C44.0382 88.9721 45.2171 90.1103 45.2171 91.7161C45.2171 93.3218 44.0382 94.4702 42.4224 94.4702ZM42.4224 93.6165C43.459 93.6165 44.2313 92.8644 44.2313 91.7161C44.2313 90.5677 43.459 89.8258 42.4224 89.8258C41.3858 89.8258 40.6032 90.5677 40.6032 91.7161C40.6032 92.8644 41.3858 93.6165 42.4224 93.6165ZM49.2189 94.4702C47.5623 94.4702 46.3733 93.3218 46.3733 91.7161C46.3733 90.1103 47.5623 88.9721 49.2189 88.9721C50.1843 88.9721 50.9872 89.3685 51.414 90.1205L50.6721 90.5982C50.3266 90.0697 49.7981 89.8258 49.2087 89.8258C48.1518 89.8258 47.3591 90.5677 47.3591 91.7161C47.3591 92.8848 48.1518 93.6165 49.2087 93.6165C49.7981 93.6165 50.3266 93.3726 50.6721 92.8441L51.414 93.3116C50.9872 94.0636 50.1843 94.4702 49.2189 94.4702ZM53.4698 87.9863C53.0938 87.9863 52.8092 87.7119 52.8092 87.3562C52.8092 87.0005 53.0938 86.716 53.4698 86.716C53.8458 86.716 54.1304 86.9904 54.1304 87.3359C54.1304 87.7018 53.856 87.9863 53.4698 87.9863ZM52.982 94.4092V89.0229H53.9576V94.4092H52.982ZM58.0867 88.9721C59.5603 88.9721 60.3937 89.6835 60.3937 91.1571V94.4092H59.4689V93.6978C59.1436 94.1856 58.544 94.4702 57.7005 94.4702C56.481 94.4702 55.7086 93.8197 55.7086 92.8848C55.7086 92.0209 56.2676 91.3095 57.8733 91.3095H59.418V91.1165C59.418 90.2933 58.9404 89.8156 57.9749 89.8156C57.3347 89.8156 56.6843 90.0392 56.2676 90.3949L55.8611 89.6632C56.42 89.216 57.2229 88.9721 58.0867 88.9721ZM57.8631 93.7181C58.5949 93.7181 59.1741 93.3827 59.418 92.7628V92.0108H57.914C56.9485 92.0108 56.6741 92.3868 56.6741 92.8441C56.6741 93.3827 57.1213 93.7181 57.8631 93.7181ZM62.504 94.4092V86.8684H63.4796V94.4092H62.504ZM76.395 94.4092H75.4194L75.4092 89.2262L72.838 93.5453H72.3705L69.7994 89.2567V94.4092H68.8237V87.2953H69.6571L72.6246 92.2953L75.5515 87.2953H76.3848L76.395 94.4092ZM83.5605 91.7465C83.5605 91.8278 83.5504 91.9498 83.5402 92.0413H79.1702C79.2922 92.9864 80.0544 93.6165 81.1215 93.6165C81.7515 93.6165 82.28 93.4031 82.6764 92.9661L83.215 93.5962C82.7272 94.1653 81.9853 94.4702 81.091 94.4702C79.3531 94.4702 78.1946 93.3218 78.1946 91.7161C78.1946 90.1205 79.343 88.9721 80.8979 88.9721C82.4528 88.9721 83.5605 90.09 83.5605 91.7465ZM80.8979 89.7953C79.9629 89.7953 79.2718 90.4254 79.1702 91.34H82.6255C82.5239 90.4355 81.843 89.7953 80.8979 89.7953ZM89.3259 86.8684H90.3015V94.4092H89.3665V93.5555C88.9295 94.1653 88.2385 94.4702 87.4458 94.4702C85.8706 94.4702 84.7222 93.3624 84.7222 91.7161C84.7222 90.0697 85.8706 88.9721 87.4458 88.9721C88.208 88.9721 88.8787 89.2567 89.3259 89.8359V86.8684ZM87.5271 93.6165C88.5535 93.6165 89.336 92.8644 89.336 91.7161C89.336 90.5677 88.5535 89.8258 87.5271 89.8258C86.4905 89.8258 85.7079 90.5677 85.7079 91.7161C85.7079 92.8644 86.4905 93.6165 87.5271 93.6165ZM92.9402 87.9863C92.5641 87.9863 92.2796 87.7119 92.2796 87.3562C92.2796 87.0005 92.5641 86.716 92.9402 86.716C93.3162 86.716 93.6007 86.9904 93.6007 87.3359C93.6007 87.7018 93.3264 87.9863 92.9402 87.9863ZM92.4524 94.4092V89.0229H93.428V94.4092H92.4524ZM97.5571 88.9721C99.0307 88.9721 99.864 89.6835 99.864 91.1571V94.4092H98.9392V93.6978C98.614 94.1856 98.0144 94.4702 97.1709 94.4702C95.9514 94.4702 95.179 93.8197 95.179 92.8848C95.179 92.0209 95.7379 91.3095 97.3437 91.3095H98.8884V91.1165C98.8884 90.2933 98.4107 89.8156 97.4453 89.8156C96.805 89.8156 96.1546 90.0392 95.7379 90.3949L95.3314 89.6632C95.8904 89.216 96.6932 88.9721 97.5571 88.9721ZM97.3335 93.7181C98.0652 93.7181 98.6445 93.3827 98.8884 92.7628V92.0108H97.3843C96.4188 92.0108 96.1445 92.3868 96.1445 92.8441C96.1445 93.3827 96.5916 93.7181 97.3335 93.7181ZM112.722 94.4092H111.746L111.736 89.2262L109.165 93.5453H108.698L106.126 89.2567V94.4092H105.151V87.2953H105.984L108.952 92.2953L111.879 87.2953H112.712L112.722 94.4092ZM119.888 91.7465C119.888 91.8278 119.877 91.9498 119.867 92.0413H115.497C115.619 92.9864 116.381 93.6165 117.448 93.6165C118.079 93.6165 118.607 93.4031 119.003 92.9661L119.542 93.5962C119.054 94.1653 118.312 94.4702 117.418 94.4702C115.68 94.4702 114.522 93.3218 114.522 91.7161C114.522 90.1205 115.67 88.9721 117.225 88.9721C118.78 88.9721 119.888 90.09 119.888 91.7465ZM117.225 89.7953C116.29 89.7953 115.599 90.4254 115.497 91.34H118.953C118.851 90.4355 118.17 89.7953 117.225 89.7953ZM124.423 88.9721C125.734 88.9721 126.659 89.7242 126.659 91.3095V94.4092H125.683V91.4213C125.683 90.3644 125.155 89.8461 124.23 89.8461C123.194 89.8461 122.523 90.466 122.523 91.6348V94.4092H121.547V89.0229H122.482V89.8359C122.879 89.2872 123.57 88.9721 124.423 88.9721ZM131.493 93.3929L131.798 94.0941C131.503 94.3482 131.056 94.4702 130.619 94.4702C129.532 94.4702 128.912 93.8706 128.912 92.7831V89.8258H127.997V89.0229H128.912V87.844H129.887V89.0229H131.432V89.8258H129.887V92.7425C129.887 93.3218 130.192 93.647 130.731 93.647C131.015 93.647 131.29 93.5555 131.493 93.3929ZM133.77 87.9863C133.394 87.9863 133.11 87.7119 133.11 87.3562C133.11 87.0005 133.394 86.716 133.77 86.716C134.146 86.716 134.431 86.9904 134.431 87.3359C134.431 87.7018 134.156 87.9863 133.77 87.9863ZM133.282 94.4092V89.0229H134.258V94.4092H133.282ZM138.733 94.4702C137.117 94.4702 135.928 93.3218 135.928 91.7161C135.928 90.1103 137.117 88.9721 138.733 88.9721C140.348 88.9721 141.527 90.1103 141.527 91.7161C141.527 93.3218 140.348 94.4702 138.733 94.4702ZM138.733 93.6165C139.769 93.6165 140.542 92.8644 140.542 91.7161C140.542 90.5677 139.769 89.8258 138.733 89.8258C137.696 89.8258 136.913 90.5677 136.913 91.7161C136.913 92.8644 137.696 93.6165 138.733 93.6165ZM146.058 88.9721C147.369 88.9721 148.293 89.7242 148.293 91.3095V94.4092H147.318V91.4213C147.318 90.3644 146.789 89.8461 145.864 89.8461C144.828 89.8461 144.157 90.466 144.157 91.6348V94.4092H143.182V89.0229H144.116V89.8359C144.513 89.2872 145.204 88.9721 146.058 88.9721ZM151.949 94.4702C151.054 94.4702 150.17 94.1958 149.723 93.8401L150.129 93.0677C150.587 93.3929 151.318 93.6266 152.02 93.6266C152.924 93.6266 153.3 93.3523 153.3 92.8949C153.3 91.6856 149.896 92.7323 149.896 90.588C149.896 89.6225 150.76 88.9721 152.142 88.9721C152.843 88.9721 153.636 89.155 154.103 89.4599L153.686 90.2323C153.199 89.9172 152.66 89.8055 152.131 89.8055C151.278 89.8055 150.861 90.1205 150.861 90.5473C150.861 91.8177 154.276 90.7811 154.276 92.8746C154.276 93.8502 153.381 94.4702 151.949 94.4702ZM23.5868 108.381C22.8144 107.151 22.3774 105.495 22.3774 103.625C22.3774 101.755 22.8144 100.078 23.5868 98.8684H24.5116C23.6884 100.312 23.3327 101.846 23.3327 103.625C23.3327 105.403 23.6884 106.938 24.5116 108.381H23.5868ZM35.2934 99.2953H36.2589L33.8808 106.409H32.8137L30.8726 100.728L28.9315 106.409H27.8441L25.466 99.2953H26.5128L28.4335 105.078L30.4356 99.2953H31.3706L33.332 105.108L35.2934 99.2953ZM42.1257 103.747C42.1257 103.828 42.1155 103.95 42.1054 104.041H37.7354C37.8573 104.986 38.6196 105.616 39.6866 105.616C40.3167 105.616 40.8452 105.403 41.2415 104.966L41.7802 105.596C41.2924 106.165 40.5505 106.47 39.6562 106.47C37.9183 106.47 36.7598 105.322 36.7598 103.716C36.7598 102.121 37.9082 100.972 39.4631 100.972C41.018 100.972 42.1257 102.09 42.1257 103.747ZM39.4631 101.795C38.5281 101.795 37.837 102.425 37.7354 103.34H41.1907C41.0891 102.436 40.4082 101.795 39.4631 101.795ZM46.6411 100.972C48.2163 100.972 49.3647 102.07 49.3647 103.716C49.3647 105.362 48.2163 106.47 46.6411 106.47C45.8484 106.47 45.1573 106.165 44.7203 105.556V106.409H43.7853V98.8684H44.7609V101.836C45.2081 101.257 45.8788 100.972 46.6411 100.972ZM46.5598 105.616C47.5964 105.616 48.3789 104.864 48.3789 103.716C48.3789 102.568 47.5964 101.826 46.5598 101.826C45.5333 101.826 44.7508 102.568 44.7508 103.716C44.7508 104.864 45.5333 105.616 46.5598 105.616ZM52.5623 106.47C51.668 106.47 50.7838 106.196 50.3366 105.84L50.7432 105.068C51.2005 105.393 51.9322 105.627 52.6334 105.627C53.5379 105.627 53.9139 105.352 53.9139 104.895C53.9139 103.686 50.5094 104.732 50.5094 102.588C50.5094 101.623 51.3732 100.972 52.7554 100.972C53.4566 100.972 54.2493 101.155 54.7168 101.46L54.3001 102.232C53.8123 101.917 53.2737 101.805 52.7452 101.805C51.8915 101.805 51.4749 102.121 51.4749 102.547C51.4749 103.818 54.8896 102.781 54.8896 104.875C54.8896 105.85 53.9952 106.47 52.5623 106.47ZM56.9015 99.9863C56.5255 99.9863 56.241 99.7119 56.241 99.3562C56.241 99.0005 56.5255 98.716 56.9015 98.716C57.2776 98.716 57.5621 98.9904 57.5621 99.3359C57.5621 99.7018 57.2877 99.9863 56.9015 99.9863ZM56.4137 106.409V101.023H57.3893V106.409H56.4137ZM62.2806 105.393L62.5855 106.094C62.2908 106.348 61.8436 106.47 61.4066 106.47C60.3192 106.47 59.6993 105.871 59.6993 104.783V101.826H58.7847V101.023H59.6993V99.844H60.6749V101.023H62.2197V101.826H60.6749V104.742C60.6749 105.322 60.9798 105.647 61.5184 105.647C61.803 105.647 62.0774 105.556 62.2806 105.393ZM68.7592 103.747C68.7592 103.828 68.7491 103.95 68.7389 104.041H64.3689C64.4909 104.986 65.2531 105.616 66.3202 105.616C66.9503 105.616 67.4787 105.403 67.8751 104.966L68.4137 105.596C67.9259 106.165 67.184 106.47 66.2897 106.47C64.5519 106.47 63.3933 105.322 63.3933 103.716C63.3933 102.121 64.5417 100.972 66.0966 100.972C67.6515 100.972 68.7592 102.09 68.7592 103.747ZM66.0966 101.795C65.1616 101.795 64.4706 102.425 64.3689 103.34H67.8243C67.7226 102.436 67.0417 101.795 66.0966 101.795ZM70.6628 105.078C71.0489 105.078 71.3233 105.373 71.3233 105.769C71.3233 105.972 71.2827 106.125 71.1506 106.501L70.6729 107.913H70.0327L70.4087 106.399C70.1546 106.308 69.9819 106.074 69.9819 105.769C69.9819 105.362 70.2766 105.078 70.6628 105.078ZM76.5482 99.9863C76.1722 99.9863 75.8876 99.7119 75.8876 99.3562C75.8876 99.0005 76.1722 98.716 76.5482 98.716C76.9242 98.716 77.2088 98.9904 77.2088 99.3359C77.2088 99.7018 76.9344 99.9863 76.5482 99.9863ZM76.0604 106.409V101.023H77.036V106.409H76.0604ZM82.0797 100.972C83.3907 100.972 84.3155 101.724 84.3155 103.31V106.409H83.3399V103.421C83.3399 102.364 82.8114 101.846 81.8866 101.846C80.85 101.846 80.1793 102.466 80.1793 103.635V106.409H79.2037V101.023H80.1386V101.836C80.535 101.287 81.2261 100.972 82.0797 100.972ZM87.9707 106.47C87.0764 106.47 86.1922 106.196 85.7451 105.84L86.1516 105.068C86.6089 105.393 87.3406 105.627 88.0418 105.627C88.9463 105.627 89.3224 105.352 89.3224 104.895C89.3224 103.686 85.9178 104.732 85.9178 102.588C85.9178 101.623 86.7817 100.972 88.1638 100.972C88.865 100.972 89.6577 101.155 90.1252 101.46L89.7085 102.232C89.2207 101.917 88.6821 101.805 88.1536 101.805C87.3 101.805 86.8833 102.121 86.8833 102.547C86.8833 103.818 90.298 102.781 90.298 104.875C90.298 105.85 89.4037 106.47 87.9707 106.47ZM94.5458 105.393L94.8506 106.094C94.5559 106.348 94.1088 106.47 93.6718 106.47C92.5844 106.47 91.9644 105.871 91.9644 104.783V101.826H91.0498V101.023H91.9644V99.844H92.9401V101.023H94.4848V101.826H92.9401V104.742C92.9401 105.322 93.2449 105.647 93.7836 105.647C94.0681 105.647 94.3425 105.556 94.5458 105.393ZM98.2965 100.972C99.77 100.972 100.603 101.684 100.603 103.157V106.409H99.6786V105.698C99.3534 106.186 98.7538 106.47 97.9103 106.47C96.6907 106.47 95.9184 105.82 95.9184 104.885C95.9184 104.021 96.4773 103.31 98.083 103.31H99.6278V103.116C99.6278 102.293 99.1501 101.816 98.1847 101.816C97.5444 101.816 96.894 102.039 96.4773 102.395L96.0708 101.663C96.6298 101.216 97.4326 100.972 98.2965 100.972ZM98.0729 105.718C98.8046 105.718 99.3839 105.383 99.6278 104.763V104.011H98.1237C97.1582 104.011 96.8838 104.387 96.8838 104.844C96.8838 105.383 97.331 105.718 98.0729 105.718ZM111.642 105.871L111.093 106.521L110.148 105.576C109.528 106.175 108.715 106.49 107.77 106.49C106.327 106.49 105.28 105.728 105.28 104.641C105.28 103.767 105.778 103.157 107.008 102.456C106.368 101.816 106.154 101.358 106.154 100.83C106.154 99.8745 106.906 99.2343 108.075 99.2343C109.152 99.2343 109.843 99.7932 109.843 100.718C109.843 101.44 109.417 101.958 108.329 102.578L110.087 104.326C110.28 103.96 110.433 103.533 110.524 103.035L111.307 103.289C111.185 103.919 110.972 104.468 110.687 104.915L111.642 105.871ZM108.075 99.9457C107.435 99.9457 107.059 100.301 107.059 100.81C107.059 101.175 107.201 101.44 107.78 102.029C108.715 101.501 109.02 101.175 109.02 100.728C109.02 100.261 108.685 99.9457 108.075 99.9457ZM107.831 105.677C108.512 105.677 109.112 105.454 109.569 105.007L107.547 102.994C106.551 103.553 106.236 103.97 106.236 104.539C106.236 105.22 106.876 105.677 107.831 105.677ZM116.196 106.409V99.2953H117.212V105.525H121.064V106.409H116.196ZM122.881 99.9863C122.505 99.9863 122.22 99.7119 122.22 99.3562C122.22 99.0005 122.505 98.716 122.881 98.716C123.257 98.716 123.541 98.9904 123.541 99.3359C123.541 99.7018 123.267 99.9863 122.881 99.9863ZM122.393 106.409V101.023H123.369V106.409H122.393ZM128.412 100.972C129.723 100.972 130.648 101.724 130.648 103.31V106.409H129.672V103.421C129.672 102.364 129.144 101.846 128.219 101.846C127.183 101.846 126.512 102.466 126.512 103.635V106.409H125.536V101.023H126.471V101.836C126.868 101.287 127.559 100.972 128.412 100.972ZM136.874 106.409L134.852 103.899L133.734 104.936V106.409H132.759V98.8684H133.734V103.706L136.671 101.023H137.85L135.584 103.249L138.074 106.409H136.874ZM143.966 103.747C143.966 103.828 143.955 103.95 143.945 104.041H139.575C139.697 104.986 140.459 105.616 141.526 105.616C142.157 105.616 142.685 105.403 143.081 104.966L143.62 105.596C143.132 106.165 142.39 106.47 141.496 106.47C139.758 106.47 138.6 105.322 138.6 103.716C138.6 102.121 139.748 100.972 141.303 100.972C142.858 100.972 143.966 102.09 143.966 103.747ZM141.303 101.795C140.368 101.795 139.677 102.425 139.575 103.34H143.031C142.929 102.436 142.248 101.795 141.303 101.795ZM149.731 98.8684H150.707V106.409H149.772V105.556C149.335 106.165 148.643 106.47 147.851 106.47C146.276 106.47 145.127 105.362 145.127 103.716C145.127 102.07 146.276 100.972 147.851 100.972C148.613 100.972 149.284 101.257 149.731 101.836V98.8684ZM147.932 105.616C148.959 105.616 149.741 104.864 149.741 103.716C149.741 102.568 148.959 101.826 147.932 101.826C146.895 101.826 146.113 102.568 146.113 103.716C146.113 104.864 146.895 105.616 147.932 105.616ZM153.345 99.9863C152.969 99.9863 152.685 99.7119 152.685 99.3562C152.685 99.0005 152.969 98.716 153.345 98.716C153.721 98.716 154.006 98.9904 154.006 99.3359C154.006 99.7018 153.731 99.9863 153.345 99.9863ZM152.857 106.409V101.023H153.833V106.409H152.857ZM158.877 100.972C160.188 100.972 161.113 101.724 161.113 103.31V106.409H160.137V103.421C160.137 102.364 159.608 101.846 158.684 101.846C157.647 101.846 156.976 102.466 156.976 103.635V106.409H156.001V101.023H156.936V101.836C157.332 101.287 158.023 100.972 158.877 100.972ZM163.548 108.381H162.623C163.447 106.938 163.812 105.403 163.812 103.625C163.812 101.846 163.447 100.312 162.623 98.8684H163.548C164.331 100.078 164.768 101.755 164.768 103.625C164.768 105.495 164.331 107.151 163.548 108.381Z" fill="white"/>
<path d="M20.2163 146.041V138.927H21.2325V146.041H20.2163ZM26.401 140.604C27.712 140.604 28.6368 141.356 28.6368 142.941V146.041H27.6612V143.053C27.6612 141.996 27.1327 141.478 26.2079 141.478C25.1713 141.478 24.5006 142.098 24.5006 143.267V146.041H23.5249V140.655H24.4599V141.468C24.8563 140.919 25.5473 140.604 26.401 140.604ZM32.292 146.102C31.3977 146.102 30.5135 145.828 30.0663 145.472L30.4728 144.7C30.9302 145.025 31.6619 145.258 32.3631 145.258C33.2676 145.258 33.6436 144.984 33.6436 144.527C33.6436 143.317 30.2391 144.364 30.2391 142.22C30.2391 141.254 31.1029 140.604 32.4851 140.604C33.1863 140.604 33.979 140.787 34.4465 141.092L34.0298 141.864C33.542 141.549 33.0034 141.437 32.4749 141.437C31.6212 141.437 31.2046 141.752 31.2046 142.179C31.2046 143.45 34.6192 142.413 34.6192 144.506C34.6192 145.482 33.7249 146.102 32.292 146.102ZM38.867 145.025L39.1719 145.726C38.8772 145.98 38.43 146.102 37.993 146.102C36.9056 146.102 36.2857 145.502 36.2857 144.415V141.458H35.371V140.655H36.2857V139.476H37.2613V140.655H38.8061V141.458H37.2613V144.374C37.2613 144.954 37.5662 145.279 38.1048 145.279C38.3894 145.279 38.6638 145.187 38.867 145.025ZM42.6177 140.604C44.0913 140.604 44.9247 141.315 44.9247 142.789V146.041H43.9999V145.33C43.6746 145.817 43.075 146.102 42.2315 146.102C41.012 146.102 40.2396 145.452 40.2396 144.517C40.2396 143.653 40.7986 142.941 42.4043 142.941H43.949V142.748C43.949 141.925 43.4714 141.447 42.5059 141.447C41.8657 141.447 41.2153 141.671 40.7986 142.027L40.3921 141.295C40.951 140.848 41.7539 140.604 42.6177 140.604ZM42.3941 145.35C43.1259 145.35 43.7051 145.015 43.949 144.395V143.643H42.445C41.4795 143.643 41.2051 144.019 41.2051 144.476C41.2051 145.015 41.6523 145.35 42.3941 145.35ZM51.2925 140.655H52.2173V145.309C52.2173 147.21 51.2518 148.074 49.4225 148.074C48.4368 148.074 47.4408 147.799 46.8514 147.271L47.3189 146.519C47.8168 146.945 48.5994 147.22 49.3921 147.22C50.6624 147.22 51.2417 146.63 51.2417 145.411V144.984C50.7742 145.543 50.073 145.817 49.3006 145.817C47.7457 145.817 46.5668 144.761 46.5668 143.206C46.5668 141.651 47.7457 140.604 49.3006 140.604C50.1035 140.604 50.8352 140.899 51.2925 141.488V140.655ZM49.4124 144.964C50.4896 144.964 51.262 144.242 51.262 143.206C51.262 142.159 50.4896 141.458 49.4124 141.458C48.325 141.458 47.5526 142.159 47.5526 143.206C47.5526 144.242 48.325 144.964 49.4124 144.964ZM55.3213 141.559C55.6668 140.929 56.3376 140.604 57.2827 140.604V141.549C57.2014 141.539 57.1303 141.539 57.0591 141.539C56.0124 141.539 55.362 142.179 55.362 143.358V146.041H54.3863V140.655H55.3213V141.559ZM60.7415 140.604C62.2151 140.604 63.0485 141.315 63.0485 142.789V146.041H62.1237V145.33C61.7985 145.817 61.1989 146.102 60.3554 146.102C59.1358 146.102 58.3635 145.452 58.3635 144.517C58.3635 143.653 58.9224 142.941 60.5281 142.941H62.0729V142.748C62.0729 141.925 61.5952 141.447 60.6297 141.447C59.9895 141.447 59.3391 141.671 58.9224 142.027L58.5159 141.295C59.0748 140.848 59.8777 140.604 60.7415 140.604ZM60.518 145.35C61.2497 145.35 61.829 145.015 62.0729 144.395V143.643H60.5688C59.6033 143.643 59.3289 144.019 59.3289 144.476C59.3289 145.015 59.7761 145.35 60.518 145.35ZM71.8967 140.604C73.2077 140.604 74.1021 141.356 74.1021 142.941V146.041H73.1264V143.053C73.1264 141.996 72.6183 141.478 71.7341 141.478C70.7585 141.478 70.1183 142.098 70.1183 143.267V146.041H69.1426V143.053C69.1426 141.996 68.6345 141.478 67.7503 141.478C66.7747 141.478 66.1345 142.098 66.1345 143.267V146.041H65.1588V140.655H66.0938V141.458C66.48 140.909 67.1406 140.604 67.9536 140.604C68.7768 140.604 69.4678 140.929 69.8235 141.6C70.2301 140.99 70.9821 140.604 71.8967 140.604ZM81.4517 146.122C80.3643 146.122 79.2972 145.756 78.7281 145.228L79.1041 144.435C79.6326 144.913 80.5371 145.258 81.4517 145.258C82.6814 145.258 83.2099 144.781 83.2099 144.161C83.2099 142.423 78.9009 143.521 78.9009 140.878C78.9009 139.781 79.7545 138.846 81.6245 138.846C82.4578 138.846 83.3216 139.069 83.9111 139.476L83.5757 140.289C82.9558 139.893 82.2546 139.71 81.6245 139.71C80.4151 139.71 79.8968 140.218 79.8968 140.838C79.8968 142.576 84.2058 141.488 84.2058 144.1C84.2058 145.187 83.3318 146.122 81.4517 146.122ZM88.5767 145.025L88.8816 145.726C88.5869 145.98 88.1397 146.102 87.7027 146.102C86.6153 146.102 85.9954 145.502 85.9954 144.415V141.458H85.0808V140.655H85.9954V139.476H86.971V140.655H88.5158V141.458H86.971V144.374C86.971 144.954 87.2759 145.279 87.8145 145.279C88.0991 145.279 88.3735 145.187 88.5767 145.025ZM92.4943 146.102C90.8784 146.102 89.6894 144.954 89.6894 143.348C89.6894 141.742 90.8784 140.604 92.4943 140.604C94.1102 140.604 95.2891 141.742 95.2891 143.348C95.2891 144.954 94.1102 146.102 92.4943 146.102ZM92.4943 145.248C93.5309 145.248 94.3033 144.496 94.3033 143.348C94.3033 142.199 93.5309 141.458 92.4943 141.458C91.4577 141.458 90.6752 142.199 90.6752 143.348C90.6752 144.496 91.4577 145.248 92.4943 145.248ZM97.8782 141.559C98.2237 140.929 98.8945 140.604 99.8396 140.604V141.549C99.7583 141.539 99.6872 141.539 99.616 141.539C98.5693 141.539 97.9188 142.179 97.9188 143.358V146.041H96.9432V140.655H97.8782V141.559ZM101.835 139.618C101.459 139.618 101.174 139.344 101.174 138.988C101.174 138.632 101.459 138.348 101.835 138.348C102.211 138.348 102.495 138.622 102.495 138.968C102.495 139.334 102.221 139.618 101.835 139.618ZM101.347 146.041V140.655H102.323V146.041H101.347ZM109.358 143.378C109.358 143.46 109.348 143.582 109.338 143.673H104.968C105.09 144.618 105.852 145.248 106.919 145.248C107.549 145.248 108.078 145.035 108.474 144.598L109.013 145.228C108.525 145.797 107.783 146.102 106.889 146.102C105.151 146.102 103.992 144.954 103.992 143.348C103.992 141.752 105.141 140.604 106.696 140.604C108.25 140.604 109.358 141.722 109.358 143.378ZM106.696 141.427C105.761 141.427 105.07 142.057 104.968 142.972H108.423C108.322 142.067 107.641 141.427 106.696 141.427ZM112.563 146.102C111.668 146.102 110.784 145.828 110.337 145.472L110.743 144.7C111.201 145.025 111.932 145.258 112.634 145.258C113.538 145.258 113.914 144.984 113.914 144.527C113.914 143.317 110.51 144.364 110.51 142.22C110.51 141.254 111.374 140.604 112.756 140.604C113.457 140.604 114.25 140.787 114.717 141.092L114.3 141.864C113.813 141.549 113.274 141.437 112.745 141.437C111.892 141.437 111.475 141.752 111.475 142.179C111.475 143.45 114.89 142.413 114.89 144.506C114.89 145.482 113.996 146.102 112.563 146.102ZM125.343 145.502L124.794 146.153L123.849 145.208C123.229 145.807 122.416 146.122 121.471 146.122C120.027 146.122 118.981 145.36 118.981 144.273C118.981 143.399 119.479 142.789 120.708 142.088C120.068 141.447 119.855 140.99 119.855 140.462C119.855 139.506 120.607 138.866 121.775 138.866C122.853 138.866 123.544 139.425 123.544 140.35C123.544 141.071 123.117 141.59 122.029 142.21L123.788 143.958C123.981 143.592 124.133 143.165 124.225 142.667L125.007 142.921C124.885 143.551 124.672 144.1 124.387 144.547L125.343 145.502ZM121.775 139.578C121.135 139.578 120.759 139.933 120.759 140.441C120.759 140.807 120.901 141.071 121.481 141.661C122.416 141.132 122.721 140.807 122.721 140.36C122.721 139.893 122.385 139.578 121.775 139.578ZM121.531 145.309C122.212 145.309 122.812 145.086 123.269 144.639L121.247 142.626C120.251 143.185 119.936 143.602 119.936 144.171C119.936 144.852 120.576 145.309 121.531 145.309ZM133.077 146.122C130.923 146.122 129.317 144.588 129.317 142.484C129.317 140.38 130.923 138.846 133.088 138.846C134.185 138.846 135.14 139.222 135.791 139.954L135.13 140.594C134.581 140.015 133.911 139.75 133.128 139.75C131.523 139.75 130.333 140.909 130.333 142.484C130.333 144.059 131.523 145.218 133.128 145.218C133.911 145.218 134.581 144.943 135.13 144.364L135.791 145.004C135.14 145.736 134.185 146.122 133.077 146.122ZM139.482 146.102C137.866 146.102 136.677 144.954 136.677 143.348C136.677 141.742 137.866 140.604 139.482 140.604C141.098 140.604 142.277 141.742 142.277 143.348C142.277 144.954 141.098 146.102 139.482 146.102ZM139.482 145.248C140.519 145.248 141.291 144.496 141.291 143.348C141.291 142.199 140.519 141.458 139.482 141.458C138.445 141.458 137.663 142.199 137.663 143.348C137.663 144.496 138.445 145.248 139.482 145.248ZM143.931 146.041V138.5H144.906V146.041H143.931ZM147.074 146.041V138.5H148.05V146.041H147.074ZM152.179 140.604C153.652 140.604 154.486 141.315 154.486 142.789V146.041H153.561V145.33C153.236 145.817 152.636 146.102 151.793 146.102C150.573 146.102 149.801 145.452 149.801 144.517C149.801 143.653 150.36 142.941 151.965 142.941H153.51V142.748C153.51 141.925 153.033 141.447 152.067 141.447C151.427 141.447 150.776 141.671 150.36 142.027L149.953 141.295C150.512 140.848 151.315 140.604 152.179 140.604ZM151.955 145.35C152.687 145.35 153.266 145.015 153.51 144.395V143.643H152.006C151.041 143.643 150.766 144.019 150.766 144.476C150.766 145.015 151.213 145.35 151.955 145.35ZM159.452 140.604C161.027 140.604 162.175 141.702 162.175 143.348C162.175 144.994 161.027 146.102 159.452 146.102C158.659 146.102 157.968 145.797 157.531 145.187V146.041H156.596V138.5H157.572V141.468C158.019 140.889 158.69 140.604 159.452 140.604ZM159.371 145.248C160.407 145.248 161.19 144.496 161.19 143.348C161.19 142.199 160.407 141.458 159.371 141.458C158.344 141.458 157.562 142.199 157.562 143.348C157.562 144.496 158.344 145.248 159.371 145.248ZM165.373 146.102C164.479 146.102 163.595 145.828 163.147 145.472L163.554 144.7C164.011 145.025 164.743 145.258 165.444 145.258C166.349 145.258 166.725 144.984 166.725 144.527C166.725 143.317 163.32 144.364 163.32 142.22C163.32 141.254 164.184 140.604 165.566 140.604C166.267 140.604 167.06 140.787 167.528 141.092L167.111 141.864C166.623 141.549 166.085 141.437 165.556 141.437C164.702 141.437 164.286 141.752 164.286 142.179C164.286 143.45 167.7 142.413 167.7 144.506C167.7 145.482 166.806 146.102 165.373 146.102Z" fill="white"/>
<path d="M39.7421 178.559C41.5918 178.559 42.7097 179.494 42.7097 181.039C42.7097 182.584 41.5918 183.519 39.7421 183.519H37.984V185.673H36.9677V178.559H39.7421ZM39.7116 182.635C41.0125 182.635 41.6934 182.055 41.6934 181.039C41.6934 180.023 41.0125 179.444 39.7116 179.444H37.984V182.635H39.7116ZM46.2771 180.236C47.7507 180.236 48.584 180.948 48.584 182.421V185.673H47.6592V184.962C47.334 185.45 46.7344 185.734 45.8909 185.734C44.6714 185.734 43.899 185.084 43.899 184.149C43.899 183.285 44.458 182.574 46.0637 182.574H47.6084V182.381C47.6084 181.557 47.1308 181.08 46.1653 181.08C45.5251 181.08 44.8746 181.303 44.458 181.659L44.0515 180.927C44.6104 180.48 45.4133 180.236 46.2771 180.236ZM46.0535 184.982C46.7852 184.982 47.3645 184.647 47.6084 184.027V183.275H46.1043C45.1389 183.275 44.8645 183.651 44.8645 184.108C44.8645 184.647 45.3116 184.982 46.0535 184.982ZM57.4323 180.236C58.7433 180.236 59.6376 180.988 59.6376 182.574V185.673H58.662V182.685C58.662 181.629 58.1539 181.11 57.2697 181.11C56.2941 181.11 55.6538 181.73 55.6538 182.899V185.673H54.6782V182.685C54.6782 181.629 54.1701 181.11 53.2859 181.11C52.3103 181.11 51.67 181.73 51.67 182.899V185.673H50.6944V180.287H51.6294V181.09C52.0156 180.541 52.6761 180.236 53.4892 180.236C54.3123 180.236 55.0034 180.561 55.3591 181.232C55.7656 180.622 56.5177 180.236 57.4323 180.236ZM64.5934 180.236C66.1686 180.236 67.317 181.334 67.317 182.98C67.317 184.637 66.1686 185.734 64.5934 185.734C63.8312 185.734 63.1604 185.44 62.7133 184.86V187.645H61.7376V180.287H62.6726V181.141C63.1096 180.541 63.8007 180.236 64.5934 180.236ZM64.5121 184.881C65.5487 184.881 66.3312 184.129 66.3312 182.98C66.3312 181.842 65.5487 181.09 64.5121 181.09C63.4856 181.09 62.7031 181.842 62.7031 182.98C62.7031 184.129 63.4856 184.881 64.5121 184.881ZM68.9699 185.673V178.133H69.9455V185.673H68.9699ZM76.9811 183.011C76.9811 183.092 76.971 183.214 76.9608 183.305H72.5908C72.7128 184.251 73.475 184.881 74.5421 184.881C75.1722 184.881 75.7006 184.667 76.097 184.23L76.6356 184.86C76.1478 185.429 75.4059 185.734 74.5116 185.734C72.7738 185.734 71.6152 184.586 71.6152 182.98C71.6152 181.385 72.7636 180.236 74.3185 180.236C75.8734 180.236 76.9811 181.354 76.9811 183.011ZM74.3185 181.059C73.3835 181.059 72.6925 181.69 72.5908 182.604H76.0462C75.9445 181.7 75.2636 181.059 74.3185 181.059ZM81.3644 184.657L81.6692 185.358C81.3745 185.612 80.9274 185.734 80.4904 185.734C79.403 185.734 78.783 185.135 78.783 184.047V181.09H77.8684V180.287H78.783V179.108H79.7587V180.287H81.3034V181.09H79.7587V184.007C79.7587 184.586 80.0635 184.911 80.6022 184.911C80.8867 184.911 81.1611 184.82 81.3644 184.657ZM84.6984 185.734C83.8041 185.734 82.9199 185.46 82.4727 185.104L82.8793 184.332C83.3366 184.657 84.0683 184.891 84.7695 184.891C85.674 184.891 86.05 184.616 86.05 184.159C86.05 182.95 82.6455 183.996 82.6455 181.852C82.6455 180.887 83.5093 180.236 84.8915 180.236C85.5927 180.236 86.3854 180.419 86.8529 180.724L86.4362 181.496C85.9484 181.181 85.4098 181.07 84.8813 181.07C84.0276 181.07 83.611 181.385 83.611 181.811C83.611 183.082 87.0257 182.045 87.0257 184.139C87.0257 185.114 86.1313 185.734 84.6984 185.734ZM97.4784 185.135L96.9296 185.785L95.9844 184.84C95.3645 185.44 94.5515 185.755 93.6063 185.755C92.1632 185.755 91.1165 184.992 91.1165 183.905C91.1165 183.031 91.6144 182.421 92.8441 181.72C92.2039 181.08 91.9905 180.622 91.9905 180.094C91.9905 179.139 92.7425 178.498 93.9112 178.498C94.9885 178.498 95.6795 179.057 95.6795 179.982C95.6795 180.704 95.2527 181.222 94.1653 181.842L95.9235 183.59C96.1165 183.224 96.269 182.797 96.3604 182.299L97.143 182.553C97.021 183.183 96.8076 183.732 96.5231 184.179L97.4784 185.135ZM93.9112 179.21C93.271 179.21 92.895 179.566 92.895 180.074C92.895 180.44 93.0372 180.704 93.6165 181.293C94.5515 180.765 94.8564 180.44 94.8564 179.992C94.8564 179.525 94.521 179.21 93.9112 179.21ZM93.6673 184.942C94.3482 184.942 94.9478 184.718 95.4052 184.271L93.3828 182.259C92.3868 182.818 92.0718 183.234 92.0718 183.803C92.0718 184.484 92.712 184.942 93.6673 184.942ZM107.195 178.559H108.211L105.091 185.673H104.085L100.955 178.559H102.053L104.614 184.403L107.195 178.559ZM111.181 185.734C109.565 185.734 108.376 184.586 108.376 182.98C108.376 181.374 109.565 180.236 111.181 180.236C112.797 180.236 113.976 181.374 113.976 182.98C113.976 184.586 112.797 185.734 111.181 185.734ZM111.181 184.881C112.218 184.881 112.99 184.129 112.99 182.98C112.99 181.832 112.218 181.09 111.181 181.09C110.144 181.09 109.362 181.832 109.362 182.98C109.362 184.129 110.144 184.881 111.181 184.881ZM119.675 180.287H120.65V185.673H119.726V184.86C119.329 185.419 118.658 185.734 117.896 185.734C116.504 185.734 115.579 184.972 115.579 183.387V180.287H116.555V183.275C116.555 184.332 117.083 184.86 118.008 184.86C119.024 184.86 119.675 184.23 119.675 183.072V180.287ZM125.16 185.734C123.504 185.734 122.315 184.586 122.315 182.98C122.315 181.374 123.504 180.236 125.16 180.236C126.126 180.236 126.928 180.633 127.355 181.385L126.613 181.862C126.268 181.334 125.739 181.09 125.15 181.09C124.093 181.09 123.3 181.832 123.3 182.98C123.3 184.149 124.093 184.881 125.15 184.881C125.739 184.881 126.268 184.637 126.613 184.108L127.355 184.576C126.928 185.328 126.126 185.734 125.16 185.734ZM131.73 180.236C133.041 180.236 133.966 180.988 133.966 182.574V185.673H132.99V182.685C132.99 181.629 132.462 181.11 131.537 181.11C130.5 181.11 129.829 181.73 129.829 182.899V185.673H128.854V178.133H129.829V181.049C130.236 180.531 130.907 180.236 131.73 180.236ZM140.974 183.011C140.974 183.092 140.964 183.214 140.954 183.305H136.584C136.706 184.251 137.468 184.881 138.535 184.881C139.165 184.881 139.693 184.667 140.09 184.23L140.628 184.86C140.141 185.429 139.399 185.734 138.504 185.734C136.766 185.734 135.608 184.586 135.608 182.98C135.608 181.385 136.756 180.236 138.311 180.236C139.866 180.236 140.974 181.354 140.974 183.011ZM138.311 181.059C137.376 181.059 136.685 181.69 136.584 182.604H140.039C139.937 181.7 139.256 181.059 138.311 181.059ZM143.568 181.192C143.914 180.561 144.585 180.236 145.53 180.236V181.181C145.449 181.171 145.377 181.171 145.306 181.171C144.26 181.171 143.609 181.811 143.609 182.99V185.673H142.633V180.287H143.568V181.192ZM148.622 185.734C147.727 185.734 146.843 185.46 146.396 185.104L146.803 184.332C147.26 184.657 147.992 184.891 148.693 184.891C149.597 184.891 149.973 184.616 149.973 184.159C149.973 182.95 146.569 183.996 146.569 181.852C146.569 180.887 147.433 180.236 148.815 180.236C149.516 180.236 150.309 180.419 150.776 180.724L150.359 181.496C149.872 181.181 149.333 181.07 148.805 181.07C147.951 181.07 147.534 181.385 147.534 181.811C147.534 183.082 150.949 182.045 150.949 184.139C150.949 185.114 150.055 185.734 148.622 185.734Z" fill="white"/>
<path d="M17.9759 224.421H22.1223V225.305H16.9596V218.191H21.98V219.075H17.9759V221.26H21.543V222.124H17.9759V224.421ZM27.6522 219.919H28.6075L26.2497 225.305H25.2538L22.896 219.919H23.9123L25.7619 224.238L27.6522 219.919ZM34.5419 222.643C34.5419 222.724 34.5318 222.846 34.5216 222.937H30.1516C30.2736 223.882 31.0358 224.512 32.1029 224.512C32.733 224.512 33.2614 224.299 33.6578 223.862L34.1964 224.492C33.7086 225.061 32.9667 225.366 32.0724 225.366C30.3346 225.366 29.176 224.218 29.176 222.612C29.176 221.016 30.3244 219.868 31.8793 219.868C33.4342 219.868 34.5419 220.986 34.5419 222.643ZM31.8793 220.691C30.9443 220.691 30.2533 221.321 30.1516 222.236H33.607C33.5053 221.332 32.8244 220.691 31.8793 220.691ZM39.0776 219.868C40.3886 219.868 41.3134 220.62 41.3134 222.206V225.305H40.3378V222.317C40.3378 221.26 39.8093 220.742 38.8845 220.742C37.8479 220.742 37.1772 221.362 37.1772 222.531V225.305H36.2016V219.919H37.1365V220.732C37.5329 220.183 38.224 219.868 39.0776 219.868ZM46.1475 224.289L46.4524 224.99C46.1576 225.244 45.7105 225.366 45.2735 225.366C44.1861 225.366 43.5661 224.767 43.5661 223.679V220.722H42.6515V219.919H43.5661V218.74H44.5418V219.919H46.0865V220.722H44.5418V223.638C44.5418 224.218 44.8466 224.543 45.3853 224.543C45.6698 224.543 45.9442 224.452 46.1475 224.289ZM51.1132 225.305V218.191H54.1112C56.3978 218.191 57.9527 219.634 57.9527 221.748C57.9527 223.862 56.3978 225.305 54.1112 225.305H51.1132ZM52.1294 224.421H54.0502C55.8084 224.421 56.9364 223.344 56.9364 221.748C56.9364 220.153 55.8084 219.075 54.0502 219.075H52.1294V224.421ZM61.6334 219.868C63.107 219.868 63.9403 220.579 63.9403 222.053V225.305H63.0155V224.594C62.6903 225.082 62.0907 225.366 61.2472 225.366C60.0276 225.366 59.2553 224.716 59.2553 223.781C59.2553 222.917 59.8142 222.206 61.4199 222.206H62.9647V222.012C62.9647 221.189 62.487 220.712 61.5216 220.712C60.8813 220.712 60.2309 220.935 59.8142 221.291L59.4077 220.559C59.9667 220.112 60.7695 219.868 61.6334 219.868ZM61.4098 224.614C62.1415 224.614 62.7208 224.279 62.9647 223.659V222.907H61.4606C60.4951 222.907 60.2207 223.283 60.2207 223.74C60.2207 224.279 60.6679 224.614 61.4098 224.614ZM69.7624 219.919H70.7177L68.1059 225.844C67.6283 226.982 67.0083 227.338 66.1852 227.338C65.6669 227.338 65.1384 227.165 64.803 226.84L65.2197 226.108C65.4839 226.362 65.8193 226.504 66.1852 226.504C66.6526 226.504 66.9474 226.291 67.2116 225.671L67.3844 225.295L65.0063 219.919H66.0226L67.9027 224.228L69.7624 219.919ZM80.2722 218.191H81.2885L78.1685 225.305H77.1624L74.0323 218.191H75.1299L77.6909 224.035L80.2722 218.191ZM82.856 218.882C82.48 218.882 82.1954 218.608 82.1954 218.252C82.1954 217.897 82.48 217.612 82.856 217.612C83.232 217.612 83.5166 217.886 83.5166 218.232C83.5166 218.598 83.2422 218.882 82.856 218.882ZM82.3682 225.305V219.919H83.3438V225.305H82.3682ZM89.6173 217.764H90.5929V225.305H89.6579V224.452C89.2209 225.061 88.5299 225.366 87.7372 225.366C86.1619 225.366 85.0135 224.258 85.0135 222.612C85.0135 220.966 86.1619 219.868 87.7372 219.868C88.4994 219.868 89.1701 220.153 89.6173 220.732V217.764ZM87.8185 224.512C88.8449 224.512 89.6274 223.76 89.6274 222.612C89.6274 221.464 88.8449 220.722 87.8185 220.722C86.7819 220.722 85.9993 221.464 85.9993 222.612C85.9993 223.76 86.7819 224.512 87.8185 224.512ZM97.6117 222.643C97.6117 222.724 97.6015 222.846 97.5914 222.937H93.2214C93.3433 223.882 94.1055 224.512 95.1726 224.512C95.8027 224.512 96.3312 224.299 96.7275 223.862L97.2662 224.492C96.7784 225.061 96.0365 225.366 95.1421 225.366C93.4043 225.366 92.2458 224.218 92.2458 222.612C92.2458 221.016 93.3942 219.868 94.9491 219.868C96.504 219.868 97.6117 220.986 97.6117 222.643ZM94.9491 220.691C94.0141 220.691 93.323 221.321 93.2214 222.236H96.6767C96.5751 221.332 95.8942 220.691 94.9491 220.691ZM101.578 225.366C99.9624 225.366 98.7733 224.218 98.7733 222.612C98.7733 221.006 99.9624 219.868 101.578 219.868C103.194 219.868 104.373 221.006 104.373 222.612C104.373 224.218 103.194 225.366 101.578 225.366ZM101.578 224.512C102.615 224.512 103.387 223.76 103.387 222.612C103.387 221.464 102.615 220.722 101.578 220.722C100.542 220.722 99.7591 221.464 99.7591 222.612C99.7591 223.76 100.542 224.512 101.578 224.512ZM111.978 218.191C113.828 218.191 114.946 219.126 114.946 220.671C114.946 222.216 113.828 223.151 111.978 223.151H110.22V225.305H109.204V218.191H111.978ZM111.948 222.267C113.248 222.267 113.929 221.687 113.929 220.671C113.929 219.655 113.248 219.075 111.948 219.075H110.22V222.267H111.948ZM117.447 220.823C117.792 220.193 118.463 219.868 119.408 219.868V220.813C119.327 220.803 119.256 220.803 119.185 220.803C118.138 220.803 117.487 221.443 117.487 222.622V225.305H116.512V219.919H117.447V220.823ZM123.173 225.366C121.557 225.366 120.368 224.218 120.368 222.612C120.368 221.006 121.557 219.868 123.173 219.868C124.789 219.868 125.968 221.006 125.968 222.612C125.968 224.218 124.789 225.366 123.173 225.366ZM123.173 224.512C124.209 224.512 124.982 223.76 124.982 222.612C124.982 221.464 124.209 220.722 123.173 220.722C122.136 220.722 121.354 221.464 121.354 222.612C121.354 223.76 122.136 224.512 123.173 224.512ZM134.36 219.868C135.671 219.868 136.565 220.62 136.565 222.206V225.305H135.589V222.317C135.589 221.26 135.081 220.742 134.197 220.742C133.221 220.742 132.581 221.362 132.581 222.531V225.305H131.606V222.317C131.606 221.26 131.097 220.742 130.213 220.742C129.238 220.742 128.597 221.362 128.597 222.531V225.305H127.622V219.919H128.557V220.722C128.943 220.173 129.604 219.868 130.417 219.868C131.24 219.868 131.931 220.193 132.287 220.864C132.693 220.254 133.445 219.868 134.36 219.868ZM141.002 225.366C139.386 225.366 138.197 224.218 138.197 222.612C138.197 221.006 139.386 219.868 141.002 219.868C142.618 219.868 143.797 221.006 143.797 222.612C143.797 224.218 142.618 225.366 141.002 225.366ZM141.002 224.512C142.038 224.512 142.811 223.76 142.811 222.612C142.811 221.464 142.038 220.722 141.002 220.722C139.965 220.722 139.183 221.464 139.183 222.612C139.183 223.76 139.965 224.512 141.002 224.512ZM148.174 224.289L148.479 224.99C148.184 225.244 147.737 225.366 147.3 225.366C146.213 225.366 145.593 224.767 145.593 223.679V220.722H144.678V219.919H145.593V218.74H146.569V219.919H148.113V220.722H146.569V223.638C146.569 224.218 146.873 224.543 147.412 224.543C147.697 224.543 147.971 224.452 148.174 224.289ZM150.451 218.882C150.075 218.882 149.791 218.608 149.791 218.252C149.791 217.897 150.075 217.612 150.451 217.612C150.827 217.612 151.112 217.886 151.112 218.232C151.112 218.598 150.838 218.882 150.451 218.882ZM149.964 225.305V219.919H150.939V225.305H149.964ZM155.414 225.366C153.798 225.366 152.609 224.218 152.609 222.612C152.609 221.006 153.798 219.868 155.414 219.868C157.03 219.868 158.209 221.006 158.209 222.612C158.209 224.218 157.03 225.366 155.414 225.366ZM155.414 224.512C156.45 224.512 157.223 223.76 157.223 222.612C157.223 221.464 156.45 220.722 155.414 220.722C154.377 220.722 153.595 221.464 153.595 222.612C153.595 223.76 154.377 224.512 155.414 224.512ZM162.739 219.868C164.05 219.868 164.975 220.62 164.975 222.206V225.305H163.999V222.317C163.999 221.26 163.47 220.742 162.546 220.742C161.509 220.742 160.838 221.362 160.838 222.531V225.305H159.863V219.919H160.798V220.732C161.194 220.183 161.885 219.868 162.739 219.868ZM168.63 225.366C167.735 225.366 166.851 225.092 166.404 224.736L166.811 223.964C167.268 224.289 168 224.523 168.701 224.523C169.605 224.523 169.981 224.248 169.981 223.791C169.981 222.582 166.577 223.628 166.577 221.484C166.577 220.519 167.441 219.868 168.823 219.868C169.524 219.868 170.317 220.051 170.784 220.356L170.368 221.128C169.88 220.813 169.341 220.701 168.813 220.701C167.959 220.701 167.542 221.016 167.542 221.443C167.542 222.714 170.957 221.677 170.957 223.771C170.957 224.746 170.063 225.366 168.63 225.366Z" fill="white"/>
<path d="M55.4848 264.937H54.3771L52.8425 262.752C52.7002 262.762 52.5478 262.772 52.3954 262.772H50.6372V264.937H49.6209V257.823H52.3954C54.245 257.823 55.3629 258.758 55.3629 260.303C55.3629 261.4 54.7938 262.193 53.7978 262.549L55.4848 264.937ZM52.3649 261.909C53.6657 261.909 54.3466 261.319 54.3466 260.303C54.3466 259.287 53.6657 258.707 52.3649 258.707H50.6372V261.909H52.3649ZM62.0353 262.274C62.0353 262.356 62.0252 262.478 62.015 262.569H57.645C57.767 263.514 58.5292 264.144 59.5963 264.144C60.2264 264.144 60.7548 263.931 61.1512 263.494L61.6898 264.124C61.202 264.693 60.4601 264.998 59.5658 264.998C57.828 264.998 56.6694 263.85 56.6694 262.244C56.6694 260.648 57.8178 259.5 59.3727 259.5C60.9276 259.5 62.0353 260.618 62.0353 262.274ZM59.3727 260.323C58.4377 260.323 57.7467 260.953 57.645 261.868H61.1004C60.9987 260.963 60.3178 260.323 59.3727 260.323ZM68.5629 262.274C68.5629 262.356 68.5528 262.478 68.5426 262.569H64.1726C64.2946 263.514 65.0568 264.144 66.1239 264.144C66.754 264.144 67.2824 263.931 67.6788 263.494L68.2174 264.124C67.7296 264.693 66.9877 264.998 66.0934 264.998C64.3555 264.998 63.197 263.85 63.197 262.244C63.197 260.648 64.3454 259.5 65.9003 259.5C67.4552 259.5 68.5629 260.618 68.5629 262.274ZM65.9003 260.323C64.9653 260.323 64.2742 260.953 64.1726 261.868H67.628C67.5263 260.963 66.8454 260.323 65.9003 260.323ZM70.2225 264.937V257.396H71.1982V264.937H70.2225ZM79.3167 257.823C81.1663 257.823 82.2842 258.758 82.2842 260.303C82.2842 261.848 81.1663 262.783 79.3167 262.783H77.5585V264.937H76.5423V257.823H79.3167ZM79.2862 261.898C80.587 261.898 81.2679 261.319 81.2679 260.303C81.2679 259.287 80.587 258.707 79.2862 258.707H77.5585V261.898H79.2862ZM84.7855 260.455C85.1311 259.825 85.8018 259.5 86.7469 259.5V260.445C86.6656 260.435 86.5945 260.435 86.5233 260.435C85.4766 260.435 84.8262 261.075 84.8262 262.254V264.937H83.8505V259.551H84.7855V260.455ZM90.5116 264.998C88.8957 264.998 87.7067 263.85 87.7067 262.244C87.7067 260.638 88.8957 259.5 90.5116 259.5C92.1275 259.5 93.3063 260.638 93.3063 262.244C93.3063 263.85 92.1275 264.998 90.5116 264.998ZM90.5116 264.144C91.5482 264.144 92.3206 263.392 92.3206 262.244C92.3206 261.095 91.5482 260.354 90.5116 260.354C89.475 260.354 88.6925 261.095 88.6925 262.244C88.6925 263.392 89.475 264.144 90.5116 264.144ZM101.698 259.5C103.009 259.5 103.904 260.252 103.904 261.837V264.937H102.928V261.949C102.928 260.892 102.42 260.374 101.536 260.374C100.56 260.374 99.9199 260.994 99.9199 262.163V264.937H98.9443V261.949C98.9443 260.892 98.4362 260.374 97.552 260.374C96.5764 260.374 95.9361 260.994 95.9361 262.163V264.937H94.9605V259.551H95.8955V260.354C96.2816 259.805 96.9422 259.5 97.7552 259.5C98.5784 259.5 99.2695 259.825 99.6252 260.496C100.032 259.886 100.784 259.5 101.698 259.5ZM108.34 264.998C106.725 264.998 105.536 263.85 105.536 262.244C105.536 260.638 106.725 259.5 108.34 259.5C109.956 259.5 111.135 260.638 111.135 262.244C111.135 263.85 109.956 264.998 108.34 264.998ZM108.34 264.144C109.377 264.144 110.149 263.392 110.149 262.244C110.149 261.095 109.377 260.354 108.34 260.354C107.304 260.354 106.521 261.095 106.521 262.244C106.521 263.392 107.304 264.144 108.34 264.144ZM115.513 263.921L115.818 264.622C115.523 264.876 115.076 264.998 114.639 264.998C113.552 264.998 112.932 264.398 112.932 263.311V260.354H112.017V259.551H112.932V258.372H113.907V259.551H115.452V260.354H113.907V263.27C113.907 263.85 114.212 264.175 114.751 264.175C115.035 264.175 115.31 264.083 115.513 263.921ZM117.79 258.514C117.414 258.514 117.129 258.24 117.129 257.884C117.129 257.528 117.414 257.244 117.79 257.244C118.166 257.244 118.451 257.518 118.451 257.864C118.451 258.23 118.176 258.514 117.79 258.514ZM117.302 264.937V259.551H118.278V264.937H117.302ZM122.752 264.998C121.137 264.998 119.948 263.85 119.948 262.244C119.948 260.638 121.137 259.5 122.752 259.5C124.368 259.5 125.547 260.638 125.547 262.244C125.547 263.85 124.368 264.998 122.752 264.998ZM122.752 264.144C123.789 264.144 124.561 263.392 124.561 262.244C124.561 261.095 123.789 260.354 122.752 260.354C121.716 260.354 120.933 261.095 120.933 262.244C120.933 263.392 121.716 264.144 122.752 264.144ZM130.077 259.5C131.388 259.5 132.313 260.252 132.313 261.837V264.937H131.338V261.949C131.338 260.892 130.809 260.374 129.884 260.374C128.848 260.374 128.177 260.994 128.177 262.163V264.937H127.201V259.551H128.136V260.364C128.533 259.815 129.224 259.5 130.077 259.5ZM135.968 264.998C135.074 264.998 134.19 264.724 133.743 264.368L134.149 263.596C134.607 263.921 135.338 264.154 136.04 264.154C136.944 264.154 137.32 263.88 137.32 263.423C137.32 262.213 133.916 263.26 133.916 261.116C133.916 260.15 134.779 259.5 136.162 259.5C136.863 259.5 137.655 259.683 138.123 259.988L137.706 260.76C137.218 260.445 136.68 260.333 136.151 260.333C135.298 260.333 134.881 260.648 134.881 261.075C134.881 262.346 138.296 261.309 138.296 263.402C138.296 264.378 137.401 264.998 135.968 264.998Z" fill="white"/>
<path d="M282.549 36.0093V28.3127H279.514V26.524H287.78V28.3127H284.745V36.0093H282.549ZM289.367 36.0093V26.524H291.563V36.0093H289.367ZM296.402 34.2477H301.564V36.0093H294.22V26.524H301.388V28.2856H296.402V30.3452H300.806V32.0526H296.402V34.2477ZM312.119 36.0093H309.761L307.932 33.367H307.823H305.913V36.0093H303.718V26.524H307.823C310.357 26.524 311.943 27.8384 311.943 29.9658C311.943 31.3886 311.224 32.432 309.991 32.9605L312.119 36.0093ZM309.72 29.9658C309.72 28.9225 309.043 28.3127 307.701 28.3127H305.913V31.619H307.701C309.043 31.619 309.72 30.9957 309.72 29.9658ZM320.744 34.2206H324.823V36.0093H317.655V34.5865L321.313 31.1312C322.154 30.3317 322.303 29.8439 322.303 29.3832C322.303 28.6379 321.788 28.2043 320.785 28.2043C319.972 28.2043 319.281 28.5159 318.82 29.1528L317.221 28.123C317.953 27.0525 319.281 26.3614 320.988 26.3614C323.102 26.3614 324.511 27.4455 324.511 29.1664C324.511 30.0878 324.254 30.9279 322.926 32.161L320.744 34.2206Z" fill="white"/>
<path d="M293.904 89.8037V105.471H309.572V89.8037H293.904ZM295.329 91.228H308.148V104.047H295.329V91.228ZM305.499 94.2769L300.314 99.4624L297.977 97.1256L296.953 98.1494L299.802 100.998L300.314 101.488L300.826 100.998L306.523 95.3007L305.499 94.2769Z" fill="#2B62A7"/>
<path d="M293.904 174.584V190.252H309.572V174.584H293.904ZM295.329 176.008H308.148V188.827H295.329V176.008ZM305.499 179.057L300.314 184.243L297.977 181.906L296.953 182.93L299.802 185.778L300.314 186.268L300.826 185.778L306.523 180.081L305.499 179.057Z" fill="#2B62A7"/>
<path d="M293.904 133.136V148.804H309.572V133.136H293.904ZM295.329 134.561H308.148V147.379H295.329V134.561ZM305.499 137.609L300.314 142.795L297.977 140.458L296.953 141.482L299.802 144.331L300.314 144.82L300.826 144.331L306.523 138.633L305.499 137.609Z" fill="#2B62A7"/>
<path d="M293.904 214.148V229.816H309.572V214.148H293.904ZM295.329 215.572H308.148V228.391H295.329V215.572ZM305.499 218.621L300.314 223.807L297.977 221.47L296.953 222.494L299.802 225.342L300.314 225.832L300.826 225.342L306.523 219.645L305.499 218.621Z" fill="#2B62A7"/>
<path d="M293.904 253.5V269.168H309.572V253.5H293.904ZM295.329 254.924H308.148V267.743H295.329V254.924ZM305.499 257.973L300.314 263.159L297.977 260.822L296.953 261.846L299.802 264.694L300.314 265.184L300.826 264.694L306.523 258.997L305.499 257.973Z" fill="#2B62A7"/>
<line x1="199.164" y1="7.10096e-09" x2="199.164" y2="334" stroke="white" stroke-width="0.327421"/>
</svg>
