<svg width="388" height="326" viewBox="0 0 388 326" fill="none" xmlns="http://www.w3.org/2000/svg">
<mask id="path-1-inside-1_235_27587" fill="white">
<path d="M7 268.5H388V325.5H7V268.5Z"/>
</mask>
<path d="M7 268.5H388V325.5H7V268.5Z" fill="#2B62A7"/>
<path d="M7 268.5V268.818H388V268.5V268.182H7V268.5Z" fill="#2B62A7" mask="url(#path-1-inside-1_235_27587)"/>
<path d="M80.518 293.4C82.949 293.4 84.47 294.661 84.47 296.702C84.47 298.73 82.949 299.991 80.518 299.991H78.685V302.5H76.579V293.4H80.518ZM80.401 298.275C81.688 298.275 82.338 297.69 82.338 296.702C82.338 295.701 81.688 295.116 80.401 295.116H78.685V298.275H80.401ZM94.4235 302.5H92.1615L90.4065 299.965H90.3025H88.4695V302.5H86.3635V293.4H90.3025C92.7335 293.4 94.2545 294.661 94.2545 296.702C94.2545 298.067 93.5655 299.068 92.3825 299.575L94.4235 302.5ZM92.1225 296.702C92.1225 295.701 91.4725 295.116 90.1855 295.116H88.4695V298.288H90.1855C91.4725 298.288 92.1225 297.69 92.1225 296.702ZM96.3131 302.5V293.4H98.4191V302.5H96.3131ZM105.324 302.656C102.503 302.656 100.397 300.693 100.397 297.95C100.397 295.207 102.503 293.244 105.337 293.244C106.91 293.244 108.223 293.816 109.081 294.856L107.729 296.104C107.118 295.402 106.351 295.038 105.441 295.038C103.738 295.038 102.529 296.234 102.529 297.95C102.529 299.666 103.738 300.862 105.441 300.862C106.351 300.862 107.118 300.498 107.729 299.783L109.081 301.031C108.223 302.084 106.91 302.656 105.324 302.656ZM110.893 302.5V293.4H112.999V302.5H110.893ZM121.815 293.4H123.895V302.5H122.166L117.629 296.975V302.5H115.549V293.4H117.291L121.815 298.925V293.4ZM132.587 300.472V297.807H134.511V301.499C133.51 302.253 132.132 302.656 130.832 302.656C127.972 302.656 125.866 300.693 125.866 297.95C125.866 295.207 127.972 293.244 130.871 293.244C132.47 293.244 133.796 293.79 134.68 294.817L133.328 296.065C132.665 295.363 131.898 295.038 130.975 295.038C129.207 295.038 127.998 296.221 127.998 297.95C127.998 299.653 129.207 300.862 130.949 300.862C131.521 300.862 132.054 300.758 132.587 300.472Z" fill="white"/>
<path d="M284.888 296.4H288.814V305.5H286.708V298.09H284.888V296.4ZM294.685 305.656C292.449 305.656 290.785 303.953 290.785 300.95C290.785 297.947 292.449 296.244 294.685 296.244C296.934 296.244 298.585 297.947 298.585 300.95C298.585 303.953 296.934 305.656 294.685 305.656ZM294.685 303.875C295.738 303.875 296.466 303.017 296.466 300.95C296.466 298.883 295.738 298.025 294.685 298.025C293.645 298.025 292.917 298.883 292.917 300.95C292.917 303.017 293.645 303.875 294.685 303.875ZM301.042 303.082C301.77 303.082 302.29 303.589 302.29 304.33C302.29 304.668 302.238 304.915 301.939 305.63L301.198 307.502H299.911L300.483 305.435C300.054 305.266 299.781 304.863 299.781 304.33C299.781 303.576 300.327 303.082 301.042 303.082ZM307.36 305.656C305.124 305.656 303.46 303.953 303.46 300.95C303.46 297.947 305.124 296.244 307.36 296.244C309.609 296.244 311.26 297.947 311.26 300.95C311.26 303.953 309.609 305.656 307.36 305.656ZM307.36 303.875C308.413 303.875 309.141 303.017 309.141 300.95C309.141 298.883 308.413 298.025 307.36 298.025C306.32 298.025 305.592 298.883 305.592 300.95C305.592 303.017 306.32 303.875 307.36 303.875ZM316.574 305.656C314.338 305.656 312.674 303.953 312.674 300.95C312.674 297.947 314.338 296.244 316.574 296.244C318.823 296.244 320.474 297.947 320.474 300.95C320.474 303.953 318.823 305.656 316.574 305.656ZM316.574 303.875C317.627 303.875 318.355 303.017 318.355 300.95C318.355 298.883 317.627 298.025 316.574 298.025C315.534 298.025 314.806 298.883 314.806 300.95C314.806 303.017 315.534 303.875 316.574 303.875ZM325.787 305.656C323.551 305.656 321.887 303.953 321.887 300.95C321.887 297.947 323.551 296.244 325.787 296.244C328.036 296.244 329.687 297.947 329.687 300.95C329.687 303.953 328.036 305.656 325.787 305.656ZM325.787 303.875C326.84 303.875 327.568 303.017 327.568 300.95C327.568 298.883 326.84 298.025 325.787 298.025C324.747 298.025 324.019 298.883 324.019 300.95C324.019 303.017 324.747 303.875 325.787 303.875Z" fill="white"/>
<mask id="path-5-inside-2_235_27587" fill="white">
<path d="M7.04297 0H388V60.8251H7.04297V0Z"/>
</mask>
<path d="M7.04297 0H388V60.8251H7.04297V0Z" fill="#2B62A7"/>
<path d="M388 60.8251V60.3934H7.04297V60.8251V61.2568H388V60.8251Z" fill="#2B62A7" mask="url(#path-5-inside-2_235_27587)"/>
<path d="M76.7558 31.4299C77.8334 31.7752 78.5241 32.6041 78.5241 33.8198C78.5241 35.4914 77.1979 36.4585 74.656 36.4585H69.6549V26.788H74.3797C76.7973 26.788 78.0406 27.7965 78.0406 29.3024C78.0406 30.2694 77.5433 31.0154 76.7558 31.4299ZM74.1034 28.4735H71.8791V30.7529H74.1034C75.1947 30.7529 75.7888 30.3661 75.7888 29.6063C75.7888 28.8465 75.1947 28.4735 74.1034 28.4735ZM74.4902 34.7731C75.6506 34.7731 76.2723 34.4139 76.2723 33.585C76.2723 32.7699 75.6506 32.3831 74.4902 32.3831H71.8791V34.7731H74.4902ZM82.8572 34.6626H88.1207V36.4585H80.633V26.788H87.9411V28.584H82.8572V30.6838H87.347V32.4245H82.8572V34.6626ZM96.9746 26.788H99.185V36.4585H97.3476L92.5262 30.5871V36.4585H90.3158V26.788H92.167L96.9746 32.6594V26.788ZM104.112 34.6626H109.375V36.4585H101.887V26.788H109.196V28.584H104.112V30.6838H108.602V32.4245H104.112V34.6626ZM118.878 28.584H113.808V31.1397H118.284V32.9357H113.808V36.4585H111.57V26.788H118.878V28.584ZM120.808 36.4585V26.788H123.046V36.4585H120.808ZM127.759 36.4585V28.6116H124.664V26.788H133.091V28.6116H129.997V36.4585H127.759ZM137.82 36.6243C136.286 36.6243 134.739 36.1684 133.883 35.5053L134.642 33.8198C135.457 34.4139 136.673 34.8283 137.834 34.8283C139.16 34.8283 139.699 34.3863 139.699 33.7922C139.699 31.9825 134.076 33.2258 134.076 29.6339C134.076 27.9899 135.402 26.6223 138.151 26.6223C139.367 26.6223 140.61 26.9124 141.508 27.4788L140.818 29.178C139.92 28.6669 138.994 28.4182 138.138 28.4182C136.811 28.4182 136.3 28.9155 136.3 29.5234C136.3 31.3055 141.923 30.076 141.923 33.6264C141.923 35.2428 140.583 36.6243 137.82 36.6243Z" fill="white"/>
<path d="M282.305 36.4585V28.6116H279.211V26.788H287.638V28.6116H284.543V36.4585H282.305ZM289.256 36.4585V26.788H291.494V36.4585H289.256ZM296.428 34.6626H301.691V36.4585H294.204V26.788H301.512V28.584H296.428V30.6838H300.918V32.4245H296.428V34.6626ZM312.452 36.4585H310.048L308.183 33.7646H308.073H306.125V36.4585H303.887V26.788H308.073C310.656 26.788 312.272 28.1281 312.272 30.297C312.272 31.7476 311.54 32.8114 310.283 33.3501L312.452 36.4585ZM310.007 30.297C310.007 29.2333 309.316 28.6116 307.948 28.6116H306.125V31.9825H307.948C309.316 31.9825 310.007 31.347 310.007 30.297ZM317.737 26.788H321.909V36.4585H319.671V28.584H317.737V26.788Z" fill="white"/>
<line x1="203.211" y1="9.21376e-09" x2="203.211" y2="325.5" stroke="white" stroke-width="0.421698"/>
<path d="M36.4115 98.4393C35.3028 98.4393 34.2149 98.0663 33.6346 97.5275L34.018 96.7194C34.5568 97.2064 35.4789 97.5586 36.4115 97.5586C37.6652 97.5586 38.2039 97.0717 38.2039 96.4396C38.2039 94.6679 33.8108 95.7869 33.8108 93.093C33.8108 91.9739 34.6811 91.0207 36.5876 91.0207C37.4372 91.0207 38.3179 91.2487 38.9189 91.6631L38.5769 92.492C37.9449 92.0879 37.23 91.9014 36.5876 91.9014C35.3546 91.9014 34.8262 92.4195 34.8262 93.0515C34.8262 94.8233 39.2193 93.7146 39.2193 96.3775C39.2193 97.4861 38.3283 98.4393 36.4115 98.4393ZM43.2508 98.4186C41.6034 98.4186 40.3911 97.2478 40.3911 95.6107C40.3911 93.9737 41.6034 92.8132 43.2508 92.8132C44.8983 92.8132 46.1002 93.9737 46.1002 95.6107C46.1002 97.2478 44.8983 98.4186 43.2508 98.4186ZM43.2508 97.5483C44.3077 97.5483 45.0951 96.7815 45.0951 95.6107C45.0951 94.4399 44.3077 93.6835 43.2508 93.6835C42.194 93.6835 41.3962 94.4399 41.3962 95.6107C41.3962 96.7815 42.194 97.5483 43.2508 97.5483ZM50.18 98.4186C48.4912 98.4186 47.2789 97.2478 47.2789 95.6107C47.2789 93.9737 48.4912 92.8132 50.18 92.8132C51.1644 92.8132 51.9829 93.2173 52.4181 93.984L51.6617 94.471C51.3094 93.9322 50.7706 93.6835 50.1697 93.6835C49.0921 93.6835 48.2839 94.4399 48.2839 95.6107C48.2839 96.8023 49.0921 97.5483 50.1697 97.5483C50.7706 97.5483 51.3094 97.2996 51.6617 96.7608L52.4181 97.2374C51.9829 98.0042 51.1644 98.4186 50.18 98.4186ZM54.514 91.8082C54.1307 91.8082 53.8405 91.5284 53.8405 91.1658C53.8405 90.8031 54.1307 90.513 54.514 90.513C54.8974 90.513 55.1875 90.7928 55.1875 91.145C55.1875 91.518 54.9077 91.8082 54.514 91.8082ZM54.0167 98.3564V92.865H55.0114V98.3564H54.0167ZM59.2211 92.8132C60.7235 92.8132 61.5731 93.5385 61.5731 95.0409V98.3564H60.6302V97.6312C60.2987 98.1285 59.6873 98.4186 58.8274 98.4186C57.584 98.4186 56.7966 97.7555 56.7966 96.8023C56.7966 95.9216 57.3664 95.1963 59.0035 95.1963H60.5784V94.9994C60.5784 94.1602 60.0914 93.6732 59.1071 93.6732C58.4544 93.6732 57.7912 93.9011 57.3664 94.2638L56.952 93.5178C57.5218 93.0619 58.3404 92.8132 59.2211 92.8132ZM58.9931 97.6519C59.7391 97.6519 60.3297 97.31 60.5784 96.6779V95.9112H59.0449C58.0606 95.9112 57.7809 96.2946 57.7809 96.7608C57.7809 97.31 58.2368 97.6519 58.9931 97.6519ZM63.7247 98.3564V90.6684H64.7193V98.3564H63.7247ZM77.8869 98.3564H76.8922L76.8818 93.0722L74.2605 97.4757H73.7838L71.1625 93.1033V98.3564H70.1678V91.1036H71.0174L74.0429 96.2013L77.0269 91.1036H77.8765L77.8869 98.3564ZM85.1924 95.6418C85.1924 95.7247 85.182 95.849 85.1716 95.9423H80.7163C80.8406 96.9059 81.6177 97.5483 82.7057 97.5483C83.3481 97.5483 83.8868 97.3307 84.2909 96.8852L84.8401 97.5275C84.3427 98.1078 83.5864 98.4186 82.6746 98.4186C80.9028 98.4186 79.7216 97.2478 79.7216 95.6107C79.7216 93.984 80.8924 92.8132 82.4777 92.8132C84.063 92.8132 85.1924 93.9529 85.1924 95.6418ZM82.4777 93.6525C81.5245 93.6525 80.8199 94.2949 80.7163 95.2274H84.2391C84.1355 94.3052 83.4413 93.6525 82.4777 93.6525ZM91.0703 90.6684H92.065V98.3564H91.1118V97.4861C90.6662 98.1078 89.9617 98.4186 89.1535 98.4186C87.5475 98.4186 86.3767 97.2892 86.3767 95.6107C86.3767 93.9322 87.5475 92.8132 89.1535 92.8132C89.9306 92.8132 90.6144 93.1033 91.0703 93.6939V90.6684ZM89.2364 97.5483C90.2829 97.5483 91.0807 96.7815 91.0807 95.6107C91.0807 94.4399 90.2829 93.6835 89.2364 93.6835C88.1795 93.6835 87.3817 94.4399 87.3817 95.6107C87.3817 96.7815 88.1795 97.5483 89.2364 97.5483ZM94.7552 91.8082C94.3718 91.8082 94.0817 91.5284 94.0817 91.1658C94.0817 90.8031 94.3718 90.513 94.7552 90.513C95.1385 90.513 95.4287 90.7928 95.4287 91.145C95.4287 91.518 95.1489 91.8082 94.7552 91.8082ZM94.2578 98.3564V92.865H95.2525V98.3564H94.2578ZM99.4622 92.8132C100.965 92.8132 101.814 93.5385 101.814 95.0409V98.3564H100.871V97.6312C100.54 98.1285 99.9285 98.4186 99.0685 98.4186C97.8252 98.4186 97.0377 97.7555 97.0377 96.8023C97.0377 95.9216 97.6076 95.1963 99.2447 95.1963H100.82V94.9994C100.82 94.1602 100.333 93.6732 99.3483 93.6732C98.6955 93.6732 98.0324 93.9011 97.6076 94.2638L97.1931 93.5178C97.763 93.0619 98.5815 92.8132 99.4622 92.8132ZM99.2343 97.6519C99.9803 97.6519 100.571 97.31 100.82 96.6779V95.9112H99.2861C98.3018 95.9112 98.022 96.2946 98.022 96.7608C98.022 97.31 98.4779 97.6519 99.2343 97.6519ZM114.923 98.3564H113.929L113.918 93.0722L111.297 97.4757H110.82L108.199 93.1033V98.3564H107.204V91.1036H108.054L111.079 96.2013L114.063 91.1036H114.913L114.923 98.3564ZM122.229 95.6418C122.229 95.7247 122.218 95.849 122.208 95.9423H117.753C117.877 96.9059 118.654 97.5483 119.742 97.5483C120.385 97.5483 120.923 97.3307 121.327 96.8852L121.877 97.5275C121.379 98.1078 120.623 98.4186 119.711 98.4186C117.939 98.4186 116.758 97.2478 116.758 95.6107C116.758 93.984 117.929 92.8132 119.514 92.8132C121.099 92.8132 122.229 93.9529 122.229 95.6418ZM119.514 93.6525C118.561 93.6525 117.856 94.2949 117.753 95.2274H121.276C121.172 94.3052 120.478 93.6525 119.514 93.6525ZM126.853 92.8132C128.19 92.8132 129.133 93.5799 129.133 95.1963V98.3564H128.138V95.3102C128.138 94.2327 127.599 93.7043 126.656 93.7043C125.599 93.7043 124.916 94.3363 124.916 95.5278V98.3564H123.921V92.865H124.874V93.6939C125.278 93.1344 125.983 92.8132 126.853 92.8132ZM134.061 97.3203L134.372 98.0352C134.071 98.2943 133.615 98.4186 133.17 98.4186C132.061 98.4186 131.429 97.8073 131.429 96.6987V93.6835H130.497V92.865H131.429V91.6631H132.424V92.865H133.999V93.6835H132.424V96.6572C132.424 97.2478 132.735 97.5794 133.284 97.5794C133.574 97.5794 133.854 97.4861 134.061 97.3203ZM136.383 91.8082C135.999 91.8082 135.709 91.5284 135.709 91.1658C135.709 90.8031 135.999 90.513 136.383 90.513C136.766 90.513 137.056 90.7928 137.056 91.145C137.056 91.518 136.776 91.8082 136.383 91.8082ZM135.885 98.3564V92.865H136.88V98.3564H135.885ZM141.442 98.4186C139.794 98.4186 138.582 97.2478 138.582 95.6107C138.582 93.9737 139.794 92.8132 141.442 92.8132C143.089 92.8132 144.291 93.9737 144.291 95.6107C144.291 97.2478 143.089 98.4186 141.442 98.4186ZM141.442 97.5483C142.499 97.5483 143.286 96.7815 143.286 95.6107C143.286 94.4399 142.499 93.6835 141.442 93.6835C140.385 93.6835 139.587 94.4399 139.587 95.6107C139.587 96.7815 140.385 97.5483 141.442 97.5483ZM148.91 92.8132C150.246 92.8132 151.189 93.5799 151.189 95.1963V98.3564H150.195V95.3102C150.195 94.2327 149.656 93.7043 148.713 93.7043C147.656 93.7043 146.972 94.3363 146.972 95.5278V98.3564H145.978V92.865H146.931V93.6939C147.335 93.1344 148.04 92.8132 148.91 92.8132ZM154.916 98.4186C154.004 98.4186 153.103 98.1389 152.647 97.7762L153.061 96.9888C153.528 97.3203 154.274 97.5586 154.988 97.5586C155.911 97.5586 156.294 97.2789 156.294 96.8126C156.294 95.5796 152.823 96.6468 152.823 94.4606C152.823 93.4763 153.704 92.8132 155.113 92.8132C155.828 92.8132 156.636 92.9997 157.112 93.3105L156.688 94.098C156.19 93.7768 155.641 93.6628 155.102 93.6628C154.232 93.6628 153.807 93.984 153.807 94.4192C153.807 95.7143 157.289 94.6575 157.289 96.7919C157.289 97.7866 156.377 98.4186 154.916 98.4186ZM24.0474 112.367C23.26 111.113 22.8144 109.424 22.8144 107.517C22.8144 105.611 23.26 103.901 24.0474 102.668H24.9903C24.151 104.14 23.7884 105.704 23.7884 107.517C23.7884 109.331 24.151 110.895 24.9903 112.367H24.0474ZM35.9826 103.104H36.967L34.5424 110.356H33.4545L31.4755 104.565L29.4965 110.356H28.3879L25.9633 103.104H27.0306L28.9888 108.999L31.03 103.104H31.9832L33.9829 109.03L35.9826 103.104ZM42.9484 107.642C42.9484 107.725 42.938 107.849 42.9276 107.942H38.4723C38.5967 108.906 39.3737 109.548 40.4617 109.548C41.1041 109.548 41.6429 109.331 42.0469 108.885L42.5961 109.528C42.0987 110.108 41.3424 110.419 40.4306 110.419C38.6588 110.419 37.4776 109.248 37.4776 107.611C37.4776 105.984 38.6485 104.813 40.2337 104.813C41.819 104.813 42.9484 105.953 42.9484 107.642ZM40.2337 105.652C39.2805 105.652 38.5759 106.295 38.4723 107.227H41.9951C41.8915 106.305 41.1973 105.652 40.2337 105.652ZM47.5519 104.813C49.1579 104.813 50.3287 105.932 50.3287 107.611C50.3287 109.289 49.1579 110.419 47.5519 110.419C46.7437 110.419 46.0392 110.108 45.5936 109.486V110.356H44.6404V102.668H45.6351V105.694C46.091 105.103 46.7748 104.813 47.5519 104.813ZM47.469 109.548C48.5259 109.548 49.3237 108.782 49.3237 107.611C49.3237 106.44 48.5259 105.684 47.469 105.684C46.4225 105.684 45.6247 106.44 45.6247 107.611C45.6247 108.782 46.4225 109.548 47.469 109.548ZM53.5888 110.419C52.677 110.419 51.7755 110.139 51.3197 109.776L51.7341 108.989C52.2004 109.32 52.9464 109.559 53.6613 109.559C54.5834 109.559 54.9668 109.279 54.9668 108.813C54.9668 107.58 51.4958 108.647 51.4958 106.461C51.4958 105.476 52.3765 104.813 53.7856 104.813C54.5005 104.813 55.3087 105 55.7853 105.311L55.3605 106.098C54.8632 105.777 54.314 105.663 53.7753 105.663C52.9049 105.663 52.4801 105.984 52.4801 106.419C52.4801 107.714 55.9615 106.657 55.9615 108.792C55.9615 109.787 55.0497 110.419 53.5888 110.419ZM58.0128 103.808C57.6294 103.808 57.3393 103.528 57.3393 103.166C57.3393 102.803 57.6294 102.513 58.0128 102.513C58.3961 102.513 58.6862 102.793 58.6862 103.145C58.6862 103.518 58.4065 103.808 58.0128 103.808ZM57.5154 110.356V104.865H58.5101V110.356H57.5154ZM63.4969 109.32L63.8077 110.035C63.5073 110.294 63.0514 110.419 62.6058 110.419C61.4972 110.419 60.8652 109.807 60.8652 108.699V105.684H59.9327V104.865H60.8652V103.663H61.8598V104.865H63.4347V105.684H61.8598V108.657C61.8598 109.248 62.1707 109.579 62.7198 109.579C63.0099 109.579 63.2897 109.486 63.4969 109.32ZM70.102 107.642C70.102 107.725 70.0917 107.849 70.0813 107.942H65.626C65.7503 108.906 66.5274 109.548 67.6153 109.548C68.2577 109.548 68.7965 109.331 69.2006 108.885L69.7497 109.528C69.2524 110.108 68.496 110.419 67.5842 110.419C65.8125 110.419 64.6313 109.248 64.6313 107.611C64.6313 105.984 65.8021 104.813 67.3874 104.813C68.9726 104.813 70.102 105.953 70.102 107.642ZM67.3874 105.652C66.4342 105.652 65.7296 106.295 65.626 107.227H69.1488C69.0452 106.305 68.351 105.652 67.3874 105.652ZM72.0427 108.999C72.4364 108.999 72.7162 109.3 72.7162 109.704C72.7162 109.911 72.6748 110.066 72.5401 110.45L72.0531 111.89H71.4003L71.7837 110.346C71.5247 110.253 71.3485 110.015 71.3485 109.704C71.3485 109.289 71.649 108.999 72.0427 108.999ZM78.0431 103.808C77.6597 103.808 77.3696 103.528 77.3696 103.166C77.3696 102.803 77.6597 102.513 78.0431 102.513C78.4264 102.513 78.7166 102.793 78.7166 103.145C78.7166 103.518 78.4368 103.808 78.0431 103.808ZM77.5457 110.356V104.865H78.5404V110.356H77.5457ZM83.6826 104.813C85.0192 104.813 85.9621 105.58 85.9621 107.196V110.356H84.9674V107.31C84.9674 106.233 84.4287 105.704 83.4858 105.704C82.4289 105.704 81.7451 106.336 81.7451 107.528V110.356H80.7504V104.865H81.7037V105.694C82.1077 105.134 82.8123 104.813 83.6826 104.813ZM89.6887 110.419C88.7769 110.419 87.8755 110.139 87.4196 109.776L87.834 108.989C88.3003 109.32 89.0463 109.559 89.7612 109.559C90.6833 109.559 91.0667 109.279 91.0667 108.813C91.0667 107.58 87.5957 108.647 87.5957 106.461C87.5957 105.476 88.4764 104.813 89.8855 104.813C90.6005 104.813 91.4086 105 91.8852 105.311L91.4604 106.098C90.9631 105.777 90.414 105.663 89.8752 105.663C89.0048 105.663 88.58 105.984 88.58 106.419C88.58 107.714 92.0614 106.657 92.0614 108.792C92.0614 109.787 91.1496 110.419 89.6887 110.419ZM96.3921 109.32L96.703 110.035C96.4025 110.294 95.9466 110.419 95.5011 110.419C94.3924 110.419 93.7604 109.807 93.7604 108.699V105.684H92.8279V104.865H93.7604V103.663H94.7551V104.865H96.33V105.684H94.7551V108.657C94.7551 109.248 95.0659 109.579 95.615 109.579C95.9052 109.579 96.1849 109.486 96.3921 109.32ZM100.216 104.813C101.718 104.813 102.568 105.538 102.568 107.041V110.356H101.625V109.631C101.294 110.128 100.682 110.419 99.8223 110.419C98.579 110.419 97.7915 109.755 97.7915 108.802C97.7915 107.922 98.3614 107.196 99.9985 107.196H101.573V106.999C101.573 106.16 101.086 105.673 100.102 105.673C99.4493 105.673 98.7862 105.901 98.3614 106.264L97.947 105.518C98.5168 105.062 99.3354 104.813 100.216 104.813ZM99.9881 109.652C100.734 109.652 101.325 109.31 101.573 108.678V107.911H100.04C99.0556 107.911 98.7759 108.295 98.7759 108.761C98.7759 109.31 99.2317 109.652 99.9881 109.652ZM113.823 109.807L113.263 110.47L112.299 109.507C111.667 110.118 110.838 110.439 109.875 110.439C108.404 110.439 107.336 109.662 107.336 108.554C107.336 107.663 107.844 107.041 109.098 106.326C108.445 105.673 108.227 105.207 108.227 104.668C108.227 103.694 108.994 103.041 110.186 103.041C111.284 103.041 111.989 103.611 111.989 104.554C111.989 105.29 111.553 105.818 110.445 106.45L112.237 108.232C112.434 107.859 112.59 107.424 112.683 106.917L113.481 107.176C113.356 107.818 113.139 108.377 112.849 108.833L113.823 109.807ZM110.186 103.767C109.533 103.767 109.15 104.129 109.15 104.647C109.15 105.02 109.295 105.29 109.885 105.891C110.838 105.352 111.149 105.02 111.149 104.565C111.149 104.088 110.807 103.767 110.186 103.767ZM109.937 109.61C110.631 109.61 111.243 109.382 111.709 108.927L109.647 106.875C108.632 107.445 108.31 107.87 108.31 108.45C108.31 109.144 108.963 109.61 109.937 109.61ZM118.465 110.356V103.104H119.502V109.455H123.428V110.356H118.465ZM125.28 103.808C124.897 103.808 124.607 103.528 124.607 103.166C124.607 102.803 124.897 102.513 125.28 102.513C125.664 102.513 125.954 102.793 125.954 103.145C125.954 103.518 125.674 103.808 125.28 103.808ZM124.783 110.356V104.865H125.778V110.356H124.783ZM130.92 104.813C132.257 104.813 133.2 105.58 133.2 107.196V110.356H132.205V107.31C132.205 106.233 131.666 105.704 130.723 105.704C129.666 105.704 128.982 106.336 128.982 107.528V110.356H127.988V104.865H128.941V105.694C129.345 105.134 130.05 104.813 130.92 104.813ZM139.547 110.356L137.486 107.797L136.346 108.854V110.356H135.351V102.668H136.346V107.6L139.34 104.865H140.542L138.232 107.134L140.77 110.356H139.547ZM146.777 107.642C146.777 107.725 146.767 107.849 146.756 107.942H142.301C142.425 108.906 143.202 109.548 144.29 109.548C144.933 109.548 145.471 109.331 145.876 108.885L146.425 109.528C145.927 110.108 145.171 110.419 144.259 110.419C142.487 110.419 141.306 109.248 141.306 107.611C141.306 105.984 142.477 104.813 144.062 104.813C145.648 104.813 146.777 105.953 146.777 107.642ZM144.062 105.652C143.109 105.652 142.405 106.295 142.301 107.227H145.824C145.72 106.305 145.026 105.652 144.062 105.652ZM152.655 102.668H153.65V110.356H152.696V109.486C152.251 110.108 151.546 110.419 150.738 110.419C149.132 110.419 147.961 109.289 147.961 107.611C147.961 105.932 149.132 104.813 150.738 104.813C151.515 104.813 152.199 105.103 152.655 105.694V102.668ZM150.821 109.548C151.868 109.548 152.665 108.782 152.665 107.611C152.665 106.44 151.868 105.684 150.821 105.684C149.764 105.684 148.966 106.44 148.966 107.611C148.966 108.782 149.764 109.548 150.821 109.548ZM156.34 103.808C155.956 103.808 155.666 103.528 155.666 103.166C155.666 102.803 155.956 102.513 156.34 102.513C156.723 102.513 157.013 102.793 157.013 103.145C157.013 103.518 156.734 103.808 156.34 103.808ZM155.842 110.356V104.865H156.837V110.356H155.842ZM161.979 104.813C163.316 104.813 164.259 105.58 164.259 107.196V110.356H163.264V107.31C163.264 106.233 162.725 105.704 161.783 105.704C160.726 105.704 160.042 106.336 160.042 107.528V110.356H159.047V104.865H160V105.694C160.404 105.134 161.109 104.813 161.979 104.813ZM166.742 112.367H165.799C166.638 110.895 167.011 109.331 167.011 107.517C167.011 105.704 166.638 104.14 165.799 102.668H166.742C167.54 103.901 167.985 105.611 167.985 107.517C167.985 109.424 167.54 111.113 166.742 112.367Z" fill="white"/>
<path d="M20.611 150.528V143.275H21.6472V150.528H20.611ZM26.9166 144.985C28.2532 144.985 29.196 145.751 29.196 147.368V150.528H28.2013V147.482C28.2013 146.404 27.6626 145.876 26.7197 145.876C25.6629 145.876 24.979 146.508 24.979 147.699V150.528H23.9843V145.036H24.9376V145.865C25.3417 145.306 26.0462 144.985 26.9166 144.985ZM32.9226 150.59C32.0108 150.59 31.1094 150.31 30.6535 149.948L31.0679 149.16C31.5342 149.492 32.2802 149.73 32.9951 149.73C33.9173 149.73 34.3006 149.45 34.3006 148.984C34.3006 147.751 30.8296 148.818 30.8296 146.632C30.8296 145.648 31.7103 144.985 33.1194 144.985C33.8344 144.985 34.6425 145.171 35.1192 145.482L34.6943 146.269C34.197 145.948 33.6479 145.834 33.1091 145.834C32.2387 145.834 31.8139 146.155 31.8139 146.591C31.8139 147.886 35.2953 146.829 35.2953 148.963C35.2953 149.958 34.3835 150.59 32.9226 150.59ZM39.626 149.492L39.9369 150.207C39.6364 150.466 39.1805 150.59 38.735 150.59C37.6263 150.59 36.9943 149.979 36.9943 148.87V145.855H36.0618V145.036H36.9943V143.834H37.989V145.036H39.5639V145.855H37.989V148.829C37.989 149.419 38.2998 149.751 38.8489 149.751C39.1391 149.751 39.4188 149.657 39.626 149.492ZM43.45 144.985C44.9524 144.985 45.802 145.71 45.802 147.212V150.528H44.8591V149.803C44.5275 150.3 43.9162 150.59 43.0563 150.59C41.8129 150.59 41.0255 149.927 41.0255 148.974C41.0255 148.093 41.5953 147.368 43.2324 147.368H44.8073V147.171C44.8073 146.332 44.3203 145.845 43.336 145.845C42.6832 145.845 42.0201 146.073 41.5953 146.435L41.1809 145.689C41.7507 145.233 42.5693 144.985 43.45 144.985ZM43.222 149.823C43.968 149.823 44.5586 149.481 44.8073 148.849V148.083H43.2738C42.2895 148.083 42.0098 148.466 42.0098 148.932C42.0098 149.481 42.4657 149.823 43.222 149.823ZM52.2942 145.036H53.237V149.782C53.237 151.719 52.2527 152.6 50.3877 152.6C49.3827 152.6 48.3673 152.32 47.7663 151.782L48.2429 151.015C48.7506 151.45 49.5484 151.73 50.3566 151.73C51.6518 151.73 52.2424 151.129 52.2424 149.885V149.45C51.7657 150.02 51.0508 150.3 50.2634 150.3C48.6781 150.3 47.4762 149.222 47.4762 147.637C47.4762 146.052 48.6781 144.985 50.2634 144.985C51.0819 144.985 51.8279 145.285 52.2942 145.886V145.036ZM50.3773 149.43C51.4756 149.43 52.2631 148.694 52.2631 147.637C52.2631 146.57 51.4756 145.855 50.3773 145.855C49.2687 145.855 48.4812 146.57 48.4812 147.637C48.4812 148.694 49.2687 149.43 50.3773 149.43ZM56.4016 145.959C56.7539 145.316 57.4378 144.985 58.4014 144.985V145.948C58.3185 145.938 58.2459 145.938 58.1734 145.938C57.1062 145.938 56.4431 146.591 56.4431 147.792V150.528H55.4484V145.036H56.4016V145.959ZM61.9277 144.985C63.4301 144.985 64.2797 145.71 64.2797 147.212V150.528H63.3369V149.803C63.0053 150.3 62.394 150.59 61.534 150.59C60.2907 150.59 59.5032 149.927 59.5032 148.974C59.5032 148.093 60.0731 147.368 61.7101 147.368H63.2851V147.171C63.2851 146.332 62.7981 145.845 61.8138 145.845C61.161 145.845 60.4979 146.073 60.0731 146.435L59.6586 145.689C60.2285 145.233 61.047 144.985 61.9277 144.985ZM61.6998 149.823C62.4458 149.823 63.0364 149.481 63.2851 148.849V148.083H61.7516C60.7673 148.083 60.4875 148.466 60.4875 148.932C60.4875 149.481 60.9434 149.823 61.6998 149.823ZM73.3008 144.985C74.6374 144.985 75.5492 145.751 75.5492 147.368V150.528H74.5545V147.482C74.5545 146.404 74.0364 145.876 73.135 145.876C72.1403 145.876 71.4876 146.508 71.4876 147.699V150.528H70.4929V147.482C70.4929 146.404 69.9748 145.876 69.0734 145.876C68.0787 145.876 67.426 146.508 67.426 147.699V150.528H66.4313V145.036H67.3845V145.855C67.7783 145.295 68.4517 144.985 69.2806 144.985C70.1199 144.985 70.8244 145.316 71.1871 146C71.6015 145.378 72.3683 144.985 73.3008 144.985ZM83.0423 150.611C81.9337 150.611 80.8458 150.238 80.2655 149.699L80.6489 148.891C81.1877 149.378 82.1098 149.73 83.0423 149.73C84.296 149.73 84.8348 149.243 84.8348 148.611C84.8348 146.839 80.4417 147.958 80.4417 145.264C80.4417 144.145 81.312 143.192 83.2185 143.192C84.0681 143.192 84.9488 143.42 85.5498 143.834L85.2078 144.663C84.5758 144.259 83.8609 144.073 83.2185 144.073C81.9855 144.073 81.4571 144.591 81.4571 145.223C81.4571 146.995 85.8502 145.886 85.8502 148.549C85.8502 149.657 84.9592 150.611 83.0423 150.611ZM90.3065 149.492L90.6174 150.207C90.3169 150.466 89.861 150.59 89.4155 150.59C88.3068 150.59 87.6748 149.979 87.6748 148.87V145.855H86.7423V145.036H87.6748V143.834H88.6694V145.036H90.2444V145.855H88.6694V148.829C88.6694 149.419 88.9803 149.751 89.5294 149.751C89.8195 149.751 90.0993 149.657 90.3065 149.492ZM94.3006 150.59C92.6532 150.59 91.4409 149.419 91.4409 147.782C91.4409 146.145 92.6532 144.985 94.3006 144.985C95.948 144.985 97.1499 146.145 97.1499 147.782C97.1499 149.419 95.948 150.59 94.3006 150.59ZM94.3006 149.72C95.3574 149.72 96.1449 148.953 96.1449 147.782C96.1449 146.611 95.3574 145.855 94.3006 145.855C93.2438 145.855 92.4459 146.611 92.4459 147.782C92.4459 148.953 93.2438 149.72 94.3006 149.72ZM99.7896 145.959C100.142 145.316 100.826 144.985 101.789 144.985V145.948C101.706 145.938 101.634 145.938 101.561 145.938C100.494 145.938 99.8311 146.591 99.8311 147.792V150.528H98.8364V145.036H99.7896V145.959ZM103.823 143.98C103.44 143.98 103.15 143.7 103.15 143.337C103.15 142.975 103.44 142.684 103.823 142.684C104.207 142.684 104.497 142.964 104.497 143.316C104.497 143.689 104.217 143.98 103.823 143.98ZM103.326 150.528V145.036H104.321V150.528H103.326ZM111.494 147.813C111.494 147.896 111.483 148.02 111.473 148.114H107.018C107.142 149.077 107.919 149.72 109.007 149.72C109.65 149.72 110.188 149.502 110.592 149.057L111.142 149.699C110.644 150.279 109.888 150.59 108.976 150.59C107.204 150.59 106.023 149.419 106.023 147.782C106.023 146.155 107.194 144.985 108.779 144.985C110.364 144.985 111.494 146.124 111.494 147.813ZM108.779 145.824C107.826 145.824 107.121 146.466 107.018 147.399H110.541C110.437 146.477 109.743 145.824 108.779 145.824ZM114.761 150.59C113.849 150.59 112.948 150.31 112.492 149.948L112.906 149.16C113.372 149.492 114.118 149.73 114.833 149.73C115.755 149.73 116.139 149.45 116.139 148.984C116.139 147.751 112.668 148.818 112.668 146.632C112.668 145.648 113.548 144.985 114.958 144.985C115.673 144.985 116.481 145.171 116.957 145.482L116.533 146.269C116.035 145.948 115.486 145.834 114.947 145.834C114.077 145.834 113.652 146.155 113.652 146.591C113.652 147.886 117.133 146.829 117.133 148.963C117.133 149.958 116.222 150.59 114.761 150.59ZM127.79 149.979L127.231 150.642L126.267 149.678C125.635 150.29 124.806 150.611 123.843 150.611C122.371 150.611 121.304 149.834 121.304 148.725C121.304 147.834 121.812 147.212 123.066 146.497C122.413 145.845 122.195 145.378 122.195 144.84C122.195 143.866 122.962 143.213 124.154 143.213C125.252 143.213 125.956 143.783 125.956 144.726C125.956 145.461 125.521 145.99 124.413 146.622L126.205 148.404C126.402 148.031 126.557 147.596 126.651 147.088L127.448 147.347C127.324 147.989 127.106 148.549 126.816 149.005L127.79 149.979ZM124.154 143.938C123.501 143.938 123.117 144.301 123.117 144.819C123.117 145.192 123.262 145.461 123.853 146.062C124.806 145.523 125.117 145.192 125.117 144.736C125.117 144.259 124.775 143.938 124.154 143.938ZM123.905 149.782C124.599 149.782 125.21 149.554 125.677 149.098L123.615 147.046C122.599 147.616 122.278 148.041 122.278 148.621C122.278 149.316 122.931 149.782 123.905 149.782ZM135.676 150.611C133.48 150.611 131.843 149.046 131.843 146.901C131.843 144.757 133.48 143.192 135.687 143.192C136.806 143.192 137.78 143.575 138.443 144.321L137.769 144.974C137.21 144.384 136.526 144.114 135.728 144.114C134.091 144.114 132.879 145.295 132.879 146.901C132.879 148.507 134.091 149.689 135.728 149.689C136.526 149.689 137.21 149.409 137.769 148.818L138.443 149.471C137.78 150.217 136.806 150.611 135.676 150.611ZM142.206 150.59C140.558 150.59 139.346 149.419 139.346 147.782C139.346 146.145 140.558 144.985 142.206 144.985C143.853 144.985 145.055 146.145 145.055 147.782C145.055 149.419 143.853 150.59 142.206 150.59ZM142.206 149.72C143.263 149.72 144.05 148.953 144.05 147.782C144.05 146.611 143.263 145.855 142.206 145.855C141.149 145.855 140.351 146.611 140.351 147.782C140.351 148.953 141.149 149.72 142.206 149.72ZM146.742 150.528V142.84H147.736V150.528H146.742ZM149.946 150.528V142.84H150.941V150.528H149.946ZM155.151 144.985C156.653 144.985 157.503 145.71 157.503 147.212V150.528H156.56V149.803C156.228 150.3 155.617 150.59 154.757 150.59C153.514 150.59 152.726 149.927 152.726 148.974C152.726 148.093 153.296 147.368 154.933 147.368H156.508V147.171C156.508 146.332 156.021 145.845 155.037 145.845C154.384 145.845 153.721 146.073 153.296 146.435L152.882 145.689C153.451 145.233 154.27 144.985 155.151 144.985ZM154.923 149.823C155.669 149.823 156.259 149.481 156.508 148.849V148.083H154.975C153.99 148.083 153.71 148.466 153.71 148.932C153.71 149.481 154.166 149.823 154.923 149.823ZM162.566 144.985C164.172 144.985 165.343 146.104 165.343 147.782C165.343 149.461 164.172 150.59 162.566 150.59C161.758 150.59 161.053 150.279 160.607 149.657V150.528H159.654V142.84H160.649V145.865C161.105 145.275 161.789 144.985 162.566 144.985ZM162.483 149.72C163.54 149.72 164.338 148.953 164.338 147.782C164.338 146.611 163.54 145.855 162.483 145.855C161.436 145.855 160.639 146.611 160.639 147.782C160.639 148.953 161.436 149.72 162.483 149.72ZM168.603 150.59C167.691 150.59 166.789 150.31 166.334 149.948L166.748 149.16C167.214 149.492 167.96 149.73 168.675 149.73C169.597 149.73 169.981 149.45 169.981 148.984C169.981 147.751 166.51 148.818 166.51 146.632C166.51 145.648 167.39 144.985 168.799 144.985C169.514 144.985 170.323 145.171 170.799 145.482L170.374 146.269C169.877 145.948 169.328 145.834 168.789 145.834C167.919 145.834 167.494 146.155 167.494 146.591C167.494 147.886 170.975 146.829 170.975 148.963C170.975 149.958 170.064 150.59 168.603 150.59Z" fill="white"/>
<path d="M40.5182 183.447C42.404 183.447 43.5437 184.4 43.5437 185.975C43.5437 187.55 42.404 188.503 40.5182 188.503H38.7258V190.7H37.6896V183.447H40.5182ZM40.4872 187.602C41.8134 187.602 42.5076 187.011 42.5076 185.975C42.5076 184.939 41.8134 184.348 40.4872 184.348H38.7258V187.602H40.4872ZM47.1808 185.156C48.6832 185.156 49.5328 185.882 49.5328 187.384V190.7H48.5899V189.974C48.2584 190.472 47.6471 190.762 46.7871 190.762C45.5438 190.762 44.7563 190.099 44.7563 189.146C44.7563 188.265 45.3262 187.54 46.9632 187.54H48.5381V187.343C48.5381 186.503 48.0512 186.016 47.0668 186.016C46.4141 186.016 45.751 186.244 45.3262 186.607L44.9117 185.861C45.4816 185.405 46.3001 185.156 47.1808 185.156ZM46.9529 189.995C47.6989 189.995 48.2895 189.653 48.5381 189.021V188.254H47.0047C46.0204 188.254 45.7406 188.638 45.7406 189.104C45.7406 189.653 46.1965 189.995 46.9529 189.995ZM58.5539 185.156C59.8905 185.156 60.8023 185.923 60.8023 187.54V190.7H59.8076V187.654C59.8076 186.576 59.2895 186.048 58.3881 186.048C57.3934 186.048 56.7407 186.68 56.7407 187.871V190.7H55.746V187.654C55.746 186.576 55.2279 186.048 54.3265 186.048C53.3318 186.048 52.6791 186.68 52.6791 187.871V190.7H51.6844V185.208H52.6376V186.027C53.0313 185.467 53.7048 185.156 54.5337 185.156C55.373 185.156 56.0775 185.488 56.4402 186.172C56.8546 185.55 57.6214 185.156 58.5539 185.156ZM65.8548 185.156C67.4608 185.156 68.6316 186.275 68.6316 187.954C68.6316 189.643 67.4608 190.762 65.8548 190.762C65.0777 190.762 64.3939 190.461 63.938 189.871V192.71H62.9433V185.208H63.8965V186.079C64.3421 185.467 65.0466 185.156 65.8548 185.156ZM65.7719 189.892C66.8288 189.892 67.6266 189.125 67.6266 187.954C67.6266 186.794 66.8288 186.027 65.7719 186.027C64.7254 186.027 63.9276 186.794 63.9276 187.954C63.9276 189.125 64.7254 189.892 65.7719 189.892ZM70.3168 190.7V183.012H71.3114V190.7H70.3168ZM78.4845 187.985C78.4845 188.068 78.4741 188.192 78.4637 188.286H74.0084C74.1328 189.249 74.9098 189.892 75.9978 189.892C76.6402 189.892 77.179 189.674 77.583 189.228L78.1322 189.871C77.6348 190.451 76.8785 190.762 75.9667 190.762C74.1949 190.762 73.0137 189.591 73.0137 187.954C73.0137 186.327 74.1846 185.156 75.7698 185.156C77.3551 185.156 78.4845 186.296 78.4845 187.985ZM75.7698 185.996C74.8166 185.996 74.112 186.638 74.0084 187.571H77.5312C77.4276 186.648 76.7334 185.996 75.7698 185.996ZM82.9533 189.664L83.2641 190.379C82.9637 190.638 82.5078 190.762 82.0622 190.762C80.9536 190.762 80.3216 190.151 80.3216 189.042V186.027H79.389V185.208H80.3216V184.006H81.3162V185.208H82.8911V186.027H81.3162V189C81.3162 189.591 81.6271 189.923 82.1762 189.923C82.4663 189.923 82.7461 189.829 82.9533 189.664ZM86.3524 190.762C85.4406 190.762 84.5392 190.482 84.0833 190.119L84.4978 189.332C84.964 189.664 85.71 189.902 86.425 189.902C87.3471 189.902 87.7305 189.622 87.7305 189.156C87.7305 187.923 84.2595 188.99 84.2595 186.804C84.2595 185.82 85.1402 185.156 86.5493 185.156C87.2642 185.156 88.0724 185.343 88.549 185.654L88.1242 186.441C87.6269 186.12 87.0777 186.006 86.5389 186.006C85.6686 186.006 85.2438 186.327 85.2438 186.762C85.2438 188.058 88.7251 187.001 88.7251 189.135C88.7251 190.13 87.8134 190.762 86.3524 190.762ZM99.382 190.151L98.8225 190.814L97.8589 189.85C97.2268 190.461 96.3979 190.783 95.4343 190.783C93.9631 190.783 92.8959 190.006 92.8959 188.897C92.8959 188.006 93.4035 187.384 94.6573 186.669C94.0045 186.016 93.7869 185.55 93.7869 185.011C93.7869 184.037 94.5536 183.385 95.7452 183.385C96.8435 183.385 97.548 183.955 97.548 184.897C97.548 185.633 97.1129 186.161 96.0042 186.794L97.7967 188.576C97.9936 188.203 98.149 187.767 98.2422 187.26L99.04 187.519C98.9157 188.161 98.6981 188.721 98.408 189.177L99.382 190.151ZM95.7452 184.11C95.0924 184.11 94.7091 184.473 94.7091 184.991C94.7091 185.364 94.8541 185.633 95.4447 186.234C96.3979 185.695 96.7088 185.364 96.7088 184.908C96.7088 184.431 96.3669 184.11 95.7452 184.11ZM95.4965 189.954C96.1907 189.954 96.802 189.726 97.2683 189.27L95.2064 187.218C94.191 187.788 93.8698 188.213 93.8698 188.793C93.8698 189.487 94.5226 189.954 95.4965 189.954ZM109.288 183.447H110.324L107.144 190.7H106.118L102.927 183.447H104.046L106.657 189.405L109.288 183.447ZM113.352 190.762C111.705 190.762 110.493 189.591 110.493 187.954C110.493 186.317 111.705 185.156 113.352 185.156C115 185.156 116.202 186.317 116.202 187.954C116.202 189.591 115 190.762 113.352 190.762ZM113.352 189.892C114.409 189.892 115.197 189.125 115.197 187.954C115.197 186.783 114.409 186.027 113.352 186.027C112.295 186.027 111.498 186.783 111.498 187.954C111.498 189.125 112.295 189.892 113.352 189.892ZM122.012 185.208H123.006V190.7H122.064V189.871C121.66 190.441 120.976 190.762 120.199 190.762C118.779 190.762 117.836 189.985 117.836 188.368V185.208H118.831V188.254C118.831 189.332 119.37 189.871 120.313 189.871C121.349 189.871 122.012 189.228 122.012 188.047V185.208ZM127.604 190.762C125.915 190.762 124.703 189.591 124.703 187.954C124.703 186.317 125.915 185.156 127.604 185.156C128.589 185.156 129.407 185.561 129.842 186.327L129.086 186.814C128.734 186.275 128.195 186.027 127.594 186.027C126.516 186.027 125.708 186.783 125.708 187.954C125.708 189.146 126.516 189.892 127.594 189.892C128.195 189.892 128.734 189.643 129.086 189.104L129.842 189.581C129.407 190.347 128.589 190.762 127.604 190.762ZM134.302 185.156C135.639 185.156 136.582 185.923 136.582 187.54V190.7H135.587V187.654C135.587 186.576 135.048 186.048 134.106 186.048C133.049 186.048 132.365 186.68 132.365 187.871V190.7H131.37V183.012H132.365V185.985C132.779 185.457 133.463 185.156 134.302 185.156ZM143.727 187.985C143.727 188.068 143.717 188.192 143.706 188.286H139.251C139.375 189.249 140.152 189.892 141.24 189.892C141.883 189.892 142.421 189.674 142.825 189.228L143.375 189.871C142.877 190.451 142.121 190.762 141.209 190.762C139.437 190.762 138.256 189.591 138.256 187.954C138.256 186.327 139.427 185.156 141.012 185.156C142.598 185.156 143.727 186.296 143.727 187.985ZM141.012 185.996C140.059 185.996 139.354 186.638 139.251 187.571H142.774C142.67 186.648 141.976 185.996 141.012 185.996ZM146.372 186.13C146.724 185.488 147.408 185.156 148.372 185.156V186.12C148.289 186.11 148.216 186.11 148.144 186.11C147.077 186.11 146.414 186.762 146.414 187.964V190.7H145.419V185.208H146.372V186.13ZM151.524 190.762C150.612 190.762 149.711 190.482 149.255 190.119L149.669 189.332C150.136 189.664 150.882 189.902 151.597 189.902C152.519 189.902 152.902 189.622 152.902 189.156C152.902 187.923 149.431 188.99 149.431 186.804C149.431 185.82 150.312 185.156 151.721 185.156C152.436 185.156 153.244 185.343 153.721 185.654L153.296 186.441C152.798 186.12 152.249 186.006 151.711 186.006C150.84 186.006 150.415 186.327 150.415 186.762C150.415 188.058 153.897 187.001 153.897 189.135C153.897 190.13 152.985 190.762 151.524 190.762Z" fill="white"/>
<path d="M18.3269 229.97H22.5543V230.871H17.2908V223.618H22.4092V224.52H18.3269V226.747H21.9637V227.628H18.3269V229.97ZM28.1922 225.38H29.1661L26.7623 230.871H25.7469L23.3431 225.38H24.3792L26.265 229.783L28.1922 225.38ZM35.2165 228.156C35.2165 228.239 35.2061 228.364 35.1958 228.457H30.7405C30.8648 229.421 31.6419 230.063 32.7298 230.063C33.3722 230.063 33.911 229.845 34.3151 229.4L34.8642 230.042C34.3669 230.622 33.6105 230.933 32.6987 230.933C30.927 230.933 29.7458 229.762 29.7458 228.125C29.7458 226.499 30.9166 225.328 32.5019 225.328C34.0871 225.328 35.2165 226.468 35.2165 228.156ZM32.5019 226.167C31.5486 226.167 30.8441 226.809 30.7405 227.742H34.2633C34.1597 226.82 33.4655 226.167 32.5019 226.167ZM39.8408 225.328C41.1774 225.328 42.1202 226.095 42.1202 227.711V230.871H41.1256V227.825C41.1256 226.747 40.5868 226.219 39.6439 226.219C38.5871 226.219 37.9032 226.851 37.9032 228.042V230.871H36.9085V225.38H37.8618V226.209C38.2659 225.649 38.9704 225.328 39.8408 225.328ZM47.0487 229.835L47.3595 230.55C47.059 230.809 46.6031 230.933 46.1576 230.933C45.049 230.933 44.4169 230.322 44.4169 229.213V226.198H43.4844V225.38H44.4169V224.178H45.4116V225.38H46.9865V226.198H45.4116V229.172C45.4116 229.762 45.7224 230.094 46.2716 230.094C46.5617 230.094 46.8415 230.001 47.0487 229.835ZM52.1113 230.871V223.618H55.1679C57.4992 223.618 59.0844 225.09 59.0844 227.245C59.0844 229.4 57.4992 230.871 55.1679 230.871H52.1113ZM53.1475 229.97H55.1057C56.8982 229.97 58.0483 228.871 58.0483 227.245C58.0483 225.618 56.8982 224.52 55.1057 224.52H53.1475V229.97ZM62.837 225.328C64.3393 225.328 65.189 226.053 65.189 227.556V230.871H64.2461V230.146C63.9145 230.643 63.3032 230.933 62.4432 230.933C61.1999 230.933 60.4125 230.27 60.4125 229.317C60.4125 228.436 60.9823 227.711 62.6194 227.711H64.1943V227.514C64.1943 226.675 63.7073 226.188 62.723 226.188C62.0702 226.188 61.4071 226.416 60.9823 226.778L60.5679 226.032C61.1377 225.577 61.9563 225.328 62.837 225.328ZM62.609 230.167C63.355 230.167 63.9456 229.825 64.1943 229.193V228.426H62.6608C61.6765 228.426 61.3968 228.809 61.3968 229.275C61.3968 229.825 61.8527 230.167 62.609 230.167ZM71.1248 225.38H72.0988L69.4359 231.42C68.949 232.581 68.3169 232.943 67.4777 232.943C66.9492 232.943 66.4105 232.767 66.0685 232.436L66.4933 231.69C66.7627 231.949 67.1047 232.094 67.4777 232.094C67.9543 232.094 68.2548 231.876 68.5241 231.244L68.7003 230.861L66.2758 225.38H67.3119L69.2287 229.773L71.1248 225.38ZM81.8398 223.618H82.876L79.6951 230.871H78.6693L75.4781 223.618H76.5971L79.2081 229.576L81.8398 223.618ZM84.4741 224.323C84.0907 224.323 83.8006 224.043 83.8006 223.68C83.8006 223.318 84.0907 223.028 84.4741 223.028C84.8575 223.028 85.1476 223.307 85.1476 223.66C85.1476 224.033 84.8678 224.323 84.4741 224.323ZM83.9768 230.871V225.38H84.9714V230.871H83.9768ZM91.3674 223.183H92.362V230.871H91.4088V230.001C90.9633 230.622 90.2587 230.933 89.4505 230.933C87.8446 230.933 86.6737 229.804 86.6737 228.125C86.6737 226.447 87.8446 225.328 89.4505 225.328C90.2276 225.328 90.9115 225.618 91.3674 226.209V223.183ZM89.5334 230.063C90.5799 230.063 91.3777 229.296 91.3777 228.125C91.3777 226.955 90.5799 226.198 89.5334 226.198C88.4766 226.198 87.6788 226.955 87.6788 228.125C87.6788 229.296 88.4766 230.063 89.5334 230.063ZM99.5179 228.156C99.5179 228.239 99.5076 228.364 99.4972 228.457H95.0419C95.1662 229.421 95.9433 230.063 97.0312 230.063C97.6736 230.063 98.2124 229.845 98.6165 229.4L99.1656 230.042C98.6683 230.622 97.9119 230.933 97.0001 230.933C95.2284 230.933 94.0472 229.762 94.0472 228.125C94.0472 226.499 95.218 225.328 96.8033 225.328C98.3885 225.328 99.5179 226.468 99.5179 228.156ZM96.8033 226.167C95.8501 226.167 95.1455 226.809 95.0419 227.742H98.5647C98.4611 226.82 97.7669 226.167 96.8033 226.167ZM103.562 230.933C101.915 230.933 100.702 229.762 100.702 228.125C100.702 226.488 101.915 225.328 103.562 225.328C105.209 225.328 106.411 226.488 106.411 228.125C106.411 229.762 105.209 230.933 103.562 230.933ZM103.562 230.063C104.619 230.063 105.406 229.296 105.406 228.125C105.406 226.955 104.619 226.198 103.562 226.198C102.505 226.198 101.707 226.955 101.707 228.125C101.707 229.296 102.505 230.063 103.562 230.063ZM114.165 223.618C116.051 223.618 117.19 224.571 117.19 226.146C117.19 227.721 116.051 228.675 114.165 228.675H112.372V230.871H111.336V223.618H114.165ZM114.134 227.773C115.46 227.773 116.154 227.183 116.154 226.146C116.154 225.11 115.46 224.52 114.134 224.52H112.372V227.773H114.134ZM119.74 226.302C120.093 225.659 120.777 225.328 121.74 225.328V226.291C121.657 226.281 121.585 226.281 121.512 226.281C120.445 226.281 119.782 226.934 119.782 228.136V230.871H118.787V225.38H119.74V226.302ZM125.578 230.933C123.931 230.933 122.719 229.762 122.719 228.125C122.719 226.488 123.931 225.328 125.578 225.328C127.226 225.328 128.428 226.488 128.428 228.125C128.428 229.762 127.226 230.933 125.578 230.933ZM125.578 230.063C126.635 230.063 127.423 229.296 127.423 228.125C127.423 226.955 126.635 226.198 125.578 226.198C124.521 226.198 123.724 226.955 123.724 228.125C123.724 229.296 124.521 230.063 125.578 230.063ZM136.984 225.328C138.32 225.328 139.232 226.095 139.232 227.711V230.871H138.237V227.825C138.237 226.747 137.719 226.219 136.818 226.219C135.823 226.219 135.17 226.851 135.17 228.042V230.871H134.176V227.825C134.176 226.747 133.658 226.219 132.756 226.219C131.762 226.219 131.109 226.851 131.109 228.042V230.871H130.114V225.38H131.067V226.198C131.461 225.639 132.135 225.328 132.963 225.328C133.803 225.328 134.507 225.659 134.87 226.343C135.284 225.722 136.051 225.328 136.984 225.328ZM143.755 230.933C142.108 230.933 140.896 229.762 140.896 228.125C140.896 226.488 142.108 225.328 143.755 225.328C145.403 225.328 146.605 226.488 146.605 228.125C146.605 229.762 145.403 230.933 143.755 230.933ZM143.755 230.063C144.812 230.063 145.6 229.296 145.6 228.125C145.6 226.955 144.812 226.198 143.755 226.198C142.699 226.198 141.901 226.955 141.901 228.125C141.901 229.296 142.699 230.063 143.755 230.063ZM151.068 229.835L151.379 230.55C151.078 230.809 150.622 230.933 150.177 230.933C149.068 230.933 148.436 230.322 148.436 229.213V226.198H147.504V225.38H148.436V224.178H149.431V225.38H151.006V226.198H149.431V229.172C149.431 229.762 149.742 230.094 150.291 230.094C150.581 230.094 150.861 230.001 151.068 229.835ZM153.389 224.323C153.006 224.323 152.716 224.043 152.716 223.68C152.716 223.318 153.006 223.028 153.389 223.028C153.773 223.028 154.063 223.307 154.063 223.66C154.063 224.033 153.783 224.323 153.389 224.323ZM152.892 230.871V225.38H153.887V230.871H152.892ZM158.449 230.933C156.801 230.933 155.589 229.762 155.589 228.125C155.589 226.488 156.801 225.328 158.449 225.328C160.096 225.328 161.298 226.488 161.298 228.125C161.298 229.762 160.096 230.933 158.449 230.933ZM158.449 230.063C159.506 230.063 160.293 229.296 160.293 228.125C160.293 226.955 159.506 226.198 158.449 226.198C157.392 226.198 156.594 226.955 156.594 228.125C156.594 229.296 157.392 230.063 158.449 230.063ZM165.917 225.328C167.253 225.328 168.196 226.095 168.196 227.711V230.871H167.202V227.825C167.202 226.747 166.663 226.219 165.72 226.219C164.663 226.219 163.979 226.851 163.979 228.042V230.871H162.985V225.38H163.938V226.209C164.342 225.649 165.046 225.328 165.917 225.328ZM171.923 230.933C171.011 230.933 170.11 230.654 169.654 230.291L170.068 229.503C170.534 229.835 171.28 230.073 171.995 230.073C172.918 230.073 173.301 229.794 173.301 229.327C173.301 228.094 169.83 229.161 169.83 226.975C169.83 225.991 170.711 225.328 172.12 225.328C172.835 225.328 173.643 225.514 174.119 225.825L173.695 226.613C173.197 226.291 172.648 226.177 172.109 226.177C171.239 226.177 170.814 226.499 170.814 226.934C170.814 228.229 174.296 227.172 174.296 229.307C174.296 230.301 173.384 230.933 171.923 230.933Z" fill="white"/>
<path d="M293.881 89.6367V105.61H309.855V89.6367H293.881ZM295.333 91.0889H308.403V104.158H295.333V91.0889ZM305.703 94.1973L300.416 99.484L298.034 97.1016L296.99 98.1454L299.894 101.05L300.416 101.549L300.938 101.05L306.746 95.2411L305.703 94.1973Z" fill="#2B62A7"/>
<path d="M293.881 176.073V192.046H309.855V176.073H293.881ZM295.333 177.525H308.403V190.594H295.333V177.525ZM305.703 180.633L300.416 185.92L298.034 183.538L296.99 184.581L299.894 187.486L300.416 187.985L300.938 187.486L306.746 181.677L305.703 180.633Z" fill="#2B62A7"/>
<path d="M293.881 133.815V149.789H309.855V133.815H293.881ZM295.333 135.268H308.403V148.337H295.333V135.268ZM305.703 138.376L300.416 143.663L298.034 141.28L296.99 142.324L299.894 145.228L300.416 145.727L300.938 145.228L306.746 139.42L305.703 138.376Z" fill="#2B62A7"/>
<path d="M293.881 216.409V232.383H309.855V216.409H293.881ZM295.333 217.861H308.403V230.931H295.333V217.861ZM305.703 220.97L300.416 226.256L298.034 223.874L296.99 224.918L299.894 227.822L300.416 228.321L300.938 227.822L306.746 222.014L305.703 220.97Z" fill="#2B62A7"/>
</svg>
