<svg width="318" height="382" viewBox="0 0 318 382" fill="none" xmlns="http://www.w3.org/2000/svg">
<mask id="path-1-inside-1_235_37822" fill="white">
<path d="M0.963379 0H317.5V45.2883H0.963379V0Z"/>
</mask>
<path d="M0.963379 0H317.5V45.2883H0.963379V0Z" fill="#2B62A7"/>
<path d="M317.5 45.2883V44.9635H0.963379V45.2883V45.6132H317.5V45.2883Z" fill="#2B62A7" mask="url(#path-1-inside-1_235_37822)"/>
<path d="M53.4215 23.759C54.2323 24.0189 54.7521 24.6426 54.7521 25.5574C54.7521 26.8153 53.7541 27.543 51.8414 27.543H48.0782V20.2661H51.6334C53.4527 20.2661 54.3883 21.0249 54.3883 22.1581C54.3883 22.8858 54.014 23.4471 53.4215 23.759ZM51.4255 21.5343H49.7519V23.2496H51.4255C52.2468 23.2496 52.6938 22.9585 52.6938 22.3868C52.6938 21.815 52.2468 21.5343 51.4255 21.5343ZM51.7166 26.2747C52.5898 26.2747 53.0576 26.0044 53.0576 25.3807C53.0576 24.7674 52.5898 24.4763 51.7166 24.4763H49.7519V26.2747H51.7166ZM58.0127 26.1915H61.9734V27.543H56.339V20.2661H61.8382V21.6175H58.0127V23.1976H61.3912V24.5075H58.0127V26.1915ZM68.6359 20.2661H70.2992V27.543H68.9166L65.2885 23.1249V27.543H63.6252V20.2661H65.0182L68.6359 24.6842V20.2661ZM74.0064 26.1915H77.9671V27.543H72.3327V20.2661H77.832V21.6175H74.0064V23.1976H77.385V24.5075H74.0064V26.1915ZM85.1182 21.6175H81.3031V23.5407H84.6712V24.8921H81.3031V27.543H79.619V20.2661H85.1182V21.6175ZM86.5702 27.543V20.2661H88.2543V27.543H86.5702ZM91.8005 27.543V21.6383H89.4719V20.2661H95.8132V21.6383H93.4846V27.543H91.8005ZM99.3714 27.6677C98.2175 27.6677 97.0532 27.3247 96.4086 26.8257L96.9804 25.5574C97.5937 26.0044 98.5085 26.3163 99.3818 26.3163C100.38 26.3163 100.785 25.9836 100.785 25.5366C100.785 24.1748 96.5542 25.1104 96.5542 22.4076C96.5542 21.1705 97.5521 20.1413 99.6209 20.1413C100.536 20.1413 101.471 20.3596 102.147 20.7858L101.627 22.0645C100.951 21.6799 100.255 21.4927 99.6105 21.4927C98.6125 21.4927 98.2279 21.867 98.2279 22.3244C98.2279 23.6654 102.459 22.7402 102.459 25.4119C102.459 26.6282 101.45 27.6677 99.3714 27.6677Z" fill="white"/>
<path d="M27.399 71.7108C26.5647 71.7108 25.7461 71.4301 25.3095 71.0247L25.5979 70.4166C26.0034 70.783 26.6973 71.0481 27.399 71.0481C28.3424 71.0481 28.7478 70.6816 28.7478 70.2061C28.7478 68.8728 25.442 69.7149 25.442 67.6877C25.442 66.8457 26.0969 66.1284 27.5315 66.1284C28.1708 66.1284 28.8336 66.2999 29.2858 66.6118L29.0285 67.2355C28.5529 66.9314 28.0149 66.7911 27.5315 66.7911C26.6037 66.7911 26.2061 67.1809 26.2061 67.6565C26.2061 68.9898 29.5119 68.1555 29.5119 70.1593C29.5119 70.9935 28.8414 71.7108 27.399 71.7108ZM32.5455 71.6952C31.3058 71.6952 30.3936 70.8142 30.3936 69.5823C30.3936 68.3504 31.3058 67.4772 32.5455 67.4772C33.7852 67.4772 34.6896 68.3504 34.6896 69.5823C34.6896 70.8142 33.7852 71.6952 32.5455 71.6952ZM32.5455 71.0403C33.3408 71.0403 33.9333 70.4633 33.9333 69.5823C33.9333 68.7013 33.3408 68.1321 32.5455 68.1321C31.7503 68.1321 31.1499 68.7013 31.1499 69.5823C31.1499 70.4633 31.7503 71.0403 32.5455 71.0403ZM37.7597 71.6952C36.4888 71.6952 35.5766 70.8142 35.5766 69.5823C35.5766 68.3504 36.4888 67.4772 37.7597 67.4772C38.5003 67.4772 39.1163 67.7813 39.4437 68.3582L38.8746 68.7247C38.6095 68.3193 38.2041 68.1321 37.7519 68.1321C36.941 68.1321 36.3329 68.7013 36.3329 69.5823C36.3329 70.4789 36.941 71.0403 37.7519 71.0403C38.2041 71.0403 38.6095 70.8532 38.8746 70.4477L39.4437 70.8064C39.1163 71.3834 38.5003 71.6952 37.7597 71.6952ZM41.0209 66.7209C40.7325 66.7209 40.5141 66.5104 40.5141 66.2375C40.5141 65.9647 40.7325 65.7464 41.0209 65.7464C41.3094 65.7464 41.5277 65.9569 41.5277 66.2219C41.5277 66.5026 41.3172 66.7209 41.0209 66.7209ZM40.6467 71.6484V67.5162H41.3952V71.6484H40.6467ZM44.5629 67.4772C45.6935 67.4772 46.3328 68.023 46.3328 69.1535V71.6484H45.6233V71.1027C45.3738 71.4769 44.9138 71.6952 44.2667 71.6952C43.3311 71.6952 42.7385 71.1962 42.7385 70.4789C42.7385 69.8162 43.1673 69.2705 44.3992 69.2705H45.5843V69.1223C45.5843 68.4908 45.2179 68.1243 44.4772 68.1243C43.986 68.1243 43.487 68.2959 43.1673 68.5687L42.8555 68.0074C43.2843 67.6643 43.9002 67.4772 44.5629 67.4772ZM44.3914 71.1183C44.9528 71.1183 45.3972 70.861 45.5843 70.3854V69.8084H44.4304C43.6897 69.8084 43.4792 70.0969 43.4792 70.4477C43.4792 70.861 43.8223 71.1183 44.3914 71.1183ZM47.9518 71.6484V65.8633H48.7003V71.6484H47.9518ZM58.6087 71.6484H57.8602L57.8524 67.6721L55.8799 70.9857H55.5212L53.5487 67.6955V71.6484H52.8002V66.1908H53.4395L55.7161 70.0267L57.9616 66.1908H58.6009L58.6087 71.6484ZM64.106 69.6057C64.106 69.6681 64.0982 69.7616 64.0904 69.8318H60.7378C60.8314 70.5569 61.4161 71.0403 62.2348 71.0403C62.7182 71.0403 63.1236 70.8766 63.4277 70.5413L63.8409 71.0247C63.4667 71.4613 62.8975 71.6952 62.2114 71.6952C60.8782 71.6952 59.9893 70.8142 59.9893 69.5823C59.9893 68.3582 60.8704 67.4772 62.0633 67.4772C63.2561 67.4772 64.106 68.3348 64.106 69.6057ZM62.0633 68.1087C61.346 68.1087 60.8158 68.5921 60.7378 69.2938H63.3887C63.3107 68.5999 62.7883 68.1087 62.0633 68.1087ZM68.5291 65.8633H69.2776V71.6484H68.5603V70.9935C68.225 71.4613 67.6948 71.6952 67.0867 71.6952C65.8782 71.6952 64.9972 70.8454 64.9972 69.5823C64.9972 68.3193 65.8782 67.4772 67.0867 67.4772C67.6714 67.4772 68.186 67.6955 68.5291 68.1399V65.8633ZM67.1491 71.0403C67.9365 71.0403 68.5369 70.4633 68.5369 69.5823C68.5369 68.7013 67.9365 68.1321 67.1491 68.1321C66.3538 68.1321 65.7535 68.7013 65.7535 69.5823C65.7535 70.4633 66.3538 71.0403 67.1491 71.0403ZM71.3019 66.7209C71.0134 66.7209 70.7951 66.5104 70.7951 66.2375C70.7951 65.9647 71.0134 65.7464 71.3019 65.7464C71.5904 65.7464 71.8087 65.9569 71.8087 66.2219C71.8087 66.5026 71.5982 66.7209 71.3019 66.7209ZM70.9276 71.6484V67.5162H71.6761V71.6484H70.9276ZM74.8439 67.4772C75.9744 67.4772 76.6137 68.023 76.6137 69.1535V71.6484H75.9042V71.1027C75.6548 71.4769 75.1947 71.6952 74.5476 71.6952C73.612 71.6952 73.0195 71.1962 73.0195 70.4789C73.0195 69.8162 73.4483 69.2705 74.6802 69.2705H75.8653V69.1223C75.8653 68.4908 75.4988 68.1243 74.7581 68.1243C74.2669 68.1243 73.768 68.2959 73.4483 68.5687L73.1364 68.0074C73.5652 67.6643 74.1812 67.4772 74.8439 67.4772ZM74.6724 71.1183C75.2337 71.1183 75.6781 70.861 75.8653 70.3854V69.8084H74.7114C73.9707 69.8084 73.7602 70.0969 73.7602 70.4477C73.7602 70.861 74.1032 71.1183 74.6724 71.1183ZM86.4782 71.6484H85.7297L85.7219 67.6721L83.7493 70.9857H83.3907L81.4181 67.6955V71.6484H80.6697V66.1908H81.309L83.5856 70.0267L85.8311 66.1908H86.4704L86.4782 71.6484ZM91.9754 69.6057C91.9754 69.6681 91.9677 69.7616 91.9599 69.8318H88.6073C88.7008 70.5569 89.2856 71.0403 90.1042 71.0403C90.5876 71.0403 90.9931 70.8766 91.2971 70.5413L91.7104 71.0247C91.3361 71.4613 90.767 71.6952 90.0809 71.6952C88.7476 71.6952 87.8588 70.8142 87.8588 69.5823C87.8588 68.3582 88.7398 67.4772 89.9327 67.4772C91.1256 67.4772 91.9754 68.3348 91.9754 69.6057ZM89.9327 68.1087C89.2154 68.1087 88.6852 68.5921 88.6073 69.2938H91.2582C91.1802 68.5999 90.6578 68.1087 89.9327 68.1087ZM95.4551 67.4772C96.4609 67.4772 97.1704 68.0542 97.1704 69.2705V71.6484H96.4219V69.3562C96.4219 68.5454 96.0165 68.1477 95.307 68.1477C94.5117 68.1477 93.9972 68.6233 93.9972 69.5199V71.6484H93.2487V67.5162H93.966V68.1399C94.27 67.7189 94.8002 67.4772 95.4551 67.4772ZM100.879 70.8688L101.113 71.4067C100.887 71.6017 100.544 71.6952 100.209 71.6952C99.3743 71.6952 98.8987 71.2352 98.8987 70.401V68.1321H98.197V67.5162H98.8987V66.6118H99.6471V67.5162H100.832V68.1321H99.6471V70.3698C99.6471 70.8142 99.881 71.0637 100.294 71.0637C100.513 71.0637 100.723 70.9935 100.879 70.8688ZM102.626 66.7209C102.337 66.7209 102.119 66.5104 102.119 66.2375C102.119 65.9647 102.337 65.7464 102.626 65.7464C102.914 65.7464 103.133 65.9569 103.133 66.2219C103.133 66.5026 102.922 66.7209 102.626 66.7209ZM102.252 71.6484V67.5162H103V71.6484H102.252ZM106.433 71.6952C105.193 71.6952 104.281 70.8142 104.281 69.5823C104.281 68.3504 105.193 67.4772 106.433 67.4772C107.673 67.4772 108.577 68.3504 108.577 69.5823C108.577 70.8142 107.673 71.6952 106.433 71.6952ZM106.433 71.0403C107.228 71.0403 107.821 70.4633 107.821 69.5823C107.821 68.7013 107.228 68.1321 106.433 68.1321C105.638 68.1321 105.037 68.7013 105.037 69.5823C105.037 70.4633 105.638 71.0403 106.433 71.0403ZM112.053 67.4772C113.058 67.4772 113.768 68.0542 113.768 69.2705V71.6484H113.019V69.3562C113.019 68.5454 112.614 68.1477 111.904 68.1477C111.109 68.1477 110.595 68.6233 110.595 69.5199V71.6484H109.846V67.5162H110.563V68.1399C110.868 67.7189 111.398 67.4772 112.053 67.4772ZM116.572 71.6952C115.886 71.6952 115.208 71.4847 114.865 71.2118L115.176 70.6193C115.527 70.8688 116.089 71.0481 116.627 71.0481C117.321 71.0481 117.609 70.8376 117.609 70.4867C117.609 69.5589 114.997 70.362 114.997 68.7169C114.997 67.9762 115.66 67.4772 116.72 67.4772C117.258 67.4772 117.866 67.6176 118.225 67.8515L117.905 68.444C117.531 68.2023 117.118 68.1165 116.712 68.1165C116.058 68.1165 115.738 68.3582 115.738 68.6857C115.738 69.6603 118.358 68.865 118.358 70.4711C118.358 71.2196 117.671 71.6952 116.572 71.6952ZM18.0952 82.161C17.5026 81.2176 17.1674 79.9467 17.1674 78.5121C17.1674 77.0776 17.5026 75.7911 18.0952 74.8633H18.8047C18.1732 75.9704 17.9003 77.1477 17.9003 78.5121C17.9003 79.8766 18.1732 81.0539 18.8047 82.161H18.0952ZM27.0763 75.1908H27.817L25.9926 80.6484H25.1739L23.6847 76.2901L22.1956 80.6484H21.3613L19.5369 75.1908H20.34L21.8135 79.6271L23.3495 75.1908H24.0668L25.5715 79.6505L27.0763 75.1908ZM32.3179 78.6057C32.3179 78.6681 32.3101 78.7616 32.3023 78.8318H28.9497C29.0433 79.5569 29.6281 80.0403 30.4467 80.0403C30.9301 80.0403 31.3355 79.8766 31.6396 79.5413L32.0528 80.0247C31.6786 80.4613 31.1094 80.6952 30.4233 80.6952C29.0901 80.6952 28.2013 79.8142 28.2013 78.5823C28.2013 77.3582 29.0823 76.4772 30.2752 76.4772C31.4681 76.4772 32.3179 77.3348 32.3179 78.6057ZM30.2752 77.1087C29.5579 77.1087 29.0277 77.5921 28.9497 78.2938H31.6006C31.5227 77.5999 31.0003 77.1087 30.2752 77.1087ZM35.782 76.4772C36.9905 76.4772 37.8715 77.3193 37.8715 78.5823C37.8715 79.8454 36.9905 80.6952 35.782 80.6952C35.1739 80.6952 34.6437 80.4613 34.3084 79.9935V80.6484H33.5911V74.8633H34.3396V77.1399C34.6827 76.6955 35.1973 76.4772 35.782 76.4772ZM35.7196 80.0403C36.5149 80.0403 37.1152 79.4633 37.1152 78.5823C37.1152 77.7013 36.5149 77.1321 35.7196 77.1321C34.9322 77.1321 34.3318 77.7013 34.3318 78.5823C34.3318 79.4633 34.9322 80.0403 35.7196 80.0403ZM40.3247 80.6952C39.6386 80.6952 38.9603 80.4847 38.6172 80.2118L38.9291 79.6193C39.2799 79.8688 39.8413 80.0481 40.3793 80.0481C41.0732 80.0481 41.3616 79.8376 41.3616 79.4867C41.3616 78.5589 38.7497 79.362 38.7497 77.7169C38.7497 76.9762 39.4125 76.4772 40.4728 76.4772C41.0108 76.4772 41.6189 76.6176 41.9776 76.8515L41.6579 77.444C41.2837 77.2023 40.8704 77.1165 40.465 77.1165C39.8101 77.1165 39.4904 77.3582 39.4904 77.6857C39.4904 78.6603 42.1101 77.865 42.1101 79.4711C42.1101 80.2196 41.424 80.6952 40.3247 80.6952ZM43.6537 75.7209C43.3652 75.7209 43.1469 75.5104 43.1469 75.2375C43.1469 74.9647 43.3652 74.7464 43.6537 74.7464C43.9422 74.7464 44.1605 74.9569 44.1605 75.2219C44.1605 75.5026 43.95 75.7209 43.6537 75.7209ZM43.2794 80.6484V76.5162H44.0279V80.6484H43.2794ZM47.7804 79.8688L48.0143 80.4067C47.7882 80.6017 47.4452 80.6952 47.1099 80.6952C46.2757 80.6952 45.8001 80.2352 45.8001 79.401V77.1321H45.0984V76.5162H45.8001V75.6118H46.5486V76.5162H47.7337V77.1321H46.5486V79.3698C46.5486 79.8142 46.7825 80.0637 47.1957 80.0637C47.414 80.0637 47.6245 79.9935 47.7804 79.8688ZM52.7507 78.6057C52.7507 78.6681 52.7429 78.7616 52.7351 78.8318H49.3825C49.4761 79.5569 50.0608 80.0403 50.8795 80.0403C51.3629 80.0403 51.7683 79.8766 52.0724 79.5413L52.4856 80.0247C52.1114 80.4613 51.5422 80.6952 50.8561 80.6952C49.5229 80.6952 48.634 79.8142 48.634 78.5823C48.634 77.3582 49.5151 76.4772 50.708 76.4772C51.9009 76.4772 52.7507 77.3348 52.7507 78.6057ZM50.708 77.1087C49.9907 77.1087 49.4605 77.5921 49.3825 78.2938H52.0334C51.9554 77.5999 51.4331 77.1087 50.708 77.1087ZM54.211 79.6271C54.5073 79.6271 54.7178 79.8532 54.7178 80.1572C54.7178 80.3132 54.6866 80.4301 54.5853 80.7186L54.2188 81.8023H53.7277L54.0161 80.6406C53.8212 80.5705 53.6887 80.3911 53.6887 80.1572C53.6887 79.8454 53.9148 79.6271 54.211 79.6271ZM58.7262 75.7209C58.4378 75.7209 58.2195 75.5104 58.2195 75.2375C58.2195 74.9647 58.4378 74.7464 58.7262 74.7464C59.0147 74.7464 59.233 74.9569 59.233 75.2219C59.233 75.5026 59.0225 75.7209 58.7262 75.7209ZM58.352 80.6484V76.5162H59.1005V80.6484H58.352ZM62.9699 76.4772C63.9757 76.4772 64.6852 77.0542 64.6852 78.2705V80.6484H63.9367V78.3562C63.9367 77.5454 63.5313 77.1477 62.8218 77.1477C62.0265 77.1477 61.512 77.6233 61.512 78.5199V80.6484H60.7635V76.5162H61.4808V77.1399C61.7849 76.7189 62.315 76.4772 62.9699 76.4772ZM67.4894 80.6952C66.8033 80.6952 66.125 80.4847 65.7819 80.2118L66.0938 79.6193C66.4446 79.8688 67.006 80.0481 67.544 80.0481C68.2379 80.0481 68.5264 79.8376 68.5264 79.4867C68.5264 78.5589 65.9145 79.362 65.9145 77.7169C65.9145 76.9762 66.5772 76.4772 67.6375 76.4772C68.1755 76.4772 68.7837 76.6176 69.1423 76.8515L68.8226 77.444C68.4484 77.2023 68.0352 77.1165 67.6297 77.1165C66.9748 77.1165 66.6552 77.3582 66.6552 77.6857C66.6552 78.6603 69.2748 77.865 69.2748 79.4711C69.2748 80.2196 68.5887 80.6952 67.4894 80.6952ZM72.5337 79.8688L72.7676 80.4067C72.5415 80.6017 72.1984 80.6952 71.8632 80.6952C71.0289 80.6952 70.5533 80.2352 70.5533 79.401V77.1321H69.8516V76.5162H70.5533V75.6118H71.3018V76.5162H72.4869V77.1321H71.3018V79.3698C71.3018 79.8142 71.5357 80.0637 71.9489 80.0637C72.1672 80.0637 72.3777 79.9935 72.5337 79.8688ZM75.4111 76.4772C76.5417 76.4772 77.181 77.023 77.181 78.1535V80.6484H76.4715V80.1027C76.222 80.4769 75.762 80.6952 75.1149 80.6952C74.1793 80.6952 73.5867 80.1962 73.5867 79.4789C73.5867 78.8162 74.0155 78.2705 75.2474 78.2705H76.4325V78.1223C76.4325 77.4908 76.0661 77.1243 75.3254 77.1243C74.8342 77.1243 74.3352 77.2959 74.0155 77.5687L73.7037 77.0074C74.1325 76.6643 74.7484 76.4772 75.4111 76.4772ZM75.2396 80.1183C75.801 80.1183 76.2454 79.861 76.4325 79.3854V78.8084H75.2786C74.5379 78.8084 74.3274 79.0969 74.3274 79.4477C74.3274 79.861 74.6704 80.1183 75.2396 80.1183ZM85.6498 80.2352L85.2288 80.7342L84.5037 80.0091C84.0281 80.4691 83.4044 80.7108 82.6793 80.7108C81.5722 80.7108 80.7691 80.1261 80.7691 79.2918C80.7691 78.6213 81.1511 78.1535 82.0945 77.6155C81.6033 77.1243 81.4396 76.7735 81.4396 76.3681C81.4396 75.6352 82.0166 75.144 82.9132 75.144C83.7396 75.144 84.2698 75.5728 84.2698 76.2823C84.2698 76.8359 83.9423 77.2335 83.1081 77.7091L84.4569 79.0501C84.6051 78.7694 84.722 78.442 84.7922 78.0599L85.3925 78.2549C85.299 78.7383 85.1352 79.1593 84.9169 79.5023L85.6498 80.2352ZM82.9132 75.6897C82.422 75.6897 82.1335 75.9626 82.1335 76.3525C82.1335 76.6331 82.2427 76.8359 82.6871 77.2881C83.4044 76.8826 83.6383 76.6331 83.6383 76.2901C83.6383 75.9314 83.381 75.6897 82.9132 75.6897ZM82.7261 80.0871C83.2484 80.0871 83.7084 79.9155 84.0593 79.5725L82.5078 78.0288C81.7437 78.4576 81.502 78.7772 81.502 79.2138C81.502 79.7362 81.9932 80.0871 82.7261 80.0871ZM89.1435 80.6484V75.1908H89.9232V79.9701H92.8781V80.6484H89.1435ZM94.2718 75.7209C93.9833 75.7209 93.765 75.5104 93.765 75.2375C93.765 74.9647 93.9833 74.7464 94.2718 74.7464C94.5603 74.7464 94.7786 74.9569 94.7786 75.2219C94.7786 75.5026 94.5681 75.7209 94.2718 75.7209ZM93.8975 80.6484V76.5162H94.646V80.6484H93.8975ZM98.5155 76.4772C99.5213 76.4772 100.231 77.0542 100.231 78.2705V80.6484H99.4823V78.3562C99.4823 77.5454 99.0769 77.1477 98.3674 77.1477C97.5721 77.1477 97.0575 77.6233 97.0575 78.5199V80.6484H96.309V76.5162H97.0263V77.1399C97.3304 76.7189 97.8606 76.4772 98.5155 76.4772ZM105.008 80.6484L103.456 78.7227L102.598 79.5179V80.6484H101.85V74.8633H102.598V78.5745L104.852 76.5162H105.756L104.017 78.2237L105.928 80.6484H105.008ZM110.448 78.6057C110.448 78.6681 110.44 78.7616 110.432 78.8318H107.079C107.173 79.5569 107.758 80.0403 108.576 80.0403C109.06 80.0403 109.465 79.8766 109.769 79.5413L110.183 80.0247C109.808 80.4613 109.239 80.6952 108.553 80.6952C107.22 80.6952 106.331 79.8142 106.331 78.5823C106.331 77.3582 107.212 76.4772 108.405 76.4772C109.598 76.4772 110.448 77.3348 110.448 78.6057ZM108.405 77.1087C107.688 77.1087 107.157 77.5921 107.079 78.2938H109.73C109.652 77.5999 109.13 77.1087 108.405 77.1087ZM114.871 74.8633H115.619V80.6484H114.902V79.9935C114.567 80.4613 114.036 80.6952 113.428 80.6952C112.22 80.6952 111.339 79.8454 111.339 78.5823C111.339 77.3193 112.22 76.4772 113.428 76.4772C114.013 76.4772 114.528 76.6955 114.871 77.1399V74.8633ZM113.491 80.0403C114.278 80.0403 114.879 79.4633 114.879 78.5823C114.879 77.7013 114.278 77.1321 113.491 77.1321C112.695 77.1321 112.095 77.7013 112.095 78.5823C112.095 79.4633 112.695 80.0403 113.491 80.0403ZM117.644 75.7209C117.355 75.7209 117.137 75.5104 117.137 75.2375C117.137 74.9647 117.355 74.7464 117.644 74.7464C117.932 74.7464 118.15 74.9569 118.15 75.2219C118.15 75.5026 117.94 75.7209 117.644 75.7209ZM117.269 80.6484V76.5162H118.018V80.6484H117.269ZM121.887 76.4772C122.893 76.4772 123.603 77.0542 123.603 78.2705V80.6484H122.854V78.3562C122.854 77.5454 122.449 77.1477 121.739 77.1477C120.944 77.1477 120.429 77.6233 120.429 78.5199V80.6484H119.681V76.5162H120.398V77.1399C120.702 76.7189 121.232 76.4772 121.887 76.4772ZM125.471 82.161H124.762C125.393 81.0539 125.674 79.8766 125.674 78.5121C125.674 77.1477 125.393 75.9704 124.762 74.8633H125.471C126.071 75.7911 126.407 77.0776 126.407 78.5121C126.407 79.9467 126.071 81.2176 125.471 82.161Z" fill="white"/>
<path d="M15.5096 110.847V105.389H16.2892V110.847H15.5096ZM20.2544 106.676C21.2601 106.676 21.9696 107.253 21.9696 108.469V110.847H21.2212V108.555C21.2212 107.744 20.8157 107.346 20.1062 107.346C19.311 107.346 18.7964 107.822 18.7964 108.719V110.847H18.0479V106.715H18.7652V107.339C19.0693 106.918 19.5995 106.676 20.2544 106.676ZM24.7738 110.894C24.0877 110.894 23.4094 110.683 23.0664 110.411L23.3782 109.818C23.7291 110.068 24.2904 110.247 24.8284 110.247C25.5223 110.247 25.8108 110.036 25.8108 109.685C25.8108 108.758 23.1989 109.561 23.1989 107.916C23.1989 107.175 23.8616 106.676 24.922 106.676C25.4599 106.676 26.0681 106.816 26.4267 107.05L26.1071 107.643C25.7328 107.401 25.3196 107.315 24.9142 107.315C24.2593 107.315 23.9396 107.557 23.9396 107.884C23.9396 108.859 26.5593 108.064 26.5593 109.67C26.5593 110.418 25.8732 110.894 24.7738 110.894ZM29.8181 110.068L30.052 110.605C29.8259 110.8 29.4828 110.894 29.1476 110.894C28.3133 110.894 27.8377 110.434 27.8377 109.6V107.331H27.136V106.715H27.8377V105.811H28.5862V106.715H29.7713V107.331H28.5862V109.569C28.5862 110.013 28.8201 110.262 29.2333 110.262C29.4517 110.262 29.6622 110.192 29.8181 110.068ZM32.6956 106.676C33.8261 106.676 34.4654 107.222 34.4654 108.352V110.847H33.7559V110.301C33.5064 110.676 33.0464 110.894 32.3993 110.894C31.4637 110.894 30.8711 110.395 30.8711 109.678C30.8711 109.015 31.3 108.469 32.5318 108.469H33.7169V108.321C33.7169 107.69 33.3505 107.323 32.6098 107.323C32.1186 107.323 31.6196 107.495 31.3 107.767L30.9881 107.206C31.4169 106.863 32.0328 106.676 32.6956 106.676ZM32.524 110.317C33.0854 110.317 33.5298 110.06 33.7169 109.584V109.007H32.563C31.8223 109.007 31.6118 109.296 31.6118 109.646C31.6118 110.06 31.9549 110.317 32.524 110.317ZM39.3507 106.715H40.0602V110.286C40.0602 111.744 39.3195 112.407 37.9161 112.407C37.1598 112.407 36.3958 112.196 35.9435 111.791L36.3022 111.214C36.6842 111.541 37.2846 111.752 37.8927 111.752C38.8673 111.752 39.3117 111.299 39.3117 110.364V110.036C38.9531 110.465 38.4151 110.676 37.8225 110.676C36.6297 110.676 35.7252 109.865 35.7252 108.672C35.7252 107.479 36.6297 106.676 37.8225 106.676C38.4385 106.676 38.9998 106.902 39.3507 107.354V106.715ZM37.9083 110.021C38.7348 110.021 39.3273 109.467 39.3273 108.672C39.3273 107.869 38.7348 107.331 37.9083 107.331C37.0741 107.331 36.4815 107.869 36.4815 108.672C36.4815 109.467 37.0741 110.021 37.9083 110.021ZM42.4415 107.409C42.7066 106.925 43.2212 106.676 43.9463 106.676V107.401C43.8839 107.393 43.8293 107.393 43.7748 107.393C42.9717 107.393 42.4727 107.884 42.4727 108.789V110.847H41.7242V106.715H42.4415V107.409ZM46.5998 106.676C47.7304 106.676 48.3697 107.222 48.3697 108.352V110.847H47.6602V110.301C47.4107 110.676 46.9507 110.894 46.3036 110.894C45.368 110.894 44.7754 110.395 44.7754 109.678C44.7754 109.015 45.2042 108.469 46.4361 108.469H47.6212V108.321C47.6212 107.69 47.2548 107.323 46.5141 107.323C46.0229 107.323 45.5239 107.495 45.2042 107.767L44.8924 107.206C45.3212 106.863 45.9371 106.676 46.5998 106.676ZM46.4283 110.317C46.9897 110.317 47.4341 110.06 47.6212 109.584V109.007H46.4673C45.7266 109.007 45.5161 109.296 45.5161 109.646C45.5161 110.06 45.8592 110.317 46.4283 110.317ZM55.1579 106.676C56.1637 106.676 56.8498 107.253 56.8498 108.469V110.847H56.1013V108.555C56.1013 107.744 55.7115 107.346 55.0332 107.346C54.2847 107.346 53.7935 107.822 53.7935 108.719V110.847H53.045V108.555C53.045 107.744 52.6552 107.346 51.9769 107.346C51.2284 107.346 50.7372 107.822 50.7372 108.719V110.847H49.9887V106.715H50.706V107.331C51.0023 106.91 51.5091 106.676 52.1328 106.676C52.7643 106.676 53.2945 106.925 53.5674 107.44C53.8793 106.972 54.4562 106.676 55.1579 106.676ZM62.4883 110.91C61.6541 110.91 60.8354 110.629 60.3988 110.223L60.6873 109.615C61.0927 109.982 61.7866 110.247 62.4883 110.247C63.4317 110.247 63.8371 109.88 63.8371 109.405C63.8371 108.072 60.5313 108.914 60.5313 106.886C60.5313 106.044 61.1863 105.327 62.6209 105.327C63.2602 105.327 63.9229 105.499 64.3751 105.811L64.1178 106.434C63.6422 106.13 63.1043 105.99 62.6209 105.99C61.6931 105.99 61.2954 106.38 61.2954 106.855C61.2954 108.189 64.6012 107.354 64.6012 109.358C64.6012 110.192 63.9307 110.91 62.4883 110.91ZM67.9545 110.068L68.1884 110.605C67.9623 110.8 67.6193 110.894 67.284 110.894C66.4498 110.894 65.9742 110.434 65.9742 109.6V107.331H65.2725V106.715H65.9742V105.811H66.7226V106.715H67.9077V107.331H66.7226V109.569C66.7226 110.013 66.9565 110.262 67.3698 110.262C67.5881 110.262 67.7986 110.192 67.9545 110.068ZM70.96 110.894C69.7203 110.894 68.8081 110.013 68.8081 108.781C68.8081 107.549 69.7203 106.676 70.96 106.676C72.1997 106.676 73.1041 107.549 73.1041 108.781C73.1041 110.013 72.1997 110.894 70.96 110.894ZM70.96 110.239C71.7553 110.239 72.3478 109.662 72.3478 108.781C72.3478 107.9 71.7553 107.331 70.96 107.331C70.1647 107.331 69.5644 107.9 69.5644 108.781C69.5644 109.662 70.1647 110.239 70.96 110.239ZM75.0904 107.409C75.3555 106.925 75.8701 106.676 76.5952 106.676V107.401C76.5328 107.393 76.4782 107.393 76.4237 107.393C75.6206 107.393 75.1216 107.884 75.1216 108.789V110.847H74.3731V106.715H75.0904V107.409ZM78.1258 105.92C77.8374 105.92 77.6191 105.709 77.6191 105.436C77.6191 105.163 77.8374 104.945 78.1258 104.945C78.4143 104.945 78.6326 105.156 78.6326 105.421C78.6326 105.701 78.4221 105.92 78.1258 105.92ZM77.7516 110.847V106.715H78.5001V110.847H77.7516ZM83.8977 108.804C83.8977 108.867 83.8899 108.96 83.8821 109.031H80.5295C80.6231 109.756 81.2078 110.239 82.0265 110.239C82.5099 110.239 82.9153 110.075 83.2194 109.74L83.6326 110.223C83.2584 110.66 82.6892 110.894 82.0031 110.894C80.6699 110.894 79.781 110.013 79.781 108.781C79.781 107.557 80.6621 106.676 81.855 106.676C83.0479 106.676 83.8977 107.534 83.8977 108.804ZM81.855 107.307C81.1377 107.307 80.6075 107.791 80.5295 108.493H83.1804C83.1024 107.799 82.5801 107.307 81.855 107.307ZM86.356 110.894C85.6699 110.894 84.9916 110.683 84.6485 110.411L84.9604 109.818C85.3113 110.068 85.8726 110.247 86.4106 110.247C87.1045 110.247 87.393 110.036 87.393 109.685C87.393 108.758 84.7811 109.561 84.7811 107.916C84.7811 107.175 85.4438 106.676 86.5042 106.676C87.0421 106.676 87.6503 106.816 88.0089 107.05L87.6893 107.643C87.315 107.401 86.9018 107.315 86.4964 107.315C85.8414 107.315 85.5218 107.557 85.5218 107.884C85.5218 108.859 88.1415 108.064 88.1415 109.67C88.1415 110.418 87.4554 110.894 86.356 110.894ZM96.1606 110.434L95.7396 110.933L95.0145 110.208C94.5389 110.668 93.9151 110.91 93.1901 110.91C92.0829 110.91 91.2799 110.325 91.2799 109.491C91.2799 108.82 91.6619 108.352 92.6053 107.814C92.1141 107.323 91.9504 106.972 91.9504 106.567C91.9504 105.834 92.5273 105.343 93.424 105.343C94.2504 105.343 94.7806 105.772 94.7806 106.481C94.7806 107.035 94.4531 107.432 93.6189 107.908L94.9677 109.249C95.1158 108.968 95.2328 108.641 95.303 108.259L95.9033 108.454C95.8097 108.937 95.646 109.358 95.4277 109.701L96.1606 110.434ZM93.424 105.888C92.9328 105.888 92.6443 106.161 92.6443 106.551C92.6443 106.832 92.7534 107.035 93.1978 107.487C93.9151 107.081 94.149 106.832 94.149 106.489C94.149 106.13 93.8918 105.888 93.424 105.888ZM93.2368 110.286C93.7592 110.286 94.2192 110.114 94.5701 109.771L93.0185 108.227C92.2545 108.656 92.0128 108.976 92.0128 109.413C92.0128 109.935 92.5039 110.286 93.2368 110.286ZM102.095 110.91C100.442 110.91 99.2099 109.732 99.2099 108.118C99.2099 106.504 100.442 105.327 102.102 105.327C102.944 105.327 103.677 105.616 104.176 106.177L103.67 106.668C103.249 106.224 102.734 106.021 102.134 106.021C100.902 106.021 99.9895 106.91 99.9895 108.118C99.9895 109.327 100.902 110.216 102.134 110.216C102.734 110.216 103.249 110.005 103.67 109.561L104.176 110.052C103.677 110.613 102.944 110.91 102.095 110.91ZM107.008 110.894C105.768 110.894 104.856 110.013 104.856 108.781C104.856 107.549 105.768 106.676 107.008 106.676C108.248 106.676 109.152 107.549 109.152 108.781C109.152 110.013 108.248 110.894 107.008 110.894ZM107.008 110.239C107.803 110.239 108.396 109.662 108.396 108.781C108.396 107.9 107.803 107.331 107.008 107.331C106.213 107.331 105.612 107.9 105.612 108.781C105.612 109.662 106.213 110.239 107.008 110.239ZM110.421 110.847V105.062H111.17V110.847H110.421ZM112.833 110.847V105.062H113.581V110.847H112.833ZM116.749 106.676C117.879 106.676 118.519 107.222 118.519 108.352V110.847H117.809V110.301C117.56 110.676 117.1 110.894 116.453 110.894C115.517 110.894 114.925 110.395 114.925 109.678C114.925 109.015 115.353 108.469 116.585 108.469H117.77V108.321C117.77 107.69 117.404 107.323 116.663 107.323C116.172 107.323 115.673 107.495 115.353 107.767L115.041 107.206C115.47 106.863 116.086 106.676 116.749 106.676ZM116.577 110.317C117.139 110.317 117.583 110.06 117.77 109.584V109.007H116.616C115.876 109.007 115.665 109.296 115.665 109.646C115.665 110.06 116.008 110.317 116.577 110.317ZM122.329 106.676C123.537 106.676 124.418 107.518 124.418 108.781C124.418 110.044 123.537 110.894 122.329 110.894C121.721 110.894 121.19 110.66 120.855 110.192V110.847H120.138V105.062H120.886V107.339C121.229 106.894 121.744 106.676 122.329 106.676ZM122.266 110.239C123.062 110.239 123.662 109.662 123.662 108.781C123.662 107.9 123.062 107.331 122.266 107.331C121.479 107.331 120.878 107.9 120.878 108.781C120.878 109.662 121.479 110.239 122.266 110.239ZM126.871 110.894C126.185 110.894 125.507 110.683 125.164 110.411L125.476 109.818C125.827 110.068 126.388 110.247 126.926 110.247C127.62 110.247 127.908 110.036 127.908 109.685C127.908 108.758 125.296 109.561 125.296 107.916C125.296 107.175 125.959 106.676 127.019 106.676C127.557 106.676 128.166 106.816 128.524 107.05L128.205 107.643C127.83 107.401 127.417 107.315 127.012 107.315C126.357 107.315 126.037 107.557 126.037 107.884C126.037 108.859 128.657 108.064 128.657 109.67C128.657 110.418 127.971 110.894 126.871 110.894Z" fill="white"/>
<path d="M30.4895 135.588C31.9085 135.588 32.7661 136.306 32.7661 137.491C32.7661 138.676 31.9085 139.393 30.4895 139.393H29.1406V141.046H28.361V135.588H30.4895ZM30.4661 138.715C31.464 138.715 31.9864 138.27 31.9864 137.491C31.9864 136.711 31.464 136.267 30.4661 136.267H29.1406V138.715H30.4661ZM35.503 136.875C36.6335 136.875 37.2728 137.42 37.2728 138.551V141.046H36.5633V140.5C36.3138 140.874 35.8538 141.093 35.2067 141.093C34.2711 141.093 33.6785 140.594 33.6785 139.876C33.6785 139.214 34.1074 138.668 35.3392 138.668H36.5243V138.52C36.5243 137.888 36.1579 137.522 35.4172 137.522C34.926 137.522 34.427 137.693 34.1074 137.966L33.7955 137.405C34.2243 137.062 34.8403 136.875 35.503 136.875ZM35.3314 140.516C35.8928 140.516 36.3372 140.258 36.5243 139.783V139.206H35.3704C34.6297 139.206 34.4192 139.494 34.4192 139.845C34.4192 140.258 34.7623 140.516 35.3314 140.516ZM44.061 136.875C45.0668 136.875 45.7529 137.452 45.7529 138.668V141.046H45.0044V138.754C45.0044 137.943 44.6146 137.545 43.9363 137.545C43.1878 137.545 42.6966 138.021 42.6966 138.917V141.046H41.9481V138.754C41.9481 137.943 41.5583 137.545 40.88 137.545C40.1315 137.545 39.6403 138.021 39.6403 138.917V141.046H38.8918V136.914H39.6091V137.53C39.9054 137.109 40.4122 136.875 41.0359 136.875C41.6675 136.875 42.1976 137.124 42.4705 137.639C42.7824 137.171 43.3593 136.875 44.061 136.875ZM49.5549 136.875C50.7634 136.875 51.6444 137.717 51.6444 138.98C51.6444 140.251 50.7634 141.093 49.5549 141.093C48.9702 141.093 48.4556 140.867 48.1125 140.422V142.558H47.364V136.914H48.0813V137.569C48.4166 137.109 48.9468 136.875 49.5549 136.875ZM49.4925 140.438C50.2878 140.438 50.8881 139.861 50.8881 138.98C50.8881 138.107 50.2878 137.53 49.4925 137.53C48.7051 137.53 48.1047 138.107 48.1047 138.98C48.1047 139.861 48.7051 140.438 49.4925 140.438ZM52.9125 141.046V135.261H53.661V141.046H52.9125ZM59.0586 139.003C59.0586 139.066 59.0508 139.159 59.043 139.229H55.6904C55.784 139.954 56.3687 140.438 57.1874 140.438C57.6708 140.438 58.0762 140.274 58.3803 139.939L58.7935 140.422C58.4192 140.859 57.8501 141.093 57.164 141.093C55.8307 141.093 54.9419 140.212 54.9419 138.98C54.9419 137.756 55.8229 136.875 57.0158 136.875C58.2087 136.875 59.0586 137.732 59.0586 139.003ZM57.0158 137.506C56.2985 137.506 55.7684 137.99 55.6904 138.691H58.3413C58.2633 137.997 57.7409 137.506 57.0158 137.506ZM62.4213 140.266L62.6552 140.804C62.4291 140.999 62.0861 141.093 61.7508 141.093C60.9166 141.093 60.441 140.633 60.441 139.798V137.53H59.7393V136.914H60.441V136.009H61.1894V136.914H62.3745V137.53H61.1894V139.767C61.1894 140.212 61.4233 140.461 61.8366 140.461C62.0549 140.461 62.2654 140.391 62.4213 140.266ZM64.9791 141.093C64.293 141.093 63.6147 140.882 63.2716 140.609L63.5835 140.017C63.9344 140.266 64.4957 140.446 65.0337 140.446C65.7276 140.446 66.0161 140.235 66.0161 139.884C66.0161 138.956 63.4042 139.759 63.4042 138.114C63.4042 137.374 64.0669 136.875 65.1272 136.875C65.6652 136.875 66.2734 137.015 66.632 137.249L66.3123 137.841C65.9381 137.6 65.5249 137.514 65.1194 137.514C64.4645 137.514 64.1449 137.756 64.1449 138.083C64.1449 139.058 66.7645 138.262 66.7645 139.869C66.7645 140.617 66.0784 141.093 64.9791 141.093ZM74.7837 140.633L74.3627 141.132L73.6376 140.407C73.162 140.867 72.5382 141.108 71.8131 141.108C70.706 141.108 69.903 140.524 69.903 139.689C69.903 139.019 70.285 138.551 71.2284 138.013C70.7372 137.522 70.5735 137.171 70.5735 136.766C70.5735 136.033 71.1504 135.541 72.047 135.541C72.8735 135.541 73.4037 135.97 73.4037 136.68C73.4037 137.233 73.0762 137.631 72.242 138.107L73.5908 139.448C73.7389 139.167 73.8559 138.839 73.926 138.457L74.5264 138.652C74.4328 139.136 74.2691 139.557 74.0508 139.9L74.7837 140.633ZM72.047 136.087C71.5559 136.087 71.2674 136.36 71.2674 136.75C71.2674 137.031 71.3765 137.233 71.8209 137.686C72.5382 137.28 72.7721 137.031 72.7721 136.688C72.7721 136.329 72.5148 136.087 72.047 136.087ZM71.8599 140.485C72.3823 140.485 72.8423 140.313 73.1932 139.97L71.6416 138.426C70.8775 138.855 70.6358 139.175 70.6358 139.611C70.6358 140.134 71.127 140.485 71.8599 140.485ZM82.2381 135.588H83.0178L80.6242 141.046H79.8523L77.4509 135.588H78.293L80.2577 140.071L82.2381 135.588ZM85.2962 141.093C84.0565 141.093 83.1443 140.212 83.1443 138.98C83.1443 137.748 84.0565 136.875 85.2962 136.875C86.5358 136.875 87.4402 137.748 87.4402 138.98C87.4402 140.212 86.5358 141.093 85.2962 141.093ZM85.2962 140.438C86.0914 140.438 86.684 139.861 86.684 138.98C86.684 138.099 86.0914 137.53 85.2962 137.53C84.5009 137.53 83.9005 138.099 83.9005 138.98C83.9005 139.861 84.5009 140.438 85.2962 140.438ZM91.8123 136.914H92.5608V141.046H91.8513V140.422C91.5473 140.851 91.0327 141.093 90.4479 141.093C89.3798 141.093 88.6703 140.508 88.6703 139.292V136.914H89.4188V139.206C89.4188 140.017 89.8242 140.422 90.5337 140.422C91.3134 140.422 91.8123 139.939 91.8123 139.05V136.914ZM96.0207 141.093C94.7498 141.093 93.8376 140.212 93.8376 138.98C93.8376 137.748 94.7498 136.875 96.0207 136.875C96.7614 136.875 97.3773 137.179 97.7048 137.756L97.1356 138.122C96.8705 137.717 96.4651 137.53 96.0129 137.53C95.202 137.53 94.5939 138.099 94.5939 138.98C94.5939 139.876 95.202 140.438 96.0129 140.438C96.4651 140.438 96.8705 140.251 97.1356 139.845L97.7048 140.204C97.3773 140.781 96.7614 141.093 96.0207 141.093ZM101.061 136.875C102.067 136.875 102.776 137.452 102.776 138.668V141.046H102.028V138.754C102.028 137.943 101.622 137.545 100.913 137.545C100.117 137.545 99.6029 138.021 99.6029 138.917V141.046H98.8544V135.261H99.6029V137.498C99.9147 137.101 100.429 136.875 101.061 136.875ZM108.153 139.003C108.153 139.066 108.145 139.159 108.137 139.229H104.784C104.878 139.954 105.463 140.438 106.281 140.438C106.765 140.438 107.17 140.274 107.474 139.939L107.888 140.422C107.513 140.859 106.944 141.093 106.258 141.093C104.925 141.093 104.036 140.212 104.036 138.98C104.036 137.756 104.917 136.875 106.11 136.875C107.303 136.875 108.153 137.732 108.153 139.003ZM106.11 137.506C105.393 137.506 104.862 137.99 104.784 138.691H107.435C107.357 137.997 106.835 137.506 106.11 137.506ZM110.143 137.608C110.408 137.124 110.923 136.875 111.648 136.875V137.6C111.586 137.592 111.531 137.592 111.476 137.592C110.673 137.592 110.174 138.083 110.174 138.988V141.046H109.426V136.914H110.143V137.608ZM114.02 141.093C113.334 141.093 112.655 140.882 112.312 140.609L112.624 140.017C112.975 140.266 113.537 140.446 114.074 140.446C114.768 140.446 115.057 140.235 115.057 139.884C115.057 138.956 112.445 139.759 112.445 138.114C112.445 137.374 113.108 136.875 114.168 136.875C114.706 136.875 115.314 137.015 115.673 137.249L115.353 137.841C114.979 137.6 114.566 137.514 114.16 137.514C113.505 137.514 113.186 137.756 113.186 138.083C113.186 139.058 115.805 138.262 115.805 139.869C115.805 140.617 115.119 141.093 114.02 141.093Z" fill="white"/>
<path d="M13.7908 170.566H16.9718V171.245H13.0111V165.787H16.8627V166.465H13.7908V168.142H16.5274V168.804H13.7908V170.566ZM21.2143 167.112H21.9471L20.1383 171.245H19.3742L17.5654 167.112H18.3451L19.7641 170.426L21.2143 167.112ZM26.5 169.202C26.5 169.264 26.4922 169.358 26.4844 169.428H23.1318C23.2254 170.153 23.8101 170.636 24.6288 170.636C25.1122 170.636 25.5176 170.473 25.8217 170.138L26.2349 170.621C25.8606 171.058 25.2915 171.291 24.6054 171.291C23.2721 171.291 22.3833 170.41 22.3833 169.179C22.3833 167.954 23.2644 167.073 24.4572 167.073C25.6501 167.073 26.5 167.931 26.5 169.202ZM24.4572 167.705C23.7399 167.705 23.2098 168.188 23.1318 168.89H25.7827C25.7047 168.196 25.1823 167.705 24.4572 167.705ZM29.9797 167.073C30.9854 167.073 31.6949 167.65 31.6949 168.867V171.245H30.9465V168.952C30.9465 168.142 30.541 167.744 29.8315 167.744C29.0363 167.744 28.5217 168.22 28.5217 169.116V171.245H27.7732V167.112H28.4905V167.736C28.7946 167.315 29.3247 167.073 29.9797 167.073ZM35.4035 170.465L35.6374 171.003C35.4113 171.198 35.0683 171.291 34.733 171.291C33.8988 171.291 33.4232 170.831 33.4232 169.997V167.728H32.7215V167.112H33.4232V166.208H34.1717V167.112H35.3568V167.728H34.1717V169.966C34.1717 170.41 34.4056 170.66 34.8188 170.66C35.0371 170.66 35.2476 170.59 35.4035 170.465ZM39.2131 171.245V165.787H41.5131C43.2674 165.787 44.4603 166.894 44.4603 168.516C44.4603 170.138 43.2674 171.245 41.5131 171.245H39.2131ZM39.9928 170.566H41.4664C42.8152 170.566 43.6806 169.74 43.6806 168.516C43.6806 167.292 42.8152 166.465 41.4664 166.465H39.9928V170.566ZM47.284 167.073C48.4145 167.073 49.0539 167.619 49.0539 168.75V171.245H48.3444V170.699C48.0949 171.073 47.6349 171.291 46.9878 171.291C46.0522 171.291 45.4596 170.792 45.4596 170.075C45.4596 169.412 45.8884 168.867 47.1203 168.867H48.3054V168.719C48.3054 168.087 47.939 167.721 47.1983 167.721C46.7071 167.721 46.2081 167.892 45.8884 168.165L45.5766 167.604C46.0054 167.261 46.6213 167.073 47.284 167.073ZM47.1125 170.714C47.6739 170.714 48.1183 170.457 48.3054 169.982V169.405H47.1515C46.4108 169.405 46.2003 169.693 46.2003 170.044C46.2003 170.457 46.5433 170.714 47.1125 170.714ZM53.5205 167.112H54.2534L52.2497 171.658C51.8832 172.531 51.4076 172.804 50.7761 172.804C50.3785 172.804 49.973 172.671 49.7157 172.422L50.0354 171.861C50.2381 172.055 50.4954 172.165 50.7761 172.165C51.1347 172.165 51.3608 172.001 51.5636 171.525L51.6961 171.237L49.8717 167.112H50.6513L52.0937 170.418L53.5205 167.112ZM61.5834 165.787H62.3631L59.9695 171.245H59.1977L56.7963 165.787H57.6383L59.6031 170.27L61.5834 165.787ZM63.5657 166.317C63.2772 166.317 63.0589 166.107 63.0589 165.834C63.0589 165.561 63.2772 165.343 63.5657 165.343C63.8542 165.343 64.0725 165.553 64.0725 165.818C64.0725 166.099 63.862 166.317 63.5657 166.317ZM63.1914 171.245V167.112H63.9399V171.245H63.1914ZM68.7528 165.459H69.5013V171.245H68.784V170.59C68.4487 171.058 67.9186 171.291 67.3104 171.291C66.1019 171.291 65.2209 170.442 65.2209 169.179C65.2209 167.915 66.1019 167.073 67.3104 167.073C67.8952 167.073 68.4097 167.292 68.7528 167.736V165.459ZM67.3728 170.636C68.1602 170.636 68.7606 170.06 68.7606 169.179C68.7606 168.297 68.1602 167.728 67.3728 167.728C66.5775 167.728 65.9772 168.297 65.9772 169.179C65.9772 170.06 66.5775 170.636 67.3728 170.636ZM74.886 169.202C74.886 169.264 74.8782 169.358 74.8704 169.428H71.5178C71.6114 170.153 72.1961 170.636 73.0148 170.636C73.4982 170.636 73.9036 170.473 74.2077 170.138L74.6209 170.621C74.2467 171.058 73.6775 171.291 72.9914 171.291C71.6582 171.291 70.7693 170.41 70.7693 169.179C70.7693 167.954 71.6504 167.073 72.8432 167.073C74.0361 167.073 74.886 167.931 74.886 169.202ZM72.8432 167.705C72.126 167.705 71.5958 168.188 71.5178 168.89H74.1687C74.0907 168.196 73.5683 167.705 72.8432 167.705ZM77.9291 171.291C76.6894 171.291 75.7772 170.41 75.7772 169.179C75.7772 167.947 76.6894 167.073 77.9291 167.073C79.1687 167.073 80.0731 167.947 80.0731 169.179C80.0731 170.41 79.1687 171.291 77.9291 171.291ZM77.9291 170.636C78.7243 170.636 79.3169 170.06 79.3169 169.179C79.3169 168.297 78.7243 167.728 77.9291 167.728C77.1338 167.728 76.5335 168.297 76.5335 169.179C76.5335 170.06 77.1338 170.636 77.9291 170.636ZM85.9076 165.787C87.3266 165.787 88.1842 166.504 88.1842 167.689C88.1842 168.874 87.3266 169.592 85.9076 169.592H84.5587V171.245H83.7791V165.787H85.9076ZM85.8842 168.913C86.8821 168.913 87.4045 168.469 87.4045 167.689C87.4045 166.91 86.8821 166.465 85.8842 166.465H84.5587V168.913H85.8842ZM90.1031 167.806C90.3682 167.323 90.8828 167.073 91.6079 167.073V167.798C91.5455 167.791 91.491 167.791 91.4364 167.791C90.6333 167.791 90.1343 168.282 90.1343 169.186V171.245H89.3859V167.112H90.1031V167.806ZM94.4961 171.291C93.2564 171.291 92.3442 170.41 92.3442 169.179C92.3442 167.947 93.2564 167.073 94.4961 167.073C95.7358 167.073 96.6402 167.947 96.6402 169.179C96.6402 170.41 95.7358 171.291 94.4961 171.291ZM94.4961 170.636C95.2914 170.636 95.8839 170.06 95.8839 169.179C95.8839 168.297 95.2914 167.728 94.4961 167.728C93.7008 167.728 93.1005 168.297 93.1005 169.179C93.1005 170.06 93.7008 170.636 94.4961 170.636ZM103.078 167.073C104.084 167.073 104.77 167.65 104.77 168.867V171.245H104.022V168.952C104.022 168.142 103.632 167.744 102.954 167.744C102.205 167.744 101.714 168.22 101.714 169.116V171.245H100.966V168.952C100.966 168.142 100.576 167.744 99.8974 167.744C99.1489 167.744 98.6577 168.22 98.6577 169.116V171.245H97.9092V167.112H98.6265V167.728C98.9228 167.307 99.4296 167.073 100.053 167.073C100.685 167.073 101.215 167.323 101.488 167.837C101.8 167.37 102.377 167.073 103.078 167.073ZM108.174 171.291C106.934 171.291 106.022 170.41 106.022 169.179C106.022 167.947 106.934 167.073 108.174 167.073C109.414 167.073 110.318 167.947 110.318 169.179C110.318 170.41 109.414 171.291 108.174 171.291ZM108.174 170.636C108.969 170.636 109.562 170.06 109.562 169.179C109.562 168.297 108.969 167.728 108.174 167.728C107.379 167.728 106.778 168.297 106.778 169.179C106.778 170.06 107.379 170.636 108.174 170.636ZM113.677 170.465L113.911 171.003C113.685 171.198 113.341 171.291 113.006 171.291C112.172 171.291 111.696 170.831 111.696 169.997V167.728H110.995V167.112H111.696V166.208H112.445V167.112H113.63V167.728H112.445V169.966C112.445 170.41 112.679 170.66 113.092 170.66C113.31 170.66 113.521 170.59 113.677 170.465ZM115.424 166.317C115.135 166.317 114.917 166.107 114.917 165.834C114.917 165.561 115.135 165.343 115.424 165.343C115.712 165.343 115.93 165.553 115.93 165.818C115.93 166.099 115.72 166.317 115.424 166.317ZM115.049 171.245V167.112H115.798V171.245H115.049ZM119.231 171.291C117.991 171.291 117.079 170.41 117.079 169.179C117.079 167.947 117.991 167.073 119.231 167.073C120.47 167.073 121.375 167.947 121.375 169.179C121.375 170.41 120.47 171.291 119.231 171.291ZM119.231 170.636C120.026 170.636 120.619 170.06 120.619 169.179C120.619 168.297 120.026 167.728 119.231 167.728C118.435 167.728 117.835 168.297 117.835 169.179C117.835 170.06 118.435 170.636 119.231 170.636ZM124.85 167.073C125.856 167.073 126.566 167.65 126.566 168.867V171.245H125.817V168.952C125.817 168.142 125.412 167.744 124.702 167.744C123.907 167.744 123.392 168.22 123.392 169.116V171.245H122.644V167.112H123.361V167.736C123.665 167.315 124.195 167.073 124.85 167.073ZM129.37 171.291C128.684 171.291 128.005 171.081 127.662 170.808L127.974 170.215C128.325 170.465 128.886 170.644 129.424 170.644C130.118 170.644 130.407 170.434 130.407 170.083C130.407 169.155 127.795 169.958 127.795 168.313C127.795 167.572 128.458 167.073 129.518 167.073C130.056 167.073 130.664 167.214 131.023 167.448L130.703 168.04C130.329 167.798 129.916 167.713 129.51 167.713C128.855 167.713 128.536 167.954 128.536 168.282C128.536 169.256 131.155 168.461 131.155 170.067C131.155 170.816 130.469 171.291 129.37 171.291Z" fill="white"/>
<path d="M42.567 201.443H41.7171L40.5398 199.767C40.4307 199.775 40.3137 199.783 40.1968 199.783H38.848V201.443H38.0683V195.986H40.1968C41.6158 195.986 42.4734 196.703 42.4734 197.888C42.4734 198.73 42.0368 199.338 41.2727 199.611L42.567 201.443ZM40.1734 199.12C41.1714 199.12 41.6937 198.668 41.6937 197.888C41.6937 197.108 41.1714 196.664 40.1734 196.664H38.848V199.12H40.1734ZM47.5924 199.401C47.5924 199.463 47.5846 199.557 47.5768 199.627H44.2243C44.3178 200.352 44.9026 200.835 45.7212 200.835C46.2046 200.835 46.61 200.671 46.9141 200.336L47.3273 200.82C46.9531 201.256 46.3839 201.49 45.6978 201.49C44.3646 201.49 43.4758 200.609 43.4758 199.377C43.4758 198.153 44.3568 197.272 45.5497 197.272C46.7426 197.272 47.5924 198.13 47.5924 199.401ZM45.5497 197.904C44.8324 197.904 44.3022 198.387 44.2243 199.089H46.8751C46.7972 198.395 46.2748 197.904 45.5497 197.904ZM52.6003 199.401C52.6003 199.463 52.5925 199.557 52.5847 199.627H49.2321C49.3257 200.352 49.9104 200.835 50.7291 200.835C51.2125 200.835 51.6179 200.671 51.922 200.336L52.3352 200.82C51.9609 201.256 51.3918 201.49 50.7057 201.49C49.3724 201.49 48.4836 200.609 48.4836 199.377C48.4836 198.153 49.3646 197.272 50.5575 197.272C51.7504 197.272 52.6003 198.13 52.6003 199.401ZM50.5575 197.904C49.8402 197.904 49.3101 198.387 49.2321 199.089H51.883C51.805 198.395 51.2826 197.904 50.5575 197.904ZM53.8735 201.443V195.658H54.622V201.443H53.8735ZM60.8504 195.986C62.2694 195.986 63.127 196.703 63.127 197.888C63.127 199.073 62.2694 199.79 60.8504 199.79H59.5015V201.443H58.7219V195.986H60.8504ZM60.827 199.112C61.825 199.112 62.3473 198.668 62.3473 197.888C62.3473 197.108 61.825 196.664 60.827 196.664H59.5015V199.112H60.827ZM65.046 198.005C65.311 197.522 65.8256 197.272 66.5507 197.272V197.997C66.4883 197.989 66.4338 197.989 66.3792 197.989C65.5761 197.989 65.0771 198.481 65.0771 199.385V201.443H64.3287V197.311H65.046V198.005ZM69.4389 201.49C68.1992 201.49 67.287 200.609 67.287 199.377C67.287 198.145 68.1992 197.272 69.4389 197.272C70.6786 197.272 71.583 198.145 71.583 199.377C71.583 200.609 70.6786 201.49 69.4389 201.49ZM69.4389 200.835C70.2342 200.835 70.8267 200.258 70.8267 199.377C70.8267 198.496 70.2342 197.927 69.4389 197.927C68.6436 197.927 68.0433 198.496 68.0433 199.377C68.0433 200.258 68.6436 200.835 69.4389 200.835ZM78.0212 197.272C79.027 197.272 79.7131 197.849 79.7131 199.065V201.443H78.9646V199.151C78.9646 198.34 78.5748 197.943 77.8965 197.943C77.148 197.943 76.6568 198.418 76.6568 199.315V201.443H75.9083V199.151C75.9083 198.34 75.5185 197.943 74.8402 197.943C74.0917 197.943 73.6005 198.418 73.6005 199.315V201.443H72.852V197.311H73.5693V197.927C73.8656 197.506 74.3724 197.272 74.9961 197.272C75.6276 197.272 76.1578 197.522 76.4307 198.036C76.7426 197.568 77.3195 197.272 78.0212 197.272ZM83.1169 201.49C81.8772 201.49 80.965 200.609 80.965 199.377C80.965 198.145 81.8772 197.272 83.1169 197.272C84.3566 197.272 85.261 198.145 85.261 199.377C85.261 200.609 84.3566 201.49 83.1169 201.49ZM83.1169 200.835C83.9122 200.835 84.5047 200.258 84.5047 199.377C84.5047 198.496 83.9122 197.927 83.1169 197.927C82.3216 197.927 81.7213 198.496 81.7213 199.377C81.7213 200.258 82.3216 200.835 83.1169 200.835ZM88.6195 200.664L88.8534 201.202C88.6273 201.397 88.2843 201.49 87.949 201.49C87.1148 201.49 86.6392 201.03 86.6392 200.196V197.927H85.9375V197.311H86.6392V196.407H87.3876V197.311H88.5727V197.927H87.3876V200.165C87.3876 200.609 87.6215 200.859 88.0348 200.859C88.2531 200.859 88.4636 200.788 88.6195 200.664ZM90.3665 196.516C90.078 196.516 89.8597 196.305 89.8597 196.032C89.8597 195.76 90.078 195.541 90.3665 195.541C90.6549 195.541 90.8733 195.752 90.8733 196.017C90.8733 196.298 90.6627 196.516 90.3665 196.516ZM89.9922 201.443V197.311H90.7407V201.443H89.9922ZM94.1736 201.49C92.9339 201.49 92.0217 200.609 92.0217 199.377C92.0217 198.145 92.9339 197.272 94.1736 197.272C95.4132 197.272 96.3176 198.145 96.3176 199.377C96.3176 200.609 95.4132 201.49 94.1736 201.49ZM94.1736 200.835C94.9688 200.835 95.5614 200.258 95.5614 199.377C95.5614 198.496 94.9688 197.927 94.1736 197.927C93.3783 197.927 92.778 198.496 92.778 199.377C92.778 200.258 93.3783 200.835 94.1736 200.835ZM99.7931 197.272C100.799 197.272 101.508 197.849 101.508 199.065V201.443H100.76V199.151C100.76 198.34 100.355 197.943 99.645 197.943C98.8497 197.943 98.3352 198.418 98.3352 199.315V201.443H97.5867V197.311H98.304V197.935C98.608 197.514 99.1382 197.272 99.7931 197.272ZM104.313 201.49C103.626 201.49 102.948 201.28 102.605 201.007L102.917 200.414C103.268 200.664 103.829 200.843 104.367 200.843C105.061 200.843 105.35 200.633 105.35 200.282C105.35 199.354 102.738 200.157 102.738 198.512C102.738 197.771 103.4 197.272 104.461 197.272C104.999 197.272 105.607 197.412 105.965 197.646L105.646 198.239C105.272 197.997 104.858 197.911 104.453 197.911C103.798 197.911 103.478 198.153 103.478 198.481C103.478 199.455 106.098 198.66 106.098 200.266C106.098 201.015 105.412 201.49 104.313 201.49Z" fill="white"/>
<path d="M9.49803 230.964H12.6791V231.643H8.71837V226.185H12.5699V226.863H9.49803V228.539H12.2347V229.202H9.49803V230.964ZM19.2355 227.471C20.2412 227.471 20.9274 228.048 20.9274 229.265V231.643H20.1789V229.35C20.1789 228.539 19.789 228.142 19.1107 228.142C18.3622 228.142 17.8711 228.617 17.8711 229.514V231.643H17.1226V229.35C17.1226 228.539 16.7327 228.142 16.0544 228.142C15.306 228.142 14.8148 228.617 14.8148 229.514V231.643H14.0663V227.51H14.7836V228.126C15.0798 227.705 15.5866 227.471 16.2104 227.471C16.8419 227.471 17.3721 227.721 17.645 228.235C17.9568 227.768 18.5338 227.471 19.2355 227.471ZM24.0432 227.471C25.1737 227.471 25.8131 228.017 25.8131 229.148V231.643H25.1036V231.097C24.8541 231.471 24.3941 231.689 23.747 231.689C22.8114 231.689 22.2188 231.19 22.2188 230.473C22.2188 229.81 22.6476 229.265 23.8795 229.265H25.0646V229.116C25.0646 228.485 24.6981 228.118 23.9575 228.118C23.4663 228.118 22.9673 228.29 22.6476 228.563L22.3358 228.002C22.7646 227.658 23.3805 227.471 24.0432 227.471ZM23.8717 231.112C24.4331 231.112 24.8775 230.855 25.0646 230.38V229.803H23.9107C23.17 229.803 22.9595 230.091 22.9595 230.442C22.9595 230.855 23.3025 231.112 23.8717 231.112ZM27.8063 226.715C27.5179 226.715 27.2996 226.505 27.2996 226.232C27.2996 225.959 27.5179 225.74 27.8063 225.74C28.0948 225.74 28.3131 225.951 28.3131 226.216C28.3131 226.497 28.1026 226.715 27.8063 226.715ZM27.4321 231.643V227.51H28.1806V231.643H27.4321ZM29.8436 231.643V225.857H30.5921V231.643H29.8436ZM39.752 227.471C40.7578 227.471 41.4439 228.048 41.4439 229.265V231.643H40.6954V229.35C40.6954 228.539 40.3056 228.142 39.6273 228.142C38.8788 228.142 38.3876 228.617 38.3876 229.514V231.643H37.6391V229.35C37.6391 228.539 37.2493 228.142 36.571 228.142C35.8225 228.142 35.3313 228.617 35.3313 229.514V231.643H34.5828V227.51H35.3001V228.126C35.5964 227.705 36.1032 227.471 36.7269 227.471C37.3584 227.471 37.8886 227.721 38.1615 228.235C38.4734 227.768 39.0503 227.471 39.752 227.471ZM46.8125 229.6C46.8125 229.662 46.8047 229.756 46.7969 229.826H43.4443C43.5378 230.551 44.1226 231.034 44.9412 231.034C45.4246 231.034 45.8301 230.871 46.1341 230.535L46.5474 231.019C46.1731 231.455 45.604 231.689 44.9179 231.689C43.5846 231.689 42.6958 230.808 42.6958 229.576C42.6958 228.352 43.5768 227.471 44.7697 227.471C45.9626 227.471 46.8125 228.329 46.8125 229.6ZM44.7697 228.103C44.0524 228.103 43.5223 228.586 43.4443 229.288H46.0952C46.0172 228.594 45.4948 228.103 44.7697 228.103ZM50.2921 227.471C51.2979 227.471 52.0074 228.048 52.0074 229.265V231.643H51.2589V229.35C51.2589 228.539 50.8535 228.142 50.144 228.142C49.3487 228.142 48.8342 228.617 48.8342 229.514V231.643H48.0857V227.51H48.803V228.134C49.107 227.713 49.6372 227.471 50.2921 227.471ZM55.716 230.863L55.9499 231.401C55.7238 231.596 55.3808 231.689 55.0455 231.689C54.2113 231.689 53.7357 231.229 53.7357 230.395V228.126H53.034V227.51H53.7357V226.606H54.4841V227.51H55.6692V228.126H54.4841V230.364C54.4841 230.808 54.718 231.058 55.1313 231.058C55.3496 231.058 55.5601 230.988 55.716 230.863ZM57.463 226.715C57.1745 226.715 56.9562 226.505 56.9562 226.232C56.9562 225.959 57.1745 225.74 57.463 225.74C57.7514 225.74 57.9697 225.951 57.9697 226.216C57.9697 226.497 57.7592 226.715 57.463 226.715ZM57.0887 231.643V227.51H57.8372V231.643H57.0887ZM61.2701 231.689C60.0304 231.689 59.1182 230.808 59.1182 229.576C59.1182 228.345 60.0304 227.471 61.2701 227.471C62.5097 227.471 63.4141 228.345 63.4141 229.576C63.4141 230.808 62.5097 231.689 61.2701 231.689ZM61.2701 231.034C62.0653 231.034 62.6579 230.457 62.6579 229.576C62.6579 228.695 62.0653 228.126 61.2701 228.126C60.4748 228.126 59.8744 228.695 59.8744 229.576C59.8744 230.457 60.4748 231.034 61.2701 231.034ZM66.8896 227.471C67.8954 227.471 68.6049 228.048 68.6049 229.265V231.643H67.8564V229.35C67.8564 228.539 67.451 228.142 66.7415 228.142C65.9462 228.142 65.4316 228.617 65.4316 229.514V231.643H64.6832V227.51H65.4005V228.134C65.7045 227.713 66.2347 227.471 66.8896 227.471ZM71.4091 231.689C70.723 231.689 70.0447 231.479 69.7016 231.206L70.0135 230.613C70.3643 230.863 70.9257 231.042 71.4637 231.042C72.1576 231.042 72.446 230.832 72.446 230.481C72.446 229.553 69.8342 230.356 69.8342 228.711C69.8342 227.97 70.4969 227.471 71.5572 227.471C72.0952 227.471 72.7033 227.612 73.062 227.846L72.7423 228.438C72.3681 228.196 71.9549 228.111 71.5494 228.111C70.8945 228.111 70.5748 228.352 70.5748 228.68C70.5748 229.654 73.1945 228.859 73.1945 230.465C73.1945 231.214 72.5084 231.689 71.4091 231.689ZM78.7811 230.863L79.015 231.401C78.7889 231.596 78.4458 231.689 78.1106 231.689C77.2763 231.689 76.8007 231.229 76.8007 230.395V228.126H76.099V227.51H76.8007V226.606H77.5492V227.51H78.7343V228.126H77.5492V230.364C77.5492 230.808 77.7831 231.058 78.1963 231.058C78.4146 231.058 78.6252 230.988 78.7811 230.863ZM81.7866 231.689C80.5469 231.689 79.6347 230.808 79.6347 229.576C79.6347 228.345 80.5469 227.471 81.7866 227.471C83.0263 227.471 83.9307 228.345 83.9307 229.576C83.9307 230.808 83.0263 231.689 81.7866 231.689ZM81.7866 231.034C82.5818 231.034 83.1744 230.457 83.1744 229.576C83.1744 228.695 82.5818 228.126 81.7866 228.126C80.9913 228.126 80.391 228.695 80.391 229.576C80.391 230.457 80.9913 231.034 81.7866 231.034ZM89.0322 227.471C90.1627 227.471 90.802 228.017 90.802 229.148V231.643H90.0925V231.097C89.843 231.471 89.383 231.689 88.7359 231.689C87.8003 231.689 87.2078 231.19 87.2078 230.473C87.2078 229.81 87.6366 229.265 88.8685 229.265H90.0536V229.116C90.0536 228.485 89.6871 228.118 88.9464 228.118C88.4552 228.118 87.9562 228.29 87.6366 228.563L87.3247 228.002C87.7535 227.658 88.3695 227.471 89.0322 227.471ZM88.8607 231.112C89.422 231.112 89.8664 230.855 90.0536 230.38V229.803H88.8996C88.159 229.803 87.9485 230.091 87.9485 230.442C87.9485 230.855 88.2915 231.112 88.8607 231.112ZM92.4211 231.643V225.857H93.1696V231.643H92.4211ZM94.8326 231.643V225.857H95.581V231.643H94.8326ZM100.757 231.689C100.071 231.689 99.3925 231.479 99.0494 231.206L99.3613 230.613C99.7121 230.863 100.273 231.042 100.811 231.042C101.505 231.042 101.794 230.832 101.794 230.481C101.794 229.553 99.182 230.356 99.182 228.711C99.182 227.97 99.8447 227.471 100.905 227.471C101.443 227.471 102.051 227.612 102.41 227.846L102.09 228.438C101.716 228.196 101.303 228.111 100.897 228.111C100.242 228.111 99.9226 228.352 99.9226 228.68C99.9226 229.654 102.542 228.859 102.542 230.465C102.542 231.214 101.856 231.689 100.757 231.689ZM105.801 230.863L106.035 231.401C105.809 231.596 105.466 231.689 105.131 231.689C104.296 231.689 103.821 231.229 103.821 230.395V228.126H103.119V227.51H103.821V226.606H104.569V227.51H105.754V228.126H104.569V230.364C104.569 230.808 104.803 231.058 105.216 231.058C105.435 231.058 105.645 230.988 105.801 230.863ZM110.277 227.51H111.025V231.643H110.316V231.019C110.012 231.448 109.497 231.689 108.913 231.689C107.844 231.689 107.135 231.105 107.135 229.888V227.51H107.883V229.803C107.883 230.613 108.289 231.019 108.998 231.019C109.778 231.019 110.277 230.535 110.277 229.647V227.51ZM115.834 225.857H116.583V231.643H115.865V230.988C115.53 231.455 115 231.689 114.392 231.689C113.183 231.689 112.302 230.84 112.302 229.576C112.302 228.313 113.183 227.471 114.392 227.471C114.976 227.471 115.491 227.69 115.834 228.134V225.857ZM114.454 231.034C115.242 231.034 115.842 230.457 115.842 229.576C115.842 228.695 115.242 228.126 114.454 228.126C113.659 228.126 113.058 228.695 113.058 229.576C113.058 230.457 113.659 231.034 114.454 231.034ZM121.967 229.6C121.967 229.662 121.959 229.756 121.952 229.826H118.599C118.693 230.551 119.277 231.034 120.096 231.034C120.579 231.034 120.985 230.871 121.289 230.535L121.702 231.019C121.328 231.455 120.759 231.689 120.073 231.689C118.739 231.689 117.851 230.808 117.851 229.576C117.851 228.352 118.732 227.471 119.925 227.471C121.117 227.471 121.967 228.329 121.967 229.6ZM119.925 228.103C119.207 228.103 118.677 228.586 118.599 229.288H121.25C121.172 228.594 120.65 228.103 119.925 228.103ZM125.447 227.471C126.453 227.471 127.162 228.048 127.162 229.265V231.643H126.414V229.35C126.414 228.539 126.008 228.142 125.299 228.142C124.504 228.142 123.989 228.617 123.989 229.514V231.643H123.24V227.51H123.958V228.134C124.262 227.713 124.792 227.471 125.447 227.471ZM130.871 230.863L131.105 231.401C130.879 231.596 130.536 231.689 130.2 231.689C129.366 231.689 128.89 231.229 128.89 230.395V228.126H128.189V227.51H128.89V226.606H129.639V227.51H130.824V228.126H129.639V230.364C129.639 230.808 129.873 231.058 130.286 231.058C130.504 231.058 130.715 230.988 130.871 230.863ZM133.429 231.689C132.743 231.689 132.064 231.479 131.721 231.206L132.033 230.613C132.384 230.863 132.945 231.042 133.483 231.042C134.177 231.042 134.466 230.832 134.466 230.481C134.466 229.553 131.854 230.356 131.854 228.711C131.854 227.97 132.516 227.471 133.577 227.471C134.115 227.471 134.723 227.612 135.082 227.846L134.762 228.438C134.388 228.196 133.974 228.111 133.569 228.111C132.914 228.111 132.594 228.352 132.594 228.68C132.594 229.654 135.214 228.859 135.214 230.465C135.214 231.214 134.528 231.689 133.429 231.689ZM19.777 240.689C18.5373 240.689 17.6251 239.808 17.6251 238.576C17.6251 237.345 18.5373 236.471 19.777 236.471C21.0166 236.471 21.921 237.345 21.921 238.576C21.921 239.808 21.0166 240.689 19.777 240.689ZM19.777 240.034C20.5722 240.034 21.1648 239.457 21.1648 238.576C21.1648 237.695 20.5722 237.126 19.777 237.126C18.9817 237.126 18.3813 237.695 18.3813 238.576C18.3813 239.457 18.9817 240.034 19.777 240.034ZM24.7026 235.427C24.2582 235.427 24.0321 235.676 24.0321 236.152V236.51H25.2328V237.126H24.0477V240.643H23.2992V237.126H22.5975V236.51H23.2992V236.144C23.2992 235.341 23.7826 234.811 24.6636 234.811C24.9833 234.811 25.2952 234.889 25.5057 235.052L25.2796 235.622C25.1236 235.505 24.9209 235.427 24.7026 235.427ZM30.5898 239.863L30.8237 240.401C30.5976 240.596 30.2546 240.689 29.9193 240.689C29.0851 240.689 28.6095 240.229 28.6095 239.395V237.126H27.9078V236.51H28.6095V235.606H29.358V236.51H30.5431V237.126H29.358V239.364C29.358 239.808 29.5919 240.058 30.0051 240.058C30.2234 240.058 30.4339 239.988 30.5898 239.863ZM34.169 236.471C35.1748 236.471 35.8843 237.048 35.8843 238.265V240.643H35.1358V238.35C35.1358 237.539 34.7304 237.142 34.0209 237.142C33.2256 237.142 32.711 237.617 32.711 238.514V240.643H31.9625V234.857H32.711V237.095C33.0229 236.697 33.5375 236.471 34.169 236.471ZM41.2608 238.6C41.2608 238.662 41.253 238.756 41.2452 238.826H37.8927C37.9862 239.551 38.571 240.034 39.3896 240.034C39.873 240.034 40.2784 239.871 40.5825 239.535L40.9957 240.019C40.6215 240.455 40.0523 240.689 39.3662 240.689C38.033 240.689 37.1442 239.808 37.1442 238.576C37.1442 237.352 38.0252 236.471 39.2181 236.471C40.411 236.471 41.2608 237.329 41.2608 238.6ZM39.2181 237.103C38.5008 237.103 37.9706 237.586 37.8927 238.288H40.5435C40.4656 237.594 39.9432 237.103 39.2181 237.103ZM46.6628 240.689C45.392 240.689 44.4798 239.808 44.4798 238.576C44.4798 237.345 45.392 236.471 46.6628 236.471C47.4035 236.471 48.0194 236.775 48.3469 237.352L47.7777 237.719C47.5127 237.313 47.1072 237.126 46.655 237.126C45.8442 237.126 45.236 237.695 45.236 238.576C45.236 239.473 45.8442 240.034 46.655 240.034C47.1072 240.034 47.5127 239.847 47.7777 239.442L48.3469 239.801C48.0194 240.377 47.4035 240.689 46.6628 240.689ZM51.2588 240.689C50.0191 240.689 49.1069 239.808 49.1069 238.576C49.1069 237.345 50.0191 236.471 51.2588 236.471C52.4985 236.471 53.4029 237.345 53.4029 238.576C53.4029 239.808 52.4985 240.689 51.2588 240.689ZM51.2588 240.034C52.054 240.034 52.6466 239.457 52.6466 238.576C52.6466 237.695 52.054 237.126 51.2588 237.126C50.4635 237.126 49.8632 237.695 49.8632 238.576C49.8632 239.457 50.4635 240.034 51.2588 240.034ZM54.6719 240.643V234.857H55.4204V240.643H54.6719ZM57.0834 240.643V234.857H57.8319V240.643H57.0834ZM63.2295 238.6C63.2295 238.662 63.2217 238.756 63.2139 238.826H59.8613C59.9549 239.551 60.5396 240.034 61.3583 240.034C61.8417 240.034 62.2471 239.871 62.5512 239.535L62.9644 240.019C62.5902 240.455 62.021 240.689 61.3349 240.689C60.0017 240.689 59.1128 239.808 59.1128 238.576C59.1128 237.352 59.9939 236.471 61.1868 236.471C62.3796 236.471 63.2295 237.329 63.2295 238.6ZM61.1868 237.103C60.4695 237.103 59.9393 237.586 59.8613 238.288H62.5122C62.4342 237.594 61.9118 237.103 61.1868 237.103ZM67.7461 236.51H68.4556V240.081C68.4556 241.539 67.7149 242.202 66.3115 242.202C65.5553 242.202 64.7912 241.991 64.339 241.586L64.6976 241.009C65.0797 241.336 65.68 241.547 66.2882 241.547C67.2627 241.547 67.7072 241.095 67.7072 240.159V239.832C67.3485 240.261 66.8105 240.471 66.218 240.471C65.0251 240.471 64.1207 239.66 64.1207 238.467C64.1207 237.274 65.0251 236.471 66.218 236.471C66.8339 236.471 67.3953 236.697 67.7461 237.15V236.51ZM66.3038 239.816C67.1302 239.816 67.7227 239.263 67.7227 238.467C67.7227 237.664 67.1302 237.126 66.3038 237.126C65.4695 237.126 64.877 237.664 64.877 238.467C64.877 239.263 65.4695 239.816 66.3038 239.816ZM73.8543 238.6C73.8543 238.662 73.8465 238.756 73.8387 238.826H70.4861C70.5797 239.551 71.1644 240.034 71.9831 240.034C72.4665 240.034 72.8719 239.871 73.176 239.535L73.5892 240.019C73.215 240.455 72.6458 240.689 71.9597 240.689C70.6265 240.689 69.7376 239.808 69.7376 238.576C69.7376 237.352 70.6187 236.471 71.8116 236.471C73.0044 236.471 73.8543 237.329 73.8543 238.6ZM71.8116 237.103C71.0943 237.103 70.5641 237.586 70.4861 238.288H73.137C73.059 237.594 72.5366 237.103 71.8116 237.103ZM81.9773 240.229L81.5563 240.728L80.8312 240.003C80.3556 240.463 79.7319 240.705 79.0068 240.705C77.8997 240.705 77.0966 240.12 77.0966 239.286C77.0966 238.615 77.4786 238.148 78.422 237.61C77.9309 237.118 77.7671 236.768 77.7671 236.362C77.7671 235.629 78.3441 235.138 79.2407 235.138C80.0671 235.138 80.5973 235.567 80.5973 236.276C80.5973 236.83 80.2699 237.228 79.4356 237.703L80.7844 239.044C80.9326 238.764 81.0495 238.436 81.1197 238.054L81.72 238.249C81.6265 238.732 81.4627 239.153 81.2444 239.496L81.9773 240.229ZM79.2407 235.684C78.7495 235.684 78.461 235.957 78.461 236.347C78.461 236.627 78.5702 236.83 79.0146 237.282C79.7319 236.877 79.9658 236.627 79.9658 236.284C79.9658 235.926 79.7085 235.684 79.2407 235.684ZM79.0536 240.081C79.576 240.081 80.036 239.91 80.3868 239.567L78.8353 238.023C78.0712 238.452 77.8295 238.771 77.8295 239.208C77.8295 239.73 78.3207 240.081 79.0536 240.081ZM86.8666 236.471C87.9972 236.471 88.6365 237.017 88.6365 238.148V240.643H87.927V240.097C87.6775 240.471 87.2175 240.689 86.5704 240.689C85.6348 240.689 85.0422 240.19 85.0422 239.473C85.0422 238.81 85.471 238.265 86.7029 238.265H87.888V238.116C87.888 237.485 87.5216 237.118 86.7809 237.118C86.2897 237.118 85.7907 237.29 85.471 237.563L85.1592 237.002C85.588 236.658 86.2039 236.471 86.8666 236.471ZM86.6951 240.112C87.2565 240.112 87.7009 239.855 87.888 239.38V238.803H86.7341C85.9934 238.803 85.7829 239.091 85.7829 239.442C85.7829 239.855 86.126 240.112 86.6951 240.112ZM92.345 239.863L92.5789 240.401C92.3528 240.596 92.0098 240.689 91.6745 240.689C90.8403 240.689 90.3647 240.229 90.3647 239.395V237.126H89.663V236.51H90.3647V235.606H91.1132V236.51H92.2982V237.126H91.1132V239.364C91.1132 239.808 91.3471 240.058 91.7603 240.058C91.9786 240.058 92.1891 239.988 92.345 239.863ZM95.7083 239.863L95.9422 240.401C95.7161 240.596 95.373 240.689 95.0377 240.689C94.2035 240.689 93.7279 240.229 93.7279 239.395V237.126H93.0262V236.51H93.7279V235.606H94.4764V236.51H95.6615V237.126H94.4764V239.364C94.4764 239.808 94.7103 240.058 95.1235 240.058C95.3418 240.058 95.5523 239.988 95.7083 239.863ZM100.679 238.6C100.679 238.662 100.671 238.756 100.663 238.826H97.3104C97.4039 239.551 97.9887 240.034 98.8073 240.034C99.2907 240.034 99.6961 239.871 100 239.535L100.413 240.019C100.039 240.455 99.47 240.689 98.7839 240.689C97.4507 240.689 96.5619 239.808 96.5619 238.576C96.5619 237.352 97.4429 236.471 98.6358 236.471C99.8287 236.471 100.679 237.329 100.679 238.6ZM98.6358 237.103C97.9185 237.103 97.3883 237.586 97.3104 238.288H99.9612C99.8833 237.594 99.3609 237.103 98.6358 237.103ZM104.158 236.471C105.164 236.471 105.873 237.048 105.873 238.265V240.643H105.125V238.35C105.125 237.539 104.72 237.142 104.01 237.142C103.215 237.142 102.7 237.617 102.7 238.514V240.643H101.952V236.51H102.669V237.134C102.973 236.713 103.503 236.471 104.158 236.471ZM110.665 234.857H111.414V240.643H110.696V239.988C110.361 240.455 109.831 240.689 109.223 240.689C108.014 240.689 107.133 239.84 107.133 238.576C107.133 237.313 108.014 236.471 109.223 236.471C109.808 236.471 110.322 236.69 110.665 237.134V234.857ZM109.285 240.034C110.073 240.034 110.673 239.457 110.673 238.576C110.673 237.695 110.073 237.126 109.285 237.126C108.49 237.126 107.89 237.695 107.89 238.576C107.89 239.457 108.49 240.034 109.285 240.034ZM116.798 238.6C116.798 238.662 116.791 238.756 116.783 238.826H113.43C113.524 239.551 114.109 240.034 114.927 240.034C115.411 240.034 115.816 239.871 116.12 239.535L116.533 240.019C116.159 240.455 115.59 240.689 114.904 240.689C113.571 240.689 112.682 239.808 112.682 238.576C112.682 237.352 113.563 236.471 114.756 236.471C115.949 236.471 116.798 237.329 116.798 238.6ZM114.756 237.103C114.038 237.103 113.508 237.586 113.43 238.288H116.081C116.003 237.594 115.481 237.103 114.756 237.103ZM121.806 238.6C121.806 238.662 121.799 238.756 121.791 238.826H118.438C118.532 239.551 119.116 240.034 119.935 240.034C120.418 240.034 120.824 239.871 121.128 239.535L121.541 240.019C121.167 240.455 120.598 240.689 119.912 240.689C118.578 240.689 117.69 239.808 117.69 238.576C117.69 237.352 118.571 236.471 119.764 236.471C120.956 236.471 121.806 237.329 121.806 238.6ZM119.764 237.103C119.046 237.103 118.516 237.586 118.438 238.288H121.089C121.011 237.594 120.489 237.103 119.764 237.103ZM124.265 240.689C123.579 240.689 122.9 240.479 122.557 240.206L122.869 239.613C123.22 239.863 123.781 240.042 124.319 240.042C125.013 240.042 125.302 239.832 125.302 239.481C125.302 238.553 122.69 239.356 122.69 237.711C122.69 236.97 123.352 236.471 124.413 236.471C124.951 236.471 125.559 236.612 125.918 236.846L125.598 237.438C125.224 237.196 124.81 237.111 124.405 237.111C123.75 237.111 123.43 237.352 123.43 237.68C123.43 238.654 126.05 237.859 126.05 239.465C126.05 240.214 125.364 240.689 124.265 240.689Z" fill="white"/>
<path d="M35.6172 268.011C36.2332 268.183 36.6386 268.643 36.6386 269.368C36.6386 270.303 35.9291 270.841 34.5491 270.841H31.945V265.384H34.3932C35.6484 265.384 36.3501 265.914 36.3501 266.795C36.3501 267.387 36.0461 267.801 35.6172 268.011ZM34.323 266.015H32.7247V267.762H34.323C35.1183 267.762 35.5705 267.465 35.5705 266.888C35.5705 266.311 35.1183 266.015 34.323 266.015ZM34.5179 270.21C35.3833 270.21 35.8511 269.937 35.8511 269.305C35.8511 268.674 35.3833 268.393 34.5179 268.393H32.7247V270.21H34.5179ZM39.4753 266.67C40.6058 266.67 41.2452 267.216 41.2452 268.346V270.841H40.5357V270.296C40.2862 270.67 39.8262 270.888 39.179 270.888C38.2434 270.888 37.6509 270.389 37.6509 269.672C37.6509 269.009 38.0797 268.463 39.3116 268.463H40.4967V268.315C40.4967 267.684 40.1302 267.317 39.3896 267.317C38.8984 267.317 38.3994 267.489 38.0797 267.762L37.7679 267.2C38.1967 266.857 38.8126 266.67 39.4753 266.67ZM39.3038 270.311C39.8652 270.311 40.3096 270.054 40.4967 269.578V269.001H39.3428C38.6021 269.001 38.3916 269.29 38.3916 269.641C38.3916 270.054 38.7346 270.311 39.3038 270.311ZM45.0707 266.67C46.0764 266.67 46.7859 267.247 46.7859 268.463V270.841H46.0374V268.549C46.0374 267.738 45.632 267.341 44.9225 267.341C44.1273 267.341 43.6127 267.816 43.6127 268.713V270.841H42.8642V266.709H43.5815V267.333C43.8856 266.912 44.4157 266.67 45.0707 266.67ZM50.6115 266.67C51.6172 266.67 52.3267 267.247 52.3267 268.463V270.841H51.5783V268.549C51.5783 267.738 51.1728 267.341 50.4633 267.341C49.6681 267.341 49.1535 267.816 49.1535 268.713V270.841H48.405V266.709H49.1223V267.333C49.4264 266.912 49.9566 266.67 50.6115 266.67ZM57.7033 268.799C57.7033 268.861 57.6955 268.955 57.6877 269.025H54.3351C54.4287 269.75 55.0134 270.233 55.8321 270.233C56.3155 270.233 56.7209 270.069 57.025 269.734L57.4382 270.218C57.064 270.654 56.4948 270.888 55.8087 270.888C54.4755 270.888 53.5866 270.007 53.5866 268.775C53.5866 267.551 54.4677 266.67 55.6606 266.67C56.8534 266.67 57.7033 267.528 57.7033 268.799ZM55.6606 267.302C54.9433 267.302 54.4131 267.785 54.3351 268.487H56.986C56.908 267.793 56.3856 267.302 55.6606 267.302ZM59.6938 267.403C59.9589 266.92 60.4735 266.67 61.1986 266.67V267.395C61.1362 267.387 61.0816 267.387 61.027 267.387C60.224 267.387 59.725 267.879 59.725 268.783V270.841H58.9765V266.709H59.6938V267.403ZM66.9737 265.384C68.3927 265.384 69.2503 266.101 69.2503 267.286C69.2503 268.471 68.3927 269.188 66.9737 269.188H65.6248V270.841H64.8452V265.384H66.9737ZM66.9503 268.51C67.9482 268.51 68.4706 268.066 68.4706 267.286C68.4706 266.506 67.9482 266.062 66.9503 266.062H65.6248V268.51H66.9503ZM71.1692 267.403C71.4343 266.92 71.9489 266.67 72.674 266.67V267.395C72.6116 267.387 72.5571 267.387 72.5025 267.387C71.6994 267.387 71.2004 267.879 71.2004 268.783V270.841H70.452V266.709H71.1692V267.403ZM75.5622 270.888C74.3225 270.888 73.4103 270.007 73.4103 268.775C73.4103 267.543 74.3225 266.67 75.5622 266.67C76.8019 266.67 77.7063 267.543 77.7063 268.775C77.7063 270.007 76.8019 270.888 75.5622 270.888ZM75.5622 270.233C76.3574 270.233 76.95 269.656 76.95 268.775C76.95 267.894 76.3574 267.325 75.5622 267.325C74.7669 267.325 74.1666 267.894 74.1666 268.775C74.1666 269.656 74.7669 270.233 75.5622 270.233ZM84.1445 266.67C85.1503 266.67 85.8364 267.247 85.8364 268.463V270.841H85.0879V268.549C85.0879 267.738 84.6981 267.341 84.0198 267.341C83.2713 267.341 82.7801 267.816 82.7801 268.713V270.841H82.0316V268.549C82.0316 267.738 81.6418 267.341 80.9635 267.341C80.215 267.341 79.7238 267.816 79.7238 268.713V270.841H78.9753V266.709H79.6926V267.325C79.9889 266.904 80.4957 266.67 81.1194 266.67C81.7509 266.67 82.2811 266.92 82.554 267.434C82.8658 266.966 83.4428 266.67 84.1445 266.67ZM89.2402 270.888C88.0005 270.888 87.0883 270.007 87.0883 268.775C87.0883 267.543 88.0005 266.67 89.2402 266.67C90.4798 266.67 91.3843 267.543 91.3843 268.775C91.3843 270.007 90.4798 270.888 89.2402 270.888ZM89.2402 270.233C90.0354 270.233 90.628 269.656 90.628 268.775C90.628 267.894 90.0354 267.325 89.2402 267.325C88.4449 267.325 87.8446 267.894 87.8446 268.775C87.8446 269.656 88.4449 270.233 89.2402 270.233ZM94.7428 270.062L94.9767 270.6C94.7506 270.795 94.4076 270.888 94.0723 270.888C93.2381 270.888 92.7625 270.428 92.7625 269.594V267.325H92.0608V266.709H92.7625V265.805H93.5109V266.709H94.696V267.325H93.5109V269.563C93.5109 270.007 93.7448 270.257 94.1581 270.257C94.3764 270.257 94.5869 270.186 94.7428 270.062ZM96.4898 265.914C96.2013 265.914 95.983 265.703 95.983 265.43C95.983 265.158 96.2013 264.939 96.4898 264.939C96.7782 264.939 96.9965 265.15 96.9965 265.415C96.9965 265.696 96.786 265.914 96.4898 265.914ZM96.1155 270.841V266.709H96.864V270.841H96.1155ZM100.297 270.888C99.0572 270.888 98.145 270.007 98.145 268.775C98.145 267.543 99.0572 266.67 100.297 266.67C101.537 266.67 102.441 267.543 102.441 268.775C102.441 270.007 101.537 270.888 100.297 270.888ZM100.297 270.233C101.092 270.233 101.685 269.656 101.685 268.775C101.685 267.894 101.092 267.325 100.297 267.325C99.5016 267.325 98.9012 267.894 98.9012 268.775C98.9012 269.656 99.5016 270.233 100.297 270.233ZM105.916 266.67C106.922 266.67 107.632 267.247 107.632 268.463V270.841H106.883V268.549C106.883 267.738 106.478 267.341 105.768 267.341C104.973 267.341 104.458 267.816 104.458 268.713V270.841H103.71V266.709H104.427V267.333C104.731 266.912 105.262 266.67 105.916 266.67ZM110.436 270.888C109.75 270.888 109.071 270.678 108.728 270.405L109.04 269.812C109.391 270.062 109.952 270.241 110.49 270.241C111.184 270.241 111.473 270.03 111.473 269.68C111.473 268.752 108.861 269.555 108.861 267.91C108.861 267.169 109.524 266.67 110.584 266.67C111.122 266.67 111.73 266.81 112.089 267.044L111.769 267.637C111.395 267.395 110.982 267.309 110.576 267.309C109.921 267.309 109.602 267.551 109.602 267.879C109.602 268.853 112.221 268.058 112.221 269.664C112.221 270.412 111.535 270.888 110.436 270.888Z" fill="white"/>
<path d="M14.517 301.04V295.582H18.3686V296.261H15.2967V300.362H18.4777V301.04H14.517ZM15.2265 298.6V297.937H18.0333V298.6H15.2265ZM19.1732 301.04L20.9508 298.732L20.943 299.114L19.2512 296.908H20.0854L21.3797 298.607H21.06L22.3542 296.908H23.1729L21.4576 299.13L21.4654 298.732L23.2587 301.04H22.4088L21.0444 299.231L21.3485 299.278L20.0074 301.04H19.1732ZM25.9885 301.087C25.5675 301.087 25.1907 300.996 24.858 300.814C24.5305 300.632 24.2733 300.383 24.0861 300.065C23.899 299.748 23.8055 299.385 23.8055 298.974C23.8055 298.563 23.899 298.199 24.0861 297.882C24.2733 297.565 24.5305 297.318 24.858 297.142C25.1907 296.96 25.5675 296.869 25.9885 296.869C26.3628 296.869 26.6954 296.944 26.9865 297.095C27.2828 297.24 27.5115 297.459 27.6726 297.75L27.1035 298.116C26.9683 297.914 26.802 297.765 26.6045 297.672C26.4121 297.573 26.2042 297.524 25.9807 297.524C25.7104 297.524 25.4687 297.584 25.2556 297.703C25.0425 297.823 24.8736 297.992 24.7489 298.21C24.6241 298.423 24.5617 298.678 24.5617 298.974C24.5617 299.27 24.6241 299.527 24.7489 299.746C24.8736 299.964 25.0425 300.133 25.2556 300.253C25.4687 300.372 25.7104 300.432 25.9807 300.432C26.2042 300.432 26.4121 300.385 26.6045 300.292C26.802 300.193 26.9683 300.042 27.1035 299.839L27.6726 300.198C27.5115 300.484 27.2828 300.705 26.9865 300.861C26.6954 301.011 26.3628 301.087 25.9885 301.087ZM28.8223 301.04V295.255H29.5707V301.04H28.8223ZM32.9724 301.087C32.619 301.087 32.3071 301.022 32.0368 300.892C31.7717 300.762 31.5638 300.564 31.4131 300.299C31.2675 300.029 31.1948 299.691 31.1948 299.286V296.908H31.9432V299.2C31.9432 299.605 32.0394 299.91 32.2317 300.112C32.4292 300.315 32.7047 300.416 33.0582 300.416C33.3181 300.416 33.5442 300.364 33.7365 300.26C33.9288 300.151 34.0769 299.995 34.1809 299.793C34.2848 299.585 34.3368 299.335 34.3368 299.044V296.908H35.0853V301.04H34.3758V299.925L34.4928 300.221C34.3576 300.497 34.1549 300.71 33.8846 300.861C33.6143 301.011 33.3103 301.087 32.9724 301.087ZM37.9292 301.087C37.5861 301.087 37.2587 301.04 36.9468 300.946C36.6401 300.853 36.3985 300.739 36.2217 300.603L36.5336 300.011C36.7103 300.13 36.9286 300.232 37.1885 300.315C37.4484 300.398 37.7135 300.44 37.9838 300.44C38.332 300.44 38.5815 300.39 38.7323 300.292C38.8882 300.193 38.9662 300.055 38.9662 299.878C38.9662 299.748 38.9194 299.647 38.8258 299.574C38.7323 299.501 38.6075 299.447 38.4516 299.411C38.3008 299.374 38.1319 299.343 37.9448 299.317C37.7577 299.286 37.5706 299.249 37.3834 299.208C37.1963 299.161 37.0248 299.099 36.8689 299.021C36.7129 298.938 36.5882 298.826 36.4946 298.685C36.4011 298.54 36.3543 298.348 36.3543 298.108C36.3543 297.859 36.4244 297.641 36.5648 297.454C36.7051 297.266 36.9026 297.124 37.1573 297.025C37.4172 296.921 37.7239 296.869 38.0773 296.869C38.3476 296.869 38.6205 296.903 38.896 296.97C39.1767 297.033 39.4054 297.124 39.5821 297.243L39.2624 297.836C39.0753 297.711 38.8804 297.625 38.6777 297.578C38.475 297.532 38.2723 297.508 38.0695 297.508C37.7421 297.508 37.4978 297.563 37.3367 297.672C37.1755 297.776 37.095 297.911 37.095 298.077C37.095 298.218 37.1417 298.327 37.2353 298.405C37.3341 298.478 37.4588 298.535 37.6095 298.576C37.7655 298.618 37.937 298.654 38.1241 298.685C38.3112 298.711 38.4984 298.748 38.6855 298.795C38.8726 298.836 39.0415 298.896 39.1923 298.974C39.3482 299.052 39.4729 299.161 39.5665 299.301C39.6653 299.442 39.7146 299.629 39.7146 299.863C39.7146 300.112 39.6419 300.328 39.4963 300.51C39.3508 300.692 39.1455 300.835 38.8804 300.939C38.6153 301.037 38.2982 301.087 37.9292 301.087ZM40.884 301.04V296.908H41.6324V301.04H40.884ZM41.2582 296.113C41.1127 296.113 40.9905 296.066 40.8918 295.972C40.7982 295.879 40.7514 295.764 40.7514 295.629C40.7514 295.489 40.7982 295.372 40.8918 295.278C40.9905 295.185 41.1127 295.138 41.2582 295.138C41.4037 295.138 41.5233 295.185 41.6168 295.278C41.7156 295.367 41.765 295.478 41.765 295.614C41.765 295.754 41.7182 295.873 41.6246 295.972C41.5311 296.066 41.4089 296.113 41.2582 296.113ZM44.3792 301.04L42.5704 296.908H43.35L44.9561 300.65H44.5819L46.2192 296.908H46.9521L45.1433 301.04H44.3792ZM49.6103 301.087C49.1685 301.087 48.7787 300.996 48.4408 300.814C48.1082 300.632 47.8483 300.383 47.6612 300.065C47.4792 299.748 47.3883 299.385 47.3883 298.974C47.3883 298.563 47.4766 298.199 47.6534 297.882C47.8353 297.565 48.0822 297.318 48.394 297.142C48.7111 296.96 49.0672 296.869 49.4622 296.869C49.8624 296.869 50.2159 296.957 50.5225 297.134C50.8292 297.311 51.0683 297.56 51.2398 297.882C51.4166 298.199 51.5049 298.571 51.5049 298.997C51.5049 299.028 51.5023 299.065 51.4971 299.106C51.4971 299.148 51.4945 299.187 51.4893 299.223H47.973V298.685H51.0995L50.7954 298.873C50.8006 298.607 50.746 298.371 50.6317 298.163C50.5173 297.955 50.3588 297.794 50.1561 297.68C49.9586 297.56 49.7273 297.5 49.4622 297.5C49.2023 297.5 48.971 297.56 48.7683 297.68C48.5656 297.794 48.407 297.958 48.2927 298.171C48.1783 298.379 48.1212 298.618 48.1212 298.888V299.013C48.1212 299.288 48.1835 299.535 48.3083 299.754C48.4382 299.967 48.6176 300.133 48.8463 300.253C49.075 300.372 49.3374 300.432 49.6337 300.432C49.878 300.432 50.0989 300.39 50.2964 300.307C50.4992 300.224 50.6759 300.099 50.8266 299.933L51.2398 300.416C51.0527 300.635 50.8188 300.801 50.5381 300.915C50.2627 301.03 49.9534 301.087 49.6103 301.087ZM56.8056 301.102C56.3897 301.102 55.9921 301.04 55.6127 300.915C55.2332 300.785 54.9344 300.619 54.7161 300.416L55.0045 299.808C55.2124 299.99 55.4775 300.141 55.7998 300.26C56.1221 300.38 56.4573 300.44 56.8056 300.44C57.1226 300.44 57.3799 300.403 57.5774 300.331C57.775 300.258 57.9205 300.159 58.0141 300.034C58.1076 299.904 58.1544 299.759 58.1544 299.598C58.1544 299.411 58.092 299.26 57.9673 299.145C57.8477 299.031 57.6892 298.94 57.4917 298.873C57.2994 298.8 57.0862 298.737 56.8523 298.685C56.6184 298.633 56.3819 298.574 56.1428 298.506C55.9089 298.433 55.6932 298.342 55.4957 298.233C55.3034 298.124 55.1475 297.979 55.0279 297.797C54.9084 297.61 54.8486 297.37 54.8486 297.079C54.8486 296.799 54.9214 296.541 55.0669 296.307C55.2176 296.068 55.4463 295.879 55.753 295.738C56.0649 295.593 56.4599 295.52 56.9381 295.52C57.2552 295.52 57.5696 295.562 57.8815 295.645C58.1934 295.728 58.4637 295.847 58.6924 296.003L58.4351 296.627C58.2012 296.471 57.9543 296.359 57.6944 296.292C57.4345 296.219 57.1824 296.183 56.9381 296.183C56.6314 296.183 56.3793 296.222 56.1818 296.3C55.9843 296.378 55.8388 296.482 55.7452 296.612C55.6569 296.741 55.6127 296.887 55.6127 297.048C55.6127 297.24 55.6724 297.394 55.792 297.508C55.9167 297.622 56.0753 297.713 56.2676 297.781C56.4651 297.849 56.6808 297.911 56.9147 297.968C57.1486 298.02 57.3825 298.08 57.6164 298.147C57.8555 298.215 58.0712 298.303 58.2635 298.413C58.4611 298.522 58.6196 298.667 58.7391 298.849C58.8587 299.031 58.9185 299.265 58.9185 299.551C58.9185 299.826 58.8431 300.084 58.6924 300.323C58.5416 300.557 58.3077 300.746 57.9907 300.892C57.6788 301.032 57.2838 301.102 56.8056 301.102ZM61.6013 301.087C61.1854 301.087 60.8632 300.975 60.6345 300.752C60.4058 300.528 60.2914 300.208 60.2914 299.793V296.003H61.0399V299.761C61.0399 299.985 61.0945 300.156 61.2036 300.276C61.318 300.396 61.4791 300.455 61.687 300.455C61.9209 300.455 62.1158 300.39 62.2718 300.26L62.5057 300.798C62.3913 300.897 62.2536 300.97 62.0924 301.017C61.9365 301.063 61.7728 301.087 61.6013 301.087ZM59.5897 297.524V296.908H62.225V297.524H59.5897ZM66.0573 301.04V300.167L66.0183 300.003V298.514C66.0183 298.197 65.9248 297.953 65.7376 297.781C65.5557 297.604 65.2802 297.516 64.9112 297.516C64.6669 297.516 64.4278 297.558 64.1939 297.641C63.96 297.719 63.7625 297.825 63.6013 297.96L63.2895 297.399C63.5026 297.227 63.7573 297.098 64.0536 297.009C64.355 296.916 64.6695 296.869 64.997 296.869C65.5635 296.869 66.0001 297.007 66.3068 297.282C66.6135 297.558 66.7668 297.979 66.7668 298.545V301.04H66.0573ZM64.7007 301.087C64.394 301.087 64.1237 301.035 63.8898 300.931C63.6611 300.827 63.4844 300.684 63.3596 300.502C63.2349 300.315 63.1725 300.104 63.1725 299.871C63.1725 299.647 63.2245 299.444 63.3285 299.262C63.4376 299.08 63.6117 298.935 63.8508 298.826C64.0951 298.717 64.4226 298.662 64.8332 298.662H66.1431V299.2H64.8644C64.4902 299.2 64.2381 299.262 64.1081 299.387C63.9782 299.512 63.9132 299.663 63.9132 299.839C63.9132 300.042 63.9938 300.206 64.1549 300.331C64.316 300.45 64.5395 300.51 64.8254 300.51C65.1061 300.51 65.3504 300.447 65.5583 300.323C65.7714 300.198 65.9248 300.016 66.0183 299.777L66.1665 300.292C66.0677 300.536 65.8936 300.731 65.6441 300.876C65.3946 301.017 65.0801 301.087 64.7007 301.087ZM68.3858 301.04V295.255H69.1343V301.04H68.3858ZM70.7973 301.04V295.255H71.5458V301.04H70.7973ZM77.3064 301.087C76.8906 301.087 76.5215 300.996 76.1993 300.814C75.877 300.632 75.6223 300.383 75.4352 300.065C75.2481 299.743 75.1545 299.379 75.1545 298.974C75.1545 298.563 75.2481 298.199 75.4352 297.882C75.6223 297.565 75.877 297.318 76.1993 297.142C76.5215 296.96 76.8906 296.869 77.3064 296.869C77.717 296.869 78.0835 296.96 78.4057 297.142C78.7332 297.318 78.9879 297.565 79.1698 297.882C79.3569 298.194 79.4505 298.558 79.4505 298.974C79.4505 299.385 79.3569 299.748 79.1698 300.065C78.9879 300.383 78.7332 300.632 78.4057 300.814C78.0835 300.996 77.717 301.087 77.3064 301.087ZM77.3064 300.432C77.5715 300.432 77.808 300.372 78.0159 300.253C78.229 300.133 78.3953 299.964 78.5149 299.746C78.6344 299.522 78.6942 299.265 78.6942 298.974C78.6942 298.678 78.6344 298.423 78.5149 298.21C78.3953 297.992 78.229 297.823 78.0159 297.703C77.808 297.584 77.5715 297.524 77.3064 297.524C77.0413 297.524 76.8048 297.584 76.5969 297.703C76.389 297.823 76.2226 297.992 76.0979 298.21C75.9732 298.423 75.9108 298.678 75.9108 298.974C75.9108 299.265 75.9732 299.522 76.0979 299.746C76.2226 299.964 76.389 300.133 76.5969 300.253C76.8048 300.372 77.0413 300.432 77.3064 300.432ZM80.7195 301.04V296.908H81.4368V298.023L81.3199 297.726C81.455 297.456 81.6629 297.246 81.9436 297.095C82.2243 296.944 82.5517 296.869 82.926 296.869C83.2638 296.869 83.5601 296.934 83.8148 297.064C84.0747 297.194 84.2774 297.391 84.4229 297.656C84.5685 297.921 84.6412 298.257 84.6412 298.662V301.04H83.8928V298.748C83.8928 298.348 83.794 298.046 83.5965 297.843C83.4042 297.641 83.1313 297.539 82.7778 297.539C82.5127 297.539 82.2814 297.591 82.0839 297.695C81.8864 297.799 81.7331 297.953 81.6239 298.155C81.52 298.358 81.468 298.61 81.468 298.912V301.04H80.7195ZM88.6972 301.04V295.582H92.5488V296.261H89.4769V300.362H92.6579V301.04H88.6972ZM89.4067 298.6V297.937H92.2135V298.6H89.4067ZM95.0603 301.04L93.2515 296.908H94.0312L95.6373 300.65H95.263L96.9003 296.908H97.6332L95.8244 301.04H95.0603ZM100.291 301.087C99.8497 301.087 99.4598 300.996 99.122 300.814C98.7893 300.632 98.5294 300.383 98.3423 300.065C98.1604 299.748 98.0694 299.385 98.0694 298.974C98.0694 298.563 98.1578 298.199 98.3345 297.882C98.5164 297.565 98.7633 297.318 99.0752 297.142C99.3923 296.96 99.7483 296.869 100.143 296.869C100.544 296.869 100.897 296.957 101.204 297.134C101.51 297.311 101.749 297.56 101.921 297.882C102.098 298.199 102.186 298.571 102.186 298.997C102.186 299.028 102.183 299.065 102.178 299.106C102.178 299.148 102.176 299.187 102.17 299.223H98.6542V298.685H101.781L101.477 298.873C101.482 298.607 101.427 298.371 101.313 298.163C101.198 297.955 101.04 297.794 100.837 297.68C100.64 297.56 100.408 297.5 100.143 297.5C99.8835 297.5 99.6522 297.56 99.4494 297.68C99.2467 297.794 99.0882 297.958 98.9738 298.171C98.8595 298.379 98.8023 298.618 98.8023 298.888V299.013C98.8023 299.288 98.8647 299.535 98.9894 299.754C99.1194 299.967 99.2987 300.133 99.5274 300.253C99.7561 300.372 100.019 300.432 100.315 300.432C100.559 300.432 100.78 300.39 100.978 300.307C101.18 300.224 101.357 300.099 101.508 299.933L101.921 300.416C101.734 300.635 101.5 300.801 101.219 300.915C100.944 301.03 100.635 301.087 100.291 301.087ZM103.459 301.04V296.908H104.177V298.023L104.06 297.726C104.195 297.456 104.403 297.246 104.683 297.095C104.964 296.944 105.292 296.869 105.666 296.869C106.004 296.869 106.3 296.934 106.555 297.064C106.814 297.194 107.017 297.391 107.163 297.656C107.308 297.921 107.381 298.257 107.381 298.662V301.04H106.633V298.748C106.633 298.348 106.534 298.046 106.336 297.843C106.144 297.641 105.871 297.539 105.518 297.539C105.253 297.539 105.021 297.591 104.824 297.695C104.626 297.799 104.473 297.953 104.364 298.155C104.26 298.358 104.208 298.61 104.208 298.912V301.04H103.459ZM110.419 301.087C110.003 301.087 109.681 300.975 109.452 300.752C109.224 300.528 109.109 300.208 109.109 299.793V296.003H109.858V299.761C109.858 299.985 109.912 300.156 110.021 300.276C110.136 300.396 110.297 300.455 110.505 300.455C110.739 300.455 110.934 300.39 111.09 300.26L111.324 300.798C111.209 300.897 111.071 300.97 110.91 301.017C110.754 301.063 110.591 301.087 110.419 301.087ZM108.408 297.524V296.908H111.043V297.524H108.408ZM114.899 301.04V295.582H117.199C117.781 295.582 118.293 295.697 118.735 295.925C119.182 296.154 119.528 296.474 119.772 296.884C120.022 297.295 120.146 297.771 120.146 298.311C120.146 298.852 120.022 299.327 119.772 299.738C119.528 300.149 119.182 300.468 118.735 300.697C118.293 300.926 117.781 301.04 117.199 301.04H114.899ZM115.679 300.362H117.152C117.605 300.362 117.995 300.276 118.322 300.104C118.655 299.933 118.912 299.694 119.094 299.387C119.276 299.075 119.367 298.717 119.367 298.311C119.367 297.901 119.276 297.542 119.094 297.235C118.912 296.929 118.655 296.689 118.322 296.518C117.995 296.346 117.605 296.261 117.152 296.261H115.679V300.362ZM124.03 301.04V300.167L123.991 300.003V298.514C123.991 298.197 123.898 297.953 123.711 297.781C123.529 297.604 123.253 297.516 122.884 297.516C122.64 297.516 122.401 297.558 122.167 297.641C121.933 297.719 121.736 297.825 121.575 297.96L121.263 297.399C121.476 297.227 121.73 297.098 122.027 297.009C122.328 296.916 122.643 296.869 122.97 296.869C123.537 296.869 123.973 297.007 124.28 297.282C124.587 297.558 124.74 297.979 124.74 298.545V301.04H124.03ZM122.674 301.087C122.367 301.087 122.097 301.035 121.863 300.931C121.634 300.827 121.458 300.684 121.333 300.502C121.208 300.315 121.146 300.104 121.146 299.871C121.146 299.647 121.198 299.444 121.302 299.262C121.411 299.08 121.585 298.935 121.824 298.826C122.068 298.717 122.396 298.662 122.806 298.662H124.116V299.2H122.838C122.463 299.2 122.211 299.262 122.081 299.387C121.951 299.512 121.886 299.663 121.886 299.839C121.886 300.042 121.967 300.206 122.128 300.331C122.289 300.45 122.513 300.51 122.799 300.51C123.079 300.51 123.324 300.447 123.531 300.323C123.745 300.198 123.898 300.016 123.991 299.777L124.14 300.292C124.041 300.536 123.867 300.731 123.617 300.876C123.368 301.017 123.053 301.087 122.674 301.087ZM126.409 302.599C126.211 302.599 126.019 302.566 125.832 302.498C125.645 302.436 125.484 302.342 125.349 302.217L125.668 301.656C125.772 301.755 125.887 301.83 126.011 301.882C126.136 301.934 126.269 301.96 126.409 301.96C126.591 301.96 126.742 301.913 126.861 301.82C126.981 301.726 127.092 301.56 127.196 301.321L127.454 300.752L127.532 300.658L129.153 296.908H129.886L127.882 301.453C127.763 301.744 127.628 301.973 127.477 302.139C127.332 302.306 127.17 302.423 126.994 302.49C126.817 302.563 126.622 302.599 126.409 302.599ZM127.391 301.173L125.504 296.908H126.284L127.89 300.588L127.391 301.173Z" fill="white"/>
<path d="M229.294 27.543V21.6383H226.965V20.2661H233.306V21.6383H230.978V27.543H229.294ZM234.524 27.543V20.2661H236.208V27.543H234.524ZM239.921 26.1915H243.882V27.543H238.247V20.2661H243.746V21.6175H239.921V23.1976H243.299V24.5075H239.921V26.1915ZM251.979 27.543H250.17L248.766 25.5158H248.683H247.217V27.543H245.533V20.2661H248.683C250.627 20.2661 251.843 21.2744 251.843 22.9065C251.843 23.9981 251.293 24.7985 250.347 25.204L251.979 27.543ZM250.139 22.9065C250.139 22.1061 249.619 21.6383 248.59 21.6383H247.217V24.1748H248.59C249.619 24.1748 250.139 23.6966 250.139 22.9065ZM262.952 24.6426V26.0148H261.767V27.543H260.124V26.0148H256.205V24.8817L259.636 20.2661H261.403L258.222 24.6426H260.176V23.2808H261.767V24.6426H262.952Z" fill="white"/>
<path d="M238.005 68.0273V80.0472H250.025V68.0273H238.005ZM239.098 69.1201H248.932V78.9545H239.098V69.1201ZM246.9 71.4591L242.922 75.4373L241.129 73.6446L240.344 74.43L242.529 76.6154L242.922 76.991L243.315 76.6154L247.686 72.2446L246.9 71.4591Z" fill="#2B62A7"/>
<path d="M238.005 135.069V147.089H250.025V135.069H238.005ZM239.098 136.162H248.932V145.996H239.098V136.162ZM246.9 138.501L242.922 142.479L241.129 140.686L240.344 141.472L242.529 143.657L242.922 144.033L243.315 143.657L247.686 139.286L246.9 138.501Z" fill="#2B62A7"/>
<path d="M238.005 103.771V115.791H250.025V103.771H238.005ZM239.098 104.864H248.932V114.698H239.098V104.864ZM246.9 107.203L242.922 111.181L241.129 109.388L240.344 110.174L242.529 112.359L242.922 112.735L243.315 112.359L247.686 107.988L246.9 107.203Z" fill="#2B62A7"/>
<path d="M238.005 164.922V176.942H250.025V164.922H238.005ZM239.098 166.015H248.932V175.849H239.098V166.015ZM246.9 168.354L242.922 172.332L241.129 170.539L240.344 171.325L242.529 173.51L242.922 173.886L243.315 173.51L247.686 169.139L246.9 168.354Z" fill="#2B62A7"/>
<path d="M238.005 195.774V207.794H250.025V195.774H238.005ZM239.098 196.867H248.932V206.702H239.098V196.867ZM246.9 199.206L242.922 203.184L241.129 201.392L240.344 202.177L242.529 204.363L242.922 204.738L243.315 204.363L247.686 199.992L246.9 199.206Z" fill="#2B62A7"/>
<path d="M238.005 226.646V238.665H250.025V226.646H238.005ZM239.098 227.738H248.932V237.573H239.098V227.738ZM246.9 230.077L242.922 234.055L241.129 232.263L240.344 233.048L242.529 235.234L242.922 235.609L243.315 235.234L247.686 230.863L246.9 230.077Z" fill="#2B62A7"/>
<path d="M238.005 261.962V273.982H250.025V261.962H238.005ZM239.098 263.055H248.932V272.889H239.098V263.055ZM246.9 265.394L242.922 269.372L241.129 267.579L240.344 268.365L242.529 270.55L242.922 270.926L243.315 270.55L247.686 266.179L246.9 265.394Z" fill="#2B62A7"/>
<path d="M238.005 296.852V308.871H250.025V296.852H238.005ZM239.098 297.944H248.932V307.779H239.098V297.944ZM246.9 300.283L242.922 304.262L241.129 302.469L240.344 303.254L242.529 305.44L242.922 305.815L243.315 305.44L247.686 301.069L246.9 300.283Z" fill="#2B62A7"/>
<line x1="160.662" y1="5.93613e-09" x2="160.662" y2="382" stroke="white" stroke-width="0.324862"/>
<mask id="path-22-inside-2_235_37822" fill="white">
<path d="M0.963867 343.959H317.5V381.823H0.963867V343.959Z"/>
</mask>
<path d="M0.963867 343.959H317.5V381.823H0.963867V343.959Z" fill="#2B62A7"/>
<path d="M0.963867 343.959V344.284H317.5V343.959V343.634H0.963867V343.959Z" fill="#2B62A7" mask="url(#path-22-inside-2_235_37822)"/>
<path d="M50.0054 368.863V361.586H53.1553C53.7998 361.586 54.3577 361.693 54.829 361.908C55.3072 362.116 55.6745 362.418 55.9309 362.813C56.1873 363.208 56.3155 363.679 56.3155 364.226C56.3155 364.767 56.1873 365.235 55.9309 365.63C55.6745 366.025 55.3072 366.33 54.829 366.545C54.3577 366.752 53.7998 366.856 53.1553 366.856H51.6895V368.863H50.0054ZM51.6895 365.484H53.0617C53.5746 365.484 53.9592 365.373 54.2156 365.152C54.479 364.93 54.6106 364.621 54.6106 364.226C54.6106 363.824 54.479 363.513 54.2156 363.291C53.9592 363.069 53.5746 362.958 53.0617 362.958H51.6895V365.484ZM57.8297 368.863V361.586H60.938C61.9498 361.586 62.7364 361.822 63.2978 362.293C63.8591 362.764 64.1398 363.409 64.1398 364.226C64.1398 364.767 64.0081 365.235 63.7448 365.63C63.4884 366.018 63.1245 366.316 62.6532 366.524L64.275 368.863H62.4661L61.0627 366.836C61.035 366.836 61.0073 366.836 60.9796 366.836H59.5138V368.863H57.8297ZM59.5138 365.495H60.886C61.3988 365.495 61.7835 365.384 62.0399 365.162C62.3033 364.933 62.4349 364.621 62.4349 364.226C62.4349 363.824 62.3033 363.513 62.0399 363.291C61.7835 363.069 61.3988 362.958 60.886 362.958H59.5138V365.495ZM65.786 368.863V361.586H67.4701V368.863H65.786ZM72.9914 368.988C72.43 368.988 71.9068 368.894 71.4217 368.707C70.9435 368.52 70.5276 368.26 70.1742 367.927C69.8207 367.588 69.5435 367.189 69.3426 366.732C69.1485 366.274 69.0515 365.772 69.0515 365.224C69.0515 364.677 69.1485 364.174 69.3426 363.717C69.5435 363.26 69.8207 362.865 70.1742 362.532C70.5346 362.192 70.9539 361.929 71.4321 361.742C71.9103 361.555 72.4335 361.461 73.0018 361.461C73.6325 361.461 74.2042 361.572 74.7171 361.794C75.2299 362.016 75.6561 362.334 75.9957 362.75L74.9146 363.748C74.4156 363.18 73.8057 362.896 73.085 362.896C72.6276 362.896 72.2221 362.996 71.8687 363.197C71.5222 363.391 71.2484 363.665 71.0474 364.018C70.8534 364.365 70.7564 364.767 70.7564 365.224C70.7564 365.682 70.8534 366.087 71.0474 366.441C71.2484 366.787 71.5222 367.061 71.8687 367.262C72.2221 367.456 72.6276 367.553 73.085 367.553C73.8057 367.553 74.4156 367.265 74.9146 366.69L75.9957 367.688C75.6561 368.111 75.2299 368.433 74.7171 368.655C74.2042 368.877 73.629 368.988 72.9914 368.988ZM77.3433 368.863V361.586H79.0274V368.863H77.3433ZM81.0662 368.863V361.586H82.4592L86.0769 366.014V361.586H87.7402V368.863H86.3576L82.7295 364.434V368.863H81.0662ZM93.2875 368.988C92.7122 368.988 92.1821 368.894 91.6969 368.707C91.2187 368.52 90.7994 368.26 90.4391 367.927C90.0856 367.588 89.8084 367.189 89.6074 366.732C89.4134 366.274 89.3163 365.772 89.3163 365.224C89.3163 364.677 89.4134 364.174 89.6074 363.717C89.8084 363.26 90.0891 362.865 90.4495 362.532C90.8098 362.192 91.2326 361.929 91.7177 361.742C92.2028 361.555 92.7365 361.461 93.3186 361.461C93.9562 361.461 94.5349 361.569 95.0547 361.783C95.5745 361.998 96.0111 362.31 96.3645 362.719L95.2834 363.717C94.7636 363.169 94.1364 362.896 93.4018 362.896C92.9305 362.896 92.5147 362.993 92.1543 363.187C91.8009 363.381 91.5237 363.655 91.3227 364.008C91.1217 364.355 91.0212 364.76 91.0212 365.224C91.0212 365.675 91.1217 366.077 91.3227 366.43C91.5237 366.784 91.8009 367.061 92.1543 367.262C92.5078 367.456 92.9167 367.553 93.381 367.553C93.6097 367.553 93.8315 367.532 94.0463 367.491C94.2681 367.442 94.4829 367.362 94.6909 367.251V365.11H96.2294V368.062C95.8274 368.367 95.3666 368.599 94.8468 368.759C94.327 368.911 93.8072 368.988 93.2875 368.988Z" fill="white"/>
<path d="M223.653 367.335V366.202L227.083 361.586H228.85L225.68 365.962H227.624V364.601H229.214V365.962H230.399V367.335H229.214V368.863H227.572V367.335H223.653ZM234.334 368.988C233.738 368.988 233.204 368.842 232.733 368.551C232.268 368.253 231.898 367.823 231.62 367.262C231.35 366.701 231.215 366.021 231.215 365.224C231.215 364.427 231.35 363.748 231.62 363.187C231.898 362.625 232.268 362.199 232.733 361.908C233.204 361.61 233.738 361.461 234.334 361.461C234.937 361.461 235.47 361.61 235.934 361.908C236.406 362.199 236.777 362.625 237.047 363.187C237.317 363.748 237.452 364.427 237.452 365.224C237.452 366.021 237.317 366.701 237.047 367.262C236.777 367.823 236.406 368.253 235.934 368.551C235.47 368.842 234.937 368.988 234.334 368.988ZM234.334 367.563C234.756 367.563 235.099 367.38 235.363 367.012C235.626 366.645 235.758 366.049 235.758 365.224C235.758 364.4 235.626 363.804 235.363 363.436C235.099 363.069 234.756 362.885 234.334 362.885C233.918 362.885 233.578 363.069 233.315 363.436C233.051 363.804 232.92 364.4 232.92 365.224C232.92 366.049 233.051 366.645 233.315 367.012C233.578 367.38 233.918 367.563 234.334 367.563ZM238.513 370.464L238.96 368.821C238.793 368.745 238.658 368.631 238.554 368.478C238.457 368.326 238.409 368.142 238.409 367.927C238.409 367.629 238.502 367.39 238.689 367.21C238.884 367.023 239.126 366.929 239.417 366.929C239.708 366.929 239.947 367.023 240.134 367.21C240.322 367.39 240.415 367.629 240.415 367.927C240.415 368.059 240.398 368.194 240.363 368.333C240.329 368.471 240.252 368.683 240.134 368.967L239.542 370.464H238.513ZM244.47 368.988C243.874 368.988 243.34 368.842 242.869 368.551C242.404 368.253 242.034 367.823 241.756 367.262C241.486 366.701 241.351 366.021 241.351 365.224C241.351 364.427 241.486 363.748 241.756 363.187C242.034 362.625 242.404 362.199 242.869 361.908C243.34 361.61 243.874 361.461 244.47 361.461C245.073 361.461 245.606 361.61 246.071 361.908C246.542 362.199 246.913 362.625 247.183 363.187C247.453 363.748 247.588 364.427 247.588 365.224C247.588 366.021 247.453 366.701 247.183 367.262C246.913 367.823 246.542 368.253 246.071 368.551C245.606 368.842 245.073 368.988 244.47 368.988ZM244.47 367.563C244.892 367.563 245.235 367.38 245.499 367.012C245.762 366.645 245.894 366.049 245.894 365.224C245.894 364.4 245.762 363.804 245.499 363.436C245.235 363.069 244.892 362.885 244.47 362.885C244.054 362.885 243.714 363.069 243.451 363.436C243.188 363.804 243.056 364.4 243.056 365.224C243.056 366.049 243.188 366.645 243.451 367.012C243.714 367.38 244.054 367.563 244.47 367.563ZM251.837 368.988C251.241 368.988 250.707 368.842 250.236 368.551C249.772 368.253 249.401 367.823 249.124 367.262C248.854 366.701 248.718 366.021 248.718 365.224C248.718 364.427 248.854 363.748 249.124 363.187C249.401 362.625 249.772 362.199 250.236 361.908C250.707 361.61 251.241 361.461 251.837 361.461C252.44 361.461 252.974 361.61 253.438 361.908C253.909 362.199 254.28 362.625 254.55 363.187C254.821 363.748 254.956 364.427 254.956 365.224C254.956 366.021 254.821 366.701 254.55 367.262C254.28 367.823 253.909 368.253 253.438 368.551C252.974 368.842 252.44 368.988 251.837 368.988ZM251.837 367.563C252.26 367.563 252.603 367.38 252.866 367.012C253.13 366.645 253.261 366.049 253.261 365.224C253.261 364.4 253.13 363.804 252.866 363.436C252.603 363.069 252.26 362.885 251.837 362.885C251.421 362.885 251.082 363.069 250.818 363.436C250.555 363.804 250.423 364.4 250.423 365.224C250.423 366.049 250.555 366.645 250.818 367.012C251.082 367.38 251.421 367.563 251.837 367.563ZM259.205 368.988C258.609 368.988 258.075 368.842 257.604 368.551C257.139 368.253 256.769 367.823 256.491 367.262C256.221 366.701 256.086 366.021 256.086 365.224C256.086 364.427 256.221 363.748 256.491 363.187C256.769 362.625 257.139 362.199 257.604 361.908C258.075 361.61 258.609 361.461 259.205 361.461C259.808 361.461 260.341 361.61 260.805 361.908C261.277 362.199 261.648 362.625 261.918 363.187C262.188 363.748 262.323 364.427 262.323 365.224C262.323 366.021 262.188 366.701 261.918 367.262C261.648 367.823 261.277 368.253 260.805 368.551C260.341 368.842 259.808 368.988 259.205 368.988ZM259.205 367.563C259.627 367.563 259.97 367.38 260.234 367.012C260.497 366.645 260.629 366.049 260.629 365.224C260.629 364.4 260.497 363.804 260.234 363.436C259.97 363.069 259.627 362.885 259.205 362.885C258.789 362.885 258.449 363.069 258.186 363.436C257.922 363.804 257.791 364.4 257.791 365.224C257.791 366.049 257.922 366.645 258.186 367.012C258.449 367.38 258.789 367.563 259.205 367.563Z" fill="white"/>
</svg>
