<svg width="178" height="24" viewBox="0 0 178 24" fill="none" xmlns="http://www.w3.org/2000/svg">
<path d="M15.7579 23.1597H11.3245V1.15348H-7.16839e-06V0.01914L27.0824 0.00968713L27.0918 1.14403L15.7579 1.15348V23.1597ZM48.5308 23.1597H44.0974V11.0411L32.3759 11.0506V23.1597H27.9426V0.01914H32.3759V9.91625L44.0974 9.9068V0.01914H48.5308V23.1597ZM70.3196 23.1597H65.5176L63.6459 18.6507H52.4821L50.6104 23.1597H49.3816L57.4448 3.74356L55.8946 0.01914H60.6966L70.3196 23.1597ZM63.1733 17.5163L58.0593 5.22765L52.9547 17.5163H63.1733ZM89.4805 23.1597C88.7243 23.1597 88.3461 23.1565 88.3461 23.1502L72.3141 6.40925V23.1597H71.1798V0.0002343H72.3141L88.3461 16.7412V0.0002343H89.4805V23.1597ZM94.7646 23.1597H90.3312V0.01914H94.7646V10.1715L105.068 0.0002343H106.685L99.699 6.89135L109.823 23.1502H104.605L96.4661 10.0864L94.7646 11.7596V23.1597ZM128.766 23.1597H124.333V12.7332L115.4 0.01914H120.817L128.086 10.37L135.355 0.01914H136.745L128.766 11.3814V23.1597ZM144.751 23.1691C143.201 23.1691 141.723 22.8792 140.318 22.2995C138.919 21.7197 137.668 20.8784 136.565 19.7756C134.832 18.0236 133.758 15.9535 133.342 13.565C133.228 12.9223 133.171 12.2669 133.171 11.5989C133.171 10.9309 133.228 10.2723 133.342 9.62322C133.758 7.2411 134.832 5.17093 136.565 3.41271C137.668 2.31618 138.919 1.47803 140.318 0.898253C141.723 0.312178 143.201 0.01914 144.751 0.01914C146.295 0.01914 147.767 0.312178 149.166 0.898253C150.571 1.47803 151.825 2.31933 152.928 3.42216C154.031 4.51869 154.872 5.76961 155.452 7.17493C156.032 8.57395 156.321 10.0486 156.321 11.5989C156.321 13.1428 156.032 14.6175 155.452 16.0228C154.872 17.4218 154.031 18.6727 152.928 19.7756C151.825 20.8784 150.571 21.7197 149.166 22.2995C147.767 22.8792 146.295 23.1691 144.751 23.1691ZM144.751 22.0348C146.087 22.0096 147.294 21.5338 148.372 20.6074C149.449 19.681 150.309 18.427 150.952 16.8452C151.601 15.2634 151.926 13.5146 151.926 11.5989C151.926 9.67678 151.601 7.92801 150.952 6.35254C150.309 4.77076 149.449 3.51669 148.372 2.59031C147.294 1.65763 146.084 1.17869 144.742 1.15348H144.647C143.324 1.20389 142.13 1.69544 141.065 2.62812C140 3.5608 139.149 4.81172 138.512 6.38089C137.876 7.95006 137.558 9.68939 137.558 11.5989C137.558 13.502 137.876 15.2413 138.512 16.8168C139.149 18.386 140 19.6369 141.065 20.5696C142.13 21.5023 143.324 21.9907 144.647 22.0348H144.751ZM144.751 13.1397L143.201 11.5989L144.751 10.0486L146.292 11.5989L144.751 13.1397ZM167.098 23.2258C165.125 23.2258 163.301 22.7217 161.624 21.7134C161.083 21.3857 160.575 21.0076 160.103 20.579C158.275 18.8712 157.305 16.8231 157.191 14.4347L157.182 14.1133L157.191 0.00968713H161.624V15.5974C161.631 16.07 161.7 16.6593 161.832 17.3651C161.965 18.0709 162.214 18.7799 162.579 19.492C163.43 21.1494 164.892 22.0159 166.965 22.0915H167.098C168.314 22.0915 169.451 21.8835 170.51 21.4676C171.575 21.0517 172.508 20.4814 173.308 19.7566C174.115 19.0256 174.745 18.178 175.199 17.2138C175.659 16.2496 175.889 15.2161 175.889 14.1133V0.00968713H177.023V14.1133C177.023 15.172 176.834 16.1898 176.456 17.1666C175.958 18.4522 175.17 19.5896 174.093 20.579C173.147 21.4361 172.076 22.0915 170.879 22.5452C169.681 22.999 168.421 23.2258 167.098 23.2258Z" fill="#E9E9E9"/>
</svg>
