<svg width="371" height="61" viewBox="0 0 371 61" fill="none" xmlns="http://www.w3.org/2000/svg">
<path d="M30.2413 60.4579C26.1926 60.4579 22.3333 59.7008 18.6632 58.1867C15.0095 56.6726 11.7427 54.4754 8.86254 51.5953C4.33664 47.02 1.53058 41.6136 0.444364 35.3761C0.148123 33.6974 2.4531e-06 31.9858 2.4531e-06 30.2413C2.4531e-06 28.4968 0.148123 26.7769 0.444364 25.0818C1.53058 18.8607 4.33664 13.4543 8.86254 8.86257C11.7427 5.9989 15.0095 3.81001 18.6632 2.29589C22.3333 0.765314 26.1926 2.52426e-05 30.2413 2.52426e-05C34.2734 2.52426e-05 38.1163 0.765314 41.77 2.29589C45.4401 3.81001 48.7152 6.00713 51.5953 8.88725C54.4754 11.7509 56.6725 15.0178 58.1867 18.6879C59.7008 22.3415 60.4578 26.1927 60.4578 30.2413C60.4578 34.2735 59.7008 38.1246 58.1867 41.7947C56.6725 45.4483 54.4754 48.7152 51.5953 51.5953C48.7152 54.4754 45.4401 56.6726 41.77 58.1867C38.1163 59.7008 34.2734 60.4579 30.2413 60.4579ZM30.2413 57.4954C33.7303 57.4296 36.882 56.187 39.6963 53.7677C42.5106 51.3484 44.7571 48.0733 46.4358 43.9424C48.1309 39.8115 48.9785 35.2445 48.9785 30.2413C48.9785 25.2216 48.1309 20.6546 46.4358 16.5401C44.7571 12.4092 42.5106 9.13412 39.6963 6.71482C36.882 4.27906 33.7221 3.02827 30.2166 2.96243H29.9697C26.5136 3.0941 23.3948 4.37781 20.6134 6.81357C17.8321 9.24932 15.6103 12.5162 13.948 16.6142C12.2858 20.7122 11.4547 25.2546 11.4547 30.2413C11.4547 35.2115 12.2858 39.7539 13.948 43.8684C15.6103 47.9664 17.8321 51.2332 20.6134 53.669C23.3948 56.1048 26.5136 57.3802 29.9697 57.4954H30.2413ZM30.2413 34.2652L26.1926 30.2413L30.2413 26.1927L34.2652 30.2413L30.2413 34.2652ZM105.807 60.4332H94.2293V52.2125C93.2912 53.2164 92.3202 54.1298 91.3163 54.9527C86.7574 58.5734 82.0011 60.3838 77.0473 60.3838C76.1421 60.3838 75.2287 60.3262 74.3071 60.211C70.818 59.635 68.012 58.2114 65.8889 55.9402C63.8481 53.6032 62.7866 50.7724 62.7043 47.4479V16.6142H74.2824V45.7446L74.3565 47.0283C74.4058 47.8841 74.554 48.9127 74.8008 50.1141C75.0642 51.3155 75.4756 52.484 76.0352 53.6196C76.6112 54.7388 77.4094 55.6028 78.4298 56.2117C79.0716 56.6067 79.8287 56.8042 80.701 56.8042C81.2112 56.8042 81.7543 56.7384 82.3303 56.6067C86.8726 55.142 90.839 52.1302 94.2293 47.5714V16.6142H105.807V60.4332ZM119.607 60.4332H108.029V16.6142H119.607V31.0806C120.776 29.5171 122.175 27.8714 123.804 26.1433C130.009 19.7906 136.254 16.6142 142.541 16.6142V26.1186L139.233 26.0939C138.032 26.0939 136.575 26.1186 134.864 26.168C133.169 26.2009 131.498 26.3243 129.852 26.5383C128.223 26.7358 127.153 27.0567 126.643 27.5011C123.746 30.3976 121.401 33.3107 119.607 36.2402V60.4332ZM186.829 60.4332H183.571L157.106 0.024712H169.746L189.915 46.0408L210.084 0.024712H213.318L186.829 60.4332ZM227.192 60.5319H215.614V16.7129H227.192V60.5319ZM221.391 11.7509L227.217 5.92484L221.391 0.0987722L215.565 5.92484L221.391 11.7509ZM249.78 60.5319C245.189 60.5319 240.177 59.0589 234.746 56.113C232.936 55.142 231.167 54.1463 229.439 53.1259L234.302 44.5349L236.277 46.6333C237.577 48.0322 239.206 49.6039 241.165 51.3484C243.123 53.093 245.123 54.5742 247.164 55.7921C248.908 56.8618 250.48 57.3967 251.879 57.3967C252.093 57.3967 252.307 57.3802 252.521 57.3473C253.87 57.1334 255.129 56.7548 256.298 56.2117C256.331 56.1788 256.446 56.0554 256.643 55.8414C256.857 55.611 257.055 55.2983 257.236 54.9033C257.417 54.5083 257.507 54.064 257.507 53.5703C257.507 53.5209 257.499 53.3481 257.483 53.0518C257.483 52.7391 257.277 52.2454 256.866 51.5706C256.454 50.8959 255.738 50.1799 254.718 49.4229C253.714 48.6494 252.315 47.8512 250.521 47.0283C248.744 46.2054 246.481 45.3743 243.732 44.5349C239.98 43.3335 237.166 41.6959 235.289 39.6222C233.43 37.5486 232.212 35.3679 231.636 33.0803L231.611 33.0556C231.364 32.1504 231.191 31.2699 231.093 30.4141C230.895 29.295 230.796 28.0195 230.796 26.5876C230.796 21.387 233.068 18.2188 237.61 17.0832C238.713 16.8364 239.963 16.7129 241.362 16.7129C242.267 16.7129 243.14 16.7541 243.979 16.8364C246.579 17.0503 249.172 17.3795 251.755 17.8239L260.346 19.3297L258.594 28.4638L255.853 26.9333C254.01 25.9293 251.797 24.8431 249.213 23.6746C246.629 22.4896 244.127 21.5762 241.708 20.9344C240.49 20.6217 239.412 20.4653 238.474 20.4653C237.536 20.4653 236.729 20.6217 236.055 20.9344L235.314 21.5515C234.59 22.2757 234.228 23.1809 234.228 24.2671C234.228 24.7279 234.359 25.3615 234.623 26.168C234.903 26.9744 235.462 27.7726 236.301 28.5626C237.305 29.4513 238.449 30.1837 239.733 30.7597C241.017 31.3193 242.3 31.8048 243.584 32.2162L254.841 36.1661C256.174 36.594 257.557 37.1453 258.989 37.8201C260.437 38.4949 261.729 39.4248 262.864 40.6097C264.379 42.3213 265.226 44.395 265.407 46.8308L265.432 47.4726C265.432 49.5628 264.905 51.5213 263.852 53.3481C261.531 57.0675 257.919 59.3799 253.014 60.285C251.961 60.4496 250.883 60.5319 249.78 60.5319ZM279.429 60.5319H267.851V16.7129H279.429V60.5319ZM273.628 11.7509L279.454 5.92484L273.628 0.0987722L267.802 5.92484L273.628 11.7509ZM303.548 60.4332C300.619 60.4332 297.829 59.8901 295.179 58.8038C292.53 57.7012 290.16 56.113 288.07 54.0393C285.996 51.9492 284.408 49.5792 283.305 46.9295C282.219 44.2798 281.676 41.4902 281.676 38.5607C281.676 35.6477 282.219 32.8663 283.305 30.2166C284.408 27.5504 285.996 25.1805 288.07 23.1068C290.16 21.0167 292.53 19.4285 295.179 18.3423C297.829 17.2396 300.619 16.6883 303.548 16.6883C306.461 16.6883 309.243 17.2396 311.892 18.3423C314.558 19.4285 316.928 21.0167 319.002 23.1068C321.076 25.1805 322.664 27.5504 323.767 30.2166C324.869 32.8663 325.421 35.6477 325.421 38.5607C325.421 41.4902 324.869 44.2798 323.767 46.9295C322.664 49.5792 321.076 51.9492 319.002 54.0393C316.928 56.113 314.558 57.7012 311.892 58.8038C309.243 59.8901 306.461 60.4332 303.548 60.4332ZM303.721 57.4708C305.614 57.372 307.325 56.4751 308.856 54.7799C310.386 53.0847 311.604 50.8218 312.509 47.991C313.431 45.1438 313.892 42.0004 313.892 38.5607C313.892 35.1375 313.439 32.0187 312.534 29.2044C311.629 26.3737 310.419 24.1107 308.905 22.4156C307.408 20.704 305.721 19.7823 303.844 19.6507H303.227C301.351 19.7823 299.656 20.704 298.142 22.4156C296.644 24.1107 295.443 26.3737 294.538 29.2044C293.649 32.0187 293.204 35.1375 293.204 38.5607C293.204 42.0004 293.657 45.1356 294.562 47.9664C295.467 50.7971 296.677 53.0601 298.191 54.7552C299.722 56.4504 301.433 57.3556 303.326 57.4708H303.721ZM370.745 60.4332H359.167V31.2781L359.093 29.9944C359.044 29.1386 358.888 28.11 358.624 26.9086C358.377 25.7072 357.966 24.5469 357.39 23.4277C356.83 22.3086 356.04 21.4446 355.02 20.8356C354.378 20.4406 353.621 20.2432 352.749 20.2432C352.239 20.2432 351.696 20.309 351.12 20.4406C348.618 21.2306 346.248 22.539 344.01 24.3658C342.298 25.7648 340.702 27.4599 339.221 29.4513V60.4085H327.642V16.7129H339.221V24.8349C340.159 23.831 341.13 22.9093 342.134 22.07C346.692 18.4657 351.44 16.6636 356.378 16.6636C357.299 16.6636 358.229 16.7212 359.167 16.8364C362.64 17.4124 365.438 18.836 367.561 21.1072C369.602 23.4442 370.663 26.2667 370.745 29.5747V60.4332Z" fill="white"/>
</svg>
